G04*
G04 #@! TF.GenerationSoftware,Altium Limited,Altium Designer,20.0.13 (296)*
G04*
G04 Layer_Physical_Order=4*
G04 Layer_Color=16711680*
%FSLAX24Y24*%
%MOIN*%
G70*
G01*
G75*
%ADD10C,0.0100*%
%ADD17C,0.0060*%
%ADD18C,0.0200*%
%ADD59C,0.0150*%
%ADD61C,0.0080*%
%ADD62R,0.0591X0.0591*%
%ADD63C,0.0591*%
%ADD64R,0.0591X0.0591*%
%ADD65C,0.0630*%
%ADD66R,0.0630X0.0630*%
%ADD67R,0.0669X0.0669*%
%ADD68C,0.0669*%
%ADD69O,0.0827X0.0394*%
%ADD70O,0.0630X0.0394*%
%ADD71C,0.0276*%
%ADD72C,0.0472*%
%ADD73C,0.0240*%
%ADD74C,0.0220*%
%ADD84C,0.0600*%
%ADD85C,0.0160*%
G36*
X39425Y0D02*
X25D01*
Y25600D01*
X39425D01*
Y0D01*
D02*
G37*
%LPC*%
G36*
X2615Y24515D02*
X1785D01*
Y23685D01*
X2615D01*
Y24515D01*
D02*
G37*
G36*
X24200Y24519D02*
X24092Y24504D01*
X23991Y24462D01*
X23904Y24396D01*
X23838Y24309D01*
X23796Y24208D01*
X23781Y24100D01*
X23796Y23992D01*
X23838Y23891D01*
X23904Y23804D01*
X23991Y23738D01*
X24092Y23696D01*
X24200Y23681D01*
X24308Y23696D01*
X24409Y23738D01*
X24496Y23804D01*
X24562Y23891D01*
X24604Y23992D01*
X24619Y24100D01*
X24604Y24208D01*
X24562Y24309D01*
X24496Y24396D01*
X24409Y24462D01*
X24308Y24504D01*
X24200Y24519D01*
D02*
G37*
G36*
X23200D02*
X23092Y24504D01*
X22991Y24462D01*
X22904Y24396D01*
X22838Y24309D01*
X22796Y24208D01*
X22781Y24100D01*
X22796Y23992D01*
X22838Y23891D01*
X22904Y23804D01*
X22991Y23738D01*
X23092Y23696D01*
X23200Y23681D01*
X23308Y23696D01*
X23409Y23738D01*
X23496Y23804D01*
X23562Y23891D01*
X23604Y23992D01*
X23619Y24100D01*
X23604Y24208D01*
X23562Y24309D01*
X23496Y24396D01*
X23409Y24462D01*
X23308Y24504D01*
X23200Y24519D01*
D02*
G37*
G36*
X22200D02*
X22092Y24504D01*
X21991Y24462D01*
X21904Y24396D01*
X21838Y24309D01*
X21796Y24208D01*
X21781Y24100D01*
X21796Y23992D01*
X21838Y23891D01*
X21904Y23804D01*
X21991Y23738D01*
X22092Y23696D01*
X22200Y23681D01*
X22308Y23696D01*
X22409Y23738D01*
X22496Y23804D01*
X22562Y23891D01*
X22604Y23992D01*
X22619Y24100D01*
X22604Y24208D01*
X22562Y24309D01*
X22496Y24396D01*
X22409Y24462D01*
X22308Y24504D01*
X22200Y24519D01*
D02*
G37*
G36*
X21200D02*
X21092Y24504D01*
X20991Y24462D01*
X20904Y24396D01*
X20838Y24309D01*
X20796Y24208D01*
X20781Y24100D01*
X20796Y23992D01*
X20838Y23891D01*
X20904Y23804D01*
X20991Y23738D01*
X21092Y23696D01*
X21200Y23681D01*
X21308Y23696D01*
X21409Y23738D01*
X21496Y23804D01*
X21562Y23891D01*
X21604Y23992D01*
X21619Y24100D01*
X21604Y24208D01*
X21562Y24309D01*
X21496Y24396D01*
X21409Y24462D01*
X21308Y24504D01*
X21200Y24519D01*
D02*
G37*
G36*
X20200D02*
X20092Y24504D01*
X19991Y24462D01*
X19904Y24396D01*
X19838Y24309D01*
X19796Y24208D01*
X19781Y24100D01*
X19796Y23992D01*
X19838Y23891D01*
X19904Y23804D01*
X19991Y23738D01*
X20092Y23696D01*
X20200Y23681D01*
X20308Y23696D01*
X20409Y23738D01*
X20496Y23804D01*
X20562Y23891D01*
X20604Y23992D01*
X20619Y24100D01*
X20604Y24208D01*
X20562Y24309D01*
X20496Y24396D01*
X20409Y24462D01*
X20308Y24504D01*
X20200Y24519D01*
D02*
G37*
G36*
X19200D02*
X19092Y24504D01*
X18991Y24462D01*
X18904Y24396D01*
X18838Y24309D01*
X18796Y24208D01*
X18781Y24100D01*
X18796Y23992D01*
X18838Y23891D01*
X18904Y23804D01*
X18991Y23738D01*
X19092Y23696D01*
X19200Y23681D01*
X19308Y23696D01*
X19409Y23738D01*
X19496Y23804D01*
X19562Y23891D01*
X19604Y23992D01*
X19619Y24100D01*
X19604Y24208D01*
X19562Y24309D01*
X19496Y24396D01*
X19409Y24462D01*
X19308Y24504D01*
X19200Y24519D01*
D02*
G37*
G36*
X18200D02*
X18092Y24504D01*
X17991Y24462D01*
X17904Y24396D01*
X17838Y24309D01*
X17796Y24208D01*
X17781Y24100D01*
X17796Y23992D01*
X17838Y23891D01*
X17904Y23804D01*
X17991Y23738D01*
X18092Y23696D01*
X18200Y23681D01*
X18308Y23696D01*
X18409Y23738D01*
X18496Y23804D01*
X18562Y23891D01*
X18604Y23992D01*
X18619Y24100D01*
X18604Y24208D01*
X18562Y24309D01*
X18496Y24396D01*
X18409Y24462D01*
X18308Y24504D01*
X18200Y24519D01*
D02*
G37*
G36*
X16350Y25128D02*
X700D01*
X632Y25115D01*
X574Y25076D01*
X574Y25076D01*
X474Y24976D01*
X435Y24918D01*
X422Y24850D01*
Y14300D01*
X435Y14232D01*
X474Y14174D01*
X1087Y13560D01*
Y13052D01*
X851D01*
Y12222D01*
X1681D01*
Y13052D01*
X1444D01*
Y13634D01*
X1444Y13634D01*
X1431Y13703D01*
X1392Y13760D01*
X1392Y13760D01*
X778Y14374D01*
Y24772D01*
X16276D01*
X16809Y24239D01*
X16796Y24208D01*
X16781Y24100D01*
X16796Y23992D01*
X16838Y23891D01*
X16904Y23804D01*
X16991Y23738D01*
X17092Y23696D01*
X17200Y23681D01*
X17308Y23696D01*
X17409Y23738D01*
X17496Y23804D01*
X17562Y23891D01*
X17604Y23992D01*
X17619Y24100D01*
X17604Y24208D01*
X17562Y24309D01*
X17496Y24396D01*
X17409Y24462D01*
X17308Y24504D01*
X17200Y24519D01*
X17092Y24504D01*
X17061Y24492D01*
X16476Y25076D01*
X16418Y25115D01*
X16350Y25128D01*
D02*
G37*
G36*
X16200Y24519D02*
X16092Y24504D01*
X15991Y24462D01*
X15904Y24396D01*
X15838Y24309D01*
X15796Y24208D01*
X15781Y24100D01*
X15796Y23992D01*
X15838Y23891D01*
X15904Y23804D01*
X15991Y23738D01*
X16092Y23696D01*
X16200Y23681D01*
X16308Y23696D01*
X16409Y23738D01*
X16496Y23804D01*
X16562Y23891D01*
X16604Y23992D01*
X16619Y24100D01*
X16604Y24208D01*
X16562Y24309D01*
X16496Y24396D01*
X16409Y24462D01*
X16308Y24504D01*
X16200Y24519D01*
D02*
G37*
G36*
X15200D02*
X15092Y24504D01*
X14991Y24462D01*
X14904Y24396D01*
X14838Y24309D01*
X14796Y24208D01*
X14781Y24100D01*
X14796Y23992D01*
X14838Y23891D01*
X14904Y23804D01*
X14991Y23738D01*
X15092Y23696D01*
X15200Y23681D01*
X15308Y23696D01*
X15409Y23738D01*
X15496Y23804D01*
X15562Y23891D01*
X15604Y23992D01*
X15619Y24100D01*
X15604Y24208D01*
X15562Y24309D01*
X15496Y24396D01*
X15409Y24462D01*
X15308Y24504D01*
X15200Y24519D01*
D02*
G37*
G36*
X14200D02*
X14092Y24504D01*
X13991Y24462D01*
X13904Y24396D01*
X13838Y24309D01*
X13796Y24208D01*
X13781Y24100D01*
X13796Y23992D01*
X13838Y23891D01*
X13904Y23804D01*
X13991Y23738D01*
X14092Y23696D01*
X14200Y23681D01*
X14308Y23696D01*
X14409Y23738D01*
X14496Y23804D01*
X14562Y23891D01*
X14604Y23992D01*
X14619Y24100D01*
X14604Y24208D01*
X14562Y24309D01*
X14496Y24396D01*
X14409Y24462D01*
X14308Y24504D01*
X14200Y24519D01*
D02*
G37*
G36*
X13200D02*
X13092Y24504D01*
X12991Y24462D01*
X12904Y24396D01*
X12838Y24309D01*
X12796Y24208D01*
X12781Y24100D01*
X12796Y23992D01*
X12838Y23891D01*
X12904Y23804D01*
X12991Y23738D01*
X13092Y23696D01*
X13200Y23681D01*
X13308Y23696D01*
X13409Y23738D01*
X13496Y23804D01*
X13562Y23891D01*
X13604Y23992D01*
X13619Y24100D01*
X13604Y24208D01*
X13562Y24309D01*
X13496Y24396D01*
X13409Y24462D01*
X13308Y24504D01*
X13200Y24519D01*
D02*
G37*
G36*
X12200D02*
X12092Y24504D01*
X11991Y24462D01*
X11904Y24396D01*
X11838Y24309D01*
X11796Y24208D01*
X11781Y24100D01*
X11796Y23992D01*
X11838Y23891D01*
X11904Y23804D01*
X11991Y23738D01*
X12092Y23696D01*
X12200Y23681D01*
X12308Y23696D01*
X12409Y23738D01*
X12496Y23804D01*
X12562Y23891D01*
X12604Y23992D01*
X12619Y24100D01*
X12604Y24208D01*
X12562Y24309D01*
X12496Y24396D01*
X12409Y24462D01*
X12308Y24504D01*
X12200Y24519D01*
D02*
G37*
G36*
X11200D02*
X11092Y24504D01*
X10991Y24462D01*
X10904Y24396D01*
X10838Y24309D01*
X10796Y24208D01*
X10781Y24100D01*
X10796Y23992D01*
X10838Y23891D01*
X10904Y23804D01*
X10991Y23738D01*
X11092Y23696D01*
X11200Y23681D01*
X11308Y23696D01*
X11409Y23738D01*
X11496Y23804D01*
X11562Y23891D01*
X11604Y23992D01*
X11619Y24100D01*
X11604Y24208D01*
X11562Y24309D01*
X11496Y24396D01*
X11409Y24462D01*
X11308Y24504D01*
X11200Y24519D01*
D02*
G37*
G36*
X8200D02*
X8092Y24504D01*
X7991Y24462D01*
X7904Y24396D01*
X7838Y24309D01*
X7796Y24208D01*
X7781Y24100D01*
X7796Y23992D01*
X7838Y23891D01*
X7904Y23804D01*
X7991Y23738D01*
X8092Y23696D01*
X8200Y23681D01*
X8308Y23696D01*
X8409Y23738D01*
X8496Y23804D01*
X8562Y23891D01*
X8604Y23992D01*
X8619Y24100D01*
X8604Y24208D01*
X8562Y24309D01*
X8496Y24396D01*
X8409Y24462D01*
X8308Y24504D01*
X8200Y24519D01*
D02*
G37*
G36*
X7200D02*
X7092Y24504D01*
X6991Y24462D01*
X6904Y24396D01*
X6838Y24309D01*
X6796Y24208D01*
X6781Y24100D01*
X6796Y23992D01*
X6838Y23891D01*
X6904Y23804D01*
X6991Y23738D01*
X7092Y23696D01*
X7200Y23681D01*
X7308Y23696D01*
X7409Y23738D01*
X7496Y23804D01*
X7562Y23891D01*
X7604Y23992D01*
X7619Y24100D01*
X7604Y24208D01*
X7562Y24309D01*
X7496Y24396D01*
X7409Y24462D01*
X7308Y24504D01*
X7200Y24519D01*
D02*
G37*
G36*
X6200D02*
X6092Y24504D01*
X5991Y24462D01*
X5904Y24396D01*
X5838Y24309D01*
X5796Y24208D01*
X5781Y24100D01*
X5796Y23992D01*
X5838Y23891D01*
X5904Y23804D01*
X5991Y23738D01*
X6092Y23696D01*
X6200Y23681D01*
X6308Y23696D01*
X6409Y23738D01*
X6496Y23804D01*
X6562Y23891D01*
X6604Y23992D01*
X6619Y24100D01*
X6604Y24208D01*
X6562Y24309D01*
X6496Y24396D01*
X6409Y24462D01*
X6308Y24504D01*
X6200Y24519D01*
D02*
G37*
G36*
X5200D02*
X5092Y24504D01*
X4991Y24462D01*
X4904Y24396D01*
X4838Y24309D01*
X4796Y24208D01*
X4781Y24100D01*
X4796Y23992D01*
X4838Y23891D01*
X4904Y23804D01*
X4991Y23738D01*
X5092Y23696D01*
X5200Y23681D01*
X5308Y23696D01*
X5409Y23738D01*
X5496Y23804D01*
X5562Y23891D01*
X5604Y23992D01*
X5619Y24100D01*
X5604Y24208D01*
X5562Y24309D01*
X5496Y24396D01*
X5409Y24462D01*
X5308Y24504D01*
X5200Y24519D01*
D02*
G37*
G36*
X4200D02*
X4092Y24504D01*
X3991Y24462D01*
X3904Y24396D01*
X3838Y24309D01*
X3796Y24208D01*
X3781Y24100D01*
X3796Y23992D01*
X3838Y23891D01*
X3904Y23804D01*
X3991Y23738D01*
X4092Y23696D01*
X4200Y23681D01*
X4308Y23696D01*
X4409Y23738D01*
X4496Y23804D01*
X4562Y23891D01*
X4604Y23992D01*
X4619Y24100D01*
X4604Y24208D01*
X4562Y24309D01*
X4496Y24396D01*
X4409Y24462D01*
X4308Y24504D01*
X4200Y24519D01*
D02*
G37*
G36*
X3200D02*
X3092Y24504D01*
X2991Y24462D01*
X2904Y24396D01*
X2838Y24309D01*
X2796Y24208D01*
X2781Y24100D01*
X2796Y23992D01*
X2838Y23891D01*
X2904Y23804D01*
X2991Y23738D01*
X3092Y23696D01*
X3200Y23681D01*
X3308Y23696D01*
X3409Y23738D01*
X3496Y23804D01*
X3562Y23891D01*
X3604Y23992D01*
X3619Y24100D01*
X3604Y24208D01*
X3562Y24309D01*
X3496Y24396D01*
X3409Y24462D01*
X3308Y24504D01*
X3200Y24519D01*
D02*
G37*
G36*
X33300Y24449D02*
X33197Y24435D01*
X33101Y24395D01*
X33018Y24332D01*
X32955Y24249D01*
X32915Y24153D01*
X32901Y24050D01*
X32915Y23947D01*
X32955Y23851D01*
X33018Y23768D01*
X33101Y23705D01*
X33197Y23665D01*
X33300Y23651D01*
X33403Y23665D01*
X33499Y23705D01*
X33582Y23768D01*
X33645Y23851D01*
X33685Y23947D01*
X33699Y24050D01*
X33685Y24153D01*
X33645Y24249D01*
X33582Y24332D01*
X33499Y24395D01*
X33403Y24435D01*
X33300Y24449D01*
D02*
G37*
G36*
X27450D02*
X27347Y24435D01*
X27251Y24395D01*
X27168Y24332D01*
X27105Y24249D01*
X27065Y24153D01*
X27051Y24050D01*
X27065Y23947D01*
X27105Y23851D01*
X27168Y23768D01*
X27251Y23705D01*
X27347Y23665D01*
X27450Y23651D01*
X27553Y23665D01*
X27649Y23705D01*
X27732Y23768D01*
X27795Y23851D01*
X27835Y23947D01*
X27849Y24050D01*
X27835Y24153D01*
X27795Y24249D01*
X27732Y24332D01*
X27649Y24395D01*
X27553Y24435D01*
X27450Y24449D01*
D02*
G37*
G36*
X37700Y24038D02*
X37587Y24023D01*
X37481Y23980D01*
X37390Y23910D01*
X37320Y23819D01*
X37277Y23713D01*
X37262Y23600D01*
X37277Y23487D01*
X37320Y23381D01*
X37390Y23290D01*
X37481Y23220D01*
X37587Y23177D01*
X37700Y23162D01*
X37813Y23177D01*
X37919Y23220D01*
X38010Y23290D01*
X38080Y23381D01*
X38123Y23487D01*
X38138Y23600D01*
X38123Y23713D01*
X38080Y23819D01*
X38010Y23910D01*
X37919Y23980D01*
X37813Y24023D01*
X37700Y24038D01*
D02*
G37*
G36*
X27450Y23449D02*
X27347Y23435D01*
X27251Y23395D01*
X27168Y23332D01*
X27105Y23249D01*
X27065Y23153D01*
X27051Y23050D01*
X27065Y22947D01*
X27084Y22900D01*
X26442Y22258D01*
X26409Y22209D01*
X26397Y22150D01*
Y16150D01*
X26409Y16091D01*
X26442Y16042D01*
X27242Y15242D01*
X27291Y15209D01*
X27350Y15197D01*
X31487D01*
X32597Y14087D01*
Y9613D01*
X32228Y9244D01*
X31543D01*
X31485Y9232D01*
X31435Y9199D01*
X30652Y8416D01*
X30619Y8367D01*
X30607Y8308D01*
Y4940D01*
X30619Y4881D01*
X30652Y4832D01*
X31897Y3587D01*
Y1513D01*
X31737Y1353D01*
X27163D01*
X26716Y1800D01*
X26754Y1892D01*
X26769Y2000D01*
X26754Y2108D01*
X26712Y2209D01*
X26646Y2296D01*
X26559Y2362D01*
X26458Y2404D01*
X26350Y2419D01*
X26242Y2404D01*
X26141Y2362D01*
X26054Y2296D01*
X25988Y2209D01*
X25946Y2108D01*
X25931Y2000D01*
X25946Y1892D01*
X25988Y1791D01*
X26054Y1704D01*
X26141Y1638D01*
X26242Y1596D01*
X26350Y1581D01*
X26458Y1596D01*
X26479Y1604D01*
X26992Y1092D01*
X27041Y1059D01*
X27070Y1053D01*
X27066Y1003D01*
X26563D01*
X25731Y1835D01*
X25754Y1892D01*
X25769Y2000D01*
X25754Y2108D01*
X25712Y2209D01*
X25646Y2296D01*
X25559Y2362D01*
X25458Y2404D01*
X25350Y2419D01*
X25242Y2404D01*
X25141Y2362D01*
X25054Y2296D01*
X24988Y2209D01*
X24946Y2108D01*
X24931Y2000D01*
X24946Y1892D01*
X24988Y1791D01*
X25054Y1704D01*
X25141Y1638D01*
X25242Y1596D01*
X25350Y1581D01*
X25458Y1596D01*
X25515Y1619D01*
X26392Y742D01*
X26441Y709D01*
X26500Y697D01*
X32065D01*
X32123Y709D01*
X32173Y742D01*
X32558Y1127D01*
X32591Y1177D01*
X32603Y1235D01*
Y3800D01*
X32591Y3859D01*
X32558Y3908D01*
X31253Y5213D01*
Y8037D01*
X31763Y8547D01*
X32400D01*
X32459Y8559D01*
X32508Y8592D01*
X33208Y9292D01*
X33241Y9341D01*
X33253Y9400D01*
Y14300D01*
X33241Y14359D01*
X33208Y14408D01*
X31858Y15758D01*
X31809Y15791D01*
X31750Y15803D01*
X27563D01*
X27003Y16363D01*
Y20837D01*
X27047Y20881D01*
X27096Y20871D01*
X27105Y20851D01*
X27168Y20768D01*
X27251Y20705D01*
X27347Y20665D01*
X27450Y20651D01*
X27553Y20665D01*
X27649Y20705D01*
X27732Y20768D01*
X27795Y20851D01*
X27835Y20947D01*
X27849Y21050D01*
X27835Y21153D01*
X27795Y21249D01*
X27732Y21332D01*
X27649Y21395D01*
X27553Y21435D01*
X27450Y21449D01*
X27347Y21435D01*
X27251Y21395D01*
X27168Y21332D01*
X27105Y21249D01*
X27095Y21227D01*
X27059Y21191D01*
X27000Y21203D01*
X26941Y21191D01*
X26892Y21158D01*
X26753Y21019D01*
X26709Y21033D01*
X26703Y21038D01*
Y22087D01*
X27300Y22684D01*
X27347Y22665D01*
X27450Y22651D01*
X27553Y22665D01*
X27649Y22705D01*
X27732Y22768D01*
X27795Y22851D01*
X27835Y22947D01*
X27849Y23050D01*
X27835Y23153D01*
X27795Y23249D01*
X27732Y23332D01*
X27649Y23395D01*
X27553Y23435D01*
X27450Y23449D01*
D02*
G37*
G36*
X37700Y23038D02*
X37587Y23023D01*
X37481Y22980D01*
X37390Y22910D01*
X37320Y22819D01*
X37277Y22713D01*
X37262Y22600D01*
X37277Y22487D01*
X37320Y22381D01*
X37390Y22290D01*
X37481Y22220D01*
X37587Y22177D01*
X37700Y22162D01*
X37813Y22177D01*
X37919Y22220D01*
X38010Y22290D01*
X38080Y22381D01*
X38123Y22487D01*
X38138Y22600D01*
X38123Y22713D01*
X38080Y22819D01*
X38010Y22910D01*
X37919Y22980D01*
X37813Y23023D01*
X37700Y23038D01*
D02*
G37*
G36*
X33300Y22449D02*
X33197Y22435D01*
X33101Y22395D01*
X33018Y22332D01*
X32955Y22249D01*
X32915Y22153D01*
X32901Y22050D01*
X32915Y21947D01*
X32955Y21851D01*
X33018Y21768D01*
X33101Y21705D01*
X33197Y21665D01*
X33300Y21651D01*
X33403Y21665D01*
X33499Y21705D01*
X33582Y21768D01*
X33645Y21851D01*
X33685Y21947D01*
X33699Y22050D01*
X33685Y22153D01*
X33645Y22249D01*
X33582Y22332D01*
X33499Y22395D01*
X33403Y22435D01*
X33300Y22449D01*
D02*
G37*
G36*
Y21449D02*
X33197Y21435D01*
X33101Y21395D01*
X33018Y21332D01*
X32955Y21249D01*
X32915Y21153D01*
X32901Y21050D01*
X32915Y20947D01*
X32955Y20851D01*
X33018Y20768D01*
X33101Y20705D01*
X33197Y20665D01*
X33300Y20651D01*
X33403Y20665D01*
X33499Y20705D01*
X33582Y20768D01*
X33645Y20851D01*
X33685Y20947D01*
X33699Y21050D01*
X33685Y21153D01*
X33645Y21249D01*
X33582Y21332D01*
X33499Y21395D01*
X33403Y21435D01*
X33300Y21449D01*
D02*
G37*
G36*
X3650Y20934D02*
X3580Y20920D01*
X3521Y20880D01*
X3481Y20821D01*
X3467Y20750D01*
X3481Y20680D01*
X3521Y20621D01*
X3580Y20581D01*
X3650Y20567D01*
X3721Y20581D01*
X3780Y20621D01*
X3820Y20680D01*
X3834Y20750D01*
X3820Y20821D01*
X3780Y20880D01*
X3721Y20920D01*
X3650Y20934D01*
D02*
G37*
G36*
X8250Y20934D02*
X8180Y20920D01*
X8120Y20880D01*
X8080Y20820D01*
X8066Y20750D01*
X8080Y20680D01*
X8120Y20620D01*
X8180Y20580D01*
X8250Y20566D01*
X8320Y20580D01*
X8380Y20620D01*
X8420Y20680D01*
X8434Y20750D01*
X8420Y20820D01*
X8380Y20880D01*
X8320Y20920D01*
X8250Y20934D01*
D02*
G37*
G36*
X37700Y21038D02*
X37587Y21023D01*
X37481Y20980D01*
X37390Y20910D01*
X37320Y20819D01*
X37277Y20713D01*
X37262Y20600D01*
X37277Y20487D01*
X37320Y20381D01*
X37390Y20290D01*
X37481Y20220D01*
X37587Y20177D01*
X37700Y20162D01*
X37813Y20177D01*
X37919Y20220D01*
X38010Y20290D01*
X38080Y20381D01*
X38123Y20487D01*
X38138Y20600D01*
X38123Y20713D01*
X38080Y20819D01*
X38010Y20910D01*
X37919Y20980D01*
X37813Y21023D01*
X37700Y21038D01*
D02*
G37*
G36*
X33695Y20445D02*
X32905D01*
Y19655D01*
X33695D01*
Y20445D01*
D02*
G37*
G36*
X27845D02*
X27055D01*
Y19655D01*
X27845D01*
Y20445D01*
D02*
G37*
G36*
X12150Y19734D02*
X12080Y19720D01*
X12020Y19680D01*
X11980Y19620D01*
X11966Y19550D01*
X11980Y19480D01*
X12020Y19420D01*
X12080Y19380D01*
X12150Y19366D01*
X12220Y19380D01*
X12280Y19420D01*
X12320Y19480D01*
X12334Y19550D01*
X12320Y19620D01*
X12280Y19680D01*
X12220Y19720D01*
X12150Y19734D01*
D02*
G37*
G36*
X38135Y20035D02*
X37265D01*
Y19165D01*
X38135D01*
Y20035D01*
D02*
G37*
G36*
X9200Y24519D02*
X9092Y24504D01*
X8991Y24462D01*
X8904Y24396D01*
X8838Y24309D01*
X8796Y24208D01*
X8781Y24100D01*
X8796Y23992D01*
X8838Y23891D01*
X8904Y23804D01*
X8991Y23738D01*
X9016Y23727D01*
Y22476D01*
X7370Y20830D01*
X7330Y20770D01*
X7316Y20700D01*
Y19300D01*
X7330Y19230D01*
X7370Y19170D01*
X7430Y19130D01*
X7500Y19116D01*
X7570Y19130D01*
X7630Y19170D01*
X7670Y19230D01*
X7684Y19300D01*
Y20624D01*
X9330Y22270D01*
X9370Y22330D01*
X9384Y22400D01*
Y23727D01*
X9409Y23738D01*
X9496Y23804D01*
X9562Y23891D01*
X9604Y23992D01*
X9619Y24100D01*
X9604Y24208D01*
X9562Y24309D01*
X9496Y24396D01*
X9409Y24462D01*
X9308Y24504D01*
X9200Y24519D01*
D02*
G37*
G36*
X6600Y19434D02*
X6530Y19420D01*
X6470Y19380D01*
X6430Y19320D01*
X6416Y19250D01*
X6430Y19180D01*
X6470Y19120D01*
X6530Y19080D01*
X6600Y19066D01*
X6670Y19080D01*
X6730Y19120D01*
X6770Y19180D01*
X6784Y19250D01*
X6770Y19320D01*
X6730Y19380D01*
X6670Y19420D01*
X6600Y19434D01*
D02*
G37*
G36*
X5353Y18587D02*
X5283Y18573D01*
X5223Y18533D01*
X5184Y18473D01*
X5170Y18403D01*
X5184Y18333D01*
X5223Y18273D01*
X5283Y18234D01*
X5353Y18220D01*
X5423Y18234D01*
X5483Y18273D01*
X5523Y18333D01*
X5537Y18403D01*
X5523Y18473D01*
X5483Y18533D01*
X5423Y18573D01*
X5353Y18587D01*
D02*
G37*
G36*
X16200Y17984D02*
X16130Y17970D01*
X16070Y17930D01*
X16030Y17870D01*
X16016Y17800D01*
X16030Y17730D01*
X16070Y17670D01*
X16130Y17630D01*
X16200Y17616D01*
X16270Y17630D01*
X16330Y17670D01*
X16370Y17730D01*
X16384Y17800D01*
X16370Y17870D01*
X16330Y17930D01*
X16270Y17970D01*
X16200Y17984D01*
D02*
G37*
G36*
X10200Y24519D02*
X10092Y24504D01*
X9991Y24462D01*
X9904Y24396D01*
X9838Y24309D01*
X9796Y24208D01*
X9781Y24100D01*
X9796Y23992D01*
X9838Y23891D01*
X9904Y23804D01*
X9991Y23738D01*
X10016Y23727D01*
Y22700D01*
X10030Y22630D01*
X10070Y22570D01*
X13241Y19399D01*
Y17670D01*
X13255Y17600D01*
X13295Y17540D01*
X13355Y17500D01*
X13425Y17486D01*
X13495Y17500D01*
X13555Y17540D01*
X13595Y17600D01*
X13609Y17670D01*
Y19475D01*
X13595Y19545D01*
X13555Y19605D01*
X10384Y22776D01*
Y23727D01*
X10409Y23738D01*
X10496Y23804D01*
X10562Y23891D01*
X10604Y23992D01*
X10619Y24100D01*
X10604Y24208D01*
X10562Y24309D01*
X10496Y24396D01*
X10409Y24462D01*
X10308Y24504D01*
X10200Y24519D01*
D02*
G37*
G36*
X4150Y17234D02*
X4080Y17220D01*
X4020Y17180D01*
X3980Y17120D01*
X3966Y17050D01*
X3980Y16980D01*
X4020Y16920D01*
X4080Y16880D01*
X4150Y16866D01*
X4220Y16880D01*
X4280Y16920D01*
X4320Y16980D01*
X4334Y17050D01*
X4320Y17120D01*
X4280Y17180D01*
X4220Y17220D01*
X4150Y17234D01*
D02*
G37*
G36*
X7950Y17034D02*
X7880Y17020D01*
X7820Y16980D01*
X7780Y16920D01*
X7766Y16850D01*
X7780Y16780D01*
X7820Y16720D01*
X7880Y16680D01*
X7950Y16666D01*
X8020Y16680D01*
X8080Y16720D01*
X8120Y16780D01*
X8134Y16850D01*
X8120Y16920D01*
X8080Y16980D01*
X8020Y17020D01*
X7950Y17034D01*
D02*
G37*
G36*
X9807Y20484D02*
X9737Y20470D01*
X9678Y20430D01*
X9638Y20370D01*
X9624Y20300D01*
X9638Y20230D01*
X9678Y20170D01*
X9699Y20156D01*
X10072Y19784D01*
Y18450D01*
X10085Y18382D01*
X10124Y18324D01*
X11824Y16624D01*
X11882Y16585D01*
X11950Y16572D01*
X14274D01*
X14300Y16566D01*
X14370Y16580D01*
X14430Y16620D01*
X14470Y16680D01*
X14484Y16750D01*
X14470Y16820D01*
X14430Y16880D01*
X14370Y16920D01*
X14300Y16934D01*
X14274Y16928D01*
X12024D01*
X10428Y18524D01*
Y19857D01*
X10415Y19926D01*
X10376Y19984D01*
X9952Y20408D01*
X9937Y20430D01*
X9878Y20470D01*
X9807Y20484D01*
D02*
G37*
G36*
X29500Y17754D02*
X29412Y17743D01*
X29330Y17709D01*
X29260Y17655D01*
X29206Y17585D01*
X29172Y17503D01*
X29161Y17415D01*
X29172Y17327D01*
X29206Y17245D01*
X29260Y17175D01*
X29321Y17129D01*
X29325Y17105D01*
Y17095D01*
X29321Y17071D01*
X29260Y17025D01*
X29206Y16955D01*
X29172Y16873D01*
X29161Y16785D01*
X29172Y16697D01*
X29206Y16615D01*
X29260Y16545D01*
X29330Y16491D01*
X29412Y16457D01*
X29500Y16446D01*
X29588Y16457D01*
X29670Y16491D01*
X29740Y16545D01*
X29794Y16615D01*
X29828Y16697D01*
X29839Y16785D01*
X29828Y16873D01*
X29794Y16955D01*
X29740Y17025D01*
X29679Y17071D01*
X29675Y17095D01*
Y17105D01*
X29679Y17129D01*
X29740Y17175D01*
X29794Y17245D01*
X29828Y17327D01*
X29839Y17415D01*
X29828Y17503D01*
X29794Y17585D01*
X29740Y17655D01*
X29670Y17709D01*
X29588Y17743D01*
X29500Y17754D01*
D02*
G37*
G36*
X9800Y19034D02*
X9730Y19020D01*
X9670Y18980D01*
X9630Y18920D01*
X9616Y18850D01*
X9622Y18824D01*
Y18300D01*
X9622Y18300D01*
X9635Y18232D01*
X9674Y18174D01*
X12119Y15728D01*
X12117Y15709D01*
X12102Y15678D01*
X10874D01*
X10276Y16276D01*
X10218Y16315D01*
X10150Y16328D01*
X9576D01*
X9550Y16334D01*
X9480Y16320D01*
X9420Y16280D01*
X9380Y16220D01*
X9366Y16150D01*
X9380Y16080D01*
X9420Y16020D01*
X9480Y15980D01*
X9550Y15966D01*
X9576Y15972D01*
X10076D01*
X10674Y15374D01*
X10732Y15335D01*
X10800Y15322D01*
X10800Y15322D01*
X13673D01*
X13742Y15335D01*
X13799Y15374D01*
X14008Y15582D01*
X14030Y15597D01*
X14070Y15656D01*
X14084Y15727D01*
X14070Y15797D01*
X14030Y15856D01*
X13970Y15896D01*
X13900Y15910D01*
X13830Y15896D01*
X13770Y15856D01*
X13756Y15835D01*
X13599Y15678D01*
X13057D01*
X13045Y15698D01*
X13035Y15728D01*
X13070Y15780D01*
X13084Y15850D01*
X13070Y15920D01*
X13030Y15980D01*
X12970Y16020D01*
X12900Y16034D01*
X12874Y16028D01*
X12324D01*
X9978Y18374D01*
Y18824D01*
X9984Y18850D01*
X9970Y18920D01*
X9930Y18980D01*
X9870Y19020D01*
X9800Y19034D01*
D02*
G37*
G36*
X25000Y15084D02*
X24930Y15070D01*
X24870Y15030D01*
X24830Y14970D01*
X24816Y14900D01*
X24830Y14830D01*
X24847Y14805D01*
Y14628D01*
X24797Y14602D01*
X24770Y14620D01*
X24700Y14634D01*
X24674Y14628D01*
X19868D01*
X19827Y14678D01*
X19834Y14710D01*
X19820Y14780D01*
X19780Y14840D01*
X19720Y14880D01*
X19650Y14894D01*
X19580Y14880D01*
X19520Y14840D01*
X19480Y14780D01*
X19466Y14710D01*
X19473Y14678D01*
X19432Y14628D01*
X13500D01*
X13432Y14615D01*
X13374Y14576D01*
X13374Y14576D01*
X12024Y13226D01*
X11985Y13168D01*
X11972Y13100D01*
Y9226D01*
X11966Y9200D01*
X11980Y9130D01*
X12020Y9070D01*
X12080Y9030D01*
X12150Y9016D01*
X12220Y9030D01*
X12280Y9070D01*
X12320Y9130D01*
X12334Y9200D01*
X12328Y9226D01*
Y13026D01*
X13574Y14272D01*
X15954D01*
X15973Y14225D01*
X15042Y13294D01*
X15020Y13280D01*
X14980Y13220D01*
X14966Y13150D01*
X14980Y13080D01*
X15020Y13020D01*
X15080Y12980D01*
X15150Y12966D01*
X15220Y12980D01*
X15280Y13020D01*
X15294Y13042D01*
X16224Y13972D01*
X21256D01*
X21311Y13935D01*
X21333Y13931D01*
X21333Y13930D01*
X21403Y13916D01*
X21474Y13930D01*
X21533Y13970D01*
X21573Y14030D01*
X21587Y14100D01*
X21573Y14170D01*
X21539Y14222D01*
X21548Y14252D01*
X21561Y14272D01*
X24674D01*
X24700Y14266D01*
X24770Y14280D01*
X24797Y14298D01*
X24847Y14272D01*
Y14250D01*
X24859Y14191D01*
X24892Y14142D01*
X26397Y12637D01*
Y12334D01*
X26347Y12330D01*
X26341Y12359D01*
X26308Y12408D01*
X24675Y14041D01*
X24670Y14070D01*
X24630Y14130D01*
X24570Y14170D01*
X24500Y14184D01*
X24430Y14170D01*
X24370Y14130D01*
X24330Y14070D01*
X24316Y14000D01*
X24330Y13930D01*
X24370Y13870D01*
X24430Y13830D01*
X24459Y13825D01*
X26047Y12237D01*
Y11934D01*
X25997Y11930D01*
X25991Y11959D01*
X25958Y12008D01*
X24431Y13536D01*
X24434Y13550D01*
X24420Y13620D01*
X24380Y13680D01*
X24320Y13720D01*
X24250Y13734D01*
X24180Y13720D01*
X24120Y13680D01*
X24080Y13620D01*
X24066Y13550D01*
X24080Y13480D01*
X24120Y13420D01*
X24127Y13416D01*
X24142Y13393D01*
X24203Y13332D01*
X24205Y13328D01*
X25697Y11837D01*
Y7307D01*
X25709Y7248D01*
X25742Y7198D01*
X28897Y4043D01*
Y2763D01*
X28515Y2381D01*
X28458Y2404D01*
X28350Y2419D01*
X28242Y2404D01*
X28141Y2362D01*
X28054Y2296D01*
X27988Y2209D01*
X27946Y2108D01*
X27931Y2000D01*
X27946Y1892D01*
X27988Y1791D01*
X28054Y1704D01*
X28141Y1638D01*
X28242Y1596D01*
X28350Y1581D01*
X28458Y1596D01*
X28559Y1638D01*
X28646Y1704D01*
X28712Y1791D01*
X28754Y1892D01*
X28769Y2000D01*
X28754Y2108D01*
X28731Y2165D01*
X29158Y2592D01*
X29191Y2641D01*
X29203Y2700D01*
Y4107D01*
X29191Y4165D01*
X29158Y4215D01*
X26003Y7370D01*
Y7566D01*
X26053Y7570D01*
X26059Y7541D01*
X26092Y7492D01*
X29347Y4237D01*
Y2418D01*
X29242Y2404D01*
X29141Y2362D01*
X29054Y2296D01*
X28988Y2209D01*
X28946Y2108D01*
X28931Y2000D01*
X28946Y1892D01*
X28988Y1791D01*
X29054Y1704D01*
X29141Y1638D01*
X29242Y1596D01*
X29350Y1581D01*
X29458Y1596D01*
X29559Y1638D01*
X29646Y1704D01*
X29712Y1791D01*
X29754Y1892D01*
X29769Y2000D01*
X29754Y2108D01*
X29712Y2209D01*
X29652Y2288D01*
X29653Y2293D01*
Y4300D01*
X29641Y4359D01*
X29608Y4408D01*
X26353Y7663D01*
Y7866D01*
X26403Y7870D01*
X26409Y7841D01*
X26442Y7792D01*
X30197Y4037D01*
Y2386D01*
X30141Y2362D01*
X30054Y2296D01*
X29988Y2209D01*
X29946Y2108D01*
X29931Y2000D01*
X29946Y1892D01*
X29988Y1791D01*
X30054Y1704D01*
X30141Y1638D01*
X30242Y1596D01*
X30350Y1581D01*
X30458Y1596D01*
X30559Y1638D01*
X30646Y1704D01*
X30712Y1791D01*
X30754Y1892D01*
X30769Y2000D01*
X30754Y2108D01*
X30712Y2209D01*
X30646Y2296D01*
X30559Y2362D01*
X30503Y2386D01*
Y4100D01*
X30491Y4159D01*
X30458Y4208D01*
X26703Y7963D01*
Y9505D01*
X26705Y9555D01*
X26753Y9555D01*
X27495D01*
Y10345D01*
X26705Y10345D01*
X26703Y10395D01*
Y12700D01*
X26691Y12759D01*
X26658Y12808D01*
X25153Y14313D01*
Y14805D01*
X25170Y14830D01*
X25184Y14900D01*
X25170Y14970D01*
X25130Y15030D01*
X25070Y15070D01*
X25000Y15084D01*
D02*
G37*
G36*
X9350Y14584D02*
X9280Y14570D01*
X9220Y14530D01*
X9180Y14470D01*
X9166Y14400D01*
X9180Y14330D01*
X9220Y14270D01*
X9280Y14230D01*
X9350Y14216D01*
X9420Y14230D01*
X9480Y14270D01*
X9520Y14330D01*
X9534Y14400D01*
X9520Y14470D01*
X9480Y14530D01*
X9420Y14570D01*
X9350Y14584D01*
D02*
G37*
G36*
X27000Y13884D02*
X26930Y13870D01*
X26870Y13830D01*
X26830Y13770D01*
X26816Y13700D01*
X26830Y13630D01*
X26870Y13570D01*
X26930Y13530D01*
X27000Y13516D01*
X27070Y13530D01*
X27130Y13570D01*
X27170Y13630D01*
X27184Y13700D01*
X27170Y13770D01*
X27130Y13830D01*
X27070Y13870D01*
X27000Y13884D01*
D02*
G37*
G36*
X21900Y13634D02*
X21830Y13620D01*
X21770Y13580D01*
X21730Y13520D01*
X21716Y13450D01*
X21730Y13380D01*
X21770Y13320D01*
X21830Y13280D01*
X21900Y13266D01*
X21970Y13280D01*
X22030Y13320D01*
X22070Y13380D01*
X22084Y13450D01*
X22070Y13520D01*
X22030Y13580D01*
X21970Y13620D01*
X21900Y13634D01*
D02*
G37*
G36*
X18450D02*
X18380Y13620D01*
X18320Y13580D01*
X18280Y13520D01*
X18266Y13450D01*
X18280Y13380D01*
X18320Y13320D01*
X18380Y13280D01*
X18450Y13266D01*
X18520Y13280D01*
X18580Y13320D01*
X18620Y13380D01*
X18634Y13450D01*
X18620Y13520D01*
X18580Y13580D01*
X18520Y13620D01*
X18450Y13634D01*
D02*
G37*
G36*
X28300Y13334D02*
X28230Y13320D01*
X28170Y13280D01*
X28130Y13220D01*
X28116Y13150D01*
X28130Y13080D01*
X28170Y13020D01*
X28230Y12980D01*
X28300Y12966D01*
X28370Y12980D01*
X28430Y13020D01*
X28470Y13080D01*
X28484Y13150D01*
X28470Y13220D01*
X28430Y13280D01*
X28370Y13320D01*
X28300Y13334D01*
D02*
G37*
G36*
X20700Y12984D02*
X20630Y12970D01*
X20570Y12930D01*
X20530Y12870D01*
X20516Y12800D01*
X20522Y12774D01*
Y12657D01*
X20502Y12645D01*
X20472Y12635D01*
X20420Y12670D01*
X20350Y12684D01*
X20280Y12670D01*
X20279Y12669D01*
X20257Y12665D01*
X20199Y12626D01*
X20199Y12626D01*
X20152Y12578D01*
X17350D01*
X17282Y12565D01*
X17224Y12526D01*
X17224Y12526D01*
X15424Y10726D01*
X15385Y10668D01*
X15372Y10600D01*
Y3081D01*
X15224Y2933D01*
X15185Y2875D01*
X15172Y2807D01*
Y2375D01*
X15141Y2362D01*
X15054Y2296D01*
X14988Y2209D01*
X14946Y2108D01*
X14931Y2000D01*
X14946Y1892D01*
X14988Y1791D01*
X15054Y1704D01*
X15141Y1638D01*
X15242Y1596D01*
X15350Y1581D01*
X15458Y1596D01*
X15559Y1638D01*
X15646Y1704D01*
X15712Y1791D01*
X15754Y1892D01*
X15769Y2000D01*
X15754Y2108D01*
X15712Y2209D01*
X15646Y2296D01*
X15559Y2362D01*
X15528Y2375D01*
Y2733D01*
X15676Y2881D01*
X15676Y2881D01*
X15715Y2939D01*
X15728Y3007D01*
X15777Y3015D01*
X15778Y3016D01*
X15785Y2982D01*
X15824Y2924D01*
X16172Y2576D01*
Y2375D01*
X16141Y2362D01*
X16054Y2296D01*
X15988Y2209D01*
X15946Y2108D01*
X15931Y2000D01*
X15946Y1892D01*
X15988Y1791D01*
X16054Y1704D01*
X16141Y1638D01*
X16242Y1596D01*
X16350Y1581D01*
X16458Y1596D01*
X16559Y1638D01*
X16646Y1704D01*
X16650Y1709D01*
X16697Y1693D01*
Y1363D01*
X16437Y1103D01*
X14713D01*
X14503Y1313D01*
Y1614D01*
X14559Y1638D01*
X14646Y1704D01*
X14712Y1791D01*
X14754Y1892D01*
X14769Y2000D01*
X14754Y2108D01*
X14731Y2165D01*
X15008Y2442D01*
X15041Y2491D01*
X15053Y2550D01*
Y11400D01*
X15041Y11459D01*
X15008Y11508D01*
X14658Y11858D01*
X14609Y11891D01*
X14550Y11903D01*
X13395D01*
X13370Y11920D01*
X13300Y11934D01*
X13230Y11920D01*
X13170Y11880D01*
X13130Y11820D01*
X13116Y11750D01*
X13130Y11680D01*
X13170Y11620D01*
X13230Y11580D01*
X13300Y11566D01*
X13370Y11580D01*
X13395Y11597D01*
X14487D01*
X14747Y11337D01*
Y2613D01*
X14515Y2381D01*
X14458Y2404D01*
X14350Y2419D01*
X14242Y2404D01*
X14141Y2362D01*
X14054Y2296D01*
X13988Y2209D01*
X13946Y2108D01*
X13931Y2000D01*
X13946Y1892D01*
X13988Y1791D01*
X14054Y1704D01*
X14141Y1638D01*
X14197Y1614D01*
Y1250D01*
X14209Y1191D01*
X14242Y1142D01*
X14542Y842D01*
X14591Y809D01*
X14650Y797D01*
X16500D01*
X16559Y809D01*
X16608Y842D01*
X16958Y1192D01*
X16991Y1241D01*
X17003Y1300D01*
Y1693D01*
X17050Y1709D01*
X17054Y1704D01*
X17141Y1638D01*
X17242Y1596D01*
X17350Y1581D01*
X17458Y1596D01*
X17559Y1638D01*
X17646Y1704D01*
X17712Y1791D01*
X17754Y1892D01*
X17769Y2000D01*
X17754Y2108D01*
X17712Y2209D01*
X17696Y2230D01*
X18813Y3347D01*
X26700D01*
X26713Y3350D01*
X26737Y3303D01*
X26687Y3253D01*
X19500Y3253D01*
X19441Y3241D01*
X19392Y3208D01*
X18550Y2366D01*
X18458Y2404D01*
X18350Y2419D01*
X18242Y2404D01*
X18141Y2362D01*
X18054Y2296D01*
X17988Y2209D01*
X17946Y2108D01*
X17931Y2000D01*
X17946Y1892D01*
X17988Y1791D01*
X18054Y1704D01*
X18141Y1638D01*
X18242Y1596D01*
X18350Y1581D01*
X18458Y1596D01*
X18559Y1638D01*
X18646Y1704D01*
X18712Y1791D01*
X18754Y1892D01*
X18769Y2000D01*
X18754Y2108D01*
X18746Y2129D01*
X19563Y2947D01*
X26750Y2947D01*
X26809Y2959D01*
X26858Y2992D01*
X27513Y3647D01*
X28455D01*
X28480Y3630D01*
X28550Y3616D01*
X28620Y3630D01*
X28680Y3670D01*
X28720Y3730D01*
X28734Y3800D01*
X28720Y3870D01*
X28680Y3930D01*
X28620Y3970D01*
X28550Y3984D01*
X28480Y3970D01*
X28455Y3953D01*
X27450D01*
X27437Y3950D01*
X27413Y3997D01*
X27513Y4097D01*
X28055D01*
X28080Y4080D01*
X28150Y4066D01*
X28220Y4080D01*
X28280Y4120D01*
X28320Y4180D01*
X28334Y4250D01*
X28320Y4320D01*
X28280Y4380D01*
X28220Y4420D01*
X28150Y4434D01*
X28080Y4420D01*
X28055Y4403D01*
X27450D01*
X27391Y4391D01*
X27342Y4358D01*
X26637Y3653D01*
X18750D01*
X18691Y3641D01*
X18642Y3608D01*
X17440Y2407D01*
X17350Y2419D01*
X17242Y2404D01*
X17141Y2362D01*
X17054Y2296D01*
X17050Y2291D01*
X17003Y2307D01*
Y2950D01*
X16991Y3009D01*
X16958Y3058D01*
X16553Y3463D01*
Y10437D01*
X17813Y11697D01*
X17970D01*
X17985Y11647D01*
X17969Y11636D01*
X17930Y11578D01*
X17917Y11510D01*
X17930Y11442D01*
X17969Y11384D01*
X20089Y9264D01*
X20089Y9264D01*
X20147Y9225D01*
X20215Y9212D01*
X20215Y9212D01*
X21770D01*
X21839Y9225D01*
X21896Y9264D01*
X21935Y9322D01*
X21949Y9390D01*
X21935Y9458D01*
X21896Y9516D01*
X21839Y9555D01*
X21770Y9568D01*
X20289D01*
X18221Y11636D01*
X18205Y11647D01*
X18220Y11697D01*
X18837D01*
X19247Y11287D01*
Y11145D01*
X19230Y11120D01*
X19216Y11050D01*
X19230Y10980D01*
X19270Y10920D01*
X19330Y10880D01*
X19400Y10866D01*
X19470Y10880D01*
X19530Y10920D01*
X19570Y10980D01*
X19584Y11050D01*
X19570Y11120D01*
X19553Y11145D01*
Y11350D01*
X19541Y11409D01*
X19508Y11458D01*
X19091Y11875D01*
X19110Y11922D01*
X20350D01*
X20418Y11935D01*
X20476Y11974D01*
X20826Y12324D01*
X20826Y12324D01*
X20865Y12382D01*
X20878Y12450D01*
X20878Y12450D01*
Y12774D01*
X20884Y12800D01*
X20870Y12870D01*
X20830Y12930D01*
X20770Y12970D01*
X20700Y12984D01*
D02*
G37*
G36*
X16250Y12934D02*
X16180Y12920D01*
X16120Y12880D01*
X16080Y12820D01*
X16066Y12750D01*
X16080Y12680D01*
X16120Y12620D01*
X16180Y12580D01*
X16250Y12566D01*
X16320Y12580D01*
X16380Y12620D01*
X16420Y12680D01*
X16434Y12750D01*
X16420Y12820D01*
X16380Y12880D01*
X16320Y12920D01*
X16250Y12934D01*
D02*
G37*
G36*
X22400Y12873D02*
X22334Y12860D01*
X22277Y12823D01*
X22240Y12766D01*
X22227Y12700D01*
X22240Y12634D01*
X22277Y12577D01*
X22334Y12540D01*
X22400Y12527D01*
X22466Y12540D01*
X22523Y12577D01*
X22560Y12634D01*
X22573Y12700D01*
X22560Y12766D01*
X22523Y12823D01*
X22466Y12860D01*
X22400Y12873D01*
D02*
G37*
G36*
X36381Y13302D02*
X35551D01*
Y12472D01*
X36381D01*
Y13302D01*
D02*
G37*
G36*
X21500Y12734D02*
X21430Y12720D01*
X21370Y12680D01*
X21330Y12620D01*
X21316Y12550D01*
X21330Y12480D01*
X21370Y12420D01*
X21430Y12380D01*
X21500Y12366D01*
X21570Y12380D01*
X21630Y12420D01*
X21670Y12480D01*
X21684Y12550D01*
X21670Y12620D01*
X21630Y12680D01*
X21570Y12720D01*
X21500Y12734D01*
D02*
G37*
G36*
X28700Y12234D02*
X28630Y12220D01*
X28570Y12180D01*
X28530Y12120D01*
X28516Y12050D01*
X28530Y11980D01*
X28570Y11920D01*
X28630Y11880D01*
X28700Y11866D01*
X28770Y11880D01*
X28830Y11920D01*
X28870Y11980D01*
X28884Y12050D01*
X28870Y12120D01*
X28830Y12180D01*
X28770Y12220D01*
X28700Y12234D01*
D02*
G37*
G36*
X23200Y14053D02*
X21800D01*
X21741Y14041D01*
X21692Y14008D01*
X21383Y13699D01*
X21323D01*
X21313Y13706D01*
X21246Y13720D01*
X21180Y13706D01*
X21124Y13669D01*
X21086Y13613D01*
X21073Y13546D01*
X21086Y13480D01*
X21124Y13424D01*
X21180Y13386D01*
X21246Y13373D01*
X21313Y13386D01*
X21323Y13393D01*
X21446D01*
X21505Y13405D01*
X21554Y13438D01*
X21863Y13747D01*
X23137D01*
X24925Y11959D01*
X24930Y11930D01*
X24970Y11870D01*
X25030Y11830D01*
X25100Y11816D01*
X25170Y11830D01*
X25230Y11870D01*
X25270Y11930D01*
X25284Y12000D01*
X25270Y12070D01*
X25230Y12130D01*
X25170Y12170D01*
X25141Y12175D01*
X23308Y14008D01*
X23259Y14041D01*
X23200Y14053D01*
D02*
G37*
G36*
X23000Y13403D02*
X22300D01*
X22241Y13391D01*
X22192Y13358D01*
X21896Y13063D01*
X21884Y13060D01*
X21827Y13023D01*
X21790Y12966D01*
X21777Y12900D01*
X21790Y12834D01*
X21827Y12777D01*
X21884Y12740D01*
X21950Y12727D01*
X22016Y12740D01*
X22073Y12777D01*
X22110Y12834D01*
X22113Y12846D01*
X22363Y13097D01*
X22937D01*
X23553Y12480D01*
X23553Y12480D01*
X24125Y11909D01*
X24130Y11880D01*
X24170Y11820D01*
X24230Y11780D01*
X24300Y11766D01*
X24370Y11780D01*
X24430Y11820D01*
X24470Y11880D01*
X24484Y11950D01*
X24470Y12020D01*
X24430Y12080D01*
X24370Y12120D01*
X24341Y12125D01*
X23770Y12697D01*
X23770Y12697D01*
X23108Y13358D01*
X23059Y13391D01*
X23000Y13403D01*
D02*
G37*
G36*
X8000Y12034D02*
X7930Y12020D01*
X7870Y11980D01*
X7830Y11920D01*
X7816Y11850D01*
X7830Y11780D01*
X7870Y11720D01*
X7930Y11680D01*
X8000Y11666D01*
X8070Y11680D01*
X8130Y11720D01*
X8170Y11780D01*
X8184Y11850D01*
X8170Y11920D01*
X8130Y11980D01*
X8070Y12020D01*
X8000Y12034D01*
D02*
G37*
G36*
X9450Y11984D02*
X9380Y11970D01*
X9320Y11930D01*
X9280Y11870D01*
X9266Y11800D01*
X9280Y11730D01*
X9320Y11670D01*
X9380Y11630D01*
X9450Y11616D01*
X9520Y11630D01*
X9580Y11670D01*
X9620Y11730D01*
X9634Y11800D01*
X9620Y11870D01*
X9580Y11930D01*
X9520Y11970D01*
X9450Y11984D01*
D02*
G37*
G36*
X13200Y10934D02*
X13130Y10920D01*
X13070Y10880D01*
X13030Y10820D01*
X13016Y10750D01*
X13030Y10680D01*
X13070Y10620D01*
X13130Y10580D01*
X13200Y10566D01*
X13270Y10580D01*
X13330Y10620D01*
X13370Y10680D01*
X13384Y10750D01*
X13370Y10820D01*
X13330Y10880D01*
X13270Y10920D01*
X13200Y10934D01*
D02*
G37*
G36*
X1225Y10439D02*
X1155Y10425D01*
X1095Y10385D01*
X1055Y10326D01*
X1041Y10256D01*
X1055Y10185D01*
X1095Y10126D01*
X1155Y10086D01*
X1225Y10072D01*
X1295Y10086D01*
X1355Y10126D01*
X1395Y10185D01*
X1409Y10256D01*
X1395Y10326D01*
X1355Y10385D01*
X1295Y10425D01*
X1225Y10439D01*
D02*
G37*
G36*
X23400Y10284D02*
X23330Y10270D01*
X23270Y10230D01*
X23230Y10170D01*
X23216Y10100D01*
X23230Y10030D01*
X23270Y9970D01*
X23330Y9930D01*
X23400Y9916D01*
X23470Y9930D01*
X23530Y9970D01*
X23570Y10030D01*
X23584Y10100D01*
X23570Y10170D01*
X23530Y10230D01*
X23470Y10270D01*
X23400Y10284D01*
D02*
G37*
G36*
X18900D02*
X18830Y10270D01*
X18770Y10230D01*
X18730Y10170D01*
X18716Y10100D01*
X18730Y10030D01*
X18770Y9970D01*
X18830Y9930D01*
X18900Y9916D01*
X18970Y9930D01*
X19030Y9970D01*
X19070Y10030D01*
X19084Y10100D01*
X19070Y10170D01*
X19030Y10230D01*
X18970Y10270D01*
X18900Y10284D01*
D02*
G37*
G36*
X22500Y10084D02*
X22430Y10070D01*
X22370Y10030D01*
X22330Y9970D01*
X22316Y9900D01*
X22330Y9830D01*
X22370Y9770D01*
X22430Y9730D01*
X22500Y9716D01*
X22570Y9730D01*
X22630Y9770D01*
X22670Y9830D01*
X22684Y9900D01*
X22670Y9970D01*
X22630Y10030D01*
X22570Y10070D01*
X22500Y10084D01*
D02*
G37*
G36*
X32100Y10349D02*
X31997Y10335D01*
X31901Y10295D01*
X31818Y10232D01*
X31755Y10149D01*
X31715Y10053D01*
X31701Y9950D01*
X31715Y9847D01*
X31755Y9751D01*
X31818Y9668D01*
X31901Y9605D01*
X31997Y9565D01*
X32100Y9551D01*
X32203Y9565D01*
X32299Y9605D01*
X32382Y9668D01*
X32445Y9751D01*
X32485Y9847D01*
X32499Y9950D01*
X32485Y10053D01*
X32445Y10149D01*
X32382Y10232D01*
X32299Y10295D01*
X32203Y10335D01*
X32100Y10349D01*
D02*
G37*
G36*
X28100D02*
X27997Y10335D01*
X27901Y10295D01*
X27818Y10232D01*
X27755Y10149D01*
X27715Y10053D01*
X27701Y9950D01*
X27715Y9847D01*
X27755Y9751D01*
X27818Y9668D01*
X27901Y9605D01*
X27997Y9565D01*
X28100Y9551D01*
X28203Y9565D01*
X28299Y9605D01*
X28382Y9668D01*
X28445Y9751D01*
X28485Y9847D01*
X28499Y9950D01*
X28485Y10053D01*
X28445Y10149D01*
X28382Y10232D01*
X28299Y10295D01*
X28203Y10335D01*
X28100Y10349D01*
D02*
G37*
G36*
X23000Y9834D02*
X22930Y9820D01*
X22870Y9780D01*
X22830Y9720D01*
X22816Y9650D01*
X22830Y9580D01*
X22870Y9520D01*
X22930Y9480D01*
X23000Y9466D01*
X23070Y9480D01*
X23130Y9520D01*
X23170Y9580D01*
X23184Y9650D01*
X23170Y9720D01*
X23130Y9780D01*
X23070Y9820D01*
X23000Y9834D01*
D02*
G37*
G36*
X30100Y10349D02*
X29997Y10335D01*
X29901Y10295D01*
X29818Y10232D01*
X29755Y10149D01*
X29715Y10053D01*
X29701Y9950D01*
X29715Y9847D01*
X29755Y9751D01*
X29818Y9668D01*
X29901Y9605D01*
X29947Y9586D01*
Y9334D01*
X29897Y9330D01*
X29891Y9359D01*
X29858Y9408D01*
X29466Y9800D01*
X29485Y9847D01*
X29499Y9950D01*
X29485Y10053D01*
X29445Y10149D01*
X29382Y10232D01*
X29299Y10295D01*
X29203Y10335D01*
X29100Y10349D01*
X28997Y10335D01*
X28901Y10295D01*
X28818Y10232D01*
X28755Y10149D01*
X28715Y10053D01*
X28701Y9950D01*
X28715Y9847D01*
X28755Y9751D01*
X28818Y9668D01*
X28901Y9605D01*
X28997Y9565D01*
X29100Y9551D01*
X29203Y9565D01*
X29250Y9584D01*
X29597Y9237D01*
Y5745D01*
X29580Y5720D01*
X29566Y5650D01*
X29580Y5580D01*
X29620Y5520D01*
X29680Y5480D01*
X29750Y5466D01*
X29820Y5480D01*
X29880Y5520D01*
X29897Y5546D01*
X29947Y5531D01*
Y5295D01*
X29930Y5270D01*
X29916Y5200D01*
X29930Y5130D01*
X29970Y5070D01*
X30030Y5030D01*
X30100Y5016D01*
X30170Y5030D01*
X30230Y5070D01*
X30270Y5130D01*
X30284Y5200D01*
X30270Y5270D01*
X30253Y5295D01*
Y9586D01*
X30299Y9605D01*
X30382Y9668D01*
X30445Y9751D01*
X30485Y9847D01*
X30499Y9950D01*
X30485Y10053D01*
X30445Y10149D01*
X30382Y10232D01*
X30299Y10295D01*
X30203Y10335D01*
X30100Y10349D01*
D02*
G37*
G36*
X38450Y9634D02*
X38380Y9620D01*
X38320Y9580D01*
X38280Y9520D01*
X38266Y9450D01*
X38280Y9380D01*
X38320Y9320D01*
X38380Y9280D01*
X38450Y9266D01*
X38520Y9280D01*
X38580Y9320D01*
X38620Y9380D01*
X38634Y9450D01*
X38620Y9520D01*
X38580Y9580D01*
X38520Y9620D01*
X38450Y9634D01*
D02*
G37*
G36*
X9400Y9284D02*
X9330Y9270D01*
X9270Y9230D01*
X9230Y9170D01*
X9216Y9100D01*
X9230Y9030D01*
X9270Y8970D01*
X9330Y8930D01*
X9400Y8916D01*
X9470Y8930D01*
X9530Y8970D01*
X9570Y9030D01*
X9584Y9100D01*
X9570Y9170D01*
X9530Y9230D01*
X9470Y9270D01*
X9400Y9284D01*
D02*
G37*
G36*
X1988Y9370D02*
X1895Y9352D01*
X1817Y9299D01*
X1764Y9221D01*
X1745Y9128D01*
X1764Y9035D01*
X1817Y8957D01*
X1895Y8904D01*
X1988Y8886D01*
X2081Y8904D01*
X2159Y8957D01*
X2212Y9035D01*
X2230Y9128D01*
X2212Y9221D01*
X2159Y9299D01*
X2081Y9352D01*
X1988Y9370D01*
D02*
G37*
G36*
X37479Y8202D02*
X37386Y8183D01*
X37308Y8131D01*
X37255Y8052D01*
X37237Y7959D01*
X37255Y7866D01*
X37308Y7788D01*
X37386Y7735D01*
X37479Y7717D01*
X37572Y7735D01*
X37651Y7788D01*
X37703Y7866D01*
X37722Y7959D01*
X37703Y8052D01*
X37651Y8131D01*
X37572Y8183D01*
X37479Y8202D01*
D02*
G37*
G36*
X600Y8434D02*
X530Y8420D01*
X470Y8380D01*
X430Y8320D01*
X416Y8250D01*
X430Y8180D01*
X470Y8120D01*
X471Y8120D01*
Y7977D01*
X437Y7927D01*
X423Y7856D01*
X437Y7786D01*
X477Y7727D01*
X536Y7687D01*
X606Y7673D01*
X677Y7687D01*
X736Y7727D01*
X776Y7786D01*
X790Y7856D01*
X776Y7927D01*
X736Y7986D01*
X736Y7986D01*
Y8129D01*
X770Y8180D01*
X784Y8250D01*
X770Y8320D01*
X730Y8380D01*
X670Y8420D01*
X600Y8434D01*
D02*
G37*
G36*
X35500Y7834D02*
X35430Y7820D01*
X35370Y7780D01*
X35330Y7720D01*
X35316Y7650D01*
X35330Y7580D01*
X35370Y7520D01*
X35430Y7480D01*
X35500Y7466D01*
X35570Y7480D01*
X35630Y7520D01*
X35670Y7580D01*
X35684Y7650D01*
X35670Y7720D01*
X35630Y7780D01*
X35570Y7820D01*
X35500Y7834D01*
D02*
G37*
G36*
X21545Y9038D02*
X21477Y9025D01*
X21419Y8986D01*
X21380Y8928D01*
X21367Y8860D01*
X21380Y8792D01*
X21419Y8734D01*
X22879Y7274D01*
X22937Y7235D01*
X23005Y7222D01*
X23015Y7224D01*
X23050Y7216D01*
X23120Y7230D01*
X23180Y7270D01*
X23220Y7330D01*
X23234Y7400D01*
X23220Y7470D01*
X23180Y7530D01*
X23120Y7570D01*
X23080Y7578D01*
X21671Y8986D01*
X21613Y9025D01*
X21545Y9038D01*
D02*
G37*
G36*
X875Y7139D02*
X805Y7125D01*
X745Y7085D01*
X705Y7026D01*
X691Y6956D01*
X705Y6885D01*
X745Y6826D01*
X805Y6786D01*
X875Y6772D01*
X945Y6786D01*
X1005Y6826D01*
X1045Y6885D01*
X1059Y6956D01*
X1045Y7026D01*
X1005Y7085D01*
X945Y7125D01*
X875Y7139D01*
D02*
G37*
G36*
X31600Y7084D02*
X31530Y7070D01*
X31470Y7030D01*
X31430Y6970D01*
X31416Y6900D01*
X31430Y6830D01*
X31470Y6770D01*
X31530Y6730D01*
X31600Y6716D01*
X31670Y6730D01*
X31730Y6770D01*
X31770Y6830D01*
X31784Y6900D01*
X31770Y6970D01*
X31730Y7030D01*
X31670Y7070D01*
X31600Y7084D01*
D02*
G37*
G36*
X23900D02*
X23830Y7070D01*
X23770Y7030D01*
X23730Y6970D01*
X23716Y6900D01*
X23730Y6830D01*
X23770Y6770D01*
X23830Y6730D01*
X23900Y6716D01*
X23970Y6730D01*
X24030Y6770D01*
X24070Y6830D01*
X24084Y6900D01*
X24070Y6970D01*
X24030Y7030D01*
X23970Y7070D01*
X23900Y7084D01*
D02*
G37*
G36*
X1988Y7024D02*
X1895Y7006D01*
X1817Y6953D01*
X1764Y6874D01*
X1745Y6782D01*
X1764Y6689D01*
X1817Y6610D01*
X1895Y6558D01*
X1988Y6539D01*
X2081Y6558D01*
X2159Y6610D01*
X2212Y6689D01*
X2230Y6782D01*
X2212Y6874D01*
X2159Y6953D01*
X2081Y7006D01*
X1988Y7024D01*
D02*
G37*
G36*
X35480Y6704D02*
X35409Y6690D01*
X35350Y6650D01*
X35310Y6591D01*
X35296Y6520D01*
X35310Y6450D01*
X35350Y6391D01*
X35409Y6351D01*
X35480Y6337D01*
X35550Y6351D01*
X35609Y6391D01*
X35649Y6450D01*
X35663Y6520D01*
X35649Y6591D01*
X35609Y6650D01*
X35550Y6690D01*
X35480Y6704D01*
D02*
G37*
G36*
X38643Y6167D02*
X38573Y6153D01*
X38513Y6114D01*
X38473Y6054D01*
X38459Y5984D01*
X38473Y5914D01*
X38513Y5854D01*
X38573Y5814D01*
X38643Y5800D01*
X38713Y5814D01*
X38773Y5854D01*
X38812Y5914D01*
X38826Y5984D01*
X38812Y6054D01*
X38773Y6114D01*
X38713Y6153D01*
X38643Y6167D01*
D02*
G37*
G36*
X37479Y5855D02*
X37386Y5837D01*
X37308Y5784D01*
X37255Y5706D01*
X37237Y5613D01*
X37255Y5520D01*
X37308Y5441D01*
X37386Y5389D01*
X37479Y5370D01*
X37572Y5389D01*
X37651Y5441D01*
X37703Y5520D01*
X37722Y5613D01*
X37703Y5706D01*
X37651Y5784D01*
X37572Y5837D01*
X37479Y5855D01*
D02*
G37*
G36*
X9500Y6278D02*
X8750D01*
X8682Y6265D01*
X8624Y6226D01*
X8624Y6226D01*
X8224Y5826D01*
X8185Y5768D01*
X8172Y5700D01*
Y4574D01*
X6824Y3226D01*
X6785Y3168D01*
X6772Y3100D01*
Y1400D01*
X6785Y1332D01*
X6824Y1274D01*
X7374Y724D01*
X7432Y685D01*
X7500Y672D01*
X12050D01*
X12118Y685D01*
X12176Y724D01*
X12426Y974D01*
X12426Y974D01*
X12465Y1032D01*
X12478Y1100D01*
Y1604D01*
X12559Y1638D01*
X12646Y1704D01*
X12712Y1791D01*
X12754Y1892D01*
X12769Y2000D01*
X12754Y2108D01*
X12712Y2209D01*
X12646Y2296D01*
X12559Y2362D01*
X12458Y2404D01*
X12350Y2419D01*
X12242Y2404D01*
X12141Y2362D01*
X12054Y2296D01*
X11988Y2209D01*
X11946Y2108D01*
X11931Y2000D01*
X11946Y1892D01*
X11988Y1791D01*
X12054Y1704D01*
X12122Y1652D01*
Y1174D01*
X11976Y1028D01*
X11398D01*
X11383Y1059D01*
X11381Y1078D01*
X11476Y1174D01*
X11476Y1174D01*
X11515Y1232D01*
X11528Y1300D01*
Y1625D01*
X11559Y1638D01*
X11646Y1704D01*
X11712Y1791D01*
X11754Y1892D01*
X11769Y2000D01*
X11754Y2108D01*
X11712Y2209D01*
X11646Y2296D01*
X11559Y2362D01*
X11458Y2404D01*
X11350Y2419D01*
X11242Y2404D01*
X11141Y2362D01*
X11054Y2296D01*
X10988Y2209D01*
X10946Y2108D01*
X10931Y2000D01*
X10946Y1892D01*
X10988Y1791D01*
X11054Y1704D01*
X11141Y1638D01*
X11172Y1625D01*
Y1378D01*
X7774D01*
X7528Y1624D01*
Y2826D01*
X9226Y4524D01*
X9226Y4524D01*
X9265Y4582D01*
X9278Y4650D01*
X9278Y4650D01*
Y5105D01*
X9495D01*
Y5787D01*
X9541Y5806D01*
X9724Y5624D01*
X9715Y5603D01*
X9701Y5500D01*
X9715Y5397D01*
X9755Y5301D01*
X9818Y5218D01*
X9901Y5155D01*
X9997Y5115D01*
X10100Y5101D01*
X10203Y5115D01*
X10299Y5155D01*
X10382Y5218D01*
X10445Y5301D01*
X10485Y5397D01*
X10499Y5500D01*
X10485Y5603D01*
X10445Y5699D01*
X10382Y5782D01*
X10299Y5845D01*
X10203Y5885D01*
X10100Y5899D01*
X9997Y5885D01*
X9976Y5876D01*
X9626Y6226D01*
X9568Y6265D01*
X9500Y6278D01*
D02*
G37*
G36*
X33950Y9684D02*
X33880Y9670D01*
X33820Y9630D01*
X33780Y9570D01*
X33766Y9500D01*
X33780Y9430D01*
X33797Y9405D01*
Y7850D01*
X33809Y7791D01*
X33842Y7742D01*
X34592Y6992D01*
X34641Y6959D01*
X34700Y6947D01*
X35355D01*
X35380Y6930D01*
X35450Y6916D01*
X35520Y6930D01*
X35545Y6947D01*
X36200D01*
X36259Y6959D01*
X36308Y6992D01*
X36658Y7342D01*
X36691Y7391D01*
X36697Y7420D01*
X36747Y7416D01*
Y6063D01*
X36537Y5853D01*
X35450D01*
X35391Y5841D01*
X35342Y5808D01*
X34613Y5079D01*
X33630D01*
X33606Y5096D01*
X33535Y5110D01*
X33465Y5096D01*
X33406Y5056D01*
X33366Y4996D01*
X33352Y4926D01*
X33366Y4856D01*
X33406Y4796D01*
X33465Y4756D01*
X33535Y4743D01*
X33606Y4756D01*
X33630Y4773D01*
X34676D01*
X34735Y4785D01*
X34784Y4818D01*
X35513Y5547D01*
X36600D01*
X36659Y5559D01*
X36708Y5592D01*
X37008Y5892D01*
X37041Y5941D01*
X37053Y6000D01*
Y8605D01*
X37070Y8630D01*
X37084Y8700D01*
X37070Y8770D01*
X37030Y8830D01*
X36970Y8870D01*
X36900Y8884D01*
X36830Y8870D01*
X36770Y8830D01*
X36730Y8770D01*
X36716Y8700D01*
X36730Y8630D01*
X36747Y8605D01*
Y8219D01*
X36697Y8204D01*
X36680Y8230D01*
X36620Y8270D01*
X36550Y8284D01*
X36480Y8270D01*
X36420Y8230D01*
X36380Y8170D01*
X36366Y8100D01*
X36380Y8030D01*
X36397Y8005D01*
Y7513D01*
X36137Y7253D01*
X35545D01*
X35520Y7270D01*
X35450Y7284D01*
X35380Y7270D01*
X35355Y7253D01*
X34763D01*
X34103Y7913D01*
Y9405D01*
X34120Y9430D01*
X34134Y9500D01*
X34120Y9570D01*
X34080Y9630D01*
X34020Y9670D01*
X33950Y9684D01*
D02*
G37*
G36*
X20800Y4934D02*
X20730Y4920D01*
X20670Y4880D01*
X20630Y4820D01*
X20616Y4750D01*
X20630Y4680D01*
X20670Y4620D01*
X20730Y4580D01*
X20800Y4566D01*
X20870Y4580D01*
X20930Y4620D01*
X20970Y4680D01*
X20984Y4750D01*
X20970Y4820D01*
X20930Y4880D01*
X20870Y4920D01*
X20800Y4934D01*
D02*
G37*
G36*
X26200Y4884D02*
X26130Y4870D01*
X26070Y4830D01*
X26030Y4770D01*
X26016Y4700D01*
X26030Y4630D01*
X26070Y4570D01*
X26130Y4530D01*
X26200Y4516D01*
X26270Y4530D01*
X26330Y4570D01*
X26370Y4630D01*
X26384Y4700D01*
X26370Y4770D01*
X26330Y4830D01*
X26270Y4870D01*
X26200Y4884D01*
D02*
G37*
G36*
X7350Y4584D02*
X7280Y4570D01*
X7220Y4530D01*
X7180Y4470D01*
X7166Y4400D01*
X7180Y4330D01*
X7220Y4270D01*
X7280Y4230D01*
X7350Y4216D01*
X7420Y4230D01*
X7480Y4270D01*
X7520Y4330D01*
X7534Y4400D01*
X7520Y4470D01*
X7480Y4530D01*
X7420Y4570D01*
X7350Y4584D01*
D02*
G37*
G36*
X12100Y5903D02*
X11996Y5890D01*
X11898Y5849D01*
X11815Y5785D01*
X11751Y5702D01*
X11710Y5604D01*
X11697Y5500D01*
Y5067D01*
X11033Y4403D01*
X9900D01*
X9796Y4390D01*
X9698Y4349D01*
X9615Y4285D01*
X9615Y4285D01*
X8080Y2750D01*
X8016Y2667D01*
X7975Y2569D01*
X7962Y2465D01*
X7962Y2465D01*
Y2415D01*
X7935D01*
Y1585D01*
X8765D01*
Y1989D01*
X8768Y2015D01*
X8768Y2015D01*
Y2298D01*
X10067Y3597D01*
X11200D01*
X11200Y3597D01*
X11304Y3610D01*
X11402Y3651D01*
X11485Y3715D01*
X12385Y4615D01*
X12385Y4615D01*
X12449Y4698D01*
X12490Y4796D01*
X12503Y4900D01*
Y5500D01*
X12490Y5604D01*
X12449Y5702D01*
X12385Y5785D01*
X12302Y5849D01*
X12204Y5890D01*
X12100Y5903D01*
D02*
G37*
G36*
X35849Y3003D02*
X35839Y3003D01*
X35838Y3003D01*
X35836Y3003D01*
X35826Y3003D01*
X35825Y3002D01*
X35824Y3002D01*
X35814Y3002D01*
X35812Y3001D01*
X35811Y3002D01*
X35801Y3001D01*
X35800Y3000D01*
X35799Y3000D01*
X35789Y2999D01*
X35787Y2999D01*
X35786Y2999D01*
X35776Y2998D01*
X35775Y2997D01*
X35774Y2997D01*
X35764Y2996D01*
X35763Y2995D01*
X35761Y2995D01*
X35752Y2993D01*
X35750Y2993D01*
X35749Y2993D01*
X35739Y2991D01*
X35738Y2990D01*
X35737Y2990D01*
X35727Y2988D01*
X35726Y2987D01*
X35724Y2987D01*
X35715Y2984D01*
X35714Y2984D01*
X35712Y2984D01*
X35703Y2981D01*
X35702Y2980D01*
X35700Y2980D01*
X35691Y2977D01*
X35690Y2976D01*
X35688Y2976D01*
X35679Y2973D01*
X35678Y2972D01*
X35677Y2972D01*
X35667Y2968D01*
X35666Y2968D01*
X35665Y2967D01*
X35656Y2963D01*
X35655Y2963D01*
X35653Y2962D01*
X35644Y2958D01*
X35643Y2958D01*
X35642Y2957D01*
X35633Y2953D01*
X35632Y2952D01*
X35631Y2952D01*
X35622Y2947D01*
X35621Y2947D01*
X35619Y2946D01*
X35611Y2942D01*
X35610Y2941D01*
X35608Y2940D01*
X35600Y2935D01*
X35599Y2934D01*
X35598Y2934D01*
X35589Y2929D01*
X35588Y2928D01*
X35587Y2927D01*
X35578Y2922D01*
X35577Y2921D01*
X35576Y2921D01*
X35568Y2915D01*
X35567Y2914D01*
X35566Y2914D01*
X35558Y2908D01*
X35557Y2907D01*
X35556Y2906D01*
X35548Y2900D01*
X35547Y2899D01*
X35546Y2899D01*
X35538Y2892D01*
X35537Y2891D01*
X35536Y2891D01*
X35528Y2884D01*
X35527Y2883D01*
X35526Y2883D01*
X35519Y2876D01*
X35518Y2875D01*
X35517Y2874D01*
X35510Y2868D01*
X35509Y2867D01*
X35508Y2866D01*
X35501Y2859D01*
X35500Y2858D01*
X35499Y2857D01*
X35492Y2850D01*
X35491Y2849D01*
X35490Y2848D01*
X35483Y2841D01*
X35482Y2840D01*
X35481Y2839D01*
X35475Y2831D01*
X35474Y2830D01*
X35473Y2829D01*
X35467Y2822D01*
X35466Y2821D01*
X35465Y2820D01*
X35459Y2812D01*
X35458Y2811D01*
X35457Y2810D01*
X35451Y2802D01*
X35451Y2801D01*
X35450Y2800D01*
X35444Y2792D01*
X35443Y2790D01*
X35442Y2790D01*
X35437Y2781D01*
X35436Y2780D01*
X35436Y2779D01*
X35430Y2771D01*
X35430Y2770D01*
X35429Y2769D01*
X35424Y2760D01*
X35423Y2759D01*
X35422Y2758D01*
X35417Y2749D01*
X35417Y2748D01*
X35416Y2747D01*
X35411Y2738D01*
X35411Y2737D01*
X35410Y2736D01*
X35406Y2727D01*
X35405Y2726D01*
X35404Y2725D01*
X35400Y2716D01*
X35400Y2714D01*
X35399Y2713D01*
X35395Y2704D01*
X35395Y2703D01*
X35394Y2702D01*
X35390Y2693D01*
X35390Y2691D01*
X35389Y2690D01*
X35386Y2681D01*
X35385Y2680D01*
X35385Y2678D01*
X35381Y2669D01*
X35381Y2668D01*
X35381Y2667D01*
X35378Y2657D01*
X35377Y2656D01*
X35377Y2655D01*
X35374Y2645D01*
X35374Y2644D01*
X35373Y2643D01*
X35371Y2633D01*
X35370Y2632D01*
X35370Y2630D01*
X35368Y2621D01*
X35367Y2620D01*
X35367Y2618D01*
X35365Y2609D01*
X35365Y2607D01*
X35364Y2606D01*
X35362Y2596D01*
X35362Y2595D01*
X35362Y2594D01*
X35360Y2584D01*
X35360Y2583D01*
X35360Y2581D01*
X35359Y2571D01*
X35359Y2570D01*
X35358Y2569D01*
X35357Y2559D01*
X35357Y2558D01*
X35357Y2556D01*
X35356Y2546D01*
X35356Y2545D01*
X35356Y2544D01*
X35355Y2534D01*
X35355Y2533D01*
X35355Y2531D01*
X35355Y2521D01*
X35355Y2520D01*
X35355Y2519D01*
X35354Y2509D01*
X35355Y2508D01*
X35354Y2508D01*
X35354Y2193D01*
X35355Y2192D01*
X35354Y2191D01*
X35355Y2181D01*
X35355Y2180D01*
X35355Y2179D01*
X35355Y2169D01*
X35355Y2168D01*
X35355Y2166D01*
X35356Y2156D01*
X35356Y2155D01*
X35356Y2154D01*
X35357Y2144D01*
X35357Y2142D01*
X35357Y2141D01*
X35358Y2131D01*
X35359Y2130D01*
X35359Y2129D01*
X35360Y2119D01*
X35360Y2117D01*
X35360Y2116D01*
X35362Y2106D01*
X35362Y2105D01*
X35362Y2104D01*
X35364Y2094D01*
X35365Y2093D01*
X35365Y2091D01*
X35367Y2082D01*
X35367Y2081D01*
X35368Y2079D01*
X35370Y2070D01*
X35370Y2068D01*
X35371Y2067D01*
X35373Y2058D01*
X35374Y2056D01*
X35374Y2055D01*
X35377Y2045D01*
X35377Y2044D01*
X35378Y2043D01*
X35381Y2033D01*
X35381Y2032D01*
X35381Y2031D01*
X35385Y2022D01*
X35385Y2021D01*
X35386Y2019D01*
X35389Y2010D01*
X35390Y2009D01*
X35390Y2007D01*
X35394Y1998D01*
X35395Y1997D01*
X35395Y1996D01*
X35399Y1987D01*
X35400Y1986D01*
X35400Y1984D01*
X35404Y1975D01*
X35405Y1974D01*
X35406Y1973D01*
X35410Y1964D01*
X35411Y1963D01*
X35411Y1962D01*
X35416Y1953D01*
X35417Y1952D01*
X35417Y1951D01*
X35422Y1942D01*
X35423Y1941D01*
X35424Y1940D01*
X35429Y1931D01*
X35430Y1931D01*
X35430Y1929D01*
X35435Y1921D01*
X35436Y1920D01*
X35437Y1919D01*
X35443Y1910D01*
X35443Y1910D01*
X35444Y1908D01*
X35450Y1900D01*
X35451Y1899D01*
X35451Y1898D01*
X35457Y1890D01*
X35458Y1889D01*
X35459Y1888D01*
X35465Y1880D01*
X35466Y1880D01*
X35467Y1878D01*
X35473Y1871D01*
X35474Y1870D01*
X35475Y1869D01*
X35481Y1861D01*
X35482Y1860D01*
X35483Y1859D01*
X35490Y1852D01*
X35491Y1851D01*
X35492Y1850D01*
X35499Y1843D01*
X35500Y1842D01*
X35500Y1841D01*
X35508Y1834D01*
X35509Y1833D01*
X35510Y1832D01*
X35517Y1826D01*
X35518Y1825D01*
X35519Y1824D01*
X35526Y1817D01*
X35527Y1817D01*
X35528Y1816D01*
X35536Y1809D01*
X35537Y1809D01*
X35538Y1808D01*
X35546Y1801D01*
X35547Y1801D01*
X35548Y1800D01*
X35556Y1794D01*
X35557Y1793D01*
X35558Y1792D01*
X35566Y1786D01*
X35567Y1786D01*
X35568Y1785D01*
X35576Y1779D01*
X35577Y1779D01*
X35578Y1778D01*
X35587Y1773D01*
X35588Y1772D01*
X35589Y1771D01*
X35597Y1766D01*
X35599Y1766D01*
X35600Y1765D01*
X35608Y1760D01*
X35610Y1759D01*
X35611Y1759D01*
X35619Y1754D01*
X35621Y1753D01*
X35622Y1753D01*
X35631Y1748D01*
X35632Y1748D01*
X35633Y1747D01*
X35642Y1743D01*
X35643Y1742D01*
X35644Y1742D01*
X35653Y1738D01*
X35655Y1737D01*
X35656Y1737D01*
X35665Y1733D01*
X35666Y1732D01*
X35667Y1732D01*
X35677Y1728D01*
X35678Y1728D01*
X35679Y1727D01*
X35688Y1724D01*
X35690Y1724D01*
X35691Y1723D01*
X35701Y1720D01*
X35702Y1720D01*
X35703Y1719D01*
X35712Y1716D01*
X35714Y1716D01*
X35715Y1716D01*
X35725Y1713D01*
X35726Y1713D01*
X35727Y1712D01*
X35737Y1710D01*
X35738Y1710D01*
X35739Y1709D01*
X35749Y1707D01*
X35750Y1707D01*
X35752Y1707D01*
X35761Y1705D01*
X35763Y1705D01*
X35764Y1704D01*
X35774Y1703D01*
X35775Y1703D01*
X35776Y1702D01*
X35786Y1701D01*
X35787Y1701D01*
X35789Y1701D01*
X35799Y1700D01*
X35800Y1700D01*
X35801Y1699D01*
X35811Y1698D01*
X35812Y1699D01*
X35814Y1698D01*
X35824Y1698D01*
X35825Y1698D01*
X35826Y1697D01*
X35836Y1697D01*
X35837Y1697D01*
X35839Y1697D01*
X35849Y1697D01*
X35850Y1697D01*
X35851Y1697D01*
X35861Y1697D01*
X35863Y1697D01*
X35864Y1697D01*
X35874Y1697D01*
X35875Y1698D01*
X35876Y1698D01*
X35886Y1698D01*
X35888Y1699D01*
X35889Y1698D01*
X35899Y1699D01*
X35900Y1700D01*
X35902Y1700D01*
X35911Y1701D01*
X35913Y1701D01*
X35914Y1701D01*
X35924Y1702D01*
X35925Y1703D01*
X35926Y1703D01*
X35936Y1704D01*
X35937Y1705D01*
X35939Y1705D01*
X35949Y1707D01*
X35950Y1707D01*
X35951Y1707D01*
X35961Y1709D01*
X35962Y1710D01*
X35963Y1710D01*
X35973Y1712D01*
X35974Y1713D01*
X35976Y1713D01*
X35985Y1716D01*
X35986Y1716D01*
X35988Y1716D01*
X35997Y1719D01*
X35998Y1720D01*
X36000Y1720D01*
X36009Y1723D01*
X36010Y1724D01*
X36012Y1724D01*
X36021Y1727D01*
X36022Y1728D01*
X36023Y1728D01*
X36033Y1732D01*
X36034Y1732D01*
X36035Y1733D01*
X36044Y1737D01*
X36045Y1737D01*
X36047Y1738D01*
X36056Y1742D01*
X36057Y1742D01*
X36058Y1743D01*
X36067Y1747D01*
X36068Y1748D01*
X36069Y1748D01*
X36078Y1753D01*
X36079Y1753D01*
X36081Y1754D01*
X36089Y1759D01*
X36090Y1759D01*
X36092Y1760D01*
X36100Y1765D01*
X36101Y1766D01*
X36103Y1766D01*
X36111Y1771D01*
X36112Y1772D01*
X36113Y1773D01*
X36122Y1778D01*
X36123Y1779D01*
X36124Y1779D01*
X36132Y1785D01*
X36133Y1786D01*
X36134Y1786D01*
X36142Y1792D01*
X36143Y1793D01*
X36144Y1794D01*
X36152Y1800D01*
X36153Y1801D01*
X36154Y1801D01*
X36162Y1808D01*
X36163Y1809D01*
X36164Y1809D01*
X36172Y1816D01*
X36173Y1817D01*
X36174Y1817D01*
X36181Y1824D01*
X36182Y1825D01*
X36183Y1826D01*
X36191Y1832D01*
X36191Y1833D01*
X36193Y1834D01*
X36200Y1841D01*
X36200Y1842D01*
X36201Y1843D01*
X36208Y1850D01*
X36209Y1851D01*
X36210Y1852D01*
X36217Y1859D01*
X36218Y1860D01*
X36219Y1861D01*
X36225Y1869D01*
X36226Y1870D01*
X36227Y1871D01*
X36233Y1878D01*
X36234Y1879D01*
X36235Y1880D01*
X36241Y1888D01*
X36242Y1889D01*
X36243Y1890D01*
X36249Y1898D01*
X36249Y1899D01*
X36250Y1900D01*
X36256Y1908D01*
X36257Y1910D01*
X36258Y1910D01*
X36263Y1919D01*
X36264Y1920D01*
X36265Y1921D01*
X36270Y1929D01*
X36270Y1930D01*
X36271Y1931D01*
X36277Y1940D01*
X36277Y1941D01*
X36278Y1942D01*
X36283Y1951D01*
X36283Y1952D01*
X36284Y1953D01*
X36289Y1962D01*
X36289Y1963D01*
X36290Y1964D01*
X36294Y1973D01*
X36295Y1974D01*
X36296Y1975D01*
X36300Y1984D01*
X36300Y1986D01*
X36301Y1987D01*
X36305Y1996D01*
X36305Y1997D01*
X36306Y1998D01*
X36310Y2007D01*
X36310Y2009D01*
X36311Y2010D01*
X36314Y2019D01*
X36315Y2020D01*
X36315Y2022D01*
X36319Y2031D01*
X36319Y2032D01*
X36319Y2033D01*
X36323Y2043D01*
X36323Y2044D01*
X36323Y2045D01*
X36326Y2055D01*
X36326Y2056D01*
X36327Y2057D01*
X36330Y2067D01*
X36330Y2068D01*
X36330Y2070D01*
X36333Y2079D01*
X36333Y2081D01*
X36333Y2082D01*
X36335Y2092D01*
X36335Y2093D01*
X36336Y2094D01*
X36338Y2104D01*
X36338Y2105D01*
X36338Y2106D01*
X36340Y2116D01*
X36340Y2118D01*
X36340Y2119D01*
X36342Y2129D01*
X36341Y2130D01*
X36342Y2131D01*
X36343Y2141D01*
X36343Y2142D01*
X36343Y2144D01*
X36344Y2154D01*
X36344Y2155D01*
X36344Y2156D01*
X36345Y2166D01*
X36345Y2167D01*
X36345Y2169D01*
X36346Y2179D01*
X36345Y2180D01*
X36346Y2181D01*
X36346Y2191D01*
X36346Y2192D01*
X36346Y2193D01*
X36346Y2508D01*
X36346Y2508D01*
X36346Y2509D01*
X36346Y2519D01*
X36345Y2520D01*
X36346Y2521D01*
X36345Y2531D01*
X36345Y2533D01*
X36345Y2534D01*
X36344Y2544D01*
X36344Y2545D01*
X36344Y2546D01*
X36343Y2556D01*
X36343Y2558D01*
X36343Y2559D01*
X36342Y2569D01*
X36342Y2570D01*
X36342Y2571D01*
X36340Y2581D01*
X36340Y2583D01*
X36340Y2584D01*
X36338Y2594D01*
X36338Y2595D01*
X36338Y2596D01*
X36336Y2606D01*
X36335Y2607D01*
X36335Y2609D01*
X36333Y2618D01*
X36333Y2619D01*
X36333Y2621D01*
X36330Y2631D01*
X36330Y2632D01*
X36330Y2633D01*
X36327Y2643D01*
X36326Y2644D01*
X36326Y2645D01*
X36323Y2655D01*
X36323Y2656D01*
X36323Y2657D01*
X36319Y2667D01*
X36319Y2668D01*
X36319Y2669D01*
X36315Y2678D01*
X36315Y2680D01*
X36314Y2681D01*
X36311Y2690D01*
X36310Y2691D01*
X36310Y2693D01*
X36306Y2702D01*
X36305Y2703D01*
X36305Y2704D01*
X36301Y2713D01*
X36300Y2714D01*
X36300Y2716D01*
X36296Y2725D01*
X36295Y2726D01*
X36294Y2727D01*
X36290Y2736D01*
X36289Y2737D01*
X36289Y2738D01*
X36284Y2747D01*
X36283Y2748D01*
X36283Y2749D01*
X36278Y2758D01*
X36277Y2759D01*
X36277Y2760D01*
X36271Y2769D01*
X36270Y2770D01*
X36270Y2771D01*
X36265Y2779D01*
X36264Y2780D01*
X36263Y2781D01*
X36258Y2790D01*
X36257Y2790D01*
X36256Y2792D01*
X36250Y2800D01*
X36249Y2801D01*
X36249Y2802D01*
X36243Y2810D01*
X36242Y2811D01*
X36241Y2812D01*
X36235Y2820D01*
X36234Y2821D01*
X36233Y2822D01*
X36227Y2829D01*
X36226Y2830D01*
X36225Y2831D01*
X36219Y2839D01*
X36218Y2840D01*
X36217Y2841D01*
X36210Y2848D01*
X36209Y2849D01*
X36208Y2850D01*
X36201Y2857D01*
X36200Y2858D01*
X36200Y2859D01*
X36193Y2866D01*
X36191Y2867D01*
X36191Y2868D01*
X36183Y2874D01*
X36182Y2875D01*
X36181Y2876D01*
X36174Y2883D01*
X36173Y2883D01*
X36172Y2884D01*
X36164Y2891D01*
X36163Y2891D01*
X36162Y2892D01*
X36154Y2899D01*
X36153Y2899D01*
X36152Y2900D01*
X36144Y2906D01*
X36143Y2907D01*
X36142Y2908D01*
X36134Y2914D01*
X36133Y2914D01*
X36132Y2915D01*
X36124Y2921D01*
X36123Y2921D01*
X36122Y2922D01*
X36113Y2927D01*
X36112Y2928D01*
X36111Y2929D01*
X36103Y2934D01*
X36101Y2934D01*
X36100Y2935D01*
X36092Y2940D01*
X36090Y2941D01*
X36090Y2941D01*
X36081Y2946D01*
X36079Y2947D01*
X36078Y2947D01*
X36069Y2952D01*
X36068Y2952D01*
X36067Y2953D01*
X36058Y2957D01*
X36057Y2958D01*
X36056Y2958D01*
X36047Y2963D01*
X36045Y2963D01*
X36044Y2963D01*
X36035Y2967D01*
X36034Y2968D01*
X36033Y2968D01*
X36023Y2972D01*
X36022Y2972D01*
X36021Y2973D01*
X36012Y2976D01*
X36010Y2976D01*
X36009Y2977D01*
X36000Y2980D01*
X35998Y2980D01*
X35997Y2981D01*
X35988Y2984D01*
X35986Y2984D01*
X35985Y2984D01*
X35975Y2987D01*
X35974Y2987D01*
X35973Y2988D01*
X35963Y2990D01*
X35962Y2990D01*
X35961Y2991D01*
X35951Y2993D01*
X35950Y2993D01*
X35949Y2993D01*
X35939Y2995D01*
X35937Y2995D01*
X35936Y2996D01*
X35926Y2997D01*
X35925Y2997D01*
X35924Y2998D01*
X35914Y2999D01*
X35913Y2999D01*
X35911Y2999D01*
X35901Y3000D01*
X35900Y3000D01*
X35899Y3001D01*
X35889Y3002D01*
X35888Y3001D01*
X35886Y3002D01*
X35876Y3002D01*
X35875Y3002D01*
X35874Y3003D01*
X35864Y3003D01*
X35863Y3003D01*
X35861Y3003D01*
X35851Y3003D01*
X35850Y3003D01*
X35849Y3003D01*
D02*
G37*
G36*
X27350Y2419D02*
X27242Y2404D01*
X27141Y2362D01*
X27054Y2296D01*
X26988Y2209D01*
X26946Y2108D01*
X26931Y2000D01*
X26946Y1892D01*
X26988Y1791D01*
X27054Y1704D01*
X27141Y1638D01*
X27242Y1596D01*
X27350Y1581D01*
X27458Y1596D01*
X27559Y1638D01*
X27646Y1704D01*
X27712Y1791D01*
X27754Y1892D01*
X27769Y2000D01*
X27754Y2108D01*
X27712Y2209D01*
X27646Y2296D01*
X27559Y2362D01*
X27458Y2404D01*
X27350Y2419D01*
D02*
G37*
G36*
X24350D02*
X24242Y2404D01*
X24141Y2362D01*
X24054Y2296D01*
X23988Y2209D01*
X23946Y2108D01*
X23931Y2000D01*
X23946Y1892D01*
X23988Y1791D01*
X24054Y1704D01*
X24141Y1638D01*
X24242Y1596D01*
X24350Y1581D01*
X24458Y1596D01*
X24559Y1638D01*
X24646Y1704D01*
X24712Y1791D01*
X24754Y1892D01*
X24769Y2000D01*
X24754Y2108D01*
X24712Y2209D01*
X24646Y2296D01*
X24559Y2362D01*
X24458Y2404D01*
X24350Y2419D01*
D02*
G37*
G36*
X23350D02*
X23242Y2404D01*
X23141Y2362D01*
X23054Y2296D01*
X22988Y2209D01*
X22946Y2108D01*
X22931Y2000D01*
X22946Y1892D01*
X22988Y1791D01*
X23054Y1704D01*
X23141Y1638D01*
X23242Y1596D01*
X23350Y1581D01*
X23458Y1596D01*
X23559Y1638D01*
X23646Y1704D01*
X23712Y1791D01*
X23754Y1892D01*
X23769Y2000D01*
X23754Y2108D01*
X23712Y2209D01*
X23646Y2296D01*
X23559Y2362D01*
X23458Y2404D01*
X23350Y2419D01*
D02*
G37*
G36*
X22350D02*
X22242Y2404D01*
X22141Y2362D01*
X22054Y2296D01*
X21988Y2209D01*
X21946Y2108D01*
X21931Y2000D01*
X21946Y1892D01*
X21988Y1791D01*
X22054Y1704D01*
X22141Y1638D01*
X22242Y1596D01*
X22350Y1581D01*
X22458Y1596D01*
X22559Y1638D01*
X22646Y1704D01*
X22712Y1791D01*
X22754Y1892D01*
X22769Y2000D01*
X22754Y2108D01*
X22712Y2209D01*
X22646Y2296D01*
X22559Y2362D01*
X22458Y2404D01*
X22350Y2419D01*
D02*
G37*
G36*
X21350D02*
X21242Y2404D01*
X21141Y2362D01*
X21054Y2296D01*
X20988Y2209D01*
X20946Y2108D01*
X20931Y2000D01*
X20946Y1892D01*
X20988Y1791D01*
X21054Y1704D01*
X21141Y1638D01*
X21242Y1596D01*
X21350Y1581D01*
X21458Y1596D01*
X21559Y1638D01*
X21646Y1704D01*
X21712Y1791D01*
X21754Y1892D01*
X21769Y2000D01*
X21754Y2108D01*
X21712Y2209D01*
X21646Y2296D01*
X21559Y2362D01*
X21458Y2404D01*
X21350Y2419D01*
D02*
G37*
G36*
X20350D02*
X20242Y2404D01*
X20141Y2362D01*
X20054Y2296D01*
X19988Y2209D01*
X19946Y2108D01*
X19931Y2000D01*
X19946Y1892D01*
X19988Y1791D01*
X20054Y1704D01*
X20141Y1638D01*
X20242Y1596D01*
X20350Y1581D01*
X20458Y1596D01*
X20559Y1638D01*
X20646Y1704D01*
X20712Y1791D01*
X20754Y1892D01*
X20769Y2000D01*
X20754Y2108D01*
X20712Y2209D01*
X20646Y2296D01*
X20559Y2362D01*
X20458Y2404D01*
X20350Y2419D01*
D02*
G37*
G36*
X19350D02*
X19242Y2404D01*
X19141Y2362D01*
X19054Y2296D01*
X18988Y2209D01*
X18946Y2108D01*
X18931Y2000D01*
X18946Y1892D01*
X18988Y1791D01*
X19054Y1704D01*
X19141Y1638D01*
X19242Y1596D01*
X19350Y1581D01*
X19458Y1596D01*
X19559Y1638D01*
X19646Y1704D01*
X19712Y1791D01*
X19754Y1892D01*
X19769Y2000D01*
X19754Y2108D01*
X19712Y2209D01*
X19646Y2296D01*
X19559Y2362D01*
X19458Y2404D01*
X19350Y2419D01*
D02*
G37*
G36*
X14425Y8068D02*
X14357Y8055D01*
X14299Y8016D01*
X13224Y6941D01*
X13185Y6883D01*
X13172Y6815D01*
Y2375D01*
X13141Y2362D01*
X13054Y2296D01*
X12988Y2209D01*
X12946Y2108D01*
X12931Y2000D01*
X12946Y1892D01*
X12988Y1791D01*
X13054Y1704D01*
X13141Y1638D01*
X13242Y1596D01*
X13350Y1581D01*
X13458Y1596D01*
X13559Y1638D01*
X13646Y1704D01*
X13712Y1791D01*
X13754Y1892D01*
X13769Y2000D01*
X13754Y2108D01*
X13712Y2209D01*
X13646Y2296D01*
X13559Y2362D01*
X13528Y2375D01*
Y6741D01*
X14551Y7764D01*
X14590Y7822D01*
X14603Y7890D01*
X14590Y7958D01*
X14551Y8016D01*
X14493Y8055D01*
X14425Y8068D01*
D02*
G37*
G36*
X10350Y2419D02*
X10242Y2404D01*
X10141Y2362D01*
X10054Y2296D01*
X9988Y2209D01*
X9946Y2108D01*
X9931Y2000D01*
X9946Y1892D01*
X9988Y1791D01*
X10054Y1704D01*
X10141Y1638D01*
X10242Y1596D01*
X10350Y1581D01*
X10458Y1596D01*
X10559Y1638D01*
X10646Y1704D01*
X10712Y1791D01*
X10754Y1892D01*
X10769Y2000D01*
X10754Y2108D01*
X10712Y2209D01*
X10646Y2296D01*
X10559Y2362D01*
X10458Y2404D01*
X10350Y2419D01*
D02*
G37*
G36*
X9350D02*
X9242Y2404D01*
X9141Y2362D01*
X9054Y2296D01*
X8988Y2209D01*
X8946Y2108D01*
X8931Y2000D01*
X8946Y1892D01*
X8988Y1791D01*
X9054Y1704D01*
X9141Y1638D01*
X9242Y1596D01*
X9350Y1581D01*
X9458Y1596D01*
X9559Y1638D01*
X9646Y1704D01*
X9712Y1791D01*
X9754Y1892D01*
X9769Y2000D01*
X9754Y2108D01*
X9712Y2209D01*
X9646Y2296D01*
X9559Y2362D01*
X9458Y2404D01*
X9350Y2419D01*
D02*
G37*
%LPD*%
G36*
X30992Y5042D02*
X32297Y3737D01*
Y1299D01*
X32002Y1003D01*
X31834D01*
X31830Y1053D01*
X31859Y1059D01*
X31908Y1092D01*
X32158Y1342D01*
X32191Y1391D01*
X32203Y1450D01*
Y3650D01*
X32191Y3709D01*
X32158Y3758D01*
X30913Y5003D01*
Y5077D01*
X30938Y5085D01*
X30963Y5085D01*
X30992Y5042D01*
D02*
G37*
G36*
X16247Y10474D02*
Y3400D01*
X16259Y3341D01*
X16292Y3292D01*
X16697Y2887D01*
Y2307D01*
X16650Y2291D01*
X16646Y2296D01*
X16559Y2362D01*
X16528Y2375D01*
Y2650D01*
X16515Y2718D01*
X16476Y2776D01*
X16476Y2776D01*
X16128Y3124D01*
Y10426D01*
X16197Y10495D01*
X16247Y10474D01*
D02*
G37*
G36*
X8705Y5737D02*
Y5105D01*
X8922D01*
Y4724D01*
X7224Y3026D01*
X7185Y2968D01*
X7178Y2934D01*
X7128Y2939D01*
Y3026D01*
X8476Y4374D01*
X8515Y4432D01*
X8528Y4500D01*
X8528Y4500D01*
Y5626D01*
X8659Y5756D01*
X8705Y5737D01*
D02*
G37*
G36*
X35860Y2901D02*
X35870Y2901D01*
X35880Y2900D01*
X35890Y2899D01*
X35900Y2898D01*
X35910Y2897D01*
X35919Y2895D01*
X35929Y2893D01*
X35939Y2891D01*
X35949Y2889D01*
X35958Y2886D01*
X35968Y2883D01*
X35977Y2880D01*
X35987Y2877D01*
X35996Y2873D01*
X36005Y2869D01*
X36014Y2865D01*
X36023Y2861D01*
X36032Y2856D01*
X36041Y2852D01*
X36050Y2847D01*
X36058Y2842D01*
X36067Y2836D01*
X36075Y2831D01*
X36083Y2825D01*
X36091Y2819D01*
X36099Y2813D01*
X36106Y2806D01*
X36114Y2800D01*
X36121Y2793D01*
X36128Y2786D01*
X36135Y2779D01*
X36142Y2771D01*
X36149Y2764D01*
X36155Y2756D01*
X36161Y2748D01*
X36167Y2741D01*
X36173Y2732D01*
X36179Y2724D01*
X36184Y2716D01*
X36189Y2707D01*
X36194Y2699D01*
X36199Y2690D01*
X36204Y2681D01*
X36208Y2672D01*
X36212Y2663D01*
X36216Y2654D01*
X36219Y2644D01*
X36223Y2635D01*
X36226Y2625D01*
X36229Y2616D01*
X36231Y2606D01*
X36234Y2597D01*
X36236Y2587D01*
X36238Y2577D01*
X36239Y2567D01*
X36241Y2557D01*
X36242Y2547D01*
X36243Y2537D01*
X36243Y2527D01*
X36244Y2517D01*
X36244Y2508D01*
X36244Y2193D01*
X36244Y2183D01*
X36243Y2173D01*
X36243Y2163D01*
X36242Y2153D01*
X36241Y2143D01*
X36239Y2133D01*
X36238Y2123D01*
X36236Y2113D01*
X36234Y2104D01*
X36231Y2094D01*
X36229Y2084D01*
X36226Y2075D01*
X36223Y2065D01*
X36219Y2056D01*
X36216Y2046D01*
X36212Y2037D01*
X36208Y2028D01*
X36204Y2019D01*
X36199Y2010D01*
X36194Y2001D01*
X36189Y1993D01*
X36184Y1984D01*
X36179Y1976D01*
X36173Y1968D01*
X36167Y1960D01*
X36161Y1952D01*
X36155Y1944D01*
X36149Y1936D01*
X36142Y1929D01*
X36135Y1921D01*
X36128Y1914D01*
X36121Y1907D01*
X36114Y1900D01*
X36107Y1894D01*
X36099Y1887D01*
X36091Y1881D01*
X36083Y1875D01*
X36075Y1869D01*
X36067Y1864D01*
X36058Y1858D01*
X36050Y1853D01*
X36041Y1848D01*
X36032Y1844D01*
X36023Y1839D01*
X36014Y1835D01*
X36005Y1831D01*
X35996Y1827D01*
X35987Y1823D01*
X35977Y1820D01*
X35968Y1817D01*
X35958Y1814D01*
X35949Y1811D01*
X35939Y1809D01*
X35929Y1807D01*
X35919Y1805D01*
X35910Y1803D01*
X35900Y1802D01*
X35890Y1801D01*
X35880Y1800D01*
X35870Y1799D01*
X35860Y1799D01*
X35850Y1799D01*
X35840Y1799D01*
X35830Y1799D01*
X35820Y1800D01*
X35810Y1801D01*
X35800Y1802D01*
X35790Y1803D01*
X35781Y1805D01*
X35771Y1807D01*
X35761Y1809D01*
X35751Y1811D01*
X35742Y1814D01*
X35732Y1817D01*
X35723Y1820D01*
X35713Y1823D01*
X35704Y1827D01*
X35695Y1831D01*
X35686Y1835D01*
X35677Y1839D01*
X35668Y1844D01*
X35659Y1848D01*
X35650Y1853D01*
X35642Y1858D01*
X35633Y1864D01*
X35625Y1869D01*
X35617Y1875D01*
X35609Y1881D01*
X35601Y1887D01*
X35594Y1894D01*
X35586Y1900D01*
X35579Y1907D01*
X35572Y1914D01*
X35565Y1921D01*
X35558Y1929D01*
X35551Y1936D01*
X35545Y1944D01*
X35539Y1952D01*
X35533Y1960D01*
X35527Y1968D01*
X35521Y1976D01*
X35516Y1984D01*
X35511Y1993D01*
X35506Y2001D01*
X35501Y2010D01*
X35497Y2019D01*
X35492Y2028D01*
X35488Y2037D01*
X35484Y2046D01*
X35481Y2056D01*
X35478Y2065D01*
X35474Y2075D01*
X35472Y2084D01*
X35469Y2094D01*
X35467Y2104D01*
X35464Y2113D01*
X35463Y2123D01*
X35461Y2133D01*
X35459Y2143D01*
X35458Y2153D01*
X35457Y2163D01*
X35457Y2173D01*
X35456Y2183D01*
X35456Y2193D01*
X35456Y2508D01*
X35456Y2517D01*
X35457Y2527D01*
X35457Y2537D01*
X35458Y2547D01*
X35459Y2557D01*
X35461Y2567D01*
X35463Y2577D01*
X35464Y2587D01*
X35467Y2597D01*
X35469Y2606D01*
X35472Y2616D01*
X35474Y2625D01*
X35478Y2635D01*
X35481Y2644D01*
X35484Y2654D01*
X35488Y2663D01*
X35492Y2672D01*
X35497Y2681D01*
X35501Y2690D01*
X35506Y2699D01*
X35511Y2707D01*
X35516Y2716D01*
X35521Y2724D01*
X35527Y2732D01*
X35533Y2741D01*
X35539Y2748D01*
X35545Y2756D01*
X35551Y2764D01*
X35558Y2771D01*
X35565Y2779D01*
X35572Y2786D01*
X35579Y2793D01*
X35586Y2800D01*
X35594Y2806D01*
X35601Y2813D01*
X35609Y2819D01*
X35617Y2825D01*
X35625Y2831D01*
X35633Y2836D01*
X35642Y2842D01*
X35650Y2847D01*
X35659Y2852D01*
X35668Y2856D01*
X35677Y2861D01*
X35686Y2865D01*
X35695Y2869D01*
X35704Y2873D01*
X35713Y2877D01*
X35723Y2880D01*
X35732Y2883D01*
X35742Y2886D01*
X35751Y2889D01*
X35761Y2891D01*
X35771Y2893D01*
X35781Y2895D01*
X35790Y2897D01*
X35800Y2898D01*
X35810Y2899D01*
X35820Y2900D01*
X35830Y2901D01*
X35840Y2901D01*
X35850Y2901D01*
X35860Y2901D01*
D02*
G37*
D10*
X13300Y11750D02*
X14550D01*
X14900Y11400D01*
Y2550D02*
Y11400D01*
X14350Y2000D02*
X14900Y2550D01*
X16850Y1300D02*
Y2950D01*
X16400Y3400D02*
X16850Y2950D01*
X16500Y950D02*
X16850Y1300D01*
X14650Y950D02*
X16500D01*
X14350Y1250D02*
Y2000D01*
Y1250D02*
X14650Y950D01*
X16400Y10500D02*
X17750Y11850D01*
X16400Y3400D02*
Y10500D01*
X17750Y11850D02*
X18900D01*
X19400Y11050D02*
Y11350D01*
X18900Y11850D02*
X19400Y11350D01*
X23000Y13250D02*
X23662Y12588D01*
X22300Y13250D02*
X23000D01*
X23662Y12588D02*
Y12588D01*
Y12588D02*
X24300Y11950D01*
X21950Y12900D02*
X22300Y13250D01*
X26550Y7900D02*
X30350Y4100D01*
Y2000D02*
Y4100D01*
X26200Y7600D02*
X29500Y4300D01*
X29350Y2000D02*
Y2143D01*
X29500Y2293D02*
Y4300D01*
X29350Y2143D02*
X29500Y2293D01*
X26200Y7600D02*
Y12300D01*
X26550Y7900D02*
Y12700D01*
X24500Y14000D02*
X26200Y12300D01*
X25850Y7307D02*
X29050Y4107D01*
X24313Y13437D02*
X25850Y11900D01*
Y7307D02*
Y11900D01*
X35450Y5700D02*
X36600D01*
X36900Y6000D02*
Y8700D01*
X36600Y5700D02*
X36900Y6000D01*
X27450Y3800D02*
X28550D01*
X26750Y3100D02*
X27450Y3800D01*
Y4250D02*
X28150D01*
X17350Y2100D02*
X18750Y3500D01*
X18400Y2000D02*
X19500Y3100D01*
X26750Y3100D01*
X29750Y5650D02*
Y9300D01*
X29100Y9950D02*
X29750Y9300D01*
X30100Y5200D02*
Y9950D01*
X18750Y3500D02*
X26700D01*
X27450Y4250D01*
X33950Y7850D02*
X34700Y7100D01*
X33950Y7850D02*
Y9500D01*
X34700Y7100D02*
X35450D01*
X36200D01*
X21800Y13900D02*
X23200D01*
X25100Y12000D01*
X21246Y13546D02*
X21446D01*
X21800Y13900D01*
X36550Y7450D02*
Y8100D01*
X36200Y7100D02*
X36550Y7450D01*
X34676Y4926D02*
X35450Y5700D01*
X33535Y4926D02*
X34676D01*
X32750Y9550D02*
Y14150D01*
X31550Y15350D02*
X32750Y14150D01*
X32291Y9091D02*
X32750Y9550D01*
X31750Y15650D02*
X33100Y14300D01*
X32400Y8700D02*
X33100Y9400D01*
Y14300D01*
X25350Y2000D02*
X26500Y850D01*
X32065D01*
X32450Y1235D01*
X26350Y1950D02*
X27100Y1200D01*
X26350Y1950D02*
Y2000D01*
X27100Y1200D02*
X31800D01*
X32050Y1450D01*
X32450Y1235D02*
Y3800D01*
X31100Y5150D02*
X32450Y3800D01*
X31100Y5150D02*
Y8100D01*
X31700Y8700D01*
X32400D01*
X31543Y9091D02*
X32291D01*
X26550Y22150D02*
X27450Y23050D01*
X26550Y16150D02*
X27350Y15350D01*
X26550Y16150D02*
Y22150D01*
X27350Y15350D02*
X31550D01*
X26850Y16300D02*
X27500Y15650D01*
X26850Y16300D02*
Y20900D01*
X27500Y15650D02*
X31750D01*
X30760Y8308D02*
X31543Y9091D01*
X24250Y13501D02*
Y13550D01*
Y13501D02*
X24313Y13438D01*
Y13437D02*
Y13438D01*
X25000Y14250D02*
X26550Y12700D01*
X24500Y14000D02*
Y14000D01*
X25000Y14250D02*
Y14900D01*
X32050Y1450D02*
Y3650D01*
X30760Y4940D02*
X32050Y3650D01*
X30760Y4940D02*
Y8308D01*
X26850Y20900D02*
X27000Y21050D01*
X28350Y2000D02*
X29050Y2700D01*
Y4107D01*
X-4175Y600D02*
X-3975Y0D01*
X-3775Y600D01*
X-3975Y25600D02*
X-3775Y25000D01*
X-4175D02*
X-3975Y25600D01*
Y0D02*
Y10531D01*
Y14749D02*
Y25600D01*
X-4075Y0D02*
X-25D01*
X-4075Y25600D02*
X-1525D01*
X-25Y-3800D02*
X575Y-3600D01*
X-25Y-3800D02*
X575Y-4000D01*
X38825D02*
X39425Y-3800D01*
X38825Y-3600D02*
X39425Y-3800D01*
X-25D02*
X17181D01*
X21899D02*
X39425D01*
X-25Y-3900D02*
Y0D01*
X39425Y-3900D02*
Y-2000D01*
D17*
X600Y8250D02*
X603Y8247D01*
Y7859D02*
Y8247D01*
Y7859D02*
X606Y7856D01*
X27000Y21050D02*
X27450D01*
X9800Y18300D02*
X9800Y18300D01*
X9800Y18250D02*
Y18300D01*
X12300Y1950D02*
X12350Y2000D01*
X-4215Y11091D02*
X-4115Y10891D01*
X-3915Y10691D01*
X-3715D01*
X-3615Y10791D01*
Y10991D01*
X-3715Y11091D01*
X-3815D01*
X-3915Y10991D01*
Y10691D01*
X-4215Y11690D02*
Y11290D01*
X-3915D01*
X-4015Y11490D01*
Y11590D01*
X-3915Y11690D01*
X-3715D01*
X-3615Y11590D01*
Y11390D01*
X-3715Y11290D01*
X-3615Y11890D02*
X-3715D01*
Y11990D01*
X-3615D01*
Y11890D01*
X-4115Y12390D02*
X-4215Y12490D01*
Y12690D01*
X-4115Y12790D01*
X-3715D01*
X-3615Y12690D01*
Y12490D01*
X-3715Y12390D01*
X-4115D01*
X-3615Y13390D02*
Y12990D01*
X-4015Y13390D01*
X-4115D01*
X-4215Y13290D01*
Y13090D01*
X-4115Y12990D01*
X-3615Y13590D02*
X-4015D01*
Y13690D01*
X-3915Y13790D01*
X-3615D01*
X-3915D01*
X-4015Y13890D01*
X-3915Y13990D01*
X-3615D01*
Y14189D02*
X-4015D01*
Y14289D01*
X-3915Y14389D01*
X-3615D01*
X-3915D01*
X-4015Y14489D01*
X-3915Y14589D01*
X-3615D01*
X17341Y-4160D02*
X17541D01*
X17441D01*
Y-3560D01*
X17341Y-3660D01*
X17841D02*
X17941Y-3560D01*
X18140D01*
X18240Y-3660D01*
Y-4060D01*
X18140Y-4160D01*
X17941D01*
X17841Y-4060D01*
Y-3660D01*
X18440D02*
X18540Y-3560D01*
X18740D01*
X18840Y-3660D01*
Y-4060D01*
X18740Y-4160D01*
X18540D01*
X18440Y-4060D01*
Y-3660D01*
X19040Y-4160D02*
Y-4060D01*
X19140D01*
Y-4160D01*
X19040D01*
X19940D02*
X19540D01*
X19940Y-3760D01*
Y-3660D01*
X19840Y-3560D01*
X19640D01*
X19540Y-3660D01*
X20140D02*
X20240Y-3560D01*
X20440D01*
X20540Y-3660D01*
Y-4060D01*
X20440Y-4160D01*
X20240D01*
X20140Y-4060D01*
Y-3660D01*
X20740Y-4160D02*
Y-3760D01*
X20840D01*
X20940Y-3860D01*
Y-4160D01*
Y-3860D01*
X21040Y-3760D01*
X21139Y-3860D01*
Y-4160D01*
X21339D02*
Y-3760D01*
X21439D01*
X21539Y-3860D01*
Y-4160D01*
Y-3860D01*
X21639Y-3760D01*
X21739Y-3860D01*
Y-4160D01*
D18*
X39425Y0D02*
Y25600D01*
X25D02*
X39425D01*
X25Y0D02*
X39425D01*
X25D02*
Y25550D01*
X-25Y0D02*
X25D01*
D59*
X15950Y10500D02*
X17550Y12100D01*
X20350D02*
X20700Y12450D01*
X17550Y12100D02*
X20350D01*
X15550Y10600D02*
X17350Y12400D01*
X20226D01*
X20326Y12500D02*
X20350D01*
X20226Y12400D02*
X20326Y12500D01*
X16350Y2000D02*
Y2650D01*
X15950Y3050D02*
Y10500D01*
Y3050D02*
X16350Y2650D01*
X15350Y2000D02*
Y2807D01*
X15550Y3007D01*
Y10600D01*
X20700Y12450D02*
Y12800D01*
X11950Y16750D02*
X14300D01*
X10250Y18450D02*
X11950Y16750D01*
X13673Y15500D02*
X13900Y15727D01*
X15150Y13150D02*
X16150Y14150D01*
X21379Y14100D02*
X21403D01*
X16150Y14150D02*
X21329D01*
X21379Y14100D01*
X12150Y13100D02*
X13500Y14450D01*
X12150Y9200D02*
Y13100D01*
X8350Y4500D02*
Y5700D01*
X8750Y6100D02*
X9500D01*
X8350Y5700D02*
X8750Y6100D01*
X9500D02*
X10100Y5500D01*
X6950Y3100D02*
X8350Y4500D01*
X6950Y1400D02*
Y3100D01*
Y1400D02*
X7500Y850D01*
X12050D01*
X7350Y1550D02*
X7700Y1200D01*
X11250D01*
X11350Y1300D01*
X12050Y850D02*
X12300Y1100D01*
X9800Y18300D02*
X12250Y15850D01*
X12900D01*
X9800Y18300D02*
Y18850D01*
X9550Y16150D02*
X10150D01*
X10800Y15500D02*
X13673D01*
X10150Y16150D02*
X10800Y15500D01*
X9807Y20300D02*
X10250Y19857D01*
Y18450D02*
Y19857D01*
X21545Y8860D02*
X23005Y7400D01*
X11350Y1300D02*
Y2000D01*
X12300Y1100D02*
Y1950D01*
X7350Y2900D02*
X9100Y4650D01*
X7350Y1550D02*
Y2900D01*
X9100Y4650D02*
Y5500D01*
X13500Y14450D02*
X24700D01*
X16350Y24950D02*
X17200Y24100D01*
X700Y24950D02*
X16350D01*
X600Y14300D02*
Y24850D01*
X700Y24950D01*
X1266Y12637D02*
Y13634D01*
X600Y14300D02*
X1266Y13634D01*
X20215Y9390D02*
X21770D01*
X18095Y11510D02*
X20215Y9390D01*
X13350Y2000D02*
Y6815D01*
X14425Y7890D01*
D61*
X17350Y2000D02*
Y2100D01*
X18350Y2000D02*
X18400D01*
X23005Y7400D02*
X23050D01*
D62*
X27450Y20050D02*
D03*
X33300D02*
D03*
D63*
X27450Y21050D02*
D03*
Y22050D02*
D03*
Y23050D02*
D03*
Y24050D02*
D03*
X33300D02*
D03*
Y23050D02*
D03*
Y22050D02*
D03*
Y21050D02*
D03*
X28100Y9950D02*
D03*
X29100D02*
D03*
X30100D02*
D03*
X31100D02*
D03*
X32100D02*
D03*
X12100Y5500D02*
D03*
X11100D02*
D03*
X10100D02*
D03*
D64*
X27100Y9950D02*
D03*
X9100Y5500D02*
D03*
D65*
X37934Y15013D02*
D03*
X36950D02*
D03*
X35966D02*
D03*
X37934Y12887D02*
D03*
X36950D02*
D03*
X3234Y14763D02*
D03*
X2250D02*
D03*
X1266D02*
D03*
X3234Y12637D02*
D03*
X2250D02*
D03*
X3200Y24100D02*
D03*
X4200D02*
D03*
X5200D02*
D03*
X6200D02*
D03*
X7200D02*
D03*
X8200D02*
D03*
X9200D02*
D03*
X10200D02*
D03*
X11200D02*
D03*
X12200D02*
D03*
X13200D02*
D03*
X14200D02*
D03*
X15200D02*
D03*
X16200D02*
D03*
X17200D02*
D03*
X18200D02*
D03*
X19200D02*
D03*
X20200D02*
D03*
X21200D02*
D03*
X22200D02*
D03*
X23200D02*
D03*
X24200D02*
D03*
X25200D02*
D03*
X9350Y2000D02*
D03*
X10350D02*
D03*
X11350D02*
D03*
X12350D02*
D03*
X13350D02*
D03*
X14350D02*
D03*
X15350D02*
D03*
X16350D02*
D03*
X17350D02*
D03*
X18350D02*
D03*
X19350D02*
D03*
X20350D02*
D03*
X21350D02*
D03*
X22350D02*
D03*
X23350D02*
D03*
X24350D02*
D03*
X25350D02*
D03*
X26350D02*
D03*
X27350D02*
D03*
X28350D02*
D03*
X29350D02*
D03*
X30350D02*
D03*
X31350D02*
D03*
D66*
X35966Y12887D02*
D03*
X1266Y12637D02*
D03*
X2200Y24100D02*
D03*
X8350Y2000D02*
D03*
D67*
X37700Y19600D02*
D03*
D68*
Y20600D02*
D03*
Y21600D02*
D03*
Y22600D02*
D03*
Y23600D02*
D03*
D69*
X1779Y6254D02*
D03*
Y9656D02*
D03*
X37688Y8487D02*
D03*
Y5085D02*
D03*
D70*
X3425Y6254D02*
D03*
Y9656D02*
D03*
X36042Y8487D02*
D03*
Y5085D02*
D03*
D71*
X1988Y6782D02*
D03*
Y9128D02*
D03*
X37479Y7959D02*
D03*
Y5613D02*
D03*
D72*
X29500Y16785D02*
D03*
Y17415D02*
D03*
D73*
X12150Y19550D02*
D03*
X13300Y11750D02*
D03*
X20350Y12500D02*
D03*
X20700Y12800D02*
D03*
X19400Y11050D02*
D03*
X15350Y16400D02*
D03*
X14300Y16750D02*
D03*
X32644Y7435D02*
D03*
X13050Y20500D02*
D03*
X23100Y15400D02*
D03*
X13900Y15727D02*
D03*
X14750Y18650D02*
D03*
X19650Y14710D02*
D03*
X25450Y15500D02*
D03*
X24300Y11950D02*
D03*
X31600Y6900D02*
D03*
X23900D02*
D03*
X28700Y12050D02*
D03*
X25450Y10450D02*
D03*
X28550Y3800D02*
D03*
X28150Y4250D02*
D03*
X29750Y5650D02*
D03*
X30100Y5200D02*
D03*
X33950Y9500D02*
D03*
X25100Y12000D02*
D03*
X23050Y7400D02*
D03*
X35500Y7650D02*
D03*
X35450Y7100D02*
D03*
X35480Y6520D02*
D03*
X36550Y8100D02*
D03*
X36900Y8700D02*
D03*
X606Y7856D02*
D03*
X600Y8250D02*
D03*
X23400Y10100D02*
D03*
X28300Y13150D02*
D03*
X22500Y9900D02*
D03*
X21500Y12550D02*
D03*
X18900Y10100D02*
D03*
X5350Y20100D02*
D03*
X6600Y19250D02*
D03*
X38450Y9450D02*
D03*
X24250Y13550D02*
D03*
X24500Y14000D02*
D03*
X24700Y14450D02*
D03*
X25000Y14900D02*
D03*
X20250Y13100D02*
D03*
X21007Y13142D02*
D03*
X21403Y14100D02*
D03*
X19100Y12700D02*
D03*
X21456Y11300D02*
D03*
X9550Y16150D02*
D03*
X12900Y15850D02*
D03*
X9800Y18850D02*
D03*
X9807Y20300D02*
D03*
X7950Y16850D02*
D03*
X8250Y20750D02*
D03*
X7500Y19300D02*
D03*
X33535Y4926D02*
D03*
X27000Y13700D02*
D03*
X29200Y14650D02*
D03*
X23000Y9650D02*
D03*
X3650Y20750D02*
D03*
X4150Y17050D02*
D03*
X1225Y10256D02*
D03*
X875Y6956D02*
D03*
X38643Y5984D02*
D03*
X15150Y13150D02*
D03*
X12150Y9200D02*
D03*
X22250Y4000D02*
D03*
X18450Y13450D02*
D03*
X21900D02*
D03*
X18700Y12700D02*
D03*
X2100Y21600D02*
D03*
X29400Y12050D02*
D03*
X13250Y12250D02*
D03*
X24850Y5450D02*
D03*
X32645Y6436D02*
D03*
X13800Y17100D02*
D03*
X11650Y11800D02*
D03*
X11550Y14400D02*
D03*
X7350Y13700D02*
D03*
X6650Y12650D02*
D03*
X5550Y9150D02*
D03*
X5999Y1151D02*
D03*
X4400Y1800D02*
D03*
X1500D02*
D03*
X20800Y4750D02*
D03*
X26200Y4700D02*
D03*
X7350Y4400D02*
D03*
X2050Y17050D02*
D03*
X8000Y11850D02*
D03*
X9350Y14400D02*
D03*
X9400Y9100D02*
D03*
X9450Y11800D02*
D03*
X13200Y10750D02*
D03*
X16250Y12750D02*
D03*
X16200Y17800D02*
D03*
X5353Y18403D02*
D03*
D74*
X21450Y5550D02*
D03*
X21246Y13546D02*
D03*
X22400Y12700D02*
D03*
X21950Y12900D02*
D03*
X13425Y17670D02*
D03*
X21770Y9390D02*
D03*
X18095Y11510D02*
D03*
X21545Y8860D02*
D03*
X14425Y7890D02*
D03*
X6700Y7249D02*
D03*
D84*
X8365Y2465D02*
X9900Y4000D01*
X8350Y2000D02*
X8365Y2015D01*
Y2465D01*
X9900Y4000D02*
X11200D01*
X12100Y4900D02*
Y5500D01*
X11200Y4000D02*
X12100Y4900D01*
D85*
X10200Y22700D02*
Y24100D01*
Y22700D02*
X13425Y19475D01*
Y17670D02*
Y19475D01*
X7500Y19300D02*
Y20700D01*
X9200Y22400D01*
Y24100D01*
M02*
