G04*
G04 #@! TF.GenerationSoftware,Altium Limited,Altium Designer,20.0.13 (296)*
G04*
G04 Layer_Physical_Order=3*
G04 Layer_Color=36540*
%FSLAX24Y24*%
%MOIN*%
G70*
G01*
G75*
%ADD10C,0.0100*%
%ADD17C,0.0060*%
%ADD18C,0.0200*%
%ADD58C,0.0250*%
%ADD59C,0.0150*%
%ADD63C,0.0591*%
%ADD65C,0.0630*%
%ADD66R,0.0630X0.0630*%
%ADD67R,0.0669X0.0669*%
%ADD68C,0.0669*%
%ADD69O,0.0827X0.0394*%
%ADD70O,0.0630X0.0394*%
%ADD73C,0.0240*%
%ADD74C,0.0220*%
%ADD75C,0.0400*%
%ADD84C,0.0600*%
G36*
X39425Y0D02*
X25D01*
Y25600D01*
X39425D01*
Y0D01*
D02*
G37*
%LPC*%
G36*
X24200Y24519D02*
X24092Y24504D01*
X23991Y24462D01*
X23904Y24396D01*
X23838Y24309D01*
X23796Y24208D01*
X23781Y24100D01*
X23796Y23992D01*
X23838Y23891D01*
X23904Y23804D01*
X23991Y23738D01*
X24092Y23696D01*
X24200Y23681D01*
X24308Y23696D01*
X24409Y23738D01*
X24496Y23804D01*
X24562Y23891D01*
X24604Y23992D01*
X24619Y24100D01*
X24604Y24208D01*
X24562Y24309D01*
X24496Y24396D01*
X24409Y24462D01*
X24308Y24504D01*
X24200Y24519D01*
D02*
G37*
G36*
X23200D02*
X23092Y24504D01*
X22991Y24462D01*
X22904Y24396D01*
X22838Y24309D01*
X22796Y24208D01*
X22781Y24100D01*
X22796Y23992D01*
X22838Y23891D01*
X22904Y23804D01*
X22991Y23738D01*
X23092Y23696D01*
X23200Y23681D01*
X23308Y23696D01*
X23409Y23738D01*
X23496Y23804D01*
X23562Y23891D01*
X23604Y23992D01*
X23619Y24100D01*
X23604Y24208D01*
X23562Y24309D01*
X23496Y24396D01*
X23409Y24462D01*
X23308Y24504D01*
X23200Y24519D01*
D02*
G37*
G36*
X22200D02*
X22092Y24504D01*
X21991Y24462D01*
X21904Y24396D01*
X21838Y24309D01*
X21796Y24208D01*
X21781Y24100D01*
X21796Y23992D01*
X21838Y23891D01*
X21904Y23804D01*
X21991Y23738D01*
X22092Y23696D01*
X22200Y23681D01*
X22308Y23696D01*
X22409Y23738D01*
X22496Y23804D01*
X22562Y23891D01*
X22604Y23992D01*
X22619Y24100D01*
X22604Y24208D01*
X22562Y24309D01*
X22496Y24396D01*
X22409Y24462D01*
X22308Y24504D01*
X22200Y24519D01*
D02*
G37*
G36*
X21200D02*
X21092Y24504D01*
X20991Y24462D01*
X20904Y24396D01*
X20838Y24309D01*
X20796Y24208D01*
X20781Y24100D01*
X20796Y23992D01*
X20838Y23891D01*
X20904Y23804D01*
X20991Y23738D01*
X21092Y23696D01*
X21200Y23681D01*
X21308Y23696D01*
X21409Y23738D01*
X21496Y23804D01*
X21562Y23891D01*
X21604Y23992D01*
X21619Y24100D01*
X21604Y24208D01*
X21562Y24309D01*
X21496Y24396D01*
X21409Y24462D01*
X21308Y24504D01*
X21200Y24519D01*
D02*
G37*
G36*
X20200D02*
X20092Y24504D01*
X19991Y24462D01*
X19904Y24396D01*
X19838Y24309D01*
X19796Y24208D01*
X19781Y24100D01*
X19796Y23992D01*
X19838Y23891D01*
X19904Y23804D01*
X19991Y23738D01*
X20092Y23696D01*
X20200Y23681D01*
X20308Y23696D01*
X20409Y23738D01*
X20496Y23804D01*
X20562Y23891D01*
X20604Y23992D01*
X20619Y24100D01*
X20604Y24208D01*
X20562Y24309D01*
X20496Y24396D01*
X20409Y24462D01*
X20308Y24504D01*
X20200Y24519D01*
D02*
G37*
G36*
X19200D02*
X19092Y24504D01*
X18991Y24462D01*
X18904Y24396D01*
X18838Y24309D01*
X18796Y24208D01*
X18781Y24100D01*
X18796Y23992D01*
X18838Y23891D01*
X18904Y23804D01*
X18991Y23738D01*
X19092Y23696D01*
X19200Y23681D01*
X19308Y23696D01*
X19409Y23738D01*
X19496Y23804D01*
X19562Y23891D01*
X19604Y23992D01*
X19619Y24100D01*
X19604Y24208D01*
X19562Y24309D01*
X19496Y24396D01*
X19409Y24462D01*
X19308Y24504D01*
X19200Y24519D01*
D02*
G37*
G36*
X18200D02*
X18092Y24504D01*
X17991Y24462D01*
X17904Y24396D01*
X17838Y24309D01*
X17796Y24208D01*
X17781Y24100D01*
X17796Y23992D01*
X17838Y23891D01*
X17904Y23804D01*
X17991Y23738D01*
X18092Y23696D01*
X18200Y23681D01*
X18308Y23696D01*
X18409Y23738D01*
X18496Y23804D01*
X18562Y23891D01*
X18604Y23992D01*
X18619Y24100D01*
X18604Y24208D01*
X18562Y24309D01*
X18496Y24396D01*
X18409Y24462D01*
X18308Y24504D01*
X18200Y24519D01*
D02*
G37*
G36*
X17200D02*
X17092Y24504D01*
X16991Y24462D01*
X16904Y24396D01*
X16838Y24309D01*
X16796Y24208D01*
X16781Y24100D01*
X16796Y23992D01*
X16838Y23891D01*
X16904Y23804D01*
X16991Y23738D01*
X17092Y23696D01*
X17200Y23681D01*
X17308Y23696D01*
X17409Y23738D01*
X17496Y23804D01*
X17562Y23891D01*
X17604Y23992D01*
X17619Y24100D01*
X17604Y24208D01*
X17562Y24309D01*
X17496Y24396D01*
X17409Y24462D01*
X17308Y24504D01*
X17200Y24519D01*
D02*
G37*
G36*
X16200D02*
X16092Y24504D01*
X15991Y24462D01*
X15904Y24396D01*
X15838Y24309D01*
X15796Y24208D01*
X15781Y24100D01*
X15796Y23992D01*
X15838Y23891D01*
X15904Y23804D01*
X15991Y23738D01*
X16092Y23696D01*
X16200Y23681D01*
X16308Y23696D01*
X16409Y23738D01*
X16496Y23804D01*
X16562Y23891D01*
X16604Y23992D01*
X16619Y24100D01*
X16604Y24208D01*
X16562Y24309D01*
X16496Y24396D01*
X16409Y24462D01*
X16308Y24504D01*
X16200Y24519D01*
D02*
G37*
G36*
X15200D02*
X15092Y24504D01*
X14991Y24462D01*
X14904Y24396D01*
X14838Y24309D01*
X14796Y24208D01*
X14781Y24100D01*
X14796Y23992D01*
X14838Y23891D01*
X14904Y23804D01*
X14991Y23738D01*
X15092Y23696D01*
X15200Y23681D01*
X15308Y23696D01*
X15409Y23738D01*
X15496Y23804D01*
X15562Y23891D01*
X15604Y23992D01*
X15619Y24100D01*
X15604Y24208D01*
X15562Y24309D01*
X15496Y24396D01*
X15409Y24462D01*
X15308Y24504D01*
X15200Y24519D01*
D02*
G37*
G36*
X14200D02*
X14092Y24504D01*
X13991Y24462D01*
X13904Y24396D01*
X13838Y24309D01*
X13796Y24208D01*
X13781Y24100D01*
X13796Y23992D01*
X13838Y23891D01*
X13904Y23804D01*
X13991Y23738D01*
X14092Y23696D01*
X14200Y23681D01*
X14308Y23696D01*
X14409Y23738D01*
X14496Y23804D01*
X14562Y23891D01*
X14604Y23992D01*
X14619Y24100D01*
X14604Y24208D01*
X14562Y24309D01*
X14496Y24396D01*
X14409Y24462D01*
X14308Y24504D01*
X14200Y24519D01*
D02*
G37*
G36*
X13200D02*
X13092Y24504D01*
X12991Y24462D01*
X12904Y24396D01*
X12838Y24309D01*
X12796Y24208D01*
X12781Y24100D01*
X12796Y23992D01*
X12838Y23891D01*
X12904Y23804D01*
X12991Y23738D01*
X13092Y23696D01*
X13200Y23681D01*
X13308Y23696D01*
X13409Y23738D01*
X13496Y23804D01*
X13562Y23891D01*
X13604Y23992D01*
X13619Y24100D01*
X13604Y24208D01*
X13562Y24309D01*
X13496Y24396D01*
X13409Y24462D01*
X13308Y24504D01*
X13200Y24519D01*
D02*
G37*
G36*
X12200D02*
X12092Y24504D01*
X11991Y24462D01*
X11904Y24396D01*
X11838Y24309D01*
X11796Y24208D01*
X11781Y24100D01*
X11796Y23992D01*
X11838Y23891D01*
X11904Y23804D01*
X11991Y23738D01*
X12092Y23696D01*
X12200Y23681D01*
X12308Y23696D01*
X12409Y23738D01*
X12496Y23804D01*
X12562Y23891D01*
X12604Y23992D01*
X12619Y24100D01*
X12604Y24208D01*
X12562Y24309D01*
X12496Y24396D01*
X12409Y24462D01*
X12308Y24504D01*
X12200Y24519D01*
D02*
G37*
G36*
X11200D02*
X11092Y24504D01*
X10991Y24462D01*
X10904Y24396D01*
X10838Y24309D01*
X10796Y24208D01*
X10781Y24100D01*
X10796Y23992D01*
X10838Y23891D01*
X10904Y23804D01*
X10991Y23738D01*
X11092Y23696D01*
X11200Y23681D01*
X11308Y23696D01*
X11409Y23738D01*
X11496Y23804D01*
X11562Y23891D01*
X11604Y23992D01*
X11619Y24100D01*
X11604Y24208D01*
X11562Y24309D01*
X11496Y24396D01*
X11409Y24462D01*
X11308Y24504D01*
X11200Y24519D01*
D02*
G37*
G36*
X10200D02*
X10092Y24504D01*
X9991Y24462D01*
X9904Y24396D01*
X9838Y24309D01*
X9796Y24208D01*
X9781Y24100D01*
X9796Y23992D01*
X9838Y23891D01*
X9904Y23804D01*
X9991Y23738D01*
X10092Y23696D01*
X10200Y23681D01*
X10308Y23696D01*
X10409Y23738D01*
X10496Y23804D01*
X10562Y23891D01*
X10604Y23992D01*
X10619Y24100D01*
X10604Y24208D01*
X10562Y24309D01*
X10496Y24396D01*
X10409Y24462D01*
X10308Y24504D01*
X10200Y24519D01*
D02*
G37*
G36*
X9200D02*
X9092Y24504D01*
X8991Y24462D01*
X8904Y24396D01*
X8838Y24309D01*
X8796Y24208D01*
X8781Y24100D01*
X8796Y23992D01*
X8838Y23891D01*
X8904Y23804D01*
X8991Y23738D01*
X9092Y23696D01*
X9200Y23681D01*
X9308Y23696D01*
X9409Y23738D01*
X9496Y23804D01*
X9562Y23891D01*
X9604Y23992D01*
X9619Y24100D01*
X9604Y24208D01*
X9562Y24309D01*
X9496Y24396D01*
X9409Y24462D01*
X9308Y24504D01*
X9200Y24519D01*
D02*
G37*
G36*
X8200D02*
X8092Y24504D01*
X7991Y24462D01*
X7904Y24396D01*
X7838Y24309D01*
X7796Y24208D01*
X7781Y24100D01*
X7796Y23992D01*
X7838Y23891D01*
X7904Y23804D01*
X7991Y23738D01*
X8092Y23696D01*
X8200Y23681D01*
X8308Y23696D01*
X8409Y23738D01*
X8496Y23804D01*
X8562Y23891D01*
X8604Y23992D01*
X8619Y24100D01*
X8604Y24208D01*
X8562Y24309D01*
X8496Y24396D01*
X8409Y24462D01*
X8308Y24504D01*
X8200Y24519D01*
D02*
G37*
G36*
X7200D02*
X7092Y24504D01*
X6991Y24462D01*
X6904Y24396D01*
X6838Y24309D01*
X6796Y24208D01*
X6781Y24100D01*
X6796Y23992D01*
X6838Y23891D01*
X6904Y23804D01*
X6991Y23738D01*
X7092Y23696D01*
X7200Y23681D01*
X7308Y23696D01*
X7409Y23738D01*
X7496Y23804D01*
X7562Y23891D01*
X7604Y23992D01*
X7619Y24100D01*
X7604Y24208D01*
X7562Y24309D01*
X7496Y24396D01*
X7409Y24462D01*
X7308Y24504D01*
X7200Y24519D01*
D02*
G37*
G36*
X6200D02*
X6092Y24504D01*
X5991Y24462D01*
X5904Y24396D01*
X5838Y24309D01*
X5796Y24208D01*
X5781Y24100D01*
X5796Y23992D01*
X5838Y23891D01*
X5904Y23804D01*
X5991Y23738D01*
X6092Y23696D01*
X6200Y23681D01*
X6308Y23696D01*
X6409Y23738D01*
X6496Y23804D01*
X6562Y23891D01*
X6604Y23992D01*
X6619Y24100D01*
X6604Y24208D01*
X6562Y24309D01*
X6496Y24396D01*
X6409Y24462D01*
X6308Y24504D01*
X6200Y24519D01*
D02*
G37*
G36*
X5200D02*
X5092Y24504D01*
X4991Y24462D01*
X4904Y24396D01*
X4838Y24309D01*
X4796Y24208D01*
X4781Y24100D01*
X4796Y23992D01*
X4838Y23891D01*
X4904Y23804D01*
X4991Y23738D01*
X5092Y23696D01*
X5200Y23681D01*
X5308Y23696D01*
X5409Y23738D01*
X5496Y23804D01*
X5562Y23891D01*
X5604Y23992D01*
X5619Y24100D01*
X5604Y24208D01*
X5562Y24309D01*
X5496Y24396D01*
X5409Y24462D01*
X5308Y24504D01*
X5200Y24519D01*
D02*
G37*
G36*
X4200D02*
X4092Y24504D01*
X3991Y24462D01*
X3904Y24396D01*
X3838Y24309D01*
X3796Y24208D01*
X3781Y24100D01*
X3796Y23992D01*
X3838Y23891D01*
X3904Y23804D01*
X3991Y23738D01*
X4092Y23696D01*
X4200Y23681D01*
X4308Y23696D01*
X4409Y23738D01*
X4496Y23804D01*
X4562Y23891D01*
X4604Y23992D01*
X4619Y24100D01*
X4604Y24208D01*
X4562Y24309D01*
X4496Y24396D01*
X4409Y24462D01*
X4308Y24504D01*
X4200Y24519D01*
D02*
G37*
G36*
X31600Y25053D02*
X31522Y25042D01*
X31449Y25012D01*
X31386Y24964D01*
X31386Y24964D01*
X28686Y22264D01*
X28638Y22201D01*
X28608Y22128D01*
X28597Y22050D01*
Y19225D01*
X27475Y18103D01*
X14039D01*
X12671Y19471D01*
X11177Y20964D01*
X11177Y20964D01*
X11115Y21012D01*
X11042Y21043D01*
X10963Y21053D01*
X8250D01*
X8247Y21053D01*
X5675D01*
X3864Y22864D01*
X3864Y22864D01*
X3078Y23650D01*
X3080Y23655D01*
X3105Y23694D01*
X3200Y23681D01*
X3308Y23696D01*
X3409Y23738D01*
X3496Y23804D01*
X3562Y23891D01*
X3604Y23992D01*
X3619Y24100D01*
X3604Y24208D01*
X3562Y24309D01*
X3496Y24396D01*
X3409Y24462D01*
X3308Y24504D01*
X3200Y24519D01*
X3092Y24504D01*
X2991Y24462D01*
X2904Y24396D01*
X2838Y24309D01*
X2796Y24208D01*
X2781Y24100D01*
X2794Y24005D01*
X2755Y23980D01*
X2750Y23978D01*
X2615Y24113D01*
Y24515D01*
X1785D01*
Y23685D01*
X2187D01*
X3348Y22524D01*
Y20750D01*
Y20106D01*
X3358Y20028D01*
X3388Y19955D01*
X3436Y19892D01*
X5139Y18189D01*
X5202Y18141D01*
X5275Y18111D01*
X5353Y18101D01*
X5431Y18111D01*
X5504Y18141D01*
X5567Y18189D01*
X5615Y18252D01*
X5645Y18325D01*
X5656Y18403D01*
X5645Y18481D01*
X5615Y18554D01*
X5567Y18617D01*
X3953Y20231D01*
Y20750D01*
Y21854D01*
X3999Y21873D01*
X5336Y20536D01*
X5399Y20488D01*
X5472Y20458D01*
X5550Y20447D01*
X8250D01*
X8253Y20448D01*
X9630D01*
X9656Y20398D01*
X9638Y20370D01*
X9624Y20300D01*
X9638Y20230D01*
X9678Y20170D01*
X9737Y20130D01*
X9807Y20116D01*
X9878Y20130D01*
X9937Y20170D01*
X9977Y20230D01*
X9991Y20300D01*
X9977Y20370D01*
X9959Y20398D01*
X9985Y20448D01*
X10838D01*
X12243Y19043D01*
X13397Y17889D01*
X13381Y17834D01*
X13359Y17830D01*
X13302Y17793D01*
X13265Y17736D01*
X13252Y17670D01*
X13265Y17604D01*
X13302Y17547D01*
X13359Y17510D01*
X13425Y17497D01*
X13491Y17510D01*
X13548Y17547D01*
X13585Y17604D01*
X13589Y17625D01*
X13644Y17642D01*
X13700Y17586D01*
X13762Y17538D01*
X13835Y17508D01*
X13914Y17497D01*
X16075D01*
X16647Y16925D01*
Y14950D01*
Y13575D01*
X16036Y12964D01*
X14125Y11053D01*
X10625D01*
X9664Y12014D01*
X9653Y12023D01*
Y13200D01*
Y14400D01*
X9642Y14478D01*
X9612Y14551D01*
X9564Y14614D01*
X8253Y15925D01*
Y16850D01*
X8242Y16928D01*
X8212Y17001D01*
X8164Y17064D01*
X8101Y17112D01*
X8028Y17142D01*
X7950Y17153D01*
X7872Y17142D01*
X7799Y17112D01*
X7736Y17064D01*
X7688Y17001D01*
X7658Y16928D01*
X7647Y16850D01*
Y15800D01*
X7658Y15722D01*
X7688Y15649D01*
X7736Y15586D01*
X9047Y14275D01*
Y13325D01*
X7786Y12064D01*
X7738Y12001D01*
X7708Y11928D01*
X7697Y11850D01*
X7708Y11772D01*
X7738Y11699D01*
X7786Y11636D01*
X7849Y11588D01*
X7922Y11558D01*
X8000Y11547D01*
X8078Y11558D01*
X8151Y11588D01*
X8214Y11636D01*
X9001Y12423D01*
X9047Y12404D01*
Y11900D01*
X9058Y11822D01*
X9088Y11749D01*
X9136Y11686D01*
X9147Y11677D01*
Y9275D01*
X7136Y7264D01*
X7088Y7201D01*
X7058Y7128D01*
X7047Y7050D01*
Y4400D01*
X7058Y4322D01*
X7088Y4249D01*
X7136Y4186D01*
X7199Y4138D01*
X7272Y4108D01*
X7350Y4097D01*
X7428Y4108D01*
X7501Y4138D01*
X7564Y4186D01*
X7612Y4249D01*
X7642Y4322D01*
X7653Y4400D01*
Y6925D01*
X9614Y8886D01*
X9636Y8914D01*
X9664Y8936D01*
X9712Y8999D01*
X9742Y9072D01*
X9753Y9150D01*
Y11004D01*
X9799Y11023D01*
X10286Y10536D01*
X10349Y10488D01*
X10422Y10458D01*
X10500Y10447D01*
X14250D01*
X14328Y10458D01*
X14401Y10488D01*
X14464Y10536D01*
X16250Y12322D01*
X18686Y9886D01*
X20497Y8075D01*
Y4750D01*
X20508Y4672D01*
X20538Y4599D01*
X20586Y4536D01*
X20614Y4514D01*
X20636Y4486D01*
X20699Y4438D01*
X20772Y4408D01*
X20850Y4397D01*
X26200D01*
X26278Y4408D01*
X26351Y4438D01*
X26414Y4486D01*
X26462Y4549D01*
X26492Y4622D01*
X26503Y4700D01*
X26492Y4778D01*
X26462Y4851D01*
X26414Y4914D01*
X26351Y4962D01*
X26278Y4992D01*
X26200Y5003D01*
X21103D01*
Y8200D01*
X21103Y8200D01*
X21092Y8278D01*
X21062Y8351D01*
X21014Y8414D01*
X19114Y10314D01*
X18134Y11294D01*
X18151Y11348D01*
X18161Y11350D01*
X18218Y11387D01*
X18255Y11444D01*
X18268Y11510D01*
X18255Y11576D01*
X18218Y11633D01*
X18161Y11670D01*
X18095Y11683D01*
X18029Y11670D01*
X17972Y11633D01*
X17935Y11576D01*
X17933Y11566D01*
X17879Y11549D01*
X16678Y12750D01*
X17164Y13236D01*
X17164Y13236D01*
X17212Y13299D01*
X17242Y13372D01*
X17253Y13450D01*
Y14154D01*
X17299Y14173D01*
X18236Y13236D01*
X18236Y13236D01*
X18299Y13188D01*
X18372Y13158D01*
X18450Y13147D01*
X18528Y13158D01*
X18601Y13188D01*
X18664Y13236D01*
X19864Y14436D01*
X19890Y14470D01*
X19924Y14496D01*
X20785Y15357D01*
X20865D01*
X22082Y14140D01*
Y14060D01*
X21286Y13264D01*
X21238Y13201D01*
X21208Y13128D01*
X21197Y13050D01*
Y12550D01*
X21208Y12472D01*
X21238Y12399D01*
X21286Y12336D01*
X22197Y11425D01*
Y9900D01*
X22208Y9822D01*
X22238Y9749D01*
X22286Y9686D01*
X22349Y9638D01*
X22422Y9608D01*
X22500Y9597D01*
X22578Y9608D01*
X22651Y9638D01*
X22714Y9686D01*
X22762Y9749D01*
X22792Y9822D01*
X22803Y9900D01*
Y11550D01*
X22803Y11550D01*
X22792Y11628D01*
X22762Y11701D01*
X22714Y11764D01*
X22714Y11764D01*
X21803Y12675D01*
Y12734D01*
X21853Y12761D01*
X21884Y12740D01*
X21950Y12727D01*
X22016Y12740D01*
X22073Y12777D01*
X22110Y12834D01*
X22123Y12900D01*
X22110Y12966D01*
X22073Y13023D01*
X22016Y13060D01*
X22003Y13063D01*
X21989Y13111D01*
X22598Y13720D01*
X22646Y13783D01*
X22677Y13856D01*
X22687Y13934D01*
Y14266D01*
X22677Y14344D01*
X22646Y14417D01*
X22598Y14480D01*
X22598Y14480D01*
X21205Y15873D01*
X21142Y15921D01*
X21069Y15952D01*
X20991Y15962D01*
X20659D01*
X20659Y15962D01*
X20581Y15952D01*
X20508Y15921D01*
X20445Y15873D01*
X19496Y14924D01*
X19470Y14890D01*
X19436Y14864D01*
X18450Y13878D01*
X17253Y15075D01*
Y17050D01*
X17242Y17128D01*
X17212Y17201D01*
X17164Y17264D01*
X16977Y17451D01*
X16996Y17497D01*
X27600D01*
X27678Y17508D01*
X27751Y17538D01*
X27814Y17586D01*
X29114Y18886D01*
X29114Y18886D01*
X29162Y18949D01*
X29192Y19022D01*
X29203Y19100D01*
X29203Y19100D01*
Y21925D01*
X31725Y24447D01*
X33096D01*
X33106Y24397D01*
X33101Y24395D01*
X33018Y24332D01*
X32955Y24249D01*
X32915Y24153D01*
X32901Y24050D01*
X32915Y23947D01*
X32955Y23851D01*
X33018Y23768D01*
X33101Y23705D01*
X33197Y23665D01*
X33300Y23651D01*
X33403Y23665D01*
X33499Y23705D01*
X33582Y23768D01*
X33645Y23851D01*
X33685Y23947D01*
X33699Y24050D01*
X33685Y24153D01*
X33645Y24249D01*
X33582Y24332D01*
X33499Y24395D01*
X33494Y24397D01*
X33504Y24447D01*
X36425D01*
X37263Y23609D01*
X37262Y23600D01*
X37277Y23487D01*
X37320Y23381D01*
X37390Y23290D01*
X37397Y23284D01*
Y22916D01*
X37390Y22910D01*
X37320Y22819D01*
X37277Y22713D01*
X37262Y22600D01*
X37277Y22487D01*
X37320Y22381D01*
X37390Y22290D01*
X37481Y22220D01*
X37587Y22177D01*
X37700Y22162D01*
X37813Y22177D01*
X37919Y22220D01*
X38010Y22290D01*
X38080Y22381D01*
X38123Y22487D01*
X38138Y22600D01*
X38123Y22713D01*
X38080Y22819D01*
X38010Y22910D01*
X38003Y22916D01*
Y23284D01*
X38010Y23290D01*
X38080Y23381D01*
X38123Y23487D01*
X38138Y23600D01*
X38123Y23713D01*
X38080Y23819D01*
X38010Y23910D01*
X37919Y23980D01*
X37813Y24023D01*
X37700Y24038D01*
X37691Y24037D01*
X36764Y24964D01*
X36701Y25012D01*
X36628Y25042D01*
X36550Y25053D01*
X31600D01*
X31600Y25053D01*
D02*
G37*
G36*
X27450Y24449D02*
X27347Y24435D01*
X27251Y24395D01*
X27168Y24332D01*
X27105Y24249D01*
X27065Y24153D01*
X27051Y24050D01*
X27065Y23947D01*
X27105Y23851D01*
X27168Y23768D01*
X27251Y23705D01*
X27347Y23665D01*
X27450Y23651D01*
X27553Y23665D01*
X27649Y23705D01*
X27732Y23768D01*
X27795Y23851D01*
X27835Y23947D01*
X27849Y24050D01*
X27835Y24153D01*
X27795Y24249D01*
X27732Y24332D01*
X27649Y24395D01*
X27553Y24435D01*
X27450Y24449D01*
D02*
G37*
G36*
Y23449D02*
X27347Y23435D01*
X27251Y23395D01*
X27168Y23332D01*
X27105Y23249D01*
X27065Y23153D01*
X27051Y23050D01*
X27065Y22947D01*
X27105Y22851D01*
X27168Y22768D01*
X27251Y22705D01*
X27347Y22665D01*
X27450Y22651D01*
X27553Y22665D01*
X27649Y22705D01*
X27732Y22768D01*
X27795Y22851D01*
X27835Y22947D01*
X27849Y23050D01*
X27835Y23153D01*
X27795Y23249D01*
X27732Y23332D01*
X27649Y23395D01*
X27553Y23435D01*
X27450Y23449D01*
D02*
G37*
G36*
X33300Y22449D02*
X33197Y22435D01*
X33101Y22395D01*
X33018Y22332D01*
X32955Y22249D01*
X32915Y22153D01*
X32901Y22050D01*
X32915Y21947D01*
X32955Y21851D01*
X33018Y21768D01*
X33101Y21705D01*
X33197Y21665D01*
X33300Y21651D01*
X33403Y21665D01*
X33499Y21705D01*
X33582Y21768D01*
X33645Y21851D01*
X33685Y21947D01*
X33699Y22050D01*
X33685Y22153D01*
X33645Y22249D01*
X33582Y22332D01*
X33499Y22395D01*
X33403Y22435D01*
X33300Y22449D01*
D02*
G37*
G36*
X27450Y21449D02*
X27347Y21435D01*
X27251Y21395D01*
X27168Y21332D01*
X27105Y21249D01*
X27065Y21153D01*
X27051Y21050D01*
X27065Y20947D01*
X27105Y20851D01*
X27168Y20768D01*
X27251Y20705D01*
X27347Y20665D01*
X27450Y20651D01*
X27553Y20665D01*
X27649Y20705D01*
X27732Y20768D01*
X27795Y20851D01*
X27835Y20947D01*
X27849Y21050D01*
X27835Y21153D01*
X27795Y21249D01*
X27732Y21332D01*
X27649Y21395D01*
X27553Y21435D01*
X27450Y21449D01*
D02*
G37*
G36*
X33695Y20445D02*
X32905D01*
Y19655D01*
X33695D01*
Y20445D01*
D02*
G37*
G36*
X27845D02*
X27055D01*
Y19655D01*
X27845D01*
Y20445D01*
D02*
G37*
G36*
X7500Y19484D02*
X7430Y19470D01*
X7370Y19430D01*
X7330Y19370D01*
X7316Y19300D01*
X7330Y19230D01*
X7370Y19170D01*
X7430Y19130D01*
X7500Y19116D01*
X7570Y19130D01*
X7630Y19170D01*
X7670Y19230D01*
X7684Y19300D01*
X7670Y19370D01*
X7630Y19430D01*
X7570Y19470D01*
X7500Y19484D01*
D02*
G37*
G36*
X9800Y19034D02*
X9730Y19020D01*
X9670Y18980D01*
X9630Y18920D01*
X9616Y18850D01*
X9630Y18780D01*
X9670Y18720D01*
X9730Y18680D01*
X9800Y18666D01*
X9870Y18680D01*
X9930Y18720D01*
X9970Y18780D01*
X9984Y18850D01*
X9970Y18920D01*
X9930Y18980D01*
X9870Y19020D01*
X9800Y19034D01*
D02*
G37*
G36*
X14300Y16934D02*
X14230Y16920D01*
X14170Y16880D01*
X14130Y16820D01*
X14116Y16750D01*
X14130Y16680D01*
X14170Y16620D01*
X14230Y16580D01*
X14300Y16566D01*
X14370Y16580D01*
X14430Y16620D01*
X14470Y16680D01*
X14484Y16750D01*
X14470Y16820D01*
X14430Y16880D01*
X14370Y16920D01*
X14300Y16934D01*
D02*
G37*
G36*
X6600Y19553D02*
X6522Y19542D01*
X6449Y19512D01*
X6386Y19464D01*
X6338Y19401D01*
X6308Y19328D01*
X6297Y19250D01*
Y16725D01*
X6125Y16553D01*
X5075D01*
X4564Y17064D01*
X4364Y17264D01*
X4301Y17312D01*
X4228Y17342D01*
X4150Y17353D01*
X4072Y17342D01*
X3999Y17312D01*
X3936Y17264D01*
X3888Y17201D01*
X3858Y17128D01*
X3847Y17050D01*
X3858Y16972D01*
X3888Y16899D01*
X3936Y16836D01*
X4047Y16725D01*
Y12125D01*
X3375Y11453D01*
X2119D01*
X2119Y11453D01*
X2041Y11442D01*
X1968Y11412D01*
X1906Y11364D01*
X1011Y10469D01*
X963Y10407D01*
X933Y10334D01*
X922Y10256D01*
X933Y10177D01*
X963Y10104D01*
X1011Y10042D01*
X1074Y9993D01*
X1147Y9963D01*
X1225Y9953D01*
X1303Y9963D01*
X1376Y9993D01*
X1439Y10042D01*
X2245Y10847D01*
X3500D01*
X3578Y10858D01*
X3651Y10888D01*
X3714Y10936D01*
X4001Y11223D01*
X4047Y11204D01*
Y5986D01*
X3369Y5308D01*
X1400D01*
X1178Y5531D01*
Y6956D01*
X1167Y7034D01*
X1137Y7107D01*
X1089Y7169D01*
X1026Y7218D01*
X953Y7248D01*
X875Y7258D01*
X797Y7248D01*
X724Y7218D01*
X661Y7169D01*
X613Y7107D01*
X583Y7034D01*
X572Y6956D01*
Y5406D01*
X583Y5327D01*
X613Y5254D01*
X661Y5192D01*
X1061Y4792D01*
X1061Y4792D01*
X1124Y4743D01*
X1197Y4713D01*
X1275Y4703D01*
X5219D01*
X7935Y1987D01*
Y1585D01*
X8765D01*
Y2415D01*
X8363D01*
X5558Y5219D01*
X5496Y5268D01*
X5423Y5298D01*
X5344Y5308D01*
X4290D01*
X4271Y5354D01*
X4564Y5647D01*
X4612Y5710D01*
X4642Y5783D01*
X4653Y5861D01*
Y12000D01*
X4653Y12000D01*
X4653Y12000D01*
Y16054D01*
X4699Y16073D01*
X4736Y16036D01*
X4799Y15988D01*
X4872Y15958D01*
X4950Y15947D01*
X6250D01*
X6328Y15958D01*
X6401Y15988D01*
X6464Y16036D01*
X6814Y16386D01*
X6862Y16449D01*
X6892Y16522D01*
X6903Y16600D01*
X6903Y16600D01*
Y19250D01*
X6892Y19328D01*
X6862Y19401D01*
X6814Y19464D01*
X6751Y19512D01*
X6678Y19542D01*
X6600Y19553D01*
D02*
G37*
G36*
X29500Y17754D02*
X29412Y17743D01*
X29330Y17709D01*
X29260Y17655D01*
X29206Y17585D01*
X29172Y17503D01*
X29161Y17415D01*
X29172Y17327D01*
X29206Y17245D01*
X29260Y17175D01*
X29321Y17129D01*
X29325Y17105D01*
Y17095D01*
X29321Y17071D01*
X29260Y17025D01*
X29206Y16955D01*
X29172Y16873D01*
X29161Y16785D01*
X29172Y16697D01*
X29206Y16615D01*
X29260Y16545D01*
X29330Y16491D01*
X29412Y16457D01*
X29500Y16446D01*
X29588Y16457D01*
X29670Y16491D01*
X29740Y16545D01*
X29794Y16615D01*
X29828Y16697D01*
X29839Y16785D01*
X29828Y16873D01*
X29794Y16955D01*
X29740Y17025D01*
X29679Y17071D01*
X29675Y17095D01*
Y17105D01*
X29679Y17129D01*
X29740Y17175D01*
X29794Y17245D01*
X29828Y17327D01*
X29839Y17415D01*
X29828Y17503D01*
X29794Y17585D01*
X29740Y17655D01*
X29670Y17709D01*
X29588Y17743D01*
X29500Y17754D01*
D02*
G37*
G36*
X9550Y16334D02*
X9480Y16320D01*
X9420Y16280D01*
X9380Y16220D01*
X9366Y16150D01*
X9380Y16080D01*
X9420Y16020D01*
X9480Y15980D01*
X9550Y15966D01*
X9620Y15980D01*
X9680Y16020D01*
X9720Y16080D01*
X9734Y16150D01*
X9720Y16220D01*
X9680Y16280D01*
X9620Y16320D01*
X9550Y16334D01*
D02*
G37*
G36*
X12900Y16034D02*
X12830Y16020D01*
X12770Y15980D01*
X12730Y15920D01*
X12716Y15850D01*
X12730Y15780D01*
X12770Y15720D01*
X12830Y15680D01*
X12900Y15666D01*
X12970Y15680D01*
X13030Y15720D01*
X13070Y15780D01*
X13084Y15850D01*
X13070Y15920D01*
X13030Y15980D01*
X12970Y16020D01*
X12900Y16034D01*
D02*
G37*
G36*
X13900Y15910D02*
X13830Y15896D01*
X13770Y15856D01*
X13730Y15797D01*
X13716Y15727D01*
X13730Y15656D01*
X13770Y15597D01*
X13830Y15557D01*
X13900Y15543D01*
X13970Y15557D01*
X14030Y15597D01*
X14070Y15656D01*
X14084Y15727D01*
X14070Y15797D01*
X14030Y15856D01*
X13970Y15896D01*
X13900Y15910D01*
D02*
G37*
G36*
X25000Y15084D02*
X24930Y15070D01*
X24870Y15030D01*
X24830Y14970D01*
X24816Y14900D01*
X24830Y14830D01*
X24870Y14770D01*
X24930Y14730D01*
X25000Y14716D01*
X25070Y14730D01*
X25130Y14770D01*
X25170Y14830D01*
X25184Y14900D01*
X25170Y14970D01*
X25130Y15030D01*
X25070Y15070D01*
X25000Y15084D01*
D02*
G37*
G36*
X24700Y14634D02*
X24630Y14620D01*
X24570Y14580D01*
X24530Y14520D01*
X24516Y14450D01*
X24530Y14380D01*
X24570Y14320D01*
X24630Y14280D01*
X24700Y14266D01*
X24770Y14280D01*
X24830Y14320D01*
X24870Y14380D01*
X24884Y14450D01*
X24870Y14520D01*
X24830Y14580D01*
X24770Y14620D01*
X24700Y14634D01*
D02*
G37*
G36*
X21403Y14284D02*
X21333Y14270D01*
X21274Y14230D01*
X21234Y14170D01*
X21220Y14100D01*
X21234Y14030D01*
X21274Y13970D01*
X21333Y13930D01*
X21403Y13916D01*
X21474Y13930D01*
X21533Y13970D01*
X21573Y14030D01*
X21587Y14100D01*
X21573Y14170D01*
X21533Y14230D01*
X21474Y14270D01*
X21403Y14284D01*
D02*
G37*
G36*
X24500Y14184D02*
X24430Y14170D01*
X24370Y14130D01*
X24330Y14070D01*
X24316Y14000D01*
X24330Y13930D01*
X24370Y13870D01*
X24430Y13830D01*
X24500Y13816D01*
X24570Y13830D01*
X24630Y13870D01*
X24670Y13930D01*
X24684Y14000D01*
X24670Y14070D01*
X24630Y14130D01*
X24570Y14170D01*
X24500Y14184D01*
D02*
G37*
G36*
X21246Y13720D02*
X21180Y13706D01*
X21124Y13669D01*
X21086Y13613D01*
X21073Y13546D01*
X21086Y13480D01*
X21124Y13424D01*
X21180Y13386D01*
X21246Y13373D01*
X21313Y13386D01*
X21369Y13424D01*
X21406Y13480D01*
X21420Y13546D01*
X21406Y13613D01*
X21369Y13669D01*
X21313Y13706D01*
X21246Y13720D01*
D02*
G37*
G36*
X24250Y13734D02*
X24180Y13720D01*
X24120Y13680D01*
X24080Y13620D01*
X24066Y13550D01*
X24080Y13480D01*
X24120Y13420D01*
X24180Y13380D01*
X24250Y13366D01*
X24320Y13380D01*
X24380Y13420D01*
X24420Y13480D01*
X24434Y13550D01*
X24420Y13620D01*
X24380Y13680D01*
X24320Y13720D01*
X24250Y13734D01*
D02*
G37*
G36*
X27000Y13884D02*
X26930Y13870D01*
X26870Y13830D01*
X26830Y13770D01*
X26816Y13700D01*
X26830Y13630D01*
X26867Y13574D01*
Y13205D01*
X24195Y10533D01*
X23200D01*
X23149Y10522D01*
X23106Y10494D01*
X22906Y10294D01*
X22878Y10251D01*
X22867Y10200D01*
Y9776D01*
X22830Y9720D01*
X22816Y9650D01*
X22830Y9580D01*
X22870Y9520D01*
X22930Y9480D01*
X23000Y9466D01*
X23070Y9480D01*
X23130Y9520D01*
X23170Y9580D01*
X23184Y9650D01*
X23170Y9720D01*
X23133Y9776D01*
Y10145D01*
X23196Y10208D01*
X23235Y10176D01*
X23230Y10170D01*
X23216Y10100D01*
X23230Y10030D01*
X23270Y9970D01*
X23330Y9930D01*
X23400Y9916D01*
X23470Y9930D01*
X23526Y9967D01*
X24250D01*
X24301Y9978D01*
X24344Y10006D01*
X27355Y13017D01*
X28174D01*
X28230Y12980D01*
X28300Y12966D01*
X28370Y12980D01*
X28430Y13020D01*
X28470Y13080D01*
X28484Y13150D01*
X28470Y13220D01*
X28430Y13280D01*
X28370Y13320D01*
X28300Y13334D01*
X28230Y13320D01*
X28174Y13283D01*
X27300D01*
X27249Y13272D01*
X27206Y13244D01*
X27179Y13216D01*
X27133Y13235D01*
Y13574D01*
X27170Y13630D01*
X27184Y13700D01*
X27170Y13770D01*
X27130Y13830D01*
X27070Y13870D01*
X27000Y13884D01*
D02*
G37*
G36*
X15150Y13334D02*
X15080Y13320D01*
X15020Y13280D01*
X14980Y13220D01*
X14966Y13150D01*
X14980Y13080D01*
X15020Y13020D01*
X15080Y12980D01*
X15150Y12966D01*
X15220Y12980D01*
X15280Y13020D01*
X15320Y13080D01*
X15334Y13150D01*
X15320Y13220D01*
X15280Y13280D01*
X15220Y13320D01*
X15150Y13334D01*
D02*
G37*
G36*
X20700Y12984D02*
X20630Y12970D01*
X20570Y12930D01*
X20530Y12870D01*
X20516Y12800D01*
X20530Y12730D01*
X20570Y12670D01*
X20630Y12630D01*
X20700Y12616D01*
X20770Y12630D01*
X20830Y12670D01*
X20870Y12730D01*
X20884Y12800D01*
X20870Y12870D01*
X20830Y12930D01*
X20770Y12970D01*
X20700Y12984D01*
D02*
G37*
G36*
X22400Y12873D02*
X22334Y12860D01*
X22277Y12823D01*
X22240Y12766D01*
X22227Y12700D01*
X22240Y12634D01*
X22277Y12577D01*
X22334Y12540D01*
X22400Y12527D01*
X22466Y12540D01*
X22523Y12577D01*
X22560Y12634D01*
X22573Y12700D01*
X22560Y12766D01*
X22523Y12823D01*
X22466Y12860D01*
X22400Y12873D01*
D02*
G37*
G36*
X36381Y13302D02*
X35551D01*
Y12472D01*
X36381D01*
Y13302D01*
D02*
G37*
G36*
X20350Y12684D02*
X20280Y12670D01*
X20220Y12630D01*
X20180Y12570D01*
X20166Y12500D01*
X20180Y12430D01*
X20220Y12370D01*
X20280Y12330D01*
X20350Y12316D01*
X20420Y12330D01*
X20480Y12370D01*
X20520Y12430D01*
X20534Y12500D01*
X20520Y12570D01*
X20480Y12630D01*
X20420Y12670D01*
X20350Y12684D01*
D02*
G37*
G36*
X1681Y13052D02*
X851D01*
Y12222D01*
X1681D01*
Y13052D01*
D02*
G37*
G36*
X28700Y12234D02*
X28630Y12220D01*
X28629Y12219D01*
X28607Y12215D01*
X28553Y12178D01*
X27650D01*
X27650Y12178D01*
X27582Y12165D01*
X27524Y12126D01*
X23774Y8376D01*
X23735Y8318D01*
X23722Y8250D01*
Y6926D01*
X23716Y6900D01*
X23730Y6830D01*
X23770Y6770D01*
X23830Y6730D01*
X23900Y6716D01*
X23970Y6730D01*
X24030Y6770D01*
X24070Y6830D01*
X24084Y6900D01*
X24078Y6926D01*
Y8176D01*
X27724Y11822D01*
X28626D01*
X28694Y11835D01*
X28752Y11874D01*
X28755Y11878D01*
X28770Y11880D01*
X28830Y11920D01*
X28870Y11980D01*
X28884Y12050D01*
X28870Y12120D01*
X28830Y12180D01*
X28770Y12220D01*
X28700Y12234D01*
D02*
G37*
G36*
X25100Y12184D02*
X25030Y12170D01*
X24970Y12130D01*
X24930Y12070D01*
X24916Y12000D01*
X24930Y11930D01*
X24970Y11870D01*
X25030Y11830D01*
X25100Y11816D01*
X25170Y11830D01*
X25230Y11870D01*
X25270Y11930D01*
X25284Y12000D01*
X25270Y12070D01*
X25230Y12130D01*
X25170Y12170D01*
X25100Y12184D01*
D02*
G37*
G36*
X13300Y11934D02*
X13230Y11920D01*
X13170Y11880D01*
X13130Y11820D01*
X13116Y11750D01*
X13130Y11680D01*
X13170Y11620D01*
X13230Y11580D01*
X13300Y11566D01*
X13370Y11580D01*
X13430Y11620D01*
X13470Y11680D01*
X13484Y11750D01*
X13470Y11820D01*
X13430Y11880D01*
X13370Y11920D01*
X13300Y11934D01*
D02*
G37*
G36*
X19400Y11234D02*
X19330Y11220D01*
X19270Y11180D01*
X19230Y11120D01*
X19216Y11050D01*
X19230Y10980D01*
X19270Y10920D01*
X19330Y10880D01*
X19400Y10866D01*
X19470Y10880D01*
X19530Y10920D01*
X19570Y10980D01*
X19584Y11050D01*
X19570Y11120D01*
X19530Y11180D01*
X19470Y11220D01*
X19400Y11234D01*
D02*
G37*
G36*
X29500Y14303D02*
X26500D01*
X26441Y14291D01*
X26392Y14258D01*
X24259Y12125D01*
X24230Y12120D01*
X24170Y12080D01*
X24130Y12020D01*
X24116Y11950D01*
X24130Y11880D01*
X24170Y11820D01*
X24230Y11780D01*
X24300Y11766D01*
X24370Y11780D01*
X24430Y11820D01*
X24470Y11880D01*
X24475Y11909D01*
X26563Y13997D01*
X29437D01*
X30197Y13237D01*
Y12163D01*
X29737Y11703D01*
X27800D01*
X27741Y11691D01*
X27692Y11658D01*
X25483Y9450D01*
X25450Y9400D01*
X25438Y9341D01*
Y7859D01*
X25450Y7800D01*
X25483Y7750D01*
X26442Y6792D01*
X26491Y6759D01*
X26550Y6747D01*
X31505D01*
X31530Y6730D01*
X31600Y6716D01*
X31670Y6730D01*
X31730Y6770D01*
X31770Y6830D01*
X31784Y6900D01*
X31770Y6970D01*
X31730Y7030D01*
X31670Y7070D01*
X31600Y7084D01*
X31530Y7070D01*
X31505Y7053D01*
X26613D01*
X25744Y7922D01*
Y9278D01*
X26659Y10192D01*
X26705Y10173D01*
Y9555D01*
X27495D01*
Y10345D01*
X26877D01*
X26858Y10391D01*
X27863Y11397D01*
X29800D01*
X29859Y11409D01*
X29908Y11442D01*
X30458Y11992D01*
X30491Y12041D01*
X30503Y12100D01*
Y13300D01*
X30491Y13359D01*
X30458Y13408D01*
X29608Y14258D01*
X29559Y14291D01*
X29500Y14303D01*
D02*
G37*
G36*
X32100Y10349D02*
X31997Y10335D01*
X31901Y10295D01*
X31818Y10232D01*
X31755Y10149D01*
X31715Y10053D01*
X31701Y9950D01*
X31715Y9847D01*
X31755Y9751D01*
X31818Y9668D01*
X31901Y9605D01*
X31997Y9565D01*
X32100Y9551D01*
X32203Y9565D01*
X32299Y9605D01*
X32382Y9668D01*
X32445Y9751D01*
X32485Y9847D01*
X32499Y9950D01*
X32485Y10053D01*
X32445Y10149D01*
X32382Y10232D01*
X32299Y10295D01*
X32203Y10335D01*
X32100Y10349D01*
D02*
G37*
G36*
X30100D02*
X29997Y10335D01*
X29901Y10295D01*
X29818Y10232D01*
X29755Y10149D01*
X29715Y10053D01*
X29701Y9950D01*
X29715Y9847D01*
X29755Y9751D01*
X29818Y9668D01*
X29901Y9605D01*
X29997Y9565D01*
X30100Y9551D01*
X30203Y9565D01*
X30299Y9605D01*
X30382Y9668D01*
X30445Y9751D01*
X30485Y9847D01*
X30499Y9950D01*
X30485Y10053D01*
X30445Y10149D01*
X30382Y10232D01*
X30299Y10295D01*
X30203Y10335D01*
X30100Y10349D01*
D02*
G37*
G36*
X29100D02*
X28997Y10335D01*
X28901Y10295D01*
X28818Y10232D01*
X28755Y10149D01*
X28715Y10053D01*
X28701Y9950D01*
X28715Y9847D01*
X28755Y9751D01*
X28818Y9668D01*
X28901Y9605D01*
X28997Y9565D01*
X29100Y9551D01*
X29203Y9565D01*
X29299Y9605D01*
X29382Y9668D01*
X29445Y9751D01*
X29485Y9847D01*
X29499Y9950D01*
X29485Y10053D01*
X29445Y10149D01*
X29382Y10232D01*
X29299Y10295D01*
X29203Y10335D01*
X29100Y10349D01*
D02*
G37*
G36*
X33950Y9684D02*
X33880Y9670D01*
X33820Y9630D01*
X33780Y9570D01*
X33766Y9500D01*
X33780Y9430D01*
X33820Y9370D01*
X33880Y9330D01*
X33950Y9316D01*
X34020Y9330D01*
X34080Y9370D01*
X34120Y9430D01*
X34134Y9500D01*
X34120Y9570D01*
X34080Y9630D01*
X34020Y9670D01*
X33950Y9684D01*
D02*
G37*
G36*
X21770Y9563D02*
X21704Y9550D01*
X21648Y9513D01*
X21610Y9456D01*
X21597Y9390D01*
X21610Y9324D01*
X21648Y9267D01*
X21704Y9230D01*
X21770Y9217D01*
X21837Y9230D01*
X21893Y9267D01*
X21930Y9324D01*
X21944Y9390D01*
X21930Y9456D01*
X21893Y9513D01*
X21837Y9550D01*
X21770Y9563D01*
D02*
G37*
G36*
X12150Y9384D02*
X12080Y9370D01*
X12020Y9330D01*
X11980Y9270D01*
X11966Y9200D01*
X11980Y9130D01*
X12020Y9070D01*
X12080Y9030D01*
X12150Y9016D01*
X12220Y9030D01*
X12280Y9070D01*
X12320Y9130D01*
X12334Y9200D01*
X12320Y9270D01*
X12280Y9330D01*
X12220Y9370D01*
X12150Y9384D01*
D02*
G37*
G36*
X35266Y21453D02*
X35266Y21453D01*
X33300D01*
X33196Y21440D01*
X33098Y21399D01*
X33015Y21335D01*
X32951Y21252D01*
X32910Y21154D01*
X32897Y21050D01*
X32910Y20946D01*
X32951Y20848D01*
X33015Y20765D01*
X33098Y20701D01*
X33196Y20660D01*
X33300Y20647D01*
X35099D01*
X35430Y20315D01*
X35514Y20251D01*
X35611Y20210D01*
X35716Y20197D01*
X37297D01*
Y20035D01*
X37265D01*
Y19736D01*
X34373Y16844D01*
X34309Y16760D01*
X34269Y16663D01*
X34255Y16558D01*
X34255Y16558D01*
Y9742D01*
X34255Y9742D01*
X34269Y9637D01*
X34309Y9540D01*
X34373Y9456D01*
X34379Y9450D01*
X33833Y8903D01*
X28567D01*
X28503Y8967D01*
Y9950D01*
X28490Y10054D01*
X28449Y10152D01*
X28385Y10235D01*
X28302Y10299D01*
X28204Y10340D01*
X28100Y10353D01*
X27996Y10340D01*
X27898Y10299D01*
X27815Y10235D01*
X27751Y10152D01*
X27710Y10054D01*
X27697Y9950D01*
Y8800D01*
X27697Y8800D01*
X27710Y8696D01*
X27751Y8598D01*
X27815Y8515D01*
X28115Y8215D01*
X28198Y8151D01*
X28296Y8110D01*
X28400Y8097D01*
X34000D01*
X34000Y8097D01*
X34104Y8110D01*
X34202Y8151D01*
X34285Y8215D01*
X35117Y9047D01*
X38239D01*
Y5984D01*
Y4069D01*
X38124Y3953D01*
X37050D01*
X36946Y3940D01*
X36848Y3899D01*
X36765Y3835D01*
X35683Y2754D01*
X33667D01*
X33035Y3385D01*
X32952Y3449D01*
X32854Y3490D01*
X32750Y3503D01*
X32750Y3503D01*
X14667D01*
X12385Y5785D01*
X12302Y5849D01*
X12204Y5890D01*
X12100Y5903D01*
X11996Y5890D01*
X11898Y5849D01*
X11815Y5785D01*
X11751Y5702D01*
X11710Y5604D01*
X11697Y5500D01*
X11710Y5396D01*
X11751Y5298D01*
X11815Y5215D01*
X14215Y2815D01*
X14215Y2815D01*
X14298Y2751D01*
X14396Y2710D01*
X14500Y2697D01*
X14500Y2697D01*
X32583D01*
X33215Y2065D01*
X33298Y2001D01*
X33396Y1960D01*
X33500Y1947D01*
X35850D01*
X35850Y1947D01*
X35954Y1960D01*
X36052Y2001D01*
X36135Y2065D01*
X37217Y3147D01*
X38291D01*
X38291Y3147D01*
X38396Y3160D01*
X38493Y3201D01*
X38577Y3265D01*
X38928Y3616D01*
X38928Y3616D01*
X38992Y3700D01*
X39033Y3797D01*
X39046Y3901D01*
Y5984D01*
Y9257D01*
X39046Y9257D01*
X39033Y9362D01*
X38992Y9459D01*
X38928Y9542D01*
X38928Y9542D01*
X38735Y9735D01*
X38652Y9799D01*
X38554Y9840D01*
X38450Y9853D01*
X38450Y9853D01*
X35117D01*
X35062Y9909D01*
Y16391D01*
X37836Y19165D01*
X38135D01*
Y20035D01*
X38103D01*
Y20438D01*
X38123Y20487D01*
X38138Y20600D01*
X38123Y20713D01*
X38080Y20819D01*
X38010Y20910D01*
X37919Y20980D01*
X37813Y21023D01*
X37700Y21038D01*
X37587Y21023D01*
X37538Y21003D01*
X35883D01*
X35551Y21335D01*
X35467Y21399D01*
X35370Y21440D01*
X35266Y21453D01*
D02*
G37*
G36*
X1988Y9370D02*
X1895Y9352D01*
X1817Y9299D01*
X1764Y9221D01*
X1745Y9128D01*
X1764Y9035D01*
X1817Y8957D01*
X1895Y8904D01*
X1988Y8886D01*
X2081Y8904D01*
X2159Y8957D01*
X2212Y9035D01*
X2230Y9128D01*
X2212Y9221D01*
X2159Y9299D01*
X2081Y9352D01*
X1988Y9370D01*
D02*
G37*
G36*
X21545Y9033D02*
X21479Y9020D01*
X21422Y8983D01*
X21385Y8926D01*
X21372Y8860D01*
X21385Y8794D01*
X21422Y8737D01*
X21479Y8700D01*
X21545Y8687D01*
X21611Y8700D01*
X21668Y8737D01*
X21705Y8794D01*
X21718Y8860D01*
X21705Y8926D01*
X21668Y8983D01*
X21611Y9020D01*
X21545Y9033D01*
D02*
G37*
G36*
X36900Y8884D02*
X36830Y8870D01*
X36770Y8830D01*
X36730Y8770D01*
X36716Y8700D01*
X36730Y8630D01*
X36770Y8570D01*
X36830Y8530D01*
X36900Y8516D01*
X36970Y8530D01*
X37030Y8570D01*
X37070Y8630D01*
X37084Y8700D01*
X37070Y8770D01*
X37030Y8830D01*
X36970Y8870D01*
X36900Y8884D01*
D02*
G37*
G36*
X36550Y8284D02*
X36480Y8270D01*
X36420Y8230D01*
X36380Y8170D01*
X36366Y8100D01*
X36380Y8030D01*
X36420Y7970D01*
X36480Y7930D01*
X36550Y7916D01*
X36620Y7930D01*
X36680Y7970D01*
X36720Y8030D01*
X36734Y8100D01*
X36720Y8170D01*
X36680Y8230D01*
X36620Y8270D01*
X36550Y8284D01*
D02*
G37*
G36*
X37479Y8202D02*
X37386Y8183D01*
X37308Y8131D01*
X37255Y8052D01*
X37237Y7959D01*
X37255Y7866D01*
X37308Y7788D01*
X37386Y7735D01*
X37479Y7717D01*
X37572Y7735D01*
X37651Y7788D01*
X37703Y7866D01*
X37722Y7959D01*
X37703Y8052D01*
X37651Y8131D01*
X37572Y8183D01*
X37479Y8202D01*
D02*
G37*
G36*
X14425Y8063D02*
X14359Y8050D01*
X14302Y8013D01*
X14265Y7956D01*
X14252Y7890D01*
X14265Y7824D01*
X14302Y7767D01*
X14359Y7730D01*
X14425Y7717D01*
X14491Y7730D01*
X14548Y7767D01*
X14585Y7824D01*
X14598Y7890D01*
X14585Y7956D01*
X14548Y8013D01*
X14491Y8050D01*
X14425Y8063D01*
D02*
G37*
G36*
X600Y8434D02*
X530Y8420D01*
X470Y8380D01*
X430Y8320D01*
X416Y8250D01*
X430Y8180D01*
X470Y8120D01*
X530Y8080D01*
X542Y8078D01*
Y8027D01*
X536Y8026D01*
X477Y7986D01*
X437Y7927D01*
X423Y7856D01*
X437Y7786D01*
X477Y7727D01*
X536Y7687D01*
X606Y7673D01*
X677Y7687D01*
X736Y7727D01*
X776Y7786D01*
X790Y7856D01*
X776Y7927D01*
X736Y7986D01*
X677Y8026D01*
X664Y8028D01*
Y8079D01*
X670Y8080D01*
X730Y8120D01*
X770Y8180D01*
X784Y8250D01*
X770Y8320D01*
X730Y8380D01*
X670Y8420D01*
X600Y8434D01*
D02*
G37*
G36*
X35500Y7834D02*
X35430Y7820D01*
X35370Y7780D01*
X35330Y7720D01*
X35316Y7650D01*
X35330Y7580D01*
X35370Y7520D01*
X35430Y7480D01*
X35500Y7466D01*
X35570Y7480D01*
X35630Y7520D01*
X35670Y7580D01*
X35684Y7650D01*
X35670Y7720D01*
X35630Y7780D01*
X35570Y7820D01*
X35500Y7834D01*
D02*
G37*
G36*
X23050Y7584D02*
X22980Y7570D01*
X22920Y7530D01*
X22880Y7470D01*
X22866Y7400D01*
X22880Y7330D01*
X22920Y7270D01*
X22980Y7230D01*
X23050Y7216D01*
X23120Y7230D01*
X23180Y7270D01*
X23220Y7330D01*
X23234Y7400D01*
X23220Y7470D01*
X23180Y7530D01*
X23120Y7570D01*
X23050Y7584D01*
D02*
G37*
G36*
X35450Y7284D02*
X35380Y7270D01*
X35320Y7230D01*
X35280Y7170D01*
X35266Y7100D01*
X35280Y7030D01*
X35320Y6970D01*
X35380Y6930D01*
X35450Y6916D01*
X35520Y6930D01*
X35580Y6970D01*
X35620Y7030D01*
X35634Y7100D01*
X35620Y7170D01*
X35580Y7230D01*
X35520Y7270D01*
X35450Y7284D01*
D02*
G37*
G36*
X1988Y7024D02*
X1895Y7006D01*
X1817Y6953D01*
X1764Y6874D01*
X1745Y6782D01*
X1764Y6689D01*
X1817Y6610D01*
X1895Y6558D01*
X1988Y6539D01*
X2081Y6558D01*
X2159Y6610D01*
X2212Y6689D01*
X2230Y6782D01*
X2212Y6874D01*
X2159Y6953D01*
X2081Y7006D01*
X1988Y7024D01*
D02*
G37*
G36*
X35480Y6704D02*
X35409Y6690D01*
X35350Y6650D01*
X35310Y6591D01*
X35296Y6520D01*
X35310Y6450D01*
X35350Y6391D01*
X35409Y6351D01*
X35480Y6337D01*
X35550Y6351D01*
X35609Y6391D01*
X35649Y6450D01*
X35663Y6520D01*
X35649Y6591D01*
X35609Y6650D01*
X35550Y6690D01*
X35480Y6704D01*
D02*
G37*
G36*
X29750Y5834D02*
X29680Y5820D01*
X29620Y5780D01*
X29580Y5720D01*
X29566Y5650D01*
X29580Y5580D01*
X29620Y5520D01*
X29680Y5480D01*
X29750Y5466D01*
X29820Y5480D01*
X29880Y5520D01*
X29920Y5580D01*
X29934Y5650D01*
X29920Y5720D01*
X29880Y5780D01*
X29820Y5820D01*
X29750Y5834D01*
D02*
G37*
G36*
X37479Y5855D02*
X37386Y5837D01*
X37308Y5784D01*
X37255Y5706D01*
X37237Y5613D01*
X37255Y5520D01*
X37308Y5441D01*
X37386Y5389D01*
X37479Y5370D01*
X37572Y5389D01*
X37651Y5441D01*
X37703Y5520D01*
X37722Y5613D01*
X37703Y5706D01*
X37651Y5784D01*
X37572Y5837D01*
X37479Y5855D01*
D02*
G37*
G36*
X9495Y5895D02*
X8705D01*
Y5105D01*
X9495D01*
Y5895D01*
D02*
G37*
G36*
X10100Y5899D02*
X9997Y5885D01*
X9901Y5845D01*
X9818Y5782D01*
X9755Y5699D01*
X9715Y5603D01*
X9701Y5500D01*
X9715Y5397D01*
X9755Y5301D01*
X9818Y5218D01*
X9901Y5155D01*
X9997Y5115D01*
X10100Y5101D01*
X10203Y5115D01*
X10299Y5155D01*
X10382Y5218D01*
X10445Y5301D01*
X10485Y5397D01*
X10499Y5500D01*
X10485Y5603D01*
X10445Y5699D01*
X10382Y5782D01*
X10299Y5845D01*
X10203Y5885D01*
X10100Y5899D01*
D02*
G37*
G36*
X30100Y5384D02*
X30030Y5370D01*
X29970Y5330D01*
X29930Y5270D01*
X29916Y5200D01*
X29930Y5130D01*
X29970Y5070D01*
X30030Y5030D01*
X30100Y5016D01*
X30170Y5030D01*
X30230Y5070D01*
X30270Y5130D01*
X30284Y5200D01*
X30270Y5270D01*
X30230Y5330D01*
X30170Y5370D01*
X30100Y5384D01*
D02*
G37*
G36*
X33535Y5110D02*
X33465Y5096D01*
X33406Y5056D01*
X33366Y4996D01*
X33352Y4926D01*
X33366Y4856D01*
X33406Y4796D01*
X33465Y4756D01*
X33535Y4743D01*
X33606Y4756D01*
X33665Y4796D01*
X33705Y4856D01*
X33719Y4926D01*
X33705Y4996D01*
X33665Y5056D01*
X33606Y5096D01*
X33535Y5110D01*
D02*
G37*
G36*
X28150Y4434D02*
X28080Y4420D01*
X28020Y4380D01*
X27980Y4320D01*
X27966Y4250D01*
X27980Y4180D01*
X28020Y4120D01*
X28080Y4080D01*
X28150Y4066D01*
X28220Y4080D01*
X28280Y4120D01*
X28320Y4180D01*
X28334Y4250D01*
X28320Y4320D01*
X28280Y4380D01*
X28220Y4420D01*
X28150Y4434D01*
D02*
G37*
G36*
X28550Y3984D02*
X28480Y3970D01*
X28420Y3930D01*
X28380Y3870D01*
X28366Y3800D01*
X28380Y3730D01*
X28420Y3670D01*
X28480Y3630D01*
X28550Y3616D01*
X28620Y3630D01*
X28680Y3670D01*
X28720Y3730D01*
X28734Y3800D01*
X28720Y3870D01*
X28680Y3930D01*
X28620Y3970D01*
X28550Y3984D01*
D02*
G37*
G36*
X30350Y2419D02*
X30242Y2404D01*
X30141Y2362D01*
X30054Y2296D01*
X29988Y2209D01*
X29946Y2108D01*
X29931Y2000D01*
X29946Y1892D01*
X29988Y1791D01*
X30054Y1704D01*
X30141Y1638D01*
X30242Y1596D01*
X30350Y1581D01*
X30458Y1596D01*
X30559Y1638D01*
X30646Y1704D01*
X30712Y1791D01*
X30754Y1892D01*
X30769Y2000D01*
X30754Y2108D01*
X30712Y2209D01*
X30646Y2296D01*
X30559Y2362D01*
X30458Y2404D01*
X30350Y2419D01*
D02*
G37*
G36*
X29350D02*
X29242Y2404D01*
X29141Y2362D01*
X29054Y2296D01*
X28988Y2209D01*
X28946Y2108D01*
X28931Y2000D01*
X28946Y1892D01*
X28988Y1791D01*
X29054Y1704D01*
X29141Y1638D01*
X29242Y1596D01*
X29350Y1581D01*
X29458Y1596D01*
X29559Y1638D01*
X29646Y1704D01*
X29712Y1791D01*
X29754Y1892D01*
X29769Y2000D01*
X29754Y2108D01*
X29712Y2209D01*
X29646Y2296D01*
X29559Y2362D01*
X29458Y2404D01*
X29350Y2419D01*
D02*
G37*
G36*
X28350D02*
X28242Y2404D01*
X28141Y2362D01*
X28054Y2296D01*
X27988Y2209D01*
X27946Y2108D01*
X27931Y2000D01*
X27946Y1892D01*
X27988Y1791D01*
X28054Y1704D01*
X28141Y1638D01*
X28242Y1596D01*
X28350Y1581D01*
X28458Y1596D01*
X28559Y1638D01*
X28646Y1704D01*
X28712Y1791D01*
X28754Y1892D01*
X28769Y2000D01*
X28754Y2108D01*
X28712Y2209D01*
X28646Y2296D01*
X28559Y2362D01*
X28458Y2404D01*
X28350Y2419D01*
D02*
G37*
G36*
X27350D02*
X27242Y2404D01*
X27141Y2362D01*
X27054Y2296D01*
X26988Y2209D01*
X26946Y2108D01*
X26931Y2000D01*
X26946Y1892D01*
X26988Y1791D01*
X27054Y1704D01*
X27141Y1638D01*
X27242Y1596D01*
X27350Y1581D01*
X27458Y1596D01*
X27559Y1638D01*
X27646Y1704D01*
X27712Y1791D01*
X27754Y1892D01*
X27769Y2000D01*
X27754Y2108D01*
X27712Y2209D01*
X27646Y2296D01*
X27559Y2362D01*
X27458Y2404D01*
X27350Y2419D01*
D02*
G37*
G36*
X26350D02*
X26242Y2404D01*
X26141Y2362D01*
X26054Y2296D01*
X25988Y2209D01*
X25946Y2108D01*
X25931Y2000D01*
X25946Y1892D01*
X25988Y1791D01*
X26054Y1704D01*
X26141Y1638D01*
X26242Y1596D01*
X26350Y1581D01*
X26458Y1596D01*
X26559Y1638D01*
X26646Y1704D01*
X26712Y1791D01*
X26754Y1892D01*
X26769Y2000D01*
X26754Y2108D01*
X26712Y2209D01*
X26646Y2296D01*
X26559Y2362D01*
X26458Y2404D01*
X26350Y2419D01*
D02*
G37*
G36*
X25350D02*
X25242Y2404D01*
X25141Y2362D01*
X25054Y2296D01*
X24988Y2209D01*
X24946Y2108D01*
X24931Y2000D01*
X24946Y1892D01*
X24988Y1791D01*
X25054Y1704D01*
X25141Y1638D01*
X25242Y1596D01*
X25350Y1581D01*
X25458Y1596D01*
X25559Y1638D01*
X25646Y1704D01*
X25712Y1791D01*
X25754Y1892D01*
X25769Y2000D01*
X25754Y2108D01*
X25712Y2209D01*
X25646Y2296D01*
X25559Y2362D01*
X25458Y2404D01*
X25350Y2419D01*
D02*
G37*
G36*
X24350D02*
X24242Y2404D01*
X24141Y2362D01*
X24054Y2296D01*
X23988Y2209D01*
X23946Y2108D01*
X23931Y2000D01*
X23946Y1892D01*
X23988Y1791D01*
X24054Y1704D01*
X24141Y1638D01*
X24242Y1596D01*
X24350Y1581D01*
X24458Y1596D01*
X24559Y1638D01*
X24646Y1704D01*
X24712Y1791D01*
X24754Y1892D01*
X24769Y2000D01*
X24754Y2108D01*
X24712Y2209D01*
X24646Y2296D01*
X24559Y2362D01*
X24458Y2404D01*
X24350Y2419D01*
D02*
G37*
G36*
X23350D02*
X23242Y2404D01*
X23141Y2362D01*
X23054Y2296D01*
X22988Y2209D01*
X22946Y2108D01*
X22931Y2000D01*
X22946Y1892D01*
X22988Y1791D01*
X23054Y1704D01*
X23141Y1638D01*
X23242Y1596D01*
X23350Y1581D01*
X23458Y1596D01*
X23559Y1638D01*
X23646Y1704D01*
X23712Y1791D01*
X23754Y1892D01*
X23769Y2000D01*
X23754Y2108D01*
X23712Y2209D01*
X23646Y2296D01*
X23559Y2362D01*
X23458Y2404D01*
X23350Y2419D01*
D02*
G37*
G36*
X22350D02*
X22242Y2404D01*
X22141Y2362D01*
X22054Y2296D01*
X21988Y2209D01*
X21946Y2108D01*
X21931Y2000D01*
X21946Y1892D01*
X21988Y1791D01*
X22054Y1704D01*
X22141Y1638D01*
X22242Y1596D01*
X22350Y1581D01*
X22458Y1596D01*
X22559Y1638D01*
X22646Y1704D01*
X22712Y1791D01*
X22754Y1892D01*
X22769Y2000D01*
X22754Y2108D01*
X22712Y2209D01*
X22646Y2296D01*
X22559Y2362D01*
X22458Y2404D01*
X22350Y2419D01*
D02*
G37*
G36*
X21350D02*
X21242Y2404D01*
X21141Y2362D01*
X21054Y2296D01*
X20988Y2209D01*
X20946Y2108D01*
X20931Y2000D01*
X20946Y1892D01*
X20988Y1791D01*
X21054Y1704D01*
X21141Y1638D01*
X21242Y1596D01*
X21350Y1581D01*
X21458Y1596D01*
X21559Y1638D01*
X21646Y1704D01*
X21712Y1791D01*
X21754Y1892D01*
X21769Y2000D01*
X21754Y2108D01*
X21712Y2209D01*
X21646Y2296D01*
X21559Y2362D01*
X21458Y2404D01*
X21350Y2419D01*
D02*
G37*
G36*
X20350D02*
X20242Y2404D01*
X20141Y2362D01*
X20054Y2296D01*
X19988Y2209D01*
X19946Y2108D01*
X19931Y2000D01*
X19946Y1892D01*
X19988Y1791D01*
X20054Y1704D01*
X20141Y1638D01*
X20242Y1596D01*
X20350Y1581D01*
X20458Y1596D01*
X20559Y1638D01*
X20646Y1704D01*
X20712Y1791D01*
X20754Y1892D01*
X20769Y2000D01*
X20754Y2108D01*
X20712Y2209D01*
X20646Y2296D01*
X20559Y2362D01*
X20458Y2404D01*
X20350Y2419D01*
D02*
G37*
G36*
X19350D02*
X19242Y2404D01*
X19141Y2362D01*
X19054Y2296D01*
X18988Y2209D01*
X18946Y2108D01*
X18931Y2000D01*
X18946Y1892D01*
X18988Y1791D01*
X19054Y1704D01*
X19141Y1638D01*
X19242Y1596D01*
X19350Y1581D01*
X19458Y1596D01*
X19559Y1638D01*
X19646Y1704D01*
X19712Y1791D01*
X19754Y1892D01*
X19769Y2000D01*
X19754Y2108D01*
X19712Y2209D01*
X19646Y2296D01*
X19559Y2362D01*
X19458Y2404D01*
X19350Y2419D01*
D02*
G37*
G36*
X18350D02*
X18242Y2404D01*
X18141Y2362D01*
X18054Y2296D01*
X17988Y2209D01*
X17946Y2108D01*
X17931Y2000D01*
X17946Y1892D01*
X17988Y1791D01*
X18054Y1704D01*
X18141Y1638D01*
X18242Y1596D01*
X18350Y1581D01*
X18458Y1596D01*
X18559Y1638D01*
X18646Y1704D01*
X18712Y1791D01*
X18754Y1892D01*
X18769Y2000D01*
X18754Y2108D01*
X18712Y2209D01*
X18646Y2296D01*
X18559Y2362D01*
X18458Y2404D01*
X18350Y2419D01*
D02*
G37*
G36*
X17350D02*
X17242Y2404D01*
X17141Y2362D01*
X17054Y2296D01*
X16988Y2209D01*
X16946Y2108D01*
X16931Y2000D01*
X16946Y1892D01*
X16988Y1791D01*
X17054Y1704D01*
X17141Y1638D01*
X17242Y1596D01*
X17350Y1581D01*
X17458Y1596D01*
X17559Y1638D01*
X17646Y1704D01*
X17712Y1791D01*
X17754Y1892D01*
X17769Y2000D01*
X17754Y2108D01*
X17712Y2209D01*
X17646Y2296D01*
X17559Y2362D01*
X17458Y2404D01*
X17350Y2419D01*
D02*
G37*
G36*
X16350D02*
X16242Y2404D01*
X16141Y2362D01*
X16054Y2296D01*
X15988Y2209D01*
X15946Y2108D01*
X15931Y2000D01*
X15946Y1892D01*
X15988Y1791D01*
X16054Y1704D01*
X16141Y1638D01*
X16242Y1596D01*
X16350Y1581D01*
X16458Y1596D01*
X16559Y1638D01*
X16646Y1704D01*
X16712Y1791D01*
X16754Y1892D01*
X16769Y2000D01*
X16754Y2108D01*
X16712Y2209D01*
X16646Y2296D01*
X16559Y2362D01*
X16458Y2404D01*
X16350Y2419D01*
D02*
G37*
G36*
X15350D02*
X15242Y2404D01*
X15141Y2362D01*
X15054Y2296D01*
X14988Y2209D01*
X14946Y2108D01*
X14931Y2000D01*
X14946Y1892D01*
X14988Y1791D01*
X15054Y1704D01*
X15141Y1638D01*
X15242Y1596D01*
X15350Y1581D01*
X15458Y1596D01*
X15559Y1638D01*
X15646Y1704D01*
X15712Y1791D01*
X15754Y1892D01*
X15769Y2000D01*
X15754Y2108D01*
X15712Y2209D01*
X15646Y2296D01*
X15559Y2362D01*
X15458Y2404D01*
X15350Y2419D01*
D02*
G37*
G36*
X14350D02*
X14242Y2404D01*
X14141Y2362D01*
X14054Y2296D01*
X13988Y2209D01*
X13946Y2108D01*
X13931Y2000D01*
X13946Y1892D01*
X13988Y1791D01*
X14054Y1704D01*
X14141Y1638D01*
X14242Y1596D01*
X14350Y1581D01*
X14458Y1596D01*
X14559Y1638D01*
X14646Y1704D01*
X14712Y1791D01*
X14754Y1892D01*
X14769Y2000D01*
X14754Y2108D01*
X14712Y2209D01*
X14646Y2296D01*
X14559Y2362D01*
X14458Y2404D01*
X14350Y2419D01*
D02*
G37*
G36*
X13350D02*
X13242Y2404D01*
X13141Y2362D01*
X13054Y2296D01*
X12988Y2209D01*
X12946Y2108D01*
X12931Y2000D01*
X12946Y1892D01*
X12988Y1791D01*
X13054Y1704D01*
X13141Y1638D01*
X13242Y1596D01*
X13350Y1581D01*
X13458Y1596D01*
X13559Y1638D01*
X13646Y1704D01*
X13712Y1791D01*
X13754Y1892D01*
X13769Y2000D01*
X13754Y2108D01*
X13712Y2209D01*
X13646Y2296D01*
X13559Y2362D01*
X13458Y2404D01*
X13350Y2419D01*
D02*
G37*
G36*
X12350D02*
X12242Y2404D01*
X12141Y2362D01*
X12054Y2296D01*
X11988Y2209D01*
X11946Y2108D01*
X11931Y2000D01*
X11946Y1892D01*
X11988Y1791D01*
X12054Y1704D01*
X12141Y1638D01*
X12242Y1596D01*
X12350Y1581D01*
X12458Y1596D01*
X12559Y1638D01*
X12646Y1704D01*
X12712Y1791D01*
X12754Y1892D01*
X12769Y2000D01*
X12754Y2108D01*
X12712Y2209D01*
X12646Y2296D01*
X12559Y2362D01*
X12458Y2404D01*
X12350Y2419D01*
D02*
G37*
G36*
X11350D02*
X11242Y2404D01*
X11141Y2362D01*
X11054Y2296D01*
X10988Y2209D01*
X10946Y2108D01*
X10931Y2000D01*
X10946Y1892D01*
X10988Y1791D01*
X11054Y1704D01*
X11141Y1638D01*
X11242Y1596D01*
X11350Y1581D01*
X11458Y1596D01*
X11559Y1638D01*
X11646Y1704D01*
X11712Y1791D01*
X11754Y1892D01*
X11769Y2000D01*
X11754Y2108D01*
X11712Y2209D01*
X11646Y2296D01*
X11559Y2362D01*
X11458Y2404D01*
X11350Y2419D01*
D02*
G37*
G36*
X10350D02*
X10242Y2404D01*
X10141Y2362D01*
X10054Y2296D01*
X9988Y2209D01*
X9946Y2108D01*
X9931Y2000D01*
X9946Y1892D01*
X9988Y1791D01*
X10054Y1704D01*
X10141Y1638D01*
X10242Y1596D01*
X10350Y1581D01*
X10458Y1596D01*
X10559Y1638D01*
X10646Y1704D01*
X10712Y1791D01*
X10754Y1892D01*
X10769Y2000D01*
X10754Y2108D01*
X10712Y2209D01*
X10646Y2296D01*
X10559Y2362D01*
X10458Y2404D01*
X10350Y2419D01*
D02*
G37*
G36*
X9350D02*
X9242Y2404D01*
X9141Y2362D01*
X9054Y2296D01*
X8988Y2209D01*
X8946Y2108D01*
X8931Y2000D01*
X8946Y1892D01*
X8988Y1791D01*
X9054Y1704D01*
X9141Y1638D01*
X9242Y1596D01*
X9350Y1581D01*
X9458Y1596D01*
X9559Y1638D01*
X9646Y1704D01*
X9712Y1791D01*
X9754Y1892D01*
X9769Y2000D01*
X9754Y2108D01*
X9712Y2209D01*
X9646Y2296D01*
X9559Y2362D01*
X9458Y2404D01*
X9350Y2419D01*
D02*
G37*
%LPD*%
D10*
X25591Y7859D02*
Y9341D01*
X26550Y6900D02*
X31600D01*
X25591Y7859D02*
X26550Y6900D01*
X24300Y11950D02*
X26500Y14150D01*
X29500D01*
X30350Y12100D02*
Y13300D01*
X29500Y14150D02*
X30350Y13300D01*
X29800Y11550D02*
X30350Y12100D01*
X25591Y9341D02*
X27800Y11550D01*
X29800D01*
X-4175Y600D02*
X-3975Y0D01*
X-3775Y600D01*
X-3975Y25600D02*
X-3775Y25000D01*
X-4175D02*
X-3975Y25600D01*
Y0D02*
Y10531D01*
Y14749D02*
Y25600D01*
X-4075Y0D02*
X-25D01*
X-4075Y25600D02*
X-1525D01*
X-25Y-3800D02*
X575Y-3600D01*
X-25Y-3800D02*
X575Y-4000D01*
X38825D02*
X39425Y-3800D01*
X38825Y-3600D02*
X39425Y-3800D01*
X-25D02*
X17181D01*
X21899D02*
X39425D01*
X-25Y-3900D02*
Y0D01*
X39425Y-3900D02*
Y-2000D01*
D17*
X27000Y13150D02*
Y13700D01*
X24250Y10400D02*
X27000Y13150D01*
X23400Y10100D02*
X24250D01*
X27300Y13150D02*
X28300D01*
X24250Y10100D02*
X27300Y13150D01*
X23200Y10400D02*
X24250D01*
X23000Y9650D02*
Y10200D01*
X23200Y10400D01*
X-4215Y11091D02*
X-4115Y10891D01*
X-3915Y10691D01*
X-3715D01*
X-3615Y10791D01*
Y10991D01*
X-3715Y11091D01*
X-3815D01*
X-3915Y10991D01*
Y10691D01*
X-4215Y11690D02*
Y11290D01*
X-3915D01*
X-4015Y11490D01*
Y11590D01*
X-3915Y11690D01*
X-3715D01*
X-3615Y11590D01*
Y11390D01*
X-3715Y11290D01*
X-3615Y11890D02*
X-3715D01*
Y11990D01*
X-3615D01*
Y11890D01*
X-4115Y12390D02*
X-4215Y12490D01*
Y12690D01*
X-4115Y12790D01*
X-3715D01*
X-3615Y12690D01*
Y12490D01*
X-3715Y12390D01*
X-4115D01*
X-3615Y13390D02*
Y12990D01*
X-4015Y13390D01*
X-4115D01*
X-4215Y13290D01*
Y13090D01*
X-4115Y12990D01*
X-3615Y13590D02*
X-4015D01*
Y13690D01*
X-3915Y13790D01*
X-3615D01*
X-3915D01*
X-4015Y13890D01*
X-3915Y13990D01*
X-3615D01*
Y14189D02*
X-4015D01*
Y14289D01*
X-3915Y14389D01*
X-3615D01*
X-3915D01*
X-4015Y14489D01*
X-3915Y14589D01*
X-3615D01*
X17341Y-4160D02*
X17541D01*
X17441D01*
Y-3560D01*
X17341Y-3660D01*
X17841D02*
X17941Y-3560D01*
X18140D01*
X18240Y-3660D01*
Y-4060D01*
X18140Y-4160D01*
X17941D01*
X17841Y-4060D01*
Y-3660D01*
X18440D02*
X18540Y-3560D01*
X18740D01*
X18840Y-3660D01*
Y-4060D01*
X18740Y-4160D01*
X18540D01*
X18440Y-4060D01*
Y-3660D01*
X19040Y-4160D02*
Y-4060D01*
X19140D01*
Y-4160D01*
X19040D01*
X19940D02*
X19540D01*
X19940Y-3760D01*
Y-3660D01*
X19840Y-3560D01*
X19640D01*
X19540Y-3660D01*
X20140D02*
X20240Y-3560D01*
X20440D01*
X20540Y-3660D01*
Y-4060D01*
X20440Y-4160D01*
X20240D01*
X20140Y-4060D01*
Y-3660D01*
X20740Y-4160D02*
Y-3760D01*
X20840D01*
X20940Y-3860D01*
Y-4160D01*
Y-3860D01*
X21040Y-3760D01*
X21139Y-3860D01*
Y-4160D01*
X21339D02*
Y-3760D01*
X21439D01*
X21539Y-3860D01*
Y-4160D01*
Y-3860D01*
X21639Y-3760D01*
X21739Y-3860D01*
Y-4160D01*
D18*
X39425Y0D02*
Y25600D01*
X25D02*
X39425D01*
X25Y0D02*
X39425D01*
X25D02*
Y25550D01*
X-25Y0D02*
X25D01*
D58*
X19650Y14650D02*
Y14710D01*
X9400Y9100D02*
X9450Y9150D01*
X20800Y4750D02*
X20850Y4700D01*
X9350Y11900D02*
X9450Y11800D01*
D59*
X23900Y8250D02*
X27650Y12000D01*
X23900Y6900D02*
Y8250D01*
X27650Y12000D02*
X28626D01*
X28676Y12050D02*
X28700D01*
X28626Y12000D02*
X28676Y12050D01*
D63*
X27450Y22050D02*
D03*
X33300Y23050D02*
D03*
Y21050D02*
D03*
X28100Y9950D02*
D03*
X31100D02*
D03*
X12100Y5500D02*
D03*
X11100D02*
D03*
D65*
X37934Y15013D02*
D03*
X36950D02*
D03*
X35966D02*
D03*
X37934Y12887D02*
D03*
X36950D02*
D03*
X3234Y14763D02*
D03*
X2250D02*
D03*
X1266D02*
D03*
X3234Y12637D02*
D03*
X2250D02*
D03*
X25200Y24100D02*
D03*
X31350Y2000D02*
D03*
D66*
X2200Y24100D02*
D03*
X8350Y2000D02*
D03*
D67*
X37700Y19600D02*
D03*
D68*
Y20600D02*
D03*
Y21600D02*
D03*
Y22600D02*
D03*
Y23600D02*
D03*
D69*
X1779Y6254D02*
D03*
Y9656D02*
D03*
X37688Y8487D02*
D03*
Y5085D02*
D03*
D70*
X3425Y6254D02*
D03*
Y9656D02*
D03*
X36042Y8487D02*
D03*
Y5085D02*
D03*
D73*
X12150Y19550D02*
D03*
X15350Y16400D02*
D03*
X32644Y7435D02*
D03*
X13050Y20500D02*
D03*
X23100Y15400D02*
D03*
X14750Y18650D02*
D03*
X19650Y14710D02*
D03*
X25450Y15500D02*
D03*
X24300Y11950D02*
D03*
X31600Y6900D02*
D03*
X23900D02*
D03*
X28700Y12050D02*
D03*
X25450Y10450D02*
D03*
X23400Y10100D02*
D03*
X28300Y13150D02*
D03*
X22500Y9900D02*
D03*
X21500Y12550D02*
D03*
X18900Y10100D02*
D03*
X5350Y20100D02*
D03*
X6600Y19250D02*
D03*
X38450Y9450D02*
D03*
X20250Y13100D02*
D03*
X21007Y13142D02*
D03*
X19100Y12700D02*
D03*
X21456Y11300D02*
D03*
X7950Y16850D02*
D03*
X8250Y20750D02*
D03*
X27000Y13700D02*
D03*
X29200Y14650D02*
D03*
X23000Y9650D02*
D03*
X3650Y20750D02*
D03*
X4150Y17050D02*
D03*
X1225Y10256D02*
D03*
X875Y6956D02*
D03*
X38643Y5984D02*
D03*
X22250Y4000D02*
D03*
X18450Y13450D02*
D03*
X21900D02*
D03*
X18700Y12700D02*
D03*
X2100Y21600D02*
D03*
X29400Y12050D02*
D03*
X13250Y12250D02*
D03*
X24850Y5450D02*
D03*
X32645Y6436D02*
D03*
X13800Y17100D02*
D03*
X11650Y11800D02*
D03*
X11550Y14400D02*
D03*
X7350Y13700D02*
D03*
X6650Y12650D02*
D03*
X5550Y9150D02*
D03*
X5999Y1151D02*
D03*
X4400Y1800D02*
D03*
X1500D02*
D03*
X20800Y4750D02*
D03*
X26200Y4700D02*
D03*
X7350Y4400D02*
D03*
X2050Y17050D02*
D03*
X8000Y11850D02*
D03*
X9350Y14400D02*
D03*
X9400Y9100D02*
D03*
X9450Y11800D02*
D03*
X13200Y10750D02*
D03*
X16250Y12750D02*
D03*
X16200Y17800D02*
D03*
X5353Y18403D02*
D03*
D74*
X21450Y5550D02*
D03*
X6700Y7249D02*
D03*
D75*
X8250Y20750D02*
X10963D01*
X18450Y13450D02*
X19650Y14650D01*
X21500Y13050D02*
X22384Y13934D01*
X5344Y5006D02*
X8350Y2000D01*
X3494Y5006D02*
X5344D01*
X4350Y5861D02*
Y12000D01*
X3500Y11150D02*
X4350Y12000D01*
Y16850D01*
X6600Y16600D02*
Y19250D01*
X4350Y16850D02*
X4950Y16250D01*
X6250D01*
X6600Y16600D01*
X4150Y17050D02*
X4350Y16850D01*
X3494Y5006D02*
X4350Y5861D01*
X19710Y14710D02*
X20659Y15659D01*
X22384Y13934D02*
Y14266D01*
X20659Y15659D02*
X20991D01*
X22384Y14266D01*
X22500Y9900D02*
Y11550D01*
X21500Y12550D02*
X22500Y11550D01*
X21500Y12550D02*
Y13050D01*
X18900Y10100D02*
X20800Y8200D01*
X16250Y12750D02*
X18900Y10100D01*
X20800Y4750D02*
Y8200D01*
X9450Y9150D02*
Y11800D01*
X10500Y10750D01*
X13200D01*
X9350Y11900D02*
Y13200D01*
X8000Y11850D02*
X9350Y13200D01*
Y14400D01*
X16950Y14950D02*
X18450Y13450D01*
X16950D02*
Y14950D01*
Y17050D01*
X5550Y20750D02*
X8250D01*
X3650Y22650D02*
X5550Y20750D01*
X3650Y20750D02*
Y22650D01*
X7950Y15800D02*
X9350Y14400D01*
X7950Y15800D02*
Y16850D01*
X37700Y22600D02*
Y23600D01*
X36550Y24750D02*
X37700Y23600D01*
X31600Y24750D02*
X36550D01*
X28900Y19100D02*
Y22050D01*
X31600Y24750D01*
X27600Y17800D02*
X28900Y19100D01*
X16200Y17800D02*
X27600D01*
X1225Y10256D02*
X2119Y11150D01*
X3500D01*
X1275Y5006D02*
X3494D01*
X2200Y24100D02*
X3650Y22650D01*
X875Y5406D02*
Y6956D01*
Y5406D02*
X1275Y5006D01*
X3650Y20106D02*
X5353Y18403D01*
X3650Y20106D02*
Y20750D01*
X20850Y4700D02*
X26200D01*
X16200Y17800D02*
X16950Y17050D01*
X16250Y12750D02*
X16950Y13450D01*
X13914Y17800D02*
X16200D01*
X7350Y4400D02*
Y7050D01*
X9400Y9100D01*
X13200Y10750D02*
X14250D01*
X16250Y12750D01*
X10963Y20750D02*
X12457Y19257D01*
X13914Y17800D01*
D84*
X34658Y9742D02*
X34950Y9450D01*
X34658Y9742D02*
Y16558D01*
X37700Y19600D01*
Y20600D01*
X33300Y21050D02*
X35266D01*
X35716Y20600D01*
X37700D01*
X34950Y9450D02*
X38450D01*
X34000Y8500D02*
X34950Y9450D01*
X28400Y8500D02*
X34000D01*
X28100Y8800D02*
Y9950D01*
Y8800D02*
X28400Y8500D01*
X38643Y5984D02*
Y9257D01*
X38450Y9450D02*
X38643Y9257D01*
Y3901D02*
Y5984D01*
X38291Y3550D02*
X38643Y3901D01*
X37050Y3550D02*
X38291D01*
X35850Y2350D02*
X37050Y3550D01*
X14500Y3100D02*
X32750D01*
X33500Y2350D02*
X35850D01*
X32750Y3100D02*
X33500Y2350D01*
X12100Y5500D02*
X14500Y3100D01*
M02*
