G04*
G04 #@! TF.GenerationSoftware,Altium Limited,Altium Designer,20.0.13 (296)*
G04*
G04 Layer_Color=32896*
%FSLAX24Y24*%
%MOIN*%
G70*
G01*
G75*
%ADD10C,0.0100*%
%ADD17C,0.0060*%
%ADD18C,0.0200*%
G36*
X18843Y1213D02*
X18851Y1212D01*
X18857Y1210D01*
X18862Y1208D01*
X18866Y1207D01*
X18868Y1204D01*
X18869D01*
X18879Y1195D01*
X18886Y1185D01*
X18888Y1181D01*
X18890Y1177D01*
X18891Y1174D01*
Y1173D01*
X18892Y1168D01*
X18893Y1167D01*
Y1165D01*
X18898Y1158D01*
X18899Y1155D01*
Y1160D01*
Y1163D01*
Y1164D01*
X18900Y1175D01*
X18902Y1183D01*
X18906Y1188D01*
X18907Y1190D01*
X18913Y1195D01*
X18920Y1199D01*
X18927Y1200D01*
X18929D01*
X18934Y1199D01*
X18939Y1198D01*
X18942Y1195D01*
X18943Y1194D01*
X18950Y1187D01*
X18952Y1183D01*
X18953Y1182D01*
X18964Y1163D01*
X18974Y1148D01*
X18983Y1133D01*
X18990Y1121D01*
X18996Y1112D01*
X19000Y1105D01*
X19002Y1101D01*
X19003Y1100D01*
X19009Y1090D01*
X19013Y1083D01*
X19017Y1077D01*
X19019Y1073D01*
X19021Y1070D01*
X19022Y1069D01*
Y1068D01*
X19028Y1054D01*
X19033Y1043D01*
X19036Y1039D01*
X19038Y1036D01*
X19039Y1033D01*
Y1032D01*
X19044Y1021D01*
X19049Y1012D01*
X19052Y1007D01*
X19053Y1004D01*
X19058Y994D01*
X19061Y985D01*
X19063Y978D01*
X19064Y977D01*
Y975D01*
X19068Y967D01*
X19070Y960D01*
X19071Y956D01*
Y954D01*
X19076Y949D01*
X19077Y947D01*
X19078Y946D01*
X19081Y940D01*
X19082Y938D01*
Y937D01*
X19086Y928D01*
X19089Y921D01*
X19091Y916D01*
X19092Y914D01*
X19094Y909D01*
X19097Y904D01*
X19098Y901D01*
X19099Y900D01*
X19106Y884D01*
X19112Y871D01*
X19117Y861D01*
X19121Y852D01*
X19123Y846D01*
X19126Y841D01*
X19128Y839D01*
Y838D01*
X19130Y832D01*
X19132Y828D01*
Y825D01*
X19133Y827D01*
X19134Y830D01*
X19136Y831D01*
X19139Y836D01*
X19141Y839D01*
X19142Y840D01*
X19143Y841D01*
X19146Y853D01*
X19148Y863D01*
X19150Y873D01*
X19152Y881D01*
X19153Y889D01*
X19154Y893D01*
X19156Y897D01*
Y898D01*
X19159Y914D01*
X19161Y922D01*
X19162Y928D01*
X19163Y933D01*
Y937D01*
X19164Y939D01*
Y940D01*
X19167Y951D01*
X19168Y961D01*
X19170Y969D01*
X19171Y977D01*
X19172Y983D01*
Y988D01*
X19173Y990D01*
Y991D01*
X19174Y1007D01*
X19176Y1019D01*
Y1023D01*
Y1027D01*
Y1028D01*
Y1029D01*
X19177Y1034D01*
X19178Y1037D01*
Y1042D01*
Y1044D01*
Y1051D01*
X19177Y1060D01*
Y1067D01*
Y1068D01*
Y1069D01*
X19176Y1080D01*
X19174Y1089D01*
Y1093D01*
Y1094D01*
Y1104D01*
Y1113D01*
X19176Y1120D01*
Y1121D01*
Y1122D01*
Y1131D01*
X19177Y1138D01*
X19178Y1142D01*
Y1143D01*
X19181Y1153D01*
X19187Y1161D01*
X19190Y1167D01*
X19192Y1168D01*
X19201Y1173D01*
X19211Y1177D01*
X19216Y1178D01*
X19222D01*
X19232Y1172D01*
X19239Y1169D01*
X19244Y1165D01*
X19249Y1164D01*
X19251Y1163D01*
X19252Y1162D01*
X19271D01*
X19282Y1158D01*
X19289Y1152D01*
X19293Y1148D01*
X19294Y1147D01*
Y1145D01*
X19298Y1135D01*
X19299Y1125D01*
X19300Y1121D01*
Y1118D01*
Y1115D01*
Y1114D01*
Y1105D01*
Y1102D01*
Y1101D01*
Y1095D01*
X19299Y1090D01*
Y1085D01*
Y1084D01*
X19298Y1077D01*
X19297Y1071D01*
Y1068D01*
Y1067D01*
X19296Y1059D01*
Y1057D01*
Y1055D01*
X19288Y1047D01*
X19292Y1038D01*
X19289Y1019D01*
X19288Y1011D01*
X19287Y1004D01*
X19286Y999D01*
X19284Y994D01*
Y992D01*
Y991D01*
X19282Y978D01*
X19281Y967D01*
X19280Y960D01*
Y959D01*
Y958D01*
X19244Y836D01*
X19239Y823D01*
X19234Y813D01*
X19231Y806D01*
X19230Y804D01*
Y803D01*
X19226Y794D01*
X19222Y789D01*
X19221Y787D01*
Y786D01*
X19217Y772D01*
X19211Y762D01*
X19209Y758D01*
X19208Y754D01*
X19206Y752D01*
Y751D01*
X19197Y740D01*
X19188Y732D01*
X19181Y727D01*
X19180Y724D01*
X19179D01*
X19182Y717D01*
X19184Y710D01*
X19187Y704D01*
X19188Y703D01*
Y702D01*
X19190Y694D01*
X19193Y689D01*
X19194Y684D01*
X19196Y683D01*
X19201Y672D01*
X19204Y662D01*
X19207Y657D01*
X19208Y656D01*
Y654D01*
X19211Y646D01*
X19212Y638D01*
X19214Y632D01*
Y631D01*
Y630D01*
X19213Y623D01*
X19212Y622D01*
Y621D01*
X19212Y621D01*
X19218Y611D01*
X19223Y600D01*
X19226Y596D01*
X19227Y592D01*
X19228Y590D01*
Y589D01*
X19231Y577D01*
X19234Y564D01*
X19236Y560D01*
X19237Y557D01*
X19238Y554D01*
Y553D01*
X19240Y542D01*
X19241Y536D01*
Y531D01*
Y530D01*
X19240Y522D01*
X19237Y518D01*
X19234Y514D01*
X19233Y513D01*
X19227Y510D01*
X19220Y507D01*
X19216Y506D01*
X19213Y504D01*
X19208Y503D01*
X19202D01*
X19199Y502D01*
X19198D01*
X19192Y501D01*
X19187D01*
X19184Y500D01*
X19179D01*
X19172Y502D01*
X19159Y508D01*
X19152Y511D01*
X19147Y514D01*
X19143Y516D01*
X19142Y517D01*
X19131Y523D01*
X19123Y530D01*
X19118Y536D01*
X19114Y541D01*
X19111Y546D01*
X19110Y549D01*
Y550D01*
Y551D01*
X19111Y556D01*
X19113Y560D01*
X19116Y564D01*
X19117Y566D01*
X19120Y572D01*
X19121Y576D01*
X19122Y578D01*
Y581D01*
X19121Y586D01*
Y589D01*
Y591D01*
X19119Y600D01*
X19118Y607D01*
X19116Y611D01*
Y612D01*
X19111Y631D01*
X19109Y640D01*
X19107Y648D01*
X19104Y654D01*
X19102Y660D01*
X19101Y663D01*
Y664D01*
X19093Y684D01*
X19090Y694D01*
X19087Y702D01*
X19083Y709D01*
X19081Y714D01*
X19079Y718D01*
Y719D01*
X19050Y781D01*
Y788D01*
Y791D01*
Y793D01*
X19040Y809D01*
X19031Y822D01*
X19023Y834D01*
X19016Y846D01*
X19010Y856D01*
X19006Y862D01*
X19003Y867D01*
X19002Y868D01*
X18994Y880D01*
X18988Y891D01*
X18982Y901D01*
X18978Y910D01*
X18973Y917D01*
X18971Y922D01*
X18969Y926D01*
Y927D01*
X18966Y932D01*
X18963Y938D01*
X18962Y940D01*
Y941D01*
X18961Y946D01*
X18960Y949D01*
Y950D01*
Y951D01*
X18956Y956D01*
X18954Y957D01*
X18953Y958D01*
X18950Y962D01*
X18948Y966D01*
X18947Y969D01*
Y970D01*
X18946Y977D01*
Y982D01*
X18944Y987D01*
Y988D01*
X18943Y990D01*
X18940Y993D01*
X18938Y997D01*
X18937Y998D01*
X18931Y1013D01*
X18927Y1027D01*
X18926Y1032D01*
X18924Y1036D01*
X18923Y1038D01*
Y1039D01*
X18919Y1053D01*
X18914Y1065D01*
X18912Y1070D01*
X18911Y1074D01*
X18910Y1077D01*
Y1078D01*
X18907Y1092D01*
X18906Y1097D01*
X18906Y1097D01*
X18903Y1094D01*
X18902Y1093D01*
X18886Y1088D01*
X18866Y1090D01*
X18856Y1091D01*
X18848Y1092D01*
X18841D01*
X18836Y1093D01*
X18831D01*
X18823Y1092D01*
X18821Y1091D01*
X18820D01*
X18814Y1090D01*
X18808Y1089D01*
X18803Y1088D01*
X18801Y1087D01*
X18778Y1094D01*
X18773Y1093D01*
X18769Y1092D01*
X18767Y1091D01*
X18766D01*
X18757Y1088D01*
X18753Y1087D01*
X18752D01*
X18716Y1085D01*
X18711Y1084D01*
X18706Y1083D01*
X18701Y1082D01*
X18700Y1081D01*
X18692Y1079D01*
X18686Y1077D01*
X18680Y1074D01*
X18678Y1073D01*
X18669Y1070D01*
X18663Y1067D01*
X18660Y1064D01*
X18659Y1063D01*
X18656Y1061D01*
X18655Y1059D01*
X18653Y1058D01*
Y1053D01*
X18656Y1049D01*
X18660Y1038D01*
X18662Y1032D01*
X18665Y1028D01*
X18666Y1024D01*
X18667Y1023D01*
X18672Y1013D01*
X18678Y1002D01*
X18685Y991D01*
X18691Y981D01*
X18697Y971D01*
X18701Y963D01*
X18705Y959D01*
X18706Y957D01*
X18718Y939D01*
X18722Y931D01*
X18727Y924D01*
X18730Y919D01*
X18733Y914D01*
X18735Y912D01*
X18736Y911D01*
X18746Y896D01*
X18756Y881D01*
X18760Y874D01*
X18762Y870D01*
X18764Y867D01*
X18766Y866D01*
X18770Y862D01*
X18774Y859D01*
X18779Y854D01*
X18780Y853D01*
X18786Y848D01*
X18790Y843D01*
X18793Y840D01*
X18794Y839D01*
X18801Y829D01*
X18807Y821D01*
X18811Y816D01*
X18812Y813D01*
X18817Y807D01*
X18821Y801D01*
X18823Y798D01*
X18824Y797D01*
X18831Y788D01*
X18839Y779D01*
X18844Y772D01*
X18846Y770D01*
X18847Y769D01*
X18856Y757D01*
X18863Y747D01*
X18869Y740D01*
X18871Y739D01*
Y738D01*
X18882Y724D01*
X18890Y714D01*
X18896Y709D01*
X18898Y707D01*
X18904Y699D01*
X18910Y693D01*
X18914Y690D01*
X18916Y689D01*
X18922Y681D01*
X18928Y674D01*
X18932Y670D01*
X18933Y668D01*
X18939Y661D01*
X18943Y656D01*
X18946Y651D01*
X18947Y650D01*
X18958Y636D01*
X18966Y622D01*
X18969Y617D01*
X18970Y612D01*
X18972Y609D01*
Y608D01*
X18978Y591D01*
X18980Y577D01*
X18981Y570D01*
Y566D01*
Y562D01*
Y561D01*
X18980Y551D01*
X18978Y543D01*
X18976Y536D01*
X18972Y530D01*
X18969Y526D01*
X18966Y522D01*
X18964Y521D01*
X18963Y520D01*
X18956Y516D01*
X18948Y512D01*
X18931Y509D01*
X18923Y508D01*
X18918Y507D01*
X18912D01*
X18902Y508D01*
X18893Y509D01*
X18886Y510D01*
X18883D01*
X18870Y512D01*
X18858Y514D01*
X18852Y516D01*
X18848D01*
X18846Y517D01*
X18844D01*
X18834Y519D01*
X18826Y520D01*
X18819Y522D01*
X18817D01*
X18806Y526D01*
X18796Y529D01*
X18791Y530D01*
X18788D01*
X18786Y531D01*
X18785D01*
X18767Y536D01*
X18759Y538D01*
X18752Y540D01*
X18747Y542D01*
X18742Y543D01*
X18740Y544D01*
X18739D01*
X18726Y550D01*
X18716Y553D01*
X18710Y554D01*
X18708Y556D01*
X18698Y558D01*
X18690Y560D01*
X18685Y561D01*
X18682D01*
X18673Y563D01*
X18666Y566D01*
X18661Y567D01*
X18660D01*
X18647Y570D01*
X18635Y574D01*
X18622Y578D01*
X18612Y580D01*
X18605Y583D01*
X18598Y584D01*
X18593Y587D01*
X18592D01*
X18569Y596D01*
X18558Y600D01*
X18548Y604D01*
X18539Y609D01*
X18532Y612D01*
X18528Y613D01*
X18527Y614D01*
Y621D01*
X18528Y624D01*
X18529Y627D01*
Y628D01*
X18531Y633D01*
X18532Y636D01*
X18536Y642D01*
X18538Y649D01*
X18540Y653D01*
X18541Y654D01*
X18545Y662D01*
X18548Y668D01*
X18550Y672D01*
X18551Y674D01*
X18560Y672D01*
X18566Y670D01*
X18570Y669D01*
X18571D01*
X18576Y668D01*
X18580Y667D01*
X18585Y666D01*
X18586D01*
X18590Y664D01*
X18595Y662D01*
X18597Y661D01*
X18598D01*
X18605Y659D01*
X18607Y658D01*
X18608D01*
X18621Y654D01*
X18632Y651D01*
X18639Y650D01*
X18640Y649D01*
X18641D01*
X18650Y648D01*
X18657Y647D01*
X18661Y646D01*
X18663D01*
X18677Y641D01*
X18689Y638D01*
X18693Y637D01*
X18698D01*
X18700Y636D01*
X18701D01*
X18716Y633D01*
X18729Y632D01*
X18750D01*
X18756Y631D01*
X18760Y630D01*
X18762D01*
X18770Y629D01*
X18778Y628D01*
X18782Y627D01*
X18785Y626D01*
X18799Y630D01*
X18809Y629D01*
X18828D01*
X18832Y630D01*
X18836Y631D01*
X18837D01*
X18845Y629D01*
X18843Y633D01*
X18840Y640D01*
X18838Y641D01*
Y642D01*
X18833Y649D01*
X18828Y657D01*
X18816Y671D01*
X18810Y677D01*
X18807Y682D01*
X18803Y686D01*
X18802Y687D01*
X18793Y698D01*
X18786Y708D01*
X18778Y716D01*
X18772Y723D01*
X18768Y728D01*
X18764Y732D01*
X18763Y734D01*
X18762Y736D01*
X18753Y748D01*
X18748Y756D01*
X18746Y761D01*
X18744Y762D01*
X18740Y774D01*
X18732Y781D01*
X18730Y783D01*
X18729Y784D01*
X18724Y789D01*
X18720Y792D01*
X18718Y794D01*
X18717Y796D01*
X18712Y802D01*
X18707Y809D01*
X18702Y814D01*
X18700Y816D01*
Y817D01*
X18689Y830D01*
X18678Y842D01*
X18673Y848D01*
X18669Y852D01*
X18667Y856D01*
X18666Y857D01*
X18655Y870D01*
X18647Y881D01*
X18645Y886D01*
X18642Y889D01*
X18640Y890D01*
Y891D01*
X18632Y901D01*
X18627Y910D01*
X18623Y916D01*
X18622Y918D01*
X18621Y922D01*
X18620Y923D01*
X18618Y926D01*
X18617D01*
X18609Y932D01*
X18603Y938D01*
X18600Y942D01*
X18599Y943D01*
X18595Y949D01*
X18591Y953D01*
X18590Y957D01*
X18589Y958D01*
X18582Y966D01*
X18577Y972D01*
X18573Y977D01*
X18572Y979D01*
X18569Y984D01*
X18566Y989D01*
X18565Y992D01*
X18563Y993D01*
X18560Y999D01*
X18559Y1003D01*
X18558Y1006D01*
Y1007D01*
X18552Y1022D01*
X18547Y1031D01*
X18543Y1039D01*
X18541Y1045D01*
X18540Y1047D01*
Y1048D01*
X18538Y1059D01*
X18536Y1069D01*
Y1073D01*
Y1075D01*
Y1078D01*
Y1079D01*
X18537Y1088D01*
X18538Y1094D01*
X18539Y1100D01*
X18540Y1102D01*
X18543Y1111D01*
X18548Y1120D01*
X18551Y1125D01*
X18552Y1127D01*
Y1128D01*
X18559Y1139D01*
X18567Y1148D01*
X18573Y1153D01*
X18575Y1155D01*
X18576D01*
X18587Y1164D01*
X18598Y1171D01*
X18603Y1173D01*
X18607Y1174D01*
X18609Y1175D01*
X18610D01*
X18619Y1180D01*
X18627Y1182D01*
X18631Y1184D01*
X18633Y1185D01*
X18640Y1190D01*
X18646Y1192D01*
X18649Y1194D01*
X18650Y1195D01*
X18662Y1198D01*
X18672Y1199D01*
X18678Y1200D01*
X18680D01*
X18688Y1201D01*
X18693Y1202D01*
X18699D01*
X18720Y1207D01*
X18730Y1208D01*
X18739Y1210D01*
X18746Y1211D01*
X18751Y1212D01*
X18756Y1213D01*
X18757D01*
X18764Y1212D01*
X18768Y1211D01*
X18769D01*
X18773Y1210D01*
X18777Y1209D01*
X18779Y1208D01*
X18780D01*
X18785Y1211D01*
X18792Y1212D01*
X18799Y1213D01*
X18803Y1214D01*
X18806D01*
X18813Y1215D01*
X18826D01*
X18843Y1213D01*
D02*
G37*
G36*
X18223Y1192D02*
X18228Y1191D01*
X18229D01*
X18235Y1190D01*
X18240Y1189D01*
X18243Y1188D01*
X18245D01*
X18247Y1189D01*
X18249D01*
X18251Y1190D01*
X18252D01*
X18259Y1192D01*
X18262D01*
X18277Y1188D01*
X18280Y1189D01*
X18283Y1190D01*
X18287Y1191D01*
X18288D01*
X18310Y1184D01*
X18330Y1177D01*
X18347Y1169D01*
X18361Y1160D01*
X18371Y1153D01*
X18379Y1148D01*
X18385Y1143D01*
X18386Y1142D01*
X18397Y1130D01*
X18407Y1118D01*
X18416Y1108D01*
X18422Y1098D01*
X18428Y1090D01*
X18432Y1084D01*
X18435Y1080D01*
X18436Y1079D01*
X18447Y1057D01*
X18451Y1045D01*
X18455Y1036D01*
X18457Y1027D01*
X18459Y1020D01*
X18460Y1015D01*
Y1014D01*
X18462Y1001D01*
X18465Y989D01*
X18466Y983D01*
Y979D01*
X18467Y977D01*
Y975D01*
X18466Y968D01*
Y964D01*
Y963D01*
X18465Y960D01*
X18463Y959D01*
X18465Y953D01*
X18467Y949D01*
X18468Y947D01*
Y946D01*
X18470Y939D01*
X18471Y930D01*
X18472Y923D01*
X18473Y922D01*
Y921D01*
X18475Y907D01*
X18476Y892D01*
X18477Y887D01*
Y881D01*
Y878D01*
Y877D01*
X18478Y869D01*
X18479Y861D01*
Y856D01*
X18480Y851D01*
X18481Y846D01*
X18482Y843D01*
X18485Y838D01*
X18486Y833D01*
X18487Y831D01*
X18488D01*
X18497Y826D01*
X18500Y823D01*
X18501Y822D01*
X18506Y818D01*
X18510Y813D01*
X18512Y809D01*
X18513Y808D01*
X18519Y800D01*
X18520Y797D01*
X18521Y796D01*
X18525Y790D01*
X18528Y783D01*
X18530Y779D01*
X18531Y778D01*
Y777D01*
X18529Y764D01*
X18517Y758D01*
X18510Y759D01*
X18507Y760D01*
X18505Y761D01*
X18503D01*
X18498Y763D01*
X18496D01*
X18490Y766D01*
Y768D01*
X18486D01*
X18489Y767D01*
X18490Y766D01*
Y764D01*
X18491Y761D01*
X18492Y759D01*
Y758D01*
X18493Y751D01*
Y749D01*
Y748D01*
Y743D01*
X18492Y739D01*
Y736D01*
Y733D01*
X18491Y728D01*
Y724D01*
Y722D01*
X18495Y703D01*
X18496Y694D01*
X18497Y687D01*
X18498Y680D01*
Y674D01*
X18499Y671D01*
Y670D01*
X18498Y658D01*
X18497Y649D01*
X18496Y642D01*
Y641D01*
Y640D01*
X18497Y630D01*
Y621D01*
Y616D01*
Y614D01*
Y613D01*
X18498Y606D01*
Y600D01*
X18499Y596D01*
Y594D01*
X18500Y590D01*
Y587D01*
Y584D01*
Y583D01*
Y576D01*
X18499Y568D01*
Y561D01*
Y559D01*
Y558D01*
X18498Y547D01*
X18497Y539D01*
Y534D01*
Y533D01*
Y520D01*
Y511D01*
Y504D01*
Y503D01*
Y502D01*
Y494D01*
X18496Y489D01*
Y487D01*
Y486D01*
X18491Y474D01*
X18487Y466D01*
X18482Y461D01*
X18481Y459D01*
X18473Y453D01*
X18465Y451D01*
X18458Y450D01*
X18440D01*
X18433Y460D01*
X18429Y468D01*
X18427Y472D01*
X18426Y474D01*
X18423Y481D01*
X18421Y488D01*
Y492D01*
Y493D01*
Y520D01*
X18420Y531D01*
Y542D01*
Y551D01*
X18419Y558D01*
Y562D01*
Y563D01*
X18417Y590D01*
X18416Y602D01*
X18413Y613D01*
X18412Y623D01*
X18411Y631D01*
X18410Y636D01*
Y638D01*
Y644D01*
X18411Y647D01*
Y648D01*
Y653D01*
Y654D01*
X18402Y711D01*
X18406Y726D01*
X18401Y742D01*
X18400Y750D01*
X18398Y757D01*
X18397Y762D01*
X18396Y767D01*
X18393Y772D01*
Y773D01*
X18391Y778D01*
X18390Y780D01*
Y781D01*
X18383Y780D01*
X18369D01*
X18363Y781D01*
X18360Y782D01*
X18359D01*
X18353Y784D01*
X18349Y787D01*
X18347Y788D01*
X18346Y789D01*
X18339D01*
X18331Y790D01*
X18325Y791D01*
X18322D01*
X18311Y793D01*
X18303Y794D01*
X18288D01*
X18279Y796D01*
X18270D01*
X18260Y798D01*
X18252Y799D01*
X18248Y801D01*
X18246D01*
X18227Y797D01*
X18219Y794D01*
X18212Y793D01*
X18208Y792D01*
X18203Y791D01*
X18201Y790D01*
X18200D01*
X18187Y788D01*
X18177Y787D01*
X18169D01*
X18162Y798D01*
X18157Y808D01*
X18153Y813D01*
X18152Y816D01*
X18151Y830D01*
Y841D01*
X18150Y848D01*
Y850D01*
Y854D01*
X18149Y858D01*
Y862D01*
Y864D01*
X18150Y871D01*
X18151Y877D01*
X18158Y886D01*
X18163Y891D01*
X18166Y893D01*
X18167D01*
X18173Y897D01*
X18182Y899D01*
X18198Y902D01*
X18205Y903D01*
X18216D01*
X18228Y901D01*
X18238Y899D01*
X18242Y898D01*
X18246D01*
X18247Y897D01*
X18277D01*
X18289Y893D01*
X18299Y891D01*
X18307Y890D01*
X18308Y889D01*
X18309D01*
X18320Y887D01*
X18329Y886D01*
X18337Y884D01*
X18339D01*
X18352Y881D01*
X18362Y878D01*
X18369Y876D01*
X18370Y874D01*
X18371D01*
X18379Y872D01*
X18383Y871D01*
Y872D01*
Y873D01*
Y877D01*
X18382Y880D01*
X18381Y882D01*
Y883D01*
X18379Y888D01*
X18378Y891D01*
Y892D01*
Y893D01*
X18373Y914D01*
X18369Y932D01*
X18366Y949D01*
X18362Y961D01*
X18360Y972D01*
X18358Y980D01*
X18357Y984D01*
Y985D01*
X18353Y997D01*
X18351Y1006D01*
X18349Y1012D01*
X18347Y1018D01*
X18346Y1020D01*
Y1022D01*
X18345Y1023D01*
X18341Y1031D01*
X18338Y1038D01*
X18333Y1048D01*
X18331Y1053D01*
X18330Y1055D01*
X18328Y1060D01*
X18325Y1063D01*
X18315Y1068D01*
X18311Y1070D01*
X18307Y1071D01*
X18305Y1072D01*
X18303D01*
X18295Y1074D01*
X18288Y1075D01*
X18283Y1077D01*
X18281D01*
X18275Y1078D01*
X18269Y1079D01*
X18266D01*
X18259Y1078D01*
X18251D01*
X18247Y1077D01*
X18245D01*
X18230Y1083D01*
X18223Y1080D01*
X18217Y1077D01*
X18211Y1074D01*
X18209Y1073D01*
X18198Y1069D01*
X18189Y1065D01*
X18181Y1063D01*
X18180Y1062D01*
X18179D01*
X18170Y1064D01*
X18165Y1069D01*
X18161Y1072D01*
X18160Y1074D01*
X18157Y1084D01*
X18153Y1094D01*
X18152Y1099D01*
Y1102D01*
X18151Y1104D01*
Y1105D01*
X18150Y1115D01*
X18149Y1123D01*
X18148Y1129D01*
Y1131D01*
X18147Y1140D01*
X18146Y1147D01*
Y1151D01*
Y1152D01*
X18147Y1160D01*
X18149Y1165D01*
X18155Y1175D01*
X18161Y1181D01*
X18163Y1183D01*
X18165D01*
X18171Y1187D01*
X18180Y1189D01*
X18196Y1192D01*
X18203Y1193D01*
X18219D01*
X18223Y1192D01*
D02*
G37*
G36*
X20948Y1219D02*
X20957Y1215D01*
X20962Y1212D01*
X20965Y1210D01*
X20971Y1201D01*
X20976Y1191D01*
X20977Y1187D01*
X20978Y1183D01*
X20979Y1181D01*
Y1180D01*
X20983Y1155D01*
X20988Y1133D01*
X20991Y1112D01*
X20993Y1093D01*
X20996Y1079D01*
X20998Y1067D01*
Y1062D01*
X20999Y1059D01*
Y1058D01*
Y1057D01*
X21001Y1035D01*
X21002Y1014D01*
X21003Y996D01*
Y979D01*
X21004Y964D01*
Y954D01*
Y950D01*
Y947D01*
Y945D01*
Y944D01*
Y930D01*
X21003Y919D01*
Y914D01*
Y911D01*
Y910D01*
Y909D01*
X21001Y899D01*
X20999Y891D01*
X20998Y886D01*
X20997Y883D01*
X20983Y873D01*
X20981Y871D01*
X20980Y867D01*
X20979Y863D01*
Y862D01*
X20978Y856D01*
X20977Y848D01*
Y841D01*
Y840D01*
Y839D01*
X20976Y826D01*
Y816D01*
X20975Y809D01*
Y808D01*
Y807D01*
X20973Y800D01*
Y794D01*
X20972Y792D01*
Y791D01*
X20969Y786D01*
X20968Y781D01*
X20967Y779D01*
Y778D01*
X20965Y772D01*
Y770D01*
Y769D01*
X20963Y764D01*
Y760D01*
Y757D01*
Y756D01*
X20962Y750D01*
Y746D01*
Y742D01*
Y741D01*
X20960Y727D01*
X20958Y714D01*
Y710D01*
X20957Y708D01*
Y706D01*
Y704D01*
X20956Y694D01*
X20954Y686D01*
X20953Y681D01*
Y679D01*
X20950Y666D01*
X20947Y657D01*
X20946Y651D01*
X20944Y649D01*
X20942Y642D01*
X20940Y638D01*
X20939Y636D01*
Y634D01*
Y632D01*
X20940Y629D01*
X20941Y626D01*
X20942Y624D01*
X20939Y611D01*
X20936Y601D01*
X20935Y597D01*
Y593D01*
X20933Y591D01*
Y590D01*
X20930Y579D01*
X20928Y570D01*
X20926Y564D01*
Y563D01*
Y562D01*
X20922Y553D01*
X20920Y546D01*
X20917Y539D01*
X20914Y532D01*
X20912Y528D01*
X20910Y524D01*
X20909Y523D01*
Y522D01*
X20906Y518D01*
X20901Y514D01*
X20894Y510D01*
X20889Y508D01*
X20887D01*
X20873Y509D01*
X20863Y513D01*
X20859Y514D01*
X20856Y517D01*
X20855Y518D01*
X20853D01*
X20843Y527D01*
X20835Y537D01*
X20831Y541D01*
X20829Y544D01*
X20827Y547D01*
Y548D01*
X20816Y572D01*
X20811Y583D01*
X20807Y592D01*
X20803Y601D01*
X20800Y607D01*
X20799Y611D01*
X20798Y612D01*
X20793Y622D01*
X20790Y632D01*
X20786Y640D01*
X20783Y647D01*
X20781Y652D01*
X20779Y656D01*
X20778Y658D01*
Y659D01*
X20776Y664D01*
X20773Y670D01*
X20771Y677D01*
Y679D01*
Y680D01*
X20767Y690D01*
X20762Y699D01*
X20759Y707D01*
X20756Y713D01*
X20752Y718D01*
X20751Y721D01*
X20749Y723D01*
Y724D01*
X20746Y730D01*
X20743Y736D01*
X20742Y744D01*
Y741D01*
X20741Y731D01*
Y727D01*
X20740Y723D01*
Y721D01*
Y720D01*
X20739Y709D01*
X20738Y701D01*
X20737Y697D01*
Y694D01*
X20736Y679D01*
X20735Y664D01*
X20733Y659D01*
Y654D01*
Y652D01*
Y651D01*
X20732Y636D01*
X20731Y622D01*
X20730Y618D01*
Y613D01*
Y611D01*
Y610D01*
X20728Y599D01*
X20725Y590D01*
X20722Y581D01*
X20719Y574D01*
X20717Y569D01*
X20715Y566D01*
X20712Y563D01*
Y562D01*
X20707Y557D01*
X20701Y552D01*
X20695Y550D01*
X20689Y548D01*
X20683Y547D01*
X20679Y546D01*
X20676D01*
X20671Y547D01*
X20667Y548D01*
X20663Y549D01*
X20662D01*
X20657Y551D01*
X20652Y553D01*
X20649Y556D01*
X20642D01*
X20637Y557D01*
X20633Y558D01*
X20632D01*
X20627Y560D01*
X20623Y562D01*
X20621Y564D01*
X20620Y566D01*
X20610Y571D01*
X20608Y572D01*
X20607Y574D01*
X20602Y580D01*
X20599Y586D01*
X20598Y587D01*
Y588D01*
X20591Y600D01*
X20586Y612D01*
X20583Y618D01*
X20581Y622D01*
X20579Y626D01*
Y627D01*
X20576Y636D01*
X20572Y643D01*
X20570Y650D01*
X20568Y656D01*
X20566Y660D01*
X20565Y663D01*
X20563Y664D01*
Y666D01*
X20559Y674D01*
X20557Y681D01*
X20555Y686D01*
Y687D01*
X20551Y697D01*
X20549Y704D01*
X20547Y710D01*
Y711D01*
X20543Y718D01*
X20540Y722D01*
X20538Y726D01*
X20537Y727D01*
X20532Y743D01*
X20530Y750D01*
X20529Y756D01*
X20528Y760D01*
X20527Y763D01*
X20526Y764D01*
Y766D01*
X20522Y776D01*
X20519Y782D01*
X20518Y787D01*
X20517Y788D01*
X20513Y802D01*
X20511Y812D01*
X20509Y819D01*
Y821D01*
X20507Y829D01*
X20505Y834D01*
X20503Y837D01*
Y838D01*
X20498Y851D01*
X20495Y861D01*
X20492Y868D01*
X20491Y869D01*
Y870D01*
X20488Y879D01*
X20486Y886D01*
X20485Y890D01*
Y891D01*
X20482Y897D01*
X20480Y903D01*
X20478Y910D01*
Y911D01*
Y912D01*
X20477Y919D01*
X20475Y926D01*
X20472Y940D01*
X20471Y945D01*
X20470Y951D01*
X20469Y954D01*
Y956D01*
X20467Y966D01*
X20466Y974D01*
X20463Y982D01*
X20462Y989D01*
X20461Y993D01*
Y997D01*
X20460Y999D01*
Y1000D01*
X20458Y1011D01*
X20456Y1019D01*
X20453Y1024D01*
Y1025D01*
X20460Y1049D01*
X20459Y1050D01*
X20458Y1052D01*
X20457Y1054D01*
Y1055D01*
X20453Y1063D01*
X20451Y1065D01*
Y1067D01*
X20450Y1073D01*
X20449Y1082D01*
X20448Y1089D01*
Y1090D01*
Y1091D01*
X20447Y1105D01*
X20446Y1121D01*
Y1127D01*
Y1132D01*
Y1135D01*
Y1137D01*
Y1145D01*
X20447Y1152D01*
X20448Y1157D01*
X20449Y1158D01*
X20452Y1163D01*
X20458Y1165D01*
X20462Y1167D01*
X20469D01*
X20472Y1164D01*
X20480Y1160D01*
X20486Y1155D01*
X20487Y1154D01*
X20488Y1153D01*
X20497Y1143D01*
X20506Y1132D01*
X20509Y1128D01*
X20511Y1123D01*
X20512Y1121D01*
X20513Y1120D01*
X20516Y1111D01*
X20517Y1104D01*
X20518Y1099D01*
X20519Y1098D01*
X20520Y1091D01*
X20522Y1087D01*
X20523Y1083D01*
Y1082D01*
X20517Y1061D01*
X20522Y1043D01*
X20525Y1035D01*
X20527Y1028D01*
X20528Y1022D01*
X20529Y1018D01*
X20530Y1015D01*
Y1014D01*
X20533Y1000D01*
X20537Y989D01*
X20538Y984D01*
X20539Y981D01*
X20540Y980D01*
Y979D01*
X20546Y959D01*
X20548Y950D01*
X20551Y943D01*
X20552Y937D01*
X20555Y932D01*
X20556Y930D01*
Y929D01*
X20561Y913D01*
X20566Y901D01*
X20567Y896D01*
X20569Y892D01*
X20570Y890D01*
Y889D01*
X20571Y879D01*
X20572Y872D01*
X20573Y867D01*
Y866D01*
X20576Y860D01*
X20578Y857D01*
X20579Y854D01*
X20580Y853D01*
X20587Y833D01*
X20590Y824D01*
X20592Y816D01*
X20596Y809D01*
X20597Y802D01*
X20599Y799D01*
Y798D01*
X20606Y776D01*
X20609Y766D01*
X20612Y757D01*
X20616Y749D01*
X20618Y742D01*
X20619Y738D01*
X20620Y737D01*
X20626Y723D01*
X20630Y712D01*
X20633Y703D01*
X20637Y696D01*
X20640Y690D01*
X20642Y686D01*
X20643Y683D01*
Y682D01*
X20645Y679D01*
X20646Y688D01*
Y699D01*
Y703D01*
Y707D01*
Y709D01*
Y710D01*
Y722D01*
Y732D01*
Y739D01*
Y740D01*
Y741D01*
Y747D01*
Y753D01*
Y768D01*
X20647Y773D01*
Y779D01*
Y782D01*
Y783D01*
X20648Y797D01*
Y807D01*
X20649Y813D01*
Y816D01*
Y826D01*
Y837D01*
Y840D01*
Y843D01*
Y846D01*
Y847D01*
Y849D01*
X20648Y852D01*
X20647Y856D01*
Y857D01*
X20645Y866D01*
X20643Y874D01*
X20641Y881D01*
Y883D01*
Y884D01*
X20639Y899D01*
X20637Y911D01*
Y916D01*
X20636Y919D01*
Y920D01*
Y921D01*
X20635Y932D01*
X20633Y941D01*
Y947D01*
Y949D01*
X20629Y967D01*
X20627Y983D01*
X20623Y997D01*
X20621Y1009D01*
X20620Y1018D01*
X20619Y1025D01*
X20618Y1030D01*
Y1031D01*
X20616Y1043D01*
X20615Y1053D01*
X20613Y1061D01*
Y1068D01*
X20612Y1073D01*
Y1077D01*
Y1079D01*
Y1080D01*
X20613Y1089D01*
X20616Y1097D01*
X20618Y1101D01*
X20619Y1103D01*
X20621Y1107D01*
X20625Y1110D01*
X20632Y1115D01*
X20639Y1120D01*
X20641Y1121D01*
X20642D01*
X20688Y1103D01*
X20693Y1101D01*
X20698Y1098D01*
X20706Y1091D01*
X20711Y1084D01*
X20713Y1082D01*
Y1081D01*
X20720Y1068D01*
X20725Y1053D01*
X20727Y1047D01*
X20728Y1042D01*
X20729Y1039D01*
Y1038D01*
X20736Y1004D01*
X20741Y974D01*
X20748Y947D01*
X20753Y923D01*
X20756Y913D01*
X20758Y904D01*
X20760Y897D01*
X20761Y891D01*
X20762Y886D01*
X20763Y882D01*
X20765Y880D01*
Y879D01*
X20771Y856D01*
X20779Y834D01*
X20786Y817D01*
X20791Y801D01*
X20797Y789D01*
X20801Y780D01*
X20803Y774D01*
X20805Y772D01*
X20808Y760D01*
X20811Y751D01*
X20813Y744D01*
X20815Y743D01*
Y742D01*
X20818Y734D01*
X20820Y728D01*
X20821Y723D01*
X20822Y722D01*
X20852Y668D01*
Y669D01*
X20853Y679D01*
X20855Y690D01*
X20857Y702D01*
X20858Y712D01*
X20859Y717D01*
X20860Y720D01*
Y721D01*
Y722D01*
X20862Y733D01*
X20863Y744D01*
X20866Y753D01*
X20867Y761D01*
X20869Y774D01*
X20870Y783D01*
Y790D01*
X20871Y794D01*
Y797D01*
Y833D01*
X20872Y840D01*
X20873Y846D01*
X20875Y849D01*
Y850D01*
X20876Y857D01*
X20877Y858D01*
Y859D01*
Y863D01*
Y866D01*
Y870D01*
Y876D01*
Y880D01*
Y882D01*
X20876Y893D01*
Y904D01*
Y909D01*
Y913D01*
Y916D01*
Y917D01*
X20875Y929D01*
Y939D01*
Y944D01*
Y947D01*
Y956D01*
Y963D01*
X20876Y969D01*
Y971D01*
Y981D01*
Y990D01*
X20877Y996D01*
Y997D01*
Y998D01*
X20878Y1008D01*
X20879Y1014D01*
X20880Y1020D01*
Y1021D01*
X20879Y1025D01*
X20878Y1030D01*
X20877Y1033D01*
Y1034D01*
X20873Y1054D01*
Y1063D01*
X20872Y1071D01*
X20871Y1078D01*
Y1083D01*
Y1087D01*
Y1088D01*
X20869Y1107D01*
X20868Y1117D01*
X20867Y1124D01*
X20866Y1132D01*
X20865Y1138D01*
Y1141D01*
Y1142D01*
X20866Y1145D01*
X20867Y1150D01*
X20868Y1153D01*
X20869Y1154D01*
X20872Y1162D01*
X20876Y1169D01*
X20878Y1174D01*
X20879Y1177D01*
X20883Y1183D01*
X20887Y1189D01*
X20889Y1192D01*
X20890Y1193D01*
X20893Y1199D01*
X20897Y1203D01*
X20899Y1205D01*
X20900Y1207D01*
X20905Y1211D01*
X20910Y1214D01*
X20913Y1215D01*
X20916Y1217D01*
X20922Y1219D01*
X20929Y1221D01*
X20937D01*
X20948Y1219D01*
D02*
G37*
G36*
X20140Y1187D02*
X20155Y1184D01*
X20160Y1183D01*
X20165Y1182D01*
X20167Y1181D01*
X20168D01*
X20182Y1177D01*
X20195Y1171D01*
X20200Y1169D01*
X20203Y1168D01*
X20206Y1165D01*
X20207D01*
X20217Y1160D01*
X20227Y1153D01*
X20231Y1150D01*
X20235Y1148D01*
X20237Y1147D01*
X20238Y1145D01*
X20251Y1135D01*
X20263Y1127D01*
X20268Y1122D01*
X20272Y1120D01*
X20275Y1118D01*
X20276Y1117D01*
X20293Y1101D01*
X20308Y1084D01*
X20321Y1069D01*
X20332Y1055D01*
X20341Y1043D01*
X20348Y1034D01*
X20352Y1028D01*
X20353Y1027D01*
Y1025D01*
X20363Y1008D01*
X20371Y990D01*
X20377Y972D01*
X20381Y957D01*
X20385Y943D01*
X20387Y932D01*
X20389Y926D01*
Y924D01*
Y923D01*
X20391Y907D01*
X20393Y892D01*
Y886D01*
X20395Y881D01*
Y878D01*
Y877D01*
Y871D01*
X20393Y867D01*
Y862D01*
Y861D01*
X20392Y857D01*
X20391Y853D01*
Y851D01*
Y840D01*
Y831D01*
X20392Y823D01*
Y822D01*
Y821D01*
X20392Y812D01*
X20392Y812D01*
X20393D01*
X20401Y814D01*
X20406D01*
X20411Y813D01*
X20417Y812D01*
X20426Y808D01*
X20430Y802D01*
X20432Y801D01*
Y800D01*
X20438Y788D01*
X20442Y776D01*
X20443Y770D01*
X20445Y766D01*
X20446Y762D01*
Y761D01*
X20447Y750D01*
X20449Y740D01*
X20450Y732D01*
Y731D01*
Y730D01*
X20451Y718D01*
X20452Y707D01*
X20453Y701D01*
Y698D01*
Y696D01*
Y694D01*
X20452Y690D01*
X20453D01*
Y688D01*
X20455Y686D01*
Y684D01*
X20456Y680D01*
X20457Y676D01*
Y672D01*
Y671D01*
X20456Y663D01*
X20455Y657D01*
X20453Y652D01*
Y650D01*
X20450Y634D01*
X20447Y621D01*
X20443Y610D01*
X20440Y600D01*
X20438Y592D01*
X20436Y586D01*
X20433Y582D01*
Y581D01*
X20429Y572D01*
X20425Y564D01*
X20420Y559D01*
X20416Y554D01*
X20411Y551D01*
X20408Y549D01*
X20407Y547D01*
X20406D01*
X20399Y541D01*
X20398Y540D01*
X20397Y539D01*
X20391Y537D01*
X20389Y536D01*
X20382Y530D01*
X20381Y529D01*
X20380Y528D01*
X20377Y524D01*
X20372Y521D01*
X20369Y518D01*
X20368Y517D01*
X20356Y514D01*
X20347Y512D01*
X20342Y511D01*
X20340Y510D01*
X20333Y509D01*
X20327Y507D01*
X20322Y506D01*
X20321D01*
X20308Y507D01*
X20296Y508D01*
X20286Y509D01*
X20276Y510D01*
X20268Y511D01*
X20261Y513D01*
X20250Y516D01*
X20243Y518D01*
X20239Y520D01*
X20237Y521D01*
X20233Y524D01*
X20231Y528D01*
X20230Y531D01*
Y532D01*
X20226Y530D01*
X20222Y528D01*
X20220Y527D01*
X20209Y517D01*
X20199Y508D01*
X20191Y500D01*
X20183Y493D01*
X20177Y488D01*
X20172Y484D01*
X20170Y482D01*
X20169Y481D01*
X20153Y469D01*
X20142Y459D01*
X20138Y456D01*
X20135Y453D01*
X20133Y451D01*
X20132D01*
X20123Y446D01*
X20117Y441D01*
X20112Y438D01*
X20110Y437D01*
X20103Y432D01*
X20099Y430D01*
X20096Y428D01*
X20095D01*
X20088Y423D01*
X20081Y421D01*
X20077Y419D01*
X20075D01*
X20065Y416D01*
X20055Y410D01*
X20048Y407D01*
X20047Y404D01*
X20046D01*
X20039Y402D01*
X20033Y401D01*
X20029D01*
X20023Y400D01*
X20015D01*
X20007Y403D01*
X20001Y407D01*
X19997Y409D01*
X19992Y412D01*
X19988Y416D01*
X19987Y417D01*
X19981Y422D01*
X19976Y427D01*
X19971Y430D01*
X19970Y431D01*
X19968Y442D01*
X19969Y448D01*
X19972Y452D01*
X19976Y457D01*
X19977Y458D01*
X19983Y463D01*
X19991Y470D01*
X19997Y474D01*
X19998Y476D01*
X19999D01*
X20008Y482D01*
X20015Y488D01*
X20020Y492D01*
X20021Y493D01*
X20028Y498D01*
X20032Y502D01*
X20037Y504D01*
X20038Y506D01*
X20052Y514D01*
X20063Y521D01*
X20067Y524D01*
X20070Y526D01*
X20071Y528D01*
X20072D01*
X20081Y534D01*
X20087Y541D01*
X20090Y546D01*
X20091Y547D01*
X20097Y553D01*
X20101Y558D01*
X20103Y560D01*
X20105Y561D01*
X20111Y568D01*
X20113Y570D01*
X20115Y571D01*
X20122Y578D01*
X20127Y582D01*
X20130Y584D01*
X20131Y586D01*
X20133Y588D01*
X20135Y589D01*
X20136Y588D01*
X20125Y601D01*
X20115Y612D01*
X20107Y623D01*
X20099Y633D01*
X20092Y640D01*
X20088Y647D01*
X20086Y650D01*
X20085Y651D01*
X20077Y661D01*
X20069Y671D01*
X20063Y679D01*
X20058Y686D01*
X20053Y691D01*
X20050Y694D01*
X20049Y697D01*
X20048Y698D01*
X20040Y710D01*
X20035Y719D01*
X20031Y726D01*
X20030Y727D01*
Y728D01*
X20026Y737D01*
X20022Y744D01*
X20021Y749D01*
X20020Y750D01*
X20017Y756D01*
X20013Y760D01*
X20012Y763D01*
X20011Y764D01*
X20008Y771D01*
X20005Y777D01*
X20002Y781D01*
X20001Y783D01*
X19996Y792D01*
X19992Y799D01*
X19991Y803D01*
X19990Y804D01*
X19988Y811D01*
X19987Y816D01*
X19986Y819D01*
Y820D01*
Y824D01*
X19985Y830D01*
X19983Y834D01*
Y836D01*
X19982Y840D01*
X19980Y844D01*
X19978Y856D01*
X19977Y860D01*
X19976Y864D01*
X19975Y867D01*
Y868D01*
X19971Y874D01*
X19969Y882D01*
X19968Y887D01*
Y889D01*
X19967Y898D01*
X19966Y904D01*
X19965Y909D01*
Y910D01*
Y914D01*
X19963Y920D01*
Y923D01*
Y926D01*
X19962Y934D01*
X19961Y944D01*
Y949D01*
X19960Y952D01*
Y954D01*
Y956D01*
X19959Y966D01*
Y973D01*
X19958Y979D01*
Y981D01*
X19957Y990D01*
Y997D01*
Y1001D01*
Y1002D01*
Y1017D01*
X19959Y1030D01*
X19960Y1042D01*
X19962Y1053D01*
X19965Y1061D01*
X19966Y1068D01*
X19968Y1072D01*
Y1073D01*
X19977Y1097D01*
X19982Y1107D01*
X19987Y1114D01*
X19991Y1122D01*
X19996Y1128D01*
X19998Y1131D01*
X19999Y1132D01*
X20008Y1142D01*
X20017Y1150D01*
X20027Y1157D01*
X20035Y1163D01*
X20042Y1168D01*
X20048Y1171D01*
X20052Y1172D01*
X20053Y1173D01*
X20066Y1178D01*
X20078Y1182D01*
X20090Y1184D01*
X20100Y1185D01*
X20110Y1187D01*
X20118Y1188D01*
X20125D01*
X20140Y1187D01*
D02*
G37*
G36*
X21179Y1177D02*
X21193Y1173D01*
X21201Y1171D01*
X21207Y1170D01*
X21211Y1168D01*
X21212D01*
X21223Y1164D01*
X21233Y1161D01*
X21240Y1159D01*
X21246Y1157D01*
X21249Y1154D01*
X21252Y1153D01*
X21253Y1152D01*
X21259Y1148D01*
X21261Y1147D01*
X21262Y1145D01*
X21264Y1143D01*
X21266Y1142D01*
X21272Y1139D01*
X21278Y1137D01*
X21281Y1134D01*
X21282Y1133D01*
X21287Y1131D01*
X21291Y1129D01*
X21293Y1128D01*
X21294D01*
X21306Y1118D01*
X21314Y1110D01*
X21320Y1105D01*
X21321Y1103D01*
X21322D01*
X21330Y1097D01*
X21337Y1092D01*
X21341Y1090D01*
X21342Y1089D01*
X21349Y1082D01*
X21354Y1075D01*
X21358Y1071D01*
X21359Y1070D01*
X21362Y1065D01*
X21366Y1062D01*
X21367Y1060D01*
X21368D01*
X21382Y1045D01*
X21393Y1033D01*
X21398Y1028D01*
X21400Y1024D01*
X21402Y1022D01*
X21403Y1021D01*
X21413Y1008D01*
X21422Y996D01*
X21424Y990D01*
X21427Y987D01*
X21429Y984D01*
Y983D01*
X21437Y967D01*
X21444Y950D01*
X21447Y943D01*
X21449Y938D01*
X21451Y934D01*
Y933D01*
X21456Y924D01*
X21459Y916D01*
X21462Y909D01*
X21466Y903D01*
X21469Y898D01*
X21470Y894D01*
X21472Y893D01*
Y892D01*
X21473Y888D01*
X21476Y883D01*
X21477Y881D01*
Y880D01*
X21479Y872D01*
Y869D01*
Y868D01*
X21478Y859D01*
X21480Y852D01*
X21482Y846D01*
X21483Y841D01*
X21484Y840D01*
X21487Y833D01*
X21489Y829D01*
X21490Y824D01*
X21491Y823D01*
X21492Y811D01*
X21494Y800D01*
X21496Y790D01*
Y782D01*
X21497Y776D01*
X21498Y771D01*
Y769D01*
Y768D01*
X21499Y761D01*
Y757D01*
Y752D01*
X21500Y749D01*
Y746D01*
Y744D01*
X21499Y736D01*
Y732D01*
Y731D01*
X21497Y726D01*
X21494Y721D01*
X21493Y717D01*
X21492Y716D01*
X21498Y697D01*
X21497Y691D01*
X21496Y683D01*
X21494Y678D01*
Y677D01*
Y676D01*
X21491Y664D01*
X21488Y653D01*
X21487Y649D01*
X21486Y644D01*
X21484Y642D01*
Y641D01*
X21472Y601D01*
X21468Y592D01*
X21463Y583D01*
X21460Y577D01*
X21459Y576D01*
Y574D01*
X21450Y564D01*
X21440Y554D01*
X21436Y550D01*
X21432Y548D01*
X21430Y546D01*
X21429Y544D01*
X21421Y536D01*
X21413Y528D01*
X21407Y523D01*
X21406Y521D01*
X21404D01*
X21394Y516D01*
X21387Y513D01*
X21382Y511D01*
X21380D01*
X21369Y510D01*
X21363Y506D01*
X21358Y504D01*
X21352Y503D01*
X21349Y502D01*
X21348D01*
X21341Y500D01*
X21333Y499D01*
X21329Y498D01*
X21327Y497D01*
X21319Y494D01*
X21312Y492D01*
X21308Y491D01*
X21307D01*
X21301Y490D01*
X21296Y489D01*
X21290D01*
X21272Y490D01*
X21264D01*
X21258Y491D01*
X21251Y492D01*
X21247D01*
X21244Y493D01*
X21243D01*
X21227Y498D01*
X21213Y502D01*
X21208Y503D01*
X21203Y506D01*
X21201Y507D01*
X21200D01*
X21189Y511D01*
X21179Y516D01*
X21174Y518D01*
X21171Y520D01*
X21169Y521D01*
X21168D01*
X21153Y529D01*
X21139Y537D01*
X21133Y540D01*
X21129Y543D01*
X21126Y544D01*
X21124Y546D01*
X21112Y552D01*
X21102Y559D01*
X21093Y564D01*
X21086Y570D01*
X21079Y573D01*
X21074Y577D01*
X21072Y578D01*
X21071Y579D01*
X21057Y589D01*
X21043Y598D01*
X21039Y601D01*
X21034Y604D01*
X21032Y606D01*
X21031Y607D01*
X21032Y612D01*
X21036Y620D01*
X21040Y629D01*
X21044Y640D01*
X21049Y649D01*
X21053Y658D01*
X21057Y663D01*
X21058Y666D01*
X21072Y654D01*
X21082Y647D01*
X21088Y642D01*
X21090Y640D01*
X21099Y634D01*
X21107Y630D01*
X21113Y628D01*
X21114Y627D01*
X21116D01*
X21120Y621D01*
X21123Y617D01*
X21126Y614D01*
X21127Y613D01*
X21129Y610D01*
X21130D01*
X21134Y609D01*
X21140Y608D01*
X21144Y606D01*
X21146Y604D01*
X21147D01*
X21154Y600D01*
X21161Y597D01*
X21166Y592D01*
X21167Y591D01*
X21173Y589D01*
X21179Y587D01*
X21183Y586D01*
X21184Y584D01*
X21190Y582D01*
X21193Y580D01*
X21196Y579D01*
X21197Y578D01*
X21212Y576D01*
X21223Y573D01*
X21228Y572D01*
X21231D01*
X21233Y571D01*
X21234D01*
X21240Y570D01*
X21243D01*
X21249Y569D01*
X21252D01*
X21269Y570D01*
X21283Y574D01*
X21289Y576D01*
X21293Y578D01*
X21296Y579D01*
X21297D01*
X21304Y583D01*
X21311Y588D01*
X21324Y599D01*
X21330Y603D01*
X21334Y608D01*
X21337Y610D01*
X21338Y611D01*
X21343Y614D01*
X21348Y619D01*
X21351Y621D01*
X21352Y622D01*
X21354Y624D01*
X21356Y626D01*
X21357Y628D01*
Y629D01*
X21359Y639D01*
X21362Y647D01*
X21363Y652D01*
X21364Y654D01*
X21368Y663D01*
X21371Y670D01*
X21373Y674D01*
X21374Y676D01*
X21380Y684D01*
X21383Y691D01*
X21386Y694D01*
X21387Y696D01*
X21389Y700D01*
X21390Y701D01*
X21391Y702D01*
X21386Y746D01*
X21389Y756D01*
X21391Y763D01*
X21392Y769D01*
X21393Y771D01*
X21390Y786D01*
X21388Y798D01*
X21387Y802D01*
X21386Y806D01*
Y808D01*
Y809D01*
X21383Y820D01*
X21382Y829D01*
X21381Y833D01*
Y836D01*
X21377Y863D01*
X21373Y876D01*
X21370Y887D01*
X21368Y896D01*
X21366Y903D01*
X21363Y908D01*
Y909D01*
X21352Y935D01*
X21347Y949D01*
X21340Y960D01*
X21336Y970D01*
X21331Y977D01*
X21329Y982D01*
X21328Y983D01*
X21319Y997D01*
X21309Y1009D01*
X21301Y1020D01*
X21293Y1029D01*
X21287Y1035D01*
X21281Y1040D01*
X21278Y1043D01*
X21277Y1044D01*
X21267Y1052D01*
X21256Y1059D01*
X21247Y1063D01*
X21238Y1067D01*
X21231Y1070D01*
X21224Y1071D01*
X21221Y1072D01*
X21220D01*
X21214Y1073D01*
X21210Y1074D01*
X21207Y1075D01*
X21206D01*
X21200Y1078D01*
X21194Y1079D01*
X21191Y1081D01*
X21190D01*
X21183Y1079D01*
X21177Y1077D01*
X21172Y1075D01*
X21170D01*
X21161Y1073D01*
X21152Y1072D01*
X21147Y1071D01*
X21146Y1070D01*
X21144D01*
X21138Y1067D01*
X21133Y1062D01*
X21131Y1059D01*
X21130Y1058D01*
X21128Y1052D01*
X21126Y1047D01*
Y1043D01*
Y1041D01*
X21127Y1035D01*
X21128Y1030D01*
X21130Y1025D01*
X21131Y1023D01*
X21137Y1015D01*
X21142Y1009D01*
X21148Y1003D01*
X21149Y1002D01*
X21150Y1001D01*
X21152Y999D01*
X21153Y994D01*
X21157Y985D01*
X21159Y981D01*
X21160Y978D01*
X21161Y975D01*
Y974D01*
X21167Y958D01*
X21171Y940D01*
X21172Y933D01*
X21174Y928D01*
X21176Y923D01*
Y922D01*
X21180Y903D01*
X21182Y894D01*
X21183Y888D01*
X21184Y881D01*
X21186Y877D01*
X21187Y874D01*
Y873D01*
X21188Y866D01*
X21189Y860D01*
X21190Y854D01*
Y851D01*
X21191Y846D01*
Y844D01*
X21190Y831D01*
X21189Y819D01*
X21188Y814D01*
Y811D01*
Y809D01*
Y808D01*
Y807D01*
X21189Y804D01*
X21190Y801D01*
Y800D01*
X21191Y796D01*
Y792D01*
Y790D01*
Y789D01*
X21190Y782D01*
X21187Y778D01*
X21184Y776D01*
X21183Y774D01*
X21176Y773D01*
X21169Y772D01*
X21161D01*
X21144Y777D01*
X21132Y779D01*
X21127Y781D01*
X21123D01*
X21121Y782D01*
X21120D01*
X21117Y784D01*
X21113Y787D01*
X21108Y793D01*
X21103Y799D01*
X21102Y800D01*
Y801D01*
X21096Y814D01*
X21090Y829D01*
X21088Y834D01*
X21086Y839D01*
X21084Y842D01*
Y843D01*
X21078Y861D01*
X21076Y868D01*
X21073Y874D01*
X21071Y880D01*
X21070Y884D01*
X21069Y887D01*
Y888D01*
X21067Y894D01*
X21064Y901D01*
X21062Y909D01*
X21061Y914D01*
Y916D01*
X21059Y927D01*
X21058Y937D01*
X21056Y945D01*
X21054Y953D01*
X21053Y960D01*
Y964D01*
X21052Y967D01*
Y968D01*
X21050Y982D01*
X21048Y992D01*
X21046Y998D01*
Y1000D01*
Y1005D01*
X21044Y1012D01*
Y1019D01*
Y1020D01*
Y1021D01*
X21043Y1033D01*
Y1043D01*
Y1048D01*
Y1051D01*
Y1053D01*
Y1054D01*
Y1071D01*
X21046Y1087D01*
X21047Y1099D01*
X21049Y1110D01*
X21051Y1118D01*
X21052Y1124D01*
X21054Y1128D01*
Y1129D01*
X21059Y1138D01*
X21063Y1145D01*
X21069Y1152D01*
X21074Y1155D01*
X21079Y1159D01*
X21083Y1161D01*
X21086Y1162D01*
X21087D01*
X21101Y1164D01*
X21109Y1169D01*
X21118Y1172D01*
X21124Y1173D01*
X21127Y1174D01*
X21128D01*
X21141Y1177D01*
X21153Y1179D01*
X21172D01*
X21179Y1177D01*
D02*
G37*
G36*
X23072Y1217D02*
X23081Y1213D01*
X23087Y1210D01*
X23089Y1208D01*
X23096Y1199D01*
X23100Y1189D01*
X23101Y1184D01*
X23102Y1181D01*
X23103Y1179D01*
Y1178D01*
X23108Y1153D01*
X23112Y1131D01*
X23116Y1110D01*
X23118Y1091D01*
X23120Y1077D01*
X23122Y1064D01*
Y1060D01*
X23123Y1057D01*
Y1055D01*
Y1054D01*
X23126Y1033D01*
X23127Y1012D01*
X23128Y993D01*
Y977D01*
X23129Y962D01*
Y952D01*
Y948D01*
Y944D01*
Y943D01*
Y942D01*
Y928D01*
X23128Y917D01*
Y912D01*
Y909D01*
Y908D01*
Y907D01*
X23126Y897D01*
X23123Y889D01*
X23122Y883D01*
X23121Y881D01*
X23108Y871D01*
X23106Y869D01*
X23104Y864D01*
X23103Y861D01*
Y860D01*
X23102Y853D01*
X23101Y846D01*
Y839D01*
Y838D01*
Y837D01*
X23100Y823D01*
Y813D01*
X23099Y807D01*
Y806D01*
Y804D01*
X23098Y798D01*
Y792D01*
X23097Y790D01*
Y789D01*
X23093Y783D01*
X23092Y779D01*
X23091Y777D01*
Y776D01*
X23089Y770D01*
Y768D01*
Y767D01*
X23088Y762D01*
Y758D01*
Y754D01*
Y753D01*
X23087Y748D01*
Y743D01*
Y740D01*
Y739D01*
X23084Y724D01*
X23082Y712D01*
Y708D01*
X23081Y706D01*
Y703D01*
Y702D01*
X23080Y692D01*
X23079Y683D01*
X23078Y679D01*
Y677D01*
X23075Y663D01*
X23071Y654D01*
X23070Y649D01*
X23069Y647D01*
X23067Y640D01*
X23064Y636D01*
X23063Y633D01*
Y632D01*
Y630D01*
X23064Y627D01*
X23066Y623D01*
X23067Y622D01*
X23063Y609D01*
X23060Y599D01*
X23059Y594D01*
Y591D01*
X23058Y589D01*
Y588D01*
X23054Y577D01*
X23052Y568D01*
X23050Y562D01*
Y561D01*
Y560D01*
X23047Y551D01*
X23045Y543D01*
X23041Y537D01*
X23039Y530D01*
X23037Y526D01*
X23035Y522D01*
X23033Y521D01*
Y520D01*
X23030Y516D01*
X23026Y512D01*
X23019Y508D01*
X23013Y506D01*
X23011D01*
X22998Y507D01*
X22988Y511D01*
X22983Y512D01*
X22980Y514D01*
X22979Y516D01*
X22978D01*
X22968Y524D01*
X22959Y534D01*
X22956Y539D01*
X22953Y542D01*
X22951Y544D01*
Y546D01*
X22940Y570D01*
X22936Y581D01*
X22931Y590D01*
X22928Y599D01*
X22925Y604D01*
X22923Y609D01*
X22922Y610D01*
X22918Y620D01*
X22915Y630D01*
X22910Y638D01*
X22908Y644D01*
X22906Y650D01*
X22903Y653D01*
X22902Y656D01*
Y657D01*
X22900Y662D01*
X22898Y668D01*
X22896Y674D01*
Y677D01*
Y678D01*
X22891Y688D01*
X22887Y697D01*
X22883Y704D01*
X22880Y711D01*
X22877Y716D01*
X22876Y719D01*
X22873Y721D01*
Y722D01*
X22870Y728D01*
X22868Y733D01*
X22867Y742D01*
Y739D01*
X22866Y729D01*
Y724D01*
X22865Y721D01*
Y719D01*
Y718D01*
X22863Y707D01*
X22862Y699D01*
X22861Y694D01*
Y692D01*
X22860Y677D01*
X22859Y662D01*
X22858Y657D01*
Y652D01*
Y650D01*
Y649D01*
X22857Y633D01*
X22856Y620D01*
X22855Y616D01*
Y611D01*
Y609D01*
Y608D01*
X22852Y597D01*
X22849Y588D01*
X22847Y579D01*
X22843Y572D01*
X22841Y567D01*
X22839Y563D01*
X22837Y561D01*
Y560D01*
X22831Y554D01*
X22826Y550D01*
X22819Y548D01*
X22813Y546D01*
X22808Y544D01*
X22803Y543D01*
X22800D01*
X22796Y544D01*
X22791Y546D01*
X22788Y547D01*
X22787D01*
X22781Y549D01*
X22777Y551D01*
X22773Y553D01*
X22767D01*
X22761Y554D01*
X22758Y556D01*
X22757D01*
X22751Y558D01*
X22748Y560D01*
X22746Y562D01*
X22745Y563D01*
X22735Y569D01*
X22732Y570D01*
X22731Y572D01*
X22727Y578D01*
X22723Y583D01*
X22722Y584D01*
Y586D01*
X22716Y598D01*
X22710Y610D01*
X22708Y616D01*
X22706Y620D01*
X22703Y623D01*
Y624D01*
X22700Y633D01*
X22697Y641D01*
X22695Y648D01*
X22692Y653D01*
X22690Y658D01*
X22689Y661D01*
X22688Y662D01*
Y663D01*
X22683Y672D01*
X22681Y679D01*
X22679Y683D01*
Y684D01*
X22676Y694D01*
X22673Y702D01*
X22671Y708D01*
Y709D01*
X22668Y716D01*
X22665Y720D01*
X22662Y723D01*
X22661Y724D01*
X22657Y741D01*
X22655Y748D01*
X22653Y753D01*
X22652Y758D01*
X22651Y761D01*
X22650Y762D01*
Y763D01*
X22647Y773D01*
X22643Y780D01*
X22642Y784D01*
X22641Y786D01*
X22638Y800D01*
X22636Y810D01*
X22633Y817D01*
Y819D01*
X22631Y827D01*
X22629Y832D01*
X22628Y834D01*
Y836D01*
X22622Y849D01*
X22619Y859D01*
X22617Y866D01*
X22616Y867D01*
Y868D01*
X22612Y877D01*
X22610Y883D01*
X22609Y888D01*
Y889D01*
X22607Y894D01*
X22605Y901D01*
X22602Y908D01*
Y909D01*
Y910D01*
X22601Y917D01*
X22599Y923D01*
X22597Y938D01*
X22596Y943D01*
X22595Y949D01*
X22593Y952D01*
Y953D01*
X22591Y963D01*
X22590Y972D01*
X22588Y980D01*
X22587Y987D01*
X22586Y991D01*
Y994D01*
X22585Y997D01*
Y998D01*
X22582Y1009D01*
X22580Y1017D01*
X22578Y1022D01*
Y1023D01*
X22585Y1047D01*
X22583Y1048D01*
X22582Y1050D01*
X22581Y1052D01*
Y1053D01*
X22578Y1061D01*
X22576Y1063D01*
Y1064D01*
X22575Y1071D01*
X22573Y1080D01*
X22572Y1087D01*
Y1088D01*
Y1089D01*
X22571Y1103D01*
X22570Y1119D01*
Y1124D01*
Y1130D01*
Y1133D01*
Y1134D01*
Y1143D01*
X22571Y1150D01*
X22572Y1154D01*
X22573Y1155D01*
X22577Y1161D01*
X22582Y1163D01*
X22587Y1164D01*
X22593D01*
X22597Y1162D01*
X22605Y1158D01*
X22610Y1153D01*
X22611Y1152D01*
X22612Y1151D01*
X22621Y1141D01*
X22630Y1130D01*
X22633Y1125D01*
X22636Y1121D01*
X22637Y1119D01*
X22638Y1118D01*
X22640Y1109D01*
X22641Y1102D01*
X22642Y1097D01*
X22643Y1095D01*
X22645Y1089D01*
X22647Y1084D01*
X22648Y1081D01*
Y1080D01*
X22641Y1059D01*
X22647Y1041D01*
X22649Y1033D01*
X22651Y1025D01*
X22652Y1020D01*
X22653Y1015D01*
X22655Y1013D01*
Y1012D01*
X22658Y998D01*
X22661Y987D01*
X22662Y982D01*
X22663Y979D01*
X22665Y978D01*
Y977D01*
X22670Y957D01*
X22672Y948D01*
X22676Y941D01*
X22677Y934D01*
X22679Y930D01*
X22680Y928D01*
Y927D01*
X22686Y911D01*
X22690Y899D01*
X22691Y893D01*
X22693Y890D01*
X22695Y888D01*
Y887D01*
X22696Y877D01*
X22697Y870D01*
X22698Y864D01*
Y863D01*
X22700Y858D01*
X22702Y854D01*
X22703Y852D01*
X22705Y851D01*
X22711Y831D01*
X22715Y822D01*
X22717Y813D01*
X22720Y807D01*
X22721Y800D01*
X22723Y797D01*
Y796D01*
X22730Y773D01*
X22733Y763D01*
X22737Y754D01*
X22740Y747D01*
X22742Y740D01*
X22743Y736D01*
X22745Y734D01*
X22750Y721D01*
X22755Y710D01*
X22758Y701D01*
X22761Y693D01*
X22765Y688D01*
X22767Y683D01*
X22768Y681D01*
Y680D01*
X22769Y677D01*
X22770Y686D01*
Y697D01*
Y701D01*
Y704D01*
Y707D01*
Y708D01*
Y720D01*
Y730D01*
Y737D01*
Y738D01*
Y739D01*
Y744D01*
Y751D01*
Y766D01*
X22771Y771D01*
Y777D01*
Y780D01*
Y781D01*
X22772Y794D01*
Y804D01*
X22773Y811D01*
Y813D01*
Y823D01*
Y834D01*
Y838D01*
Y841D01*
Y843D01*
Y844D01*
Y847D01*
X22772Y850D01*
X22771Y853D01*
Y854D01*
X22769Y863D01*
X22768Y872D01*
X22766Y879D01*
Y881D01*
Y882D01*
X22763Y897D01*
X22761Y909D01*
Y913D01*
X22760Y917D01*
Y918D01*
Y919D01*
X22759Y930D01*
X22758Y939D01*
Y944D01*
Y947D01*
X22753Y964D01*
X22751Y981D01*
X22748Y994D01*
X22746Y1007D01*
X22745Y1015D01*
X22743Y1023D01*
X22742Y1028D01*
Y1029D01*
X22740Y1041D01*
X22739Y1051D01*
X22738Y1059D01*
Y1065D01*
X22737Y1071D01*
Y1074D01*
Y1077D01*
Y1078D01*
X22738Y1087D01*
X22740Y1094D01*
X22742Y1099D01*
X22743Y1101D01*
X22746Y1104D01*
X22749Y1108D01*
X22757Y1113D01*
X22763Y1118D01*
X22766Y1119D01*
X22767D01*
X22812Y1101D01*
X22818Y1099D01*
X22822Y1095D01*
X22830Y1089D01*
X22836Y1082D01*
X22838Y1080D01*
Y1079D01*
X22845Y1065D01*
X22849Y1051D01*
X22851Y1044D01*
X22852Y1040D01*
X22853Y1037D01*
Y1036D01*
X22860Y1002D01*
X22866Y972D01*
X22872Y944D01*
X22878Y921D01*
X22880Y911D01*
X22882Y902D01*
X22885Y894D01*
X22886Y889D01*
X22887Y883D01*
X22888Y880D01*
X22889Y878D01*
Y877D01*
X22896Y853D01*
X22903Y832D01*
X22910Y814D01*
X22916Y799D01*
X22921Y787D01*
X22926Y778D01*
X22928Y772D01*
X22929Y770D01*
X22932Y758D01*
X22936Y749D01*
X22938Y742D01*
X22939Y741D01*
Y740D01*
X22942Y732D01*
X22945Y726D01*
X22946Y721D01*
X22947Y720D01*
X22977Y666D01*
Y667D01*
X22978Y677D01*
X22979Y688D01*
X22981Y700D01*
X22982Y710D01*
X22983Y714D01*
X22985Y718D01*
Y719D01*
Y720D01*
X22987Y731D01*
X22988Y742D01*
X22990Y751D01*
X22991Y759D01*
X22993Y772D01*
X22994Y781D01*
Y788D01*
X22996Y792D01*
Y794D01*
Y831D01*
X22997Y838D01*
X22998Y843D01*
X22999Y847D01*
Y848D01*
X23000Y854D01*
X23001Y856D01*
Y857D01*
Y861D01*
Y863D01*
Y868D01*
Y873D01*
Y878D01*
Y880D01*
X23000Y891D01*
Y902D01*
Y907D01*
Y911D01*
Y913D01*
Y914D01*
X22999Y927D01*
Y937D01*
Y942D01*
Y944D01*
Y953D01*
Y961D01*
X23000Y967D01*
Y969D01*
Y979D01*
Y988D01*
X23001Y993D01*
Y994D01*
Y996D01*
X23002Y1006D01*
X23003Y1012D01*
X23005Y1018D01*
Y1019D01*
X23003Y1023D01*
X23002Y1028D01*
X23001Y1031D01*
Y1032D01*
X22998Y1052D01*
Y1061D01*
X22997Y1069D01*
X22996Y1075D01*
Y1081D01*
Y1084D01*
Y1085D01*
X22993Y1104D01*
X22992Y1114D01*
X22991Y1122D01*
X22990Y1130D01*
X22989Y1135D01*
Y1139D01*
Y1140D01*
X22990Y1143D01*
X22991Y1148D01*
X22992Y1151D01*
X22993Y1152D01*
X22997Y1160D01*
X23000Y1167D01*
X23002Y1172D01*
X23003Y1174D01*
X23008Y1181D01*
X23011Y1187D01*
X23013Y1190D01*
X23015Y1191D01*
X23018Y1197D01*
X23021Y1201D01*
X23023Y1203D01*
X23024Y1204D01*
X23029Y1209D01*
X23035Y1212D01*
X23038Y1213D01*
X23040Y1214D01*
X23047Y1217D01*
X23053Y1219D01*
X23061D01*
X23072Y1217D01*
D02*
G37*
G36*
X22310Y1187D02*
X22317Y1183D01*
X22321Y1182D01*
X22322Y1181D01*
X22327Y1179D01*
X22331Y1177D01*
X22335Y1175D01*
X22336Y1174D01*
X22342Y1170D01*
X22343Y1169D01*
X22345Y1168D01*
X22351Y1161D01*
X22356Y1157D01*
X22358Y1153D01*
X22359Y1152D01*
X22367Y1150D01*
X22373Y1147D01*
X22378Y1144D01*
X22380Y1143D01*
X22387Y1139D01*
X22391Y1134D01*
X22395Y1130D01*
X22396Y1129D01*
X22406Y1122D01*
X22413Y1115D01*
X22418Y1111D01*
X22420Y1109D01*
X22426Y1101D01*
X22428Y1095D01*
X22429Y1091D01*
Y1089D01*
X22428Y1083D01*
X22426Y1079D01*
X22418Y1072D01*
X22410Y1070D01*
X22408Y1069D01*
X22407D01*
X22399Y1068D01*
X22393Y1065D01*
X22389Y1064D01*
X22387Y1062D01*
X22383Y1059D01*
Y1058D01*
Y1042D01*
X22385Y1029D01*
Y1023D01*
X22386Y1019D01*
Y1015D01*
Y1014D01*
X22387Y997D01*
X22389Y980D01*
X22390Y973D01*
Y968D01*
X22391Y964D01*
Y963D01*
X22395Y944D01*
X22396Y936D01*
X22397Y928D01*
X22398Y921D01*
X22399Y916D01*
X22400Y912D01*
Y911D01*
X22403Y892D01*
X22405Y883D01*
X22406Y877D01*
X22407Y870D01*
Y866D01*
X22408Y862D01*
Y861D01*
X22410Y856D01*
Y853D01*
Y852D01*
Y847D01*
X22411Y846D01*
Y844D01*
X22415Y834D01*
X22417Y826D01*
X22419Y819D01*
X22420Y818D01*
Y817D01*
X22422Y808D01*
X22425Y800D01*
X22426Y796D01*
X22427Y793D01*
X22430Y776D01*
X22433Y761D01*
X22435Y754D01*
X22436Y750D01*
X22437Y747D01*
Y746D01*
X22442Y727D01*
X22445Y718D01*
X22447Y709D01*
X22449Y701D01*
X22451Y696D01*
X22452Y691D01*
Y690D01*
X22457Y674D01*
X22460Y662D01*
X22463Y651D01*
X22467Y642D01*
X22469Y636D01*
X22471Y631D01*
X22472Y629D01*
Y628D01*
X22475Y622D01*
X22477Y618D01*
X22479Y614D01*
X22480Y612D01*
X22481Y610D01*
X22482Y611D01*
X22483Y612D01*
X22485Y613D01*
X22486D01*
X22488Y617D01*
X22491Y622D01*
X22492Y626D01*
X22493Y628D01*
X22496Y633D01*
X22498Y639D01*
X22499Y642D01*
X22500Y643D01*
X22502Y650D01*
X22505Y654D01*
X22506Y658D01*
X22507Y659D01*
X22505D01*
X22501Y661D01*
X22498Y663D01*
X22496Y664D01*
X22491Y668D01*
X22489Y671D01*
X22485Y678D01*
X22483Y683D01*
Y684D01*
Y686D01*
X22485Y691D01*
X22486Y697D01*
X22488Y702D01*
X22489Y704D01*
X22493Y717D01*
X22497Y728D01*
X22499Y733D01*
X22501Y738D01*
X22502Y740D01*
Y741D01*
X22508Y753D01*
X22512Y763D01*
X22515Y769D01*
X22516Y771D01*
X22520Y779D01*
X22523Y786D01*
X22526Y789D01*
X22527Y790D01*
X22535Y798D01*
X22542Y802D01*
X22549Y806D01*
X22550Y807D01*
X22551D01*
X22562Y810D01*
X22572Y811D01*
X22577Y812D01*
X22582D01*
X22588Y811D01*
X22592Y809D01*
X22600Y802D01*
X22603Y796D01*
X22605Y793D01*
Y792D01*
X22607Y784D01*
X22608Y777D01*
X22610Y760D01*
X22611Y752D01*
Y747D01*
Y742D01*
Y741D01*
Y734D01*
X22610Y728D01*
X22609Y722D01*
Y721D01*
Y720D01*
X22607Y711D01*
X22605Y702D01*
X22603Y697D01*
X22602Y696D01*
Y694D01*
X22598Y680D01*
X22596Y670D01*
X22593Y663D01*
X22592Y661D01*
X22589Y654D01*
X22588Y650D01*
X22587Y648D01*
Y647D01*
Y643D01*
X22586Y639D01*
X22582Y627D01*
X22580Y621D01*
X22579Y616D01*
X22578Y612D01*
Y611D01*
X22575Y600D01*
X22570Y588D01*
X22566Y576D01*
X22561Y563D01*
X22558Y553D01*
X22555Y546D01*
X22552Y540D01*
X22551Y538D01*
X22546Y528D01*
X22540Y520D01*
X22535Y516D01*
X22532Y513D01*
X22521Y509D01*
X22510Y507D01*
X22506Y506D01*
X22490D01*
X22482Y507D01*
X22477Y508D01*
X22475D01*
X22466Y511D01*
X22457Y513D01*
X22451Y516D01*
X22450Y517D01*
X22449D01*
X22438Y522D01*
X22429Y527D01*
X22425Y530D01*
X22422Y531D01*
X22416Y538D01*
X22411Y543D01*
X22409Y548D01*
X22408Y550D01*
X22403Y561D01*
X22400Y570D01*
X22397Y578D01*
X22395Y584D01*
X22393Y589D01*
X22392Y592D01*
X22391Y594D01*
Y596D01*
X22388Y606D01*
X22386Y613D01*
X22385Y617D01*
Y618D01*
X22383Y624D01*
X22382Y631D01*
X22381Y636D01*
Y638D01*
X22377Y651D01*
X22372Y663D01*
X22370Y668D01*
X22369Y672D01*
X22368Y674D01*
Y676D01*
X22363Y689D01*
X22361Y699D01*
X22359Y704D01*
Y707D01*
X22353Y723D01*
X22349Y737D01*
X22347Y742D01*
X22346Y747D01*
X22345Y749D01*
Y750D01*
X22340Y764D01*
X22337Y777D01*
X22336Y781D01*
X22335Y784D01*
X22333Y786D01*
Y787D01*
X22336Y796D01*
X22330Y810D01*
X22326Y821D01*
X22325Y826D01*
X22323Y829D01*
X22322Y831D01*
Y832D01*
X22319Y842D01*
X22317Y850D01*
X22316Y853D01*
Y854D01*
X22315Y861D01*
X22313Y867D01*
Y870D01*
Y871D01*
Y877D01*
X22312Y880D01*
Y882D01*
Y883D01*
X22310Y893D01*
X22308Y901D01*
X22307Y907D01*
Y909D01*
X22305Y917D01*
X22303Y923D01*
X22302Y928D01*
Y929D01*
X22300Y936D01*
X22299Y937D01*
Y938D01*
X22297Y944D01*
X22296Y946D01*
Y947D01*
X22287Y972D01*
X22283Y984D01*
X22280Y996D01*
X22278Y1006D01*
X22277Y1014D01*
X22276Y1019D01*
Y1021D01*
X22271Y1053D01*
X22270Y1069D01*
Y1083D01*
X22269Y1095D01*
Y1105D01*
Y1112D01*
Y1114D01*
Y1127D01*
X22270Y1138D01*
X22271Y1147D01*
X22272Y1154D01*
X22275Y1161D01*
X22276Y1165D01*
X22277Y1168D01*
Y1169D01*
X22280Y1175D01*
X22283Y1181D01*
X22288Y1184D01*
X22292Y1188D01*
X22300Y1190D01*
X22303D01*
X22310Y1187D01*
D02*
G37*
G36*
X23479Y1218D02*
X23488Y1213D01*
X23497Y1209D01*
X23506Y1202D01*
X23512Y1197D01*
X23519Y1191D01*
X23523Y1187D01*
X23524Y1185D01*
X23536Y1173D01*
X23543Y1163D01*
X23549Y1155D01*
X23552Y1148D01*
X23554Y1142D01*
X23557Y1139D01*
Y1137D01*
Y1135D01*
X23556Y1131D01*
X23553Y1125D01*
X23552Y1121D01*
X23551Y1119D01*
X23546Y1111D01*
X23540Y1102D01*
X23536Y1095D01*
X23534Y1094D01*
Y1093D01*
X23528Y1082D01*
X23522Y1073D01*
X23519Y1068D01*
X23518Y1065D01*
X23513Y1059D01*
X23511Y1055D01*
X23510Y1053D01*
Y1052D01*
X23537Y903D01*
X23533Y887D01*
X23536Y878D01*
X23538Y869D01*
X23539Y862D01*
X23540Y861D01*
Y860D01*
X23541Y851D01*
X23543Y844D01*
X23544Y841D01*
Y840D01*
X23546Y830D01*
Y822D01*
X23547Y814D01*
Y809D01*
X23548Y803D01*
Y800D01*
Y799D01*
Y798D01*
X23549Y790D01*
Y786D01*
X23550Y783D01*
Y782D01*
X23552Y771D01*
X23553Y760D01*
X23556Y750D01*
X23557Y742D01*
X23558Y736D01*
X23559Y731D01*
X23560Y728D01*
Y727D01*
Y721D01*
X23559Y714D01*
X23558Y711D01*
Y709D01*
X23557Y702D01*
X23556Y699D01*
Y697D01*
Y696D01*
X23557Y691D01*
X23559Y687D01*
X23567Y679D01*
X23574Y673D01*
X23577Y671D01*
X23578D01*
X23586Y667D01*
X23591Y663D01*
X23594Y659D01*
X23597Y656D01*
X23600Y651D01*
Y649D01*
X23599Y643D01*
X23598Y638D01*
X23597Y634D01*
X23596Y633D01*
X23591Y629D01*
X23586Y626D01*
X23581Y623D01*
X23580Y622D01*
X23572Y617D01*
X23570Y616D01*
X23569Y614D01*
X23564Y612D01*
X23562Y611D01*
X23561D01*
X23560Y591D01*
X23563Y576D01*
X23567Y563D01*
X23568Y559D01*
Y556D01*
X23569Y553D01*
Y552D01*
X23571Y541D01*
X23572Y533D01*
Y528D01*
Y526D01*
Y513D01*
X23571Y502D01*
X23569Y493D01*
X23568Y486D01*
X23566Y479D01*
X23564Y474D01*
X23563Y472D01*
Y471D01*
X23559Y464D01*
X23554Y459D01*
X23550Y456D01*
X23544Y452D01*
X23540Y451D01*
X23536Y450D01*
X23532D01*
X23524Y451D01*
X23517Y454D01*
X23512Y457D01*
X23510Y458D01*
X23502Y464D01*
X23496Y472D01*
X23491Y478D01*
X23490Y479D01*
Y480D01*
X23484Y487D01*
X23480Y493D01*
X23478Y498D01*
X23477Y499D01*
X23472Y507D01*
X23469Y514D01*
X23467Y521D01*
X23466Y522D01*
Y523D01*
X23472Y533D01*
X23478Y541D01*
X23480Y547D01*
X23481Y548D01*
X23483Y554D01*
X23484Y560D01*
X23486Y564D01*
Y566D01*
X23484Y581D01*
X23483Y594D01*
Y600D01*
X23482Y604D01*
Y608D01*
Y609D01*
Y619D01*
X23481Y627D01*
Y632D01*
Y637D01*
Y639D01*
Y640D01*
X23471D01*
X23466Y641D01*
X23460Y642D01*
X23456Y643D01*
X23454D01*
X23447Y647D01*
X23439Y650D01*
X23434Y652D01*
X23432Y653D01*
X23416Y661D01*
X23400Y667D01*
X23386Y673D01*
X23373Y678D01*
X23363Y682D01*
X23356Y686D01*
X23351Y687D01*
X23349Y688D01*
X23338Y692D01*
X23328Y697D01*
X23319Y700D01*
X23312Y703D01*
X23307Y707D01*
X23302Y708D01*
X23300Y710D01*
X23299D01*
X23286Y718D01*
X23277Y724D01*
X23271Y729D01*
X23270Y730D01*
X23263Y737D01*
X23258Y740D01*
X23256Y742D01*
X23254D01*
X23251Y744D01*
X23249Y747D01*
X23247Y748D01*
X23236Y756D01*
X23226Y764D01*
X23218Y774D01*
X23211Y783D01*
X23206Y791D01*
X23202Y798D01*
X23200Y803D01*
X23199Y804D01*
X23193Y820D01*
X23190Y836D01*
X23187Y851D01*
X23186Y866D01*
X23184Y879D01*
X23183Y889D01*
Y896D01*
Y897D01*
Y898D01*
X23184Y918D01*
X23186Y927D01*
Y934D01*
X23187Y941D01*
X23188Y947D01*
X23189Y950D01*
Y951D01*
X23191Y960D01*
X23193Y968D01*
X23196Y974D01*
X23197Y980D01*
X23199Y984D01*
X23201Y988D01*
X23202Y989D01*
Y990D01*
X23209Y1009D01*
X23212Y1017D01*
X23217Y1023D01*
X23219Y1029D01*
X23222Y1033D01*
X23223Y1036D01*
X23224Y1037D01*
X23236Y1052D01*
X23247Y1068D01*
X23252Y1073D01*
X23256Y1078D01*
X23258Y1081D01*
X23259Y1082D01*
X23263Y1089D01*
X23264Y1090D01*
X23266Y1091D01*
X23270Y1097D01*
X23271Y1098D01*
X23272D01*
X23281Y1105D01*
X23288Y1112D01*
X23292Y1117D01*
X23293Y1118D01*
X23299Y1123D01*
X23302Y1128D01*
X23304Y1130D01*
X23306Y1131D01*
X23319Y1141D01*
X23329Y1149D01*
X23334Y1153D01*
X23337Y1155D01*
X23341Y1160D01*
X23349Y1165D01*
X23357Y1170D01*
X23366Y1175D01*
X23374Y1180D01*
X23382Y1183D01*
X23387Y1185D01*
X23389Y1187D01*
X23398Y1190D01*
X23406Y1193D01*
X23411Y1195D01*
X23412Y1197D01*
X23413D01*
X23423Y1201D01*
X23431Y1205D01*
X23438Y1209D01*
X23439Y1210D01*
X23453D01*
X23458Y1212D01*
X23463Y1215D01*
X23468Y1218D01*
X23469Y1219D01*
X23470D01*
X23479Y1218D01*
D02*
G37*
G36*
X25288Y1209D02*
X25292Y1208D01*
X25293Y1207D01*
X25294Y1205D01*
X25298Y1203D01*
X25301Y1201D01*
X25306Y1200D01*
X25307Y1199D01*
X25315Y1195D01*
X25322Y1192D01*
X25327Y1189D01*
X25329Y1188D01*
X25337Y1183D01*
X25343Y1179D01*
X25348Y1174D01*
X25350Y1173D01*
X25360Y1164D01*
X25368Y1158D01*
X25372Y1153D01*
X25375Y1151D01*
X25380Y1144D01*
X25382Y1138D01*
X25385Y1133D01*
Y1132D01*
X25387Y1112D01*
X25388Y1103D01*
X25389Y1094D01*
X25390Y1088D01*
Y1081D01*
X25391Y1078D01*
Y1077D01*
Y1072D01*
X25390Y1068D01*
X25389Y1066D01*
Y1064D01*
X25387Y1062D01*
X25385Y1060D01*
X25384Y1060D01*
X25393Y981D01*
X25398Y959D01*
X25399Y949D01*
X25401Y940D01*
X25402Y932D01*
X25403Y927D01*
X25404Y923D01*
Y922D01*
X25408Y904D01*
X25409Y898D01*
X25410Y891D01*
X25411Y886D01*
X25412Y882D01*
Y880D01*
Y879D01*
X25411Y869D01*
X25410Y862D01*
X25409Y857D01*
Y856D01*
Y846D01*
X25410Y834D01*
X25413Y810D01*
X25414Y799D01*
X25417Y790D01*
X25418Y783D01*
Y782D01*
Y781D01*
X25420Y763D01*
X25422Y748D01*
X25423Y734D01*
X25424Y723D01*
X25426Y714D01*
Y709D01*
Y704D01*
Y703D01*
X25424Y697D01*
Y693D01*
Y692D01*
X25423Y688D01*
X25422Y686D01*
Y684D01*
Y679D01*
X25423Y673D01*
X25424Y669D01*
X25426Y668D01*
Y667D01*
X25428Y659D01*
X25429Y653D01*
Y650D01*
Y649D01*
X25430Y630D01*
X25431Y621D01*
Y613D01*
X25432Y607D01*
Y601D01*
Y598D01*
Y597D01*
X25434Y587D01*
X25437Y577D01*
X25438Y570D01*
Y568D01*
Y567D01*
X25433Y549D01*
X25437Y532D01*
X25436Y527D01*
X25434Y523D01*
X25433Y521D01*
X25432Y520D01*
X25428Y518D01*
X25424Y517D01*
X25420D01*
X25409Y519D01*
X25401Y520D01*
X25397Y521D01*
X25396D01*
X25390Y522D01*
X25386Y523D01*
X25383Y524D01*
X25382D01*
X25372Y528D01*
X25366Y532D01*
X25361Y536D01*
X25360Y538D01*
X25356Y548D01*
X25353Y559D01*
Y563D01*
X25352Y568D01*
Y570D01*
Y571D01*
Y576D01*
X25351Y583D01*
X25349Y599D01*
Y607D01*
X25348Y613D01*
X25347Y618D01*
Y619D01*
X25345Y634D01*
X25342Y652D01*
X25339Y671D01*
X25337Y689D01*
X25333Y706D01*
X25332Y718D01*
X25331Y723D01*
X25330Y727D01*
Y729D01*
Y730D01*
X25327Y754D01*
X25323Y777D01*
X25321Y794D01*
X25319Y809D01*
X25317Y819D01*
X25316Y828D01*
X25315Y832D01*
Y833D01*
X25312Y844D01*
X25311Y852D01*
X25311Y853D01*
X25308Y849D01*
X25305Y842D01*
X25303Y841D01*
Y840D01*
X25298Y830D01*
X25293Y823D01*
X25291Y819D01*
X25290Y818D01*
X25283Y808D01*
X25277Y800D01*
X25270Y792D01*
X25265Y787D01*
X25260Y781D01*
X25256Y778D01*
X25253Y777D01*
X25252Y776D01*
X25245Y771D01*
X25237Y768D01*
X25222Y764D01*
X25217Y763D01*
X25212Y762D01*
X25209D01*
X25195Y764D01*
X25181Y768D01*
X25176Y770D01*
X25171Y771D01*
X25169Y773D01*
X25168D01*
X25160Y778D01*
X25153Y782D01*
X25148Y787D01*
X25143Y790D01*
X25139Y797D01*
X25137Y798D01*
Y799D01*
X25131Y802D01*
X25127Y806D01*
X25123Y807D01*
X25122Y808D01*
X25118Y811D01*
X25113Y813D01*
X25111Y816D01*
X25110D01*
X25075Y851D01*
X25067Y860D01*
X25059Y868D01*
X25055Y872D01*
X25052Y874D01*
X25046Y881D01*
X25041Y888D01*
X25038Y892D01*
X25037Y893D01*
X25031Y900D01*
X25027Y907D01*
X25023Y911D01*
X25022Y912D01*
X25015Y921D01*
X25010Y927D01*
X25007Y930D01*
X25006Y931D01*
X25005Y934D01*
Y938D01*
X25002D01*
X25001Y937D01*
Y936D01*
X25002Y934D01*
X25006Y931D01*
X25007Y929D01*
Y928D01*
X25008Y922D01*
X25010Y916D01*
X25011Y910D01*
X25012Y909D01*
Y908D01*
X25016Y891D01*
X25017Y884D01*
X25018Y879D01*
X25019Y874D01*
Y871D01*
X25020Y869D01*
Y868D01*
X25021Y856D01*
X25023Y844D01*
Y840D01*
X25025Y837D01*
Y834D01*
Y833D01*
X25030Y807D01*
X25033Y783D01*
X25038Y763D01*
X25040Y748D01*
X25042Y736D01*
X25045Y727D01*
X25046Y722D01*
Y720D01*
X25048Y708D01*
X25050Y698D01*
X25051Y689D01*
X25052Y683D01*
Y679D01*
X25053Y676D01*
Y673D01*
X25055Y658D01*
X25056Y643D01*
X25058Y631D01*
X25059Y620D01*
X25060Y612D01*
X25061Y606D01*
X25062Y601D01*
Y600D01*
X25065Y590D01*
X25066Y580D01*
X25068Y572D01*
X25069Y566D01*
X25071Y561D01*
X25072Y558D01*
X25073Y556D01*
Y554D01*
X25075Y549D01*
X25076Y548D01*
Y547D01*
X25075Y539D01*
X25072Y534D01*
X25071Y531D01*
X25070Y530D01*
X25066Y528D01*
X25061Y527D01*
X25058Y526D01*
X25057D01*
X25052Y527D01*
X25048Y529D01*
X25045Y530D01*
X25043Y531D01*
X25038Y536D01*
X25031Y541D01*
X25027Y546D01*
X25026Y548D01*
X25021Y553D01*
X25017Y559D01*
X25013Y561D01*
X25012Y562D01*
X25007Y566D01*
X25002Y568D01*
X24998Y570D01*
X24997D01*
X24993Y578D01*
X24991Y582D01*
X24990Y586D01*
Y587D01*
X24982Y620D01*
X24978Y636D01*
X24975Y650D01*
X24972Y662D01*
X24970Y672D01*
X24968Y678D01*
Y680D01*
X24967Y686D01*
Y690D01*
Y692D01*
Y693D01*
X24966Y697D01*
Y699D01*
Y701D01*
X24963Y712D01*
X24962Y722D01*
X24961Y728D01*
Y730D01*
X24959Y739D01*
X24956Y746D01*
X24955Y750D01*
X24953Y751D01*
X24949Y760D01*
X24946Y769D01*
X24943Y774D01*
X24942Y776D01*
Y777D01*
X24941Y788D01*
X24940Y796D01*
X24939Y801D01*
Y802D01*
X24938Y808D01*
X24937Y811D01*
Y813D01*
X24935Y822D01*
X24932Y832D01*
X24931Y839D01*
X24930Y841D01*
Y842D01*
X24926Y856D01*
X24922Y866D01*
X24921Y870D01*
X24920Y873D01*
X24919Y874D01*
Y876D01*
X24910Y906D01*
X24907Y919D01*
X24903Y931D01*
X24901Y941D01*
X24899Y949D01*
X24898Y953D01*
Y956D01*
X24895Y970D01*
X24892Y983D01*
X24890Y996D01*
X24888Y1007D01*
X24887Y1015D01*
X24886Y1023D01*
X24885Y1028D01*
Y1029D01*
X24882Y1047D01*
X24881Y1061D01*
X24880Y1068D01*
X24879Y1072D01*
Y1076D01*
Y1077D01*
X24880Y1094D01*
X24881Y1101D01*
X24882Y1108D01*
X24883Y1112D01*
X24885Y1115D01*
X24886Y1118D01*
Y1119D01*
X24888Y1124D01*
X24891Y1129D01*
X24895Y1132D01*
X24898Y1134D01*
X24905Y1137D01*
X24911D01*
X24915Y1135D01*
X24917Y1134D01*
X24918Y1133D01*
X24925Y1129D01*
X24928Y1128D01*
X24929Y1127D01*
X24946Y1114D01*
X24958Y1104D01*
X24963Y1100D01*
X24967Y1097D01*
X24969Y1094D01*
X24970Y1093D01*
X24981Y1081D01*
X24990Y1070D01*
X24992Y1067D01*
X24995Y1063D01*
X24997Y1061D01*
Y1060D01*
X25009Y1040D01*
X25016Y1030D01*
X25021Y1022D01*
X25027Y1014D01*
X25031Y1009D01*
X25033Y1006D01*
X25035Y1004D01*
X25051Y983D01*
X25059Y973D01*
X25067Y964D01*
X25072Y957D01*
X25078Y951D01*
X25081Y947D01*
X25082Y946D01*
X25095Y931D01*
X25106Y919D01*
X25117Y909D01*
X25126Y900D01*
X25132Y893D01*
X25138Y889D01*
X25141Y887D01*
X25142Y886D01*
X25151Y879D01*
X25158Y874D01*
X25165Y871D01*
X25170Y869D01*
X25173Y868D01*
X25177Y867D01*
X25179D01*
X25185Y868D01*
X25190Y869D01*
X25200Y876D01*
X25207Y881D01*
X25208Y882D01*
X25209Y883D01*
X25215Y891D01*
X25220Y900D01*
X25229Y919D01*
X25232Y928D01*
X25236Y934D01*
X25237Y939D01*
X25238Y941D01*
X25246Y963D01*
X25248Y972D01*
X25251Y981D01*
X25253Y989D01*
X25255Y994D01*
X25256Y998D01*
Y999D01*
X25259Y1020D01*
X25261Y1029D01*
Y1037D01*
X25262Y1043D01*
Y1048D01*
Y1051D01*
Y1052D01*
X25263Y1064D01*
Y1076D01*
X25265Y1084D01*
Y1092D01*
X25266Y1098D01*
Y1101D01*
Y1103D01*
Y1104D01*
Y1115D01*
Y1122D01*
Y1127D01*
Y1128D01*
X25265Y1133D01*
X25263Y1139D01*
X25262Y1144D01*
X25261Y1147D01*
X25259Y1157D01*
X25257Y1163D01*
Y1169D01*
Y1170D01*
X25258Y1182D01*
X25260Y1191D01*
X25262Y1197D01*
X25263Y1199D01*
X25269Y1205D01*
X25276Y1209D01*
X25281Y1210D01*
X25283D01*
X25288Y1209D01*
D02*
G37*
G36*
X25469Y1240D02*
X25474Y1237D01*
X25479Y1232D01*
X25480Y1231D01*
Y1230D01*
X25487Y1220D01*
X25494Y1209D01*
X25498Y1204D01*
X25500Y1201D01*
X25501Y1199D01*
X25502Y1198D01*
X25508Y1189D01*
X25512Y1181D01*
X25516Y1177D01*
X25517Y1174D01*
X25521Y1168D01*
X25524Y1161D01*
X25528Y1157D01*
X25529Y1154D01*
X25534Y1148D01*
X25536Y1145D01*
X25537Y1144D01*
X25542Y1139D01*
X25543Y1138D01*
X25544Y1137D01*
X25550Y1124D01*
X25554Y1115D01*
X25558Y1111D01*
X25559Y1109D01*
X25562Y1102D01*
X25564Y1098D01*
X25566Y1094D01*
X25567Y1093D01*
X25571Y1087D01*
X25576Y1080D01*
X25578Y1076D01*
X25579Y1073D01*
X25582Y1066D01*
X25586Y1060D01*
X25587Y1055D01*
X25588Y1053D01*
X25593Y1044D01*
X25599Y1037D01*
X25602Y1031D01*
X25603Y1029D01*
X25609Y1021D01*
X25613Y1015D01*
X25616Y1012D01*
X25617Y1011D01*
X25620Y1006D01*
X25622Y1001D01*
X25624Y999D01*
X25626Y998D01*
X25631Y1007D01*
X25639Y1020D01*
X25642Y1025D01*
X25646Y1030D01*
X25647Y1033D01*
X25648Y1034D01*
Y1036D01*
X25649Y1037D01*
X25650Y1038D01*
Y1039D01*
X25651Y1042D01*
X25653Y1044D01*
X25654Y1047D01*
X25664Y1066D01*
X25670Y1073D01*
X25676Y1081D01*
X25680Y1088D01*
X25684Y1093D01*
X25687Y1097D01*
X25688Y1098D01*
X25696Y1109D01*
X25704Y1119D01*
X25713Y1129D01*
X25722Y1138D01*
X25730Y1147D01*
X25736Y1152D01*
X25740Y1157D01*
X25741Y1158D01*
X25749Y1159D01*
X25757Y1161D01*
X25762Y1162D01*
X25763Y1163D01*
X25764D01*
X25773Y1168D01*
X25780Y1169D01*
X25786Y1170D01*
X25787D01*
X25796Y1169D01*
X25802Y1167D01*
X25807Y1163D01*
X25808Y1162D01*
X25811Y1157D01*
X25813Y1150D01*
X25814Y1145D01*
Y1144D01*
Y1143D01*
Y1139D01*
X25813Y1134D01*
X25812Y1131D01*
Y1130D01*
X25809Y1124D01*
X25806Y1120D01*
X25803Y1115D01*
X25802Y1114D01*
X25798Y1108D01*
X25796Y1105D01*
Y1104D01*
X25790Y1098D01*
X25789Y1095D01*
X25788Y1094D01*
X25783Y1085D01*
X25779Y1078D01*
X25777Y1073D01*
X25776Y1071D01*
X25772Y1064D01*
X25769Y1059D01*
X25768Y1054D01*
X25767Y1053D01*
X25761Y1048D01*
X25759Y1045D01*
Y1044D01*
X25757Y1042D01*
X25756Y1040D01*
X25754Y1039D01*
X25753Y1037D01*
X25752Y1033D01*
X25749Y1027D01*
X25746Y1020D01*
X25744Y1019D01*
Y1018D01*
X25738Y1006D01*
X25731Y994D01*
X25729Y989D01*
X25727Y986D01*
X25726Y983D01*
Y982D01*
X25720Y970D01*
X25716Y959D01*
X25711Y949D01*
X25708Y942D01*
X25706Y936D01*
X25703Y931D01*
X25702Y929D01*
Y928D01*
X25700Y921D01*
X25698Y917D01*
X25697Y912D01*
X25696Y910D01*
X25694Y907D01*
Y906D01*
X25696Y901D01*
X25698Y896D01*
X25702Y889D01*
X25707Y881D01*
X25711Y874D01*
X25716Y868D01*
X25718Y863D01*
X25719Y862D01*
X25729Y848D01*
X25740Y832D01*
X25752Y817D01*
X25763Y801D01*
X25773Y788D01*
X25781Y777D01*
X25784Y772D01*
X25787Y769D01*
X25789Y768D01*
Y767D01*
X25801Y752D01*
X25810Y740D01*
X25813Y734D01*
X25817Y731D01*
X25818Y729D01*
X25819Y728D01*
X25824Y721D01*
X25830Y714D01*
X25842Y701D01*
X25847Y696D01*
X25851Y691D01*
X25854Y688D01*
X25856Y687D01*
X25870Y666D01*
X25874Y656D01*
X25880Y648D01*
X25883Y641D01*
X25886Y637D01*
X25888Y633D01*
Y632D01*
X25892Y623D01*
X25894Y616D01*
X25899Y602D01*
Y598D01*
X25900Y593D01*
Y591D01*
Y590D01*
Y583D01*
Y574D01*
Y568D01*
Y567D01*
Y566D01*
Y556D01*
Y548D01*
Y543D01*
Y542D01*
X25899Y529D01*
X25894Y519D01*
X25891Y513D01*
X25890Y511D01*
X25882Y504D01*
X25873Y501D01*
X25867Y500D01*
X25864D01*
X25859Y502D01*
X25850Y507D01*
X25840Y513D01*
X25829Y522D01*
X25818Y530D01*
X25809Y537D01*
X25802Y541D01*
X25801Y543D01*
X25800D01*
X25790Y551D01*
X25781Y559D01*
X25767Y571D01*
X25757Y580D01*
X25749Y588D01*
X25743Y593D01*
X25741Y597D01*
X25739Y599D01*
X25736Y606D01*
X25733Y610D01*
X25731Y613D01*
Y614D01*
X25728Y622D01*
X25727Y624D01*
Y626D01*
X25728Y633D01*
X25731Y640D01*
X25733Y643D01*
X25734Y644D01*
X25739Y649D01*
X25744Y650D01*
X25757D01*
X25763Y646D01*
X25764Y645D01*
X25763Y647D01*
X25762Y648D01*
X25759Y656D01*
X25754Y661D01*
X25751Y666D01*
X25750Y668D01*
X25741Y681D01*
X25732Y693D01*
X25729Y698D01*
X25726Y702D01*
X25724Y704D01*
X25723Y706D01*
X25717Y718D01*
X25711Y728D01*
X25708Y733D01*
X25707Y736D01*
X25701Y743D01*
X25698Y749D01*
X25697Y751D01*
X25696Y752D01*
X25686Y763D01*
X25678Y773D01*
X25672Y779D01*
X25671Y781D01*
X25666Y790D01*
X25662Y796D01*
X25660Y799D01*
Y800D01*
X25658Y806D01*
Y807D01*
Y810D01*
X25657Y813D01*
Y812D01*
Y810D01*
X25658Y806D01*
Y803D01*
Y802D01*
X25653Y790D01*
X25650Y782D01*
X25649Y777D01*
X25648Y774D01*
X25646Y768D01*
X25643Y762D01*
X25641Y759D01*
Y758D01*
X25637Y743D01*
X25634Y731D01*
X25632Y727D01*
Y724D01*
X25631Y722D01*
Y721D01*
X25628Y711D01*
X25627Y703D01*
X25626Y699D01*
Y697D01*
X25622Y682D01*
X25620Y669D01*
X25619Y664D01*
X25618Y661D01*
Y659D01*
Y658D01*
X25616Y647D01*
X25614Y640D01*
X25613Y636D01*
Y634D01*
X25618Y621D01*
X25621Y610D01*
X25622Y606D01*
Y602D01*
X25623Y601D01*
Y600D01*
X25626Y590D01*
X25627Y583D01*
Y578D01*
Y577D01*
Y570D01*
X25626Y563D01*
X25624Y559D01*
Y558D01*
X25622Y552D01*
X25620Y548D01*
X25619Y546D01*
X25618Y544D01*
X25611Y537D01*
X25609Y534D01*
X25608Y533D01*
X25604Y530D01*
X25602Y528D01*
X25601Y526D01*
X25599Y522D01*
X25597Y518D01*
X25596Y513D01*
X25594Y512D01*
X25590Y507D01*
X25584Y504D01*
X25580Y503D01*
X25578D01*
X25572Y504D01*
X25567Y506D01*
X25562Y507D01*
X25561Y508D01*
X25553Y511D01*
X25547Y516D01*
X25542Y519D01*
X25540Y520D01*
X25534Y526D01*
X25530Y531D01*
X25527Y534D01*
X25526Y536D01*
X25521Y541D01*
X25517Y548D01*
X25514Y552D01*
X25513Y553D01*
X25510Y560D01*
X25507Y567D01*
X25506Y571D01*
X25504Y573D01*
X25501Y581D01*
X25499Y587D01*
X25497Y590D01*
Y591D01*
X25496Y600D01*
X25494Y609D01*
Y614D01*
Y616D01*
Y617D01*
Y621D01*
X25493Y624D01*
Y629D01*
Y631D01*
Y636D01*
X25494Y641D01*
X25496Y644D01*
X25497Y647D01*
X25500Y656D01*
X25503Y664D01*
X25506Y671D01*
X25507Y672D01*
Y673D01*
X25508Y676D01*
X25509Y679D01*
X25510Y682D01*
Y683D01*
X25511Y690D01*
Y697D01*
X25512Y702D01*
Y704D01*
X25513Y713D01*
X25514Y720D01*
X25516Y724D01*
X25517Y727D01*
X25519Y733D01*
X25522Y738D01*
X25523Y740D01*
X25524Y741D01*
Y744D01*
X25526Y750D01*
X25529Y762D01*
X25534Y778D01*
X25540Y794D01*
X25546Y810D01*
X25551Y823D01*
X25552Y828D01*
X25554Y832D01*
X25556Y834D01*
Y836D01*
X25561Y850D01*
X25566Y862D01*
X25569Y872D01*
X25573Y881D01*
X25576Y889D01*
X25578Y896D01*
X25580Y901D01*
X25582Y906D01*
X25584Y911D01*
X25586Y914D01*
Y916D01*
X25584Y918D01*
X25583Y920D01*
X25582Y922D01*
Y923D01*
X25579Y929D01*
X25576Y936D01*
X25573Y940D01*
X25572Y941D01*
X25559Y959D01*
X25553Y968D01*
X25549Y974D01*
X25546Y980D01*
X25542Y986D01*
X25541Y988D01*
X25540Y989D01*
X25530Y1006D01*
X25522Y1021D01*
X25519Y1028D01*
X25517Y1032D01*
X25514Y1036D01*
Y1037D01*
X25503Y1055D01*
X25498Y1063D01*
X25493Y1071D01*
X25490Y1078D01*
X25487Y1083D01*
X25486Y1087D01*
X25484Y1088D01*
X25473Y1107D01*
X25469Y1115D01*
X25464Y1123D01*
X25461Y1130D01*
X25458Y1134D01*
X25457Y1138D01*
X25456Y1139D01*
X25453Y1147D01*
X25451Y1153D01*
X25450Y1157D01*
Y1158D01*
X25448Y1163D01*
X25446Y1168D01*
X25443Y1170D01*
Y1171D01*
X25442Y1178D01*
Y1185D01*
X25441Y1190D01*
Y1192D01*
X25440Y1202D01*
Y1210D01*
Y1215D01*
Y1218D01*
X25441Y1225D01*
X25443Y1231D01*
X25446Y1234D01*
X25447Y1235D01*
X25451Y1240D01*
X25457Y1241D01*
X25460Y1242D01*
X25466D01*
X25469Y1240D01*
D02*
G37*
G36*
X24485D02*
X24490Y1237D01*
X24495Y1232D01*
X24496Y1231D01*
Y1230D01*
X24502Y1220D01*
X24510Y1209D01*
X24513Y1204D01*
X24516Y1201D01*
X24517Y1199D01*
X24518Y1198D01*
X24523Y1189D01*
X24528Y1181D01*
X24531Y1177D01*
X24532Y1174D01*
X24537Y1168D01*
X24540Y1161D01*
X24543Y1157D01*
X24545Y1154D01*
X24550Y1148D01*
X24551Y1145D01*
X24552Y1144D01*
X24558Y1139D01*
X24559Y1138D01*
X24560Y1137D01*
X24566Y1124D01*
X24570Y1115D01*
X24573Y1111D01*
X24575Y1109D01*
X24578Y1102D01*
X24580Y1098D01*
X24581Y1094D01*
X24582Y1093D01*
X24587Y1087D01*
X24591Y1080D01*
X24593Y1076D01*
X24595Y1073D01*
X24598Y1066D01*
X24601Y1060D01*
X24602Y1055D01*
X24603Y1053D01*
X24609Y1044D01*
X24615Y1037D01*
X24618Y1031D01*
X24619Y1029D01*
X24625Y1021D01*
X24629Y1015D01*
X24631Y1012D01*
X24632Y1011D01*
X24636Y1006D01*
X24638Y1001D01*
X24640Y999D01*
X24641Y998D01*
X24647Y1007D01*
X24655Y1020D01*
X24658Y1025D01*
X24661Y1030D01*
X24662Y1033D01*
X24663Y1034D01*
Y1036D01*
X24665Y1037D01*
X24666Y1038D01*
Y1039D01*
X24667Y1042D01*
X24669Y1044D01*
X24670Y1047D01*
X24680Y1066D01*
X24686Y1073D01*
X24691Y1081D01*
X24696Y1088D01*
X24700Y1093D01*
X24702Y1097D01*
X24703Y1098D01*
X24711Y1109D01*
X24720Y1119D01*
X24729Y1129D01*
X24738Y1138D01*
X24746Y1147D01*
X24751Y1152D01*
X24756Y1157D01*
X24757Y1158D01*
X24765Y1159D01*
X24772Y1161D01*
X24778Y1162D01*
X24779Y1163D01*
X24780D01*
X24789Y1168D01*
X24796Y1169D01*
X24801Y1170D01*
X24802D01*
X24811Y1169D01*
X24818Y1167D01*
X24822Y1163D01*
X24823Y1162D01*
X24827Y1157D01*
X24829Y1150D01*
X24830Y1145D01*
Y1144D01*
Y1143D01*
Y1139D01*
X24829Y1134D01*
X24828Y1131D01*
Y1130D01*
X24825Y1124D01*
X24821Y1120D01*
X24819Y1115D01*
X24818Y1114D01*
X24813Y1108D01*
X24811Y1105D01*
Y1104D01*
X24806Y1098D01*
X24805Y1095D01*
X24803Y1094D01*
X24799Y1085D01*
X24795Y1078D01*
X24792Y1073D01*
X24791Y1071D01*
X24788Y1064D01*
X24785Y1059D01*
X24783Y1054D01*
X24782Y1053D01*
X24777Y1048D01*
X24775Y1045D01*
Y1044D01*
X24772Y1042D01*
X24771Y1040D01*
X24770Y1039D01*
X24769Y1037D01*
X24768Y1033D01*
X24765Y1027D01*
X24761Y1020D01*
X24760Y1019D01*
Y1018D01*
X24753Y1006D01*
X24747Y994D01*
X24745Y989D01*
X24742Y986D01*
X24741Y983D01*
Y982D01*
X24736Y970D01*
X24731Y959D01*
X24727Y949D01*
X24723Y942D01*
X24721Y936D01*
X24719Y931D01*
X24718Y929D01*
Y928D01*
X24716Y921D01*
X24713Y917D01*
X24712Y912D01*
X24711Y910D01*
X24710Y907D01*
Y906D01*
X24711Y901D01*
X24713Y896D01*
X24718Y889D01*
X24722Y881D01*
X24727Y874D01*
X24731Y868D01*
X24733Y863D01*
X24735Y862D01*
X24745Y848D01*
X24756Y832D01*
X24768Y817D01*
X24779Y801D01*
X24789Y788D01*
X24797Y777D01*
X24800Y772D01*
X24802Y769D01*
X24805Y768D01*
Y767D01*
X24817Y752D01*
X24826Y740D01*
X24829Y734D01*
X24832Y731D01*
X24833Y729D01*
X24835Y728D01*
X24840Y721D01*
X24846Y714D01*
X24858Y701D01*
X24862Y696D01*
X24867Y691D01*
X24870Y688D01*
X24871Y687D01*
X24886Y666D01*
X24890Y656D01*
X24896Y648D01*
X24899Y641D01*
X24901Y637D01*
X24903Y633D01*
Y632D01*
X24908Y623D01*
X24910Y616D01*
X24915Y602D01*
Y598D01*
X24916Y593D01*
Y591D01*
Y590D01*
Y583D01*
Y574D01*
Y568D01*
Y567D01*
Y566D01*
Y556D01*
Y548D01*
Y543D01*
Y542D01*
X24915Y529D01*
X24910Y519D01*
X24907Y513D01*
X24906Y511D01*
X24898Y504D01*
X24889Y501D01*
X24882Y500D01*
X24880D01*
X24875Y502D01*
X24866Y507D01*
X24856Y513D01*
X24845Y522D01*
X24833Y530D01*
X24825Y537D01*
X24818Y541D01*
X24817Y543D01*
X24816D01*
X24806Y551D01*
X24797Y559D01*
X24782Y571D01*
X24772Y580D01*
X24765Y588D01*
X24759Y593D01*
X24757Y597D01*
X24755Y599D01*
X24751Y606D01*
X24749Y610D01*
X24747Y613D01*
Y614D01*
X24743Y622D01*
X24742Y624D01*
Y626D01*
X24743Y633D01*
X24747Y640D01*
X24749Y643D01*
X24750Y644D01*
X24755Y649D01*
X24760Y650D01*
X24772D01*
X24779Y646D01*
X24780Y645D01*
X24779Y647D01*
X24778Y648D01*
X24775Y656D01*
X24770Y661D01*
X24767Y666D01*
X24766Y668D01*
X24757Y681D01*
X24748Y693D01*
X24745Y698D01*
X24741Y702D01*
X24740Y704D01*
X24739Y706D01*
X24732Y718D01*
X24727Y728D01*
X24723Y733D01*
X24722Y736D01*
X24717Y743D01*
X24713Y749D01*
X24712Y751D01*
X24711Y752D01*
X24701Y763D01*
X24693Y773D01*
X24688Y779D01*
X24687Y781D01*
X24681Y790D01*
X24678Y796D01*
X24676Y799D01*
Y800D01*
X24673Y806D01*
Y807D01*
Y810D01*
X24672Y813D01*
Y812D01*
Y810D01*
X24673Y806D01*
Y803D01*
Y802D01*
X24669Y790D01*
X24666Y782D01*
X24665Y777D01*
X24663Y774D01*
X24661Y768D01*
X24659Y762D01*
X24657Y759D01*
Y758D01*
X24652Y743D01*
X24650Y731D01*
X24648Y727D01*
Y724D01*
X24647Y722D01*
Y721D01*
X24643Y711D01*
X24642Y703D01*
X24641Y699D01*
Y697D01*
X24638Y682D01*
X24636Y669D01*
X24635Y664D01*
X24633Y661D01*
Y659D01*
Y658D01*
X24631Y647D01*
X24630Y640D01*
X24629Y636D01*
Y634D01*
X24633Y621D01*
X24637Y610D01*
X24638Y606D01*
Y602D01*
X24639Y601D01*
Y600D01*
X24641Y590D01*
X24642Y583D01*
Y578D01*
Y577D01*
Y570D01*
X24641Y563D01*
X24640Y559D01*
Y558D01*
X24638Y552D01*
X24636Y548D01*
X24635Y546D01*
X24633Y544D01*
X24627Y537D01*
X24625Y534D01*
X24623Y533D01*
X24620Y530D01*
X24618Y528D01*
X24617Y526D01*
X24615Y522D01*
X24612Y518D01*
X24611Y513D01*
X24610Y512D01*
X24606Y507D01*
X24600Y504D01*
X24596Y503D01*
X24593D01*
X24588Y504D01*
X24582Y506D01*
X24578Y507D01*
X24577Y508D01*
X24569Y511D01*
X24562Y516D01*
X24558Y519D01*
X24556Y520D01*
X24550Y526D01*
X24546Y531D01*
X24542Y534D01*
X24541Y536D01*
X24537Y541D01*
X24532Y548D01*
X24530Y552D01*
X24529Y553D01*
X24526Y560D01*
X24522Y567D01*
X24521Y571D01*
X24520Y573D01*
X24517Y581D01*
X24515Y587D01*
X24512Y590D01*
Y591D01*
X24511Y600D01*
X24510Y609D01*
Y614D01*
Y616D01*
Y617D01*
Y621D01*
X24509Y624D01*
Y629D01*
Y631D01*
Y636D01*
X24510Y641D01*
X24511Y644D01*
X24512Y647D01*
X24516Y656D01*
X24519Y664D01*
X24521Y671D01*
X24522Y672D01*
Y673D01*
X24523Y676D01*
X24525Y679D01*
X24526Y682D01*
Y683D01*
X24527Y690D01*
Y697D01*
X24528Y702D01*
Y704D01*
X24529Y713D01*
X24530Y720D01*
X24531Y724D01*
X24532Y727D01*
X24535Y733D01*
X24538Y738D01*
X24539Y740D01*
X24540Y741D01*
Y744D01*
X24541Y750D01*
X24545Y762D01*
X24550Y778D01*
X24556Y794D01*
X24561Y810D01*
X24567Y823D01*
X24568Y828D01*
X24570Y832D01*
X24571Y834D01*
Y836D01*
X24577Y850D01*
X24581Y862D01*
X24585Y872D01*
X24589Y881D01*
X24591Y889D01*
X24593Y896D01*
X24596Y901D01*
X24598Y906D01*
X24600Y911D01*
X24601Y914D01*
Y916D01*
X24600Y918D01*
X24599Y920D01*
X24598Y922D01*
Y923D01*
X24595Y929D01*
X24591Y936D01*
X24589Y940D01*
X24588Y941D01*
X24575Y959D01*
X24569Y968D01*
X24565Y974D01*
X24561Y980D01*
X24558Y986D01*
X24557Y988D01*
X24556Y989D01*
X24546Y1006D01*
X24538Y1021D01*
X24535Y1028D01*
X24532Y1032D01*
X24530Y1036D01*
Y1037D01*
X24519Y1055D01*
X24513Y1063D01*
X24509Y1071D01*
X24506Y1078D01*
X24502Y1083D01*
X24501Y1087D01*
X24500Y1088D01*
X24489Y1107D01*
X24485Y1115D01*
X24480Y1123D01*
X24477Y1130D01*
X24473Y1134D01*
X24472Y1138D01*
X24471Y1139D01*
X24469Y1147D01*
X24467Y1153D01*
X24466Y1157D01*
Y1158D01*
X24463Y1163D01*
X24461Y1168D01*
X24459Y1170D01*
Y1171D01*
X24458Y1178D01*
Y1185D01*
X24457Y1190D01*
Y1192D01*
X24456Y1202D01*
Y1210D01*
Y1215D01*
Y1218D01*
X24457Y1225D01*
X24459Y1231D01*
X24461Y1234D01*
X24462Y1235D01*
X24467Y1240D01*
X24472Y1241D01*
X24476Y1242D01*
X24481D01*
X24485Y1240D01*
D02*
G37*
%LPC*%
G36*
X20161Y1077D02*
X20157D01*
X20141Y1075D01*
X20128Y1073D01*
X20117Y1069D01*
X20107Y1065D01*
X20099Y1061D01*
X20093Y1057D01*
X20090Y1054D01*
X20089Y1053D01*
X20080Y1043D01*
X20072Y1032D01*
X20067Y1020D01*
X20061Y1009D01*
X20058Y998D01*
X20056Y989D01*
X20053Y982D01*
Y981D01*
Y980D01*
X20052Y977D01*
Y973D01*
X20051Y970D01*
Y969D01*
X20050Y963D01*
Y959D01*
X20049Y957D01*
Y956D01*
X20047Y951D01*
X20046Y947D01*
X20045Y943D01*
Y942D01*
X20048Y913D01*
X20049Y901D01*
X20050Y889D01*
X20051Y880D01*
X20052Y872D01*
X20053Y868D01*
Y866D01*
X20058Y847D01*
X20060Y837D01*
X20063Y828D01*
X20067Y820D01*
X20069Y813D01*
X20070Y809D01*
X20071Y808D01*
X20077Y796D01*
X20082Y782D01*
X20089Y769D01*
X20095Y758D01*
X20100Y747D01*
X20103Y739D01*
X20107Y733D01*
X20108Y731D01*
X20118Y714D01*
X20126Y700D01*
X20133Y688D01*
X20140Y678D01*
X20146Y671D01*
X20150Y666D01*
X20152Y662D01*
X20153Y661D01*
X20160Y653D01*
X20166Y648D01*
X20171Y644D01*
X20176Y642D01*
X20181Y639D01*
X20183D01*
X20186Y640D01*
X20189Y644D01*
X20192Y648D01*
X20193Y649D01*
X20197Y653D01*
X20201Y659D01*
X20209Y670D01*
X20212Y676D01*
X20216Y680D01*
X20217Y682D01*
X20218Y683D01*
X20231Y704D01*
X20238Y714D01*
X20243Y723D01*
X20249Y731D01*
X20253Y738D01*
X20256Y742D01*
X20257Y743D01*
X20262Y749D01*
X20263Y750D01*
X20265Y751D01*
X20266Y752D01*
Y756D01*
X20268Y762D01*
X20270Y769D01*
X20271Y770D01*
Y771D01*
X20273Y779D01*
X20277Y788D01*
X20282Y807D01*
X20285Y816D01*
X20287Y822D01*
X20288Y827D01*
X20289Y829D01*
X20293Y842D01*
X20297Y856D01*
X20298Y861D01*
Y866D01*
X20299Y868D01*
Y869D01*
X20300Y887D01*
X20301Y902D01*
Y909D01*
Y914D01*
Y918D01*
Y919D01*
X20299Y940D01*
X20298Y949D01*
X20296Y958D01*
X20293Y964D01*
X20292Y970D01*
X20290Y973D01*
Y974D01*
X20280Y994D01*
X20275Y1002D01*
X20269Y1011D01*
X20265Y1017D01*
X20260Y1022D01*
X20258Y1025D01*
X20257Y1027D01*
X20249Y1035D01*
X20240Y1042D01*
X20232Y1049D01*
X20226Y1054D01*
X20219Y1058D01*
X20215Y1061D01*
X20211Y1063D01*
X20210D01*
X20200Y1068D01*
X20191Y1071D01*
X20182Y1073D01*
X20173Y1075D01*
X20167D01*
X20161Y1077D01*
D02*
G37*
G36*
X23440Y1088D02*
X23439Y1088D01*
X23437Y1087D01*
X23429Y1083D01*
X23422Y1081D01*
X23419Y1080D01*
X23418Y1079D01*
X23411Y1073D01*
X23410Y1071D01*
X23409Y1070D01*
X23402Y1064D01*
X23400Y1063D01*
X23399Y1062D01*
X23388Y1052D01*
X23378Y1043D01*
X23369Y1034D01*
X23361Y1028D01*
X23356Y1021D01*
X23351Y1017D01*
X23349Y1014D01*
X23348Y1013D01*
X23341Y1006D01*
X23336Y999D01*
X23327Y988D01*
X23324Y984D01*
X23322Y981D01*
X23321Y980D01*
Y979D01*
X23319Y973D01*
X23317Y969D01*
X23314Y967D01*
Y966D01*
X23309Y959D01*
X23308Y958D01*
Y957D01*
X23304Y952D01*
X23303Y951D01*
X23301Y949D01*
X23300Y938D01*
X23294Y923D01*
X23291Y911D01*
X23290Y907D01*
Y903D01*
X23289Y901D01*
Y900D01*
X23287Y888D01*
X23284Y878D01*
Y873D01*
Y870D01*
Y869D01*
Y868D01*
X23286Y849D01*
X23288Y840D01*
X23289Y833D01*
X23291Y828D01*
X23293Y823D01*
X23294Y821D01*
Y820D01*
X23302Y807D01*
X23312Y797D01*
X23317Y793D01*
X23320Y790D01*
X23322Y789D01*
X23323Y788D01*
X23324Y787D01*
X23327Y786D01*
X23329Y783D01*
X23330Y782D01*
X23336Y778D01*
X23341Y773D01*
X23346Y769D01*
X23348Y768D01*
X23353Y764D01*
X23359Y761D01*
X23362Y759D01*
X23363Y758D01*
X23368Y754D01*
X23372Y752D01*
X23374Y751D01*
X23376Y750D01*
X23383Y747D01*
X23391Y743D01*
X23397Y740D01*
X23398Y739D01*
X23399D01*
X23408Y734D01*
X23416Y731D01*
X23421Y728D01*
X23422Y727D01*
X23423D01*
X23436Y720D01*
X23446Y716D01*
X23451Y713D01*
X23453Y712D01*
X23460Y710D01*
X23464Y709D01*
X23466D01*
Y710D01*
Y718D01*
X23464Y727D01*
X23462Y744D01*
Y752D01*
X23461Y758D01*
X23460Y762D01*
Y763D01*
X23457Y777D01*
X23454Y790D01*
X23451Y804D01*
X23448Y817D01*
X23444Y829D01*
X23442Y838D01*
X23440Y843D01*
Y846D01*
X23443Y864D01*
X23442Y868D01*
X23441Y871D01*
X23437Y882D01*
X23433Y894D01*
X23429Y908D01*
X23426Y921D01*
X23422Y932D01*
X23421Y937D01*
X23420Y939D01*
X23419Y941D01*
Y942D01*
X23416Y954D01*
X23412Y964D01*
X23410Y974D01*
X23408Y982D01*
X23404Y996D01*
X23402Y1006D01*
X23401Y1011D01*
X23400Y1015D01*
Y1018D01*
X23401Y1024D01*
X23402Y1031D01*
X23409Y1044D01*
X23418Y1060D01*
X23428Y1074D01*
X23439Y1087D01*
X23440Y1088D01*
D02*
G37*
G36*
X23467Y709D02*
X23466D01*
X23467Y708D01*
Y709D01*
D02*
G37*
%LPD*%
D10*
X-4175Y600D02*
X-3975Y0D01*
X-3775Y600D01*
X-3975Y25600D02*
X-3775Y25000D01*
X-4175D02*
X-3975Y25600D01*
Y0D02*
Y10531D01*
Y14749D02*
Y25600D01*
X-4075Y0D02*
X-25D01*
X-4075Y25600D02*
X-1525D01*
X-25Y-3800D02*
X575Y-3600D01*
X-25Y-3800D02*
X575Y-4000D01*
X38825D02*
X39425Y-3800D01*
X38825Y-3600D02*
X39425Y-3800D01*
X-25D02*
X17181D01*
X21899D02*
X39425D01*
X-25Y-3900D02*
Y0D01*
X39425Y-3900D02*
Y-2000D01*
D17*
X-4215Y11091D02*
X-4115Y10891D01*
X-3915Y10691D01*
X-3715D01*
X-3615Y10791D01*
Y10991D01*
X-3715Y11091D01*
X-3815D01*
X-3915Y10991D01*
Y10691D01*
X-4215Y11690D02*
Y11290D01*
X-3915D01*
X-4015Y11490D01*
Y11590D01*
X-3915Y11690D01*
X-3715D01*
X-3615Y11590D01*
Y11390D01*
X-3715Y11290D01*
X-3615Y11890D02*
X-3715D01*
Y11990D01*
X-3615D01*
Y11890D01*
X-4115Y12390D02*
X-4215Y12490D01*
Y12690D01*
X-4115Y12790D01*
X-3715D01*
X-3615Y12690D01*
Y12490D01*
X-3715Y12390D01*
X-4115D01*
X-3615Y13390D02*
Y12990D01*
X-4015Y13390D01*
X-4115D01*
X-4215Y13290D01*
Y13090D01*
X-4115Y12990D01*
X-3615Y13590D02*
X-4015D01*
Y13690D01*
X-3915Y13790D01*
X-3615D01*
X-3915D01*
X-4015Y13890D01*
X-3915Y13990D01*
X-3615D01*
Y14189D02*
X-4015D01*
Y14289D01*
X-3915Y14389D01*
X-3615D01*
X-3915D01*
X-4015Y14489D01*
X-3915Y14589D01*
X-3615D01*
X17341Y-4160D02*
X17541D01*
X17441D01*
Y-3560D01*
X17341Y-3660D01*
X17841D02*
X17941Y-3560D01*
X18140D01*
X18240Y-3660D01*
Y-4060D01*
X18140Y-4160D01*
X17941D01*
X17841Y-4060D01*
Y-3660D01*
X18440D02*
X18540Y-3560D01*
X18740D01*
X18840Y-3660D01*
Y-4060D01*
X18740Y-4160D01*
X18540D01*
X18440Y-4060D01*
Y-3660D01*
X19040Y-4160D02*
Y-4060D01*
X19140D01*
Y-4160D01*
X19040D01*
X19940D02*
X19540D01*
X19940Y-3760D01*
Y-3660D01*
X19840Y-3560D01*
X19640D01*
X19540Y-3660D01*
X20140D02*
X20240Y-3560D01*
X20440D01*
X20540Y-3660D01*
Y-4060D01*
X20440Y-4160D01*
X20240D01*
X20140Y-4060D01*
Y-3660D01*
X20740Y-4160D02*
Y-3760D01*
X20840D01*
X20940Y-3860D01*
Y-4160D01*
Y-3860D01*
X21040Y-3760D01*
X21139Y-3860D01*
Y-4160D01*
X21339D02*
Y-3760D01*
X21439D01*
X21539Y-3860D01*
Y-4160D01*
Y-3860D01*
X21639Y-3760D01*
X21739Y-3860D01*
Y-4160D01*
D18*
X39425Y0D02*
Y25600D01*
X25D02*
X39425D01*
X25Y0D02*
X39425D01*
X25D02*
Y25550D01*
X-25Y0D02*
X25D01*
M02*
