M48
;Layer_Color=9474304
;FILE_FORMAT=2:4
INCH,LZ
;TYPE=PLATED
T1F00S00C0.0120
T3F00S00C0.0315
T4F00S00C0.0354
T5F00S00C0.0394
T6F00S00C0.0413
T7F00S00C0.0433
T8F00S00C0.0472
;TYPE=NON_PLATED
T9F00S00C0.0276
%
T01
X0015Y0018
X0044
X005999Y001151
X00735Y0044
X0208Y00475
X02145Y00555
X02225Y004
X02485Y00545
X0262Y0047
X02815Y00425
X02855Y0038
X0301Y0052
X02975Y00565
X033535Y004926
X038643Y005984
X03845Y00945
X0369Y0087
X03655Y0081
X0355Y00765
X03545Y0071
X03548Y00652
X032645Y006436
X032644Y007435
X0316Y0069
X03395Y0095
X0294Y01205
X0287Y01205
X0283Y01315
X027Y0137
X0245Y014
X0247Y01445
X025Y0149
X02545Y0155
X0231Y0154
X021403Y0141
X0219Y01345
X02195Y0129
X0224Y0127
X0215Y01255
X021456Y0113
X02177Y00939
X021545Y00886
X0225Y0099
X023Y00965
X0234Y0101
X02545Y01045
X0251Y012
X0243Y01195
X02425Y01355
X0292Y01465
X0239Y0069
X02305Y0074
X0189Y0101
X0194Y01105
X018095Y01151
X0187Y0127
X0191
X01845Y01345
X02025Y0131
X02035Y0125
X0207Y0128
X021007Y013142
X021246Y013546
X01965Y01471
X01625Y01275
X01515Y01315
X01325Y01225
X0133Y01175
X0132Y01075
X01215Y0092
X0094Y0091
X00945Y0118
X008Y01185
X00665Y01265
X00735Y0137
X00935Y0144
X00955Y01615
X00795Y01685
X0075Y0193
X0066Y01925
X00825Y02075
X009807Y0203
X0098Y01885
X01215Y01955
X01305Y0205
X013425Y01767
X0138Y0171
X0143Y01675
X01535Y0164
X0139Y015727
X0129Y01585
X01155Y0144
X01165Y0118
X014425Y00789
X0067Y007249
X01475Y01865
X0162Y0178
X005353Y018403
X00535Y0201
X00365Y02075
X00415Y01705
X00205
X001225Y010256
X0006Y00825
X000606Y007856
X000875Y006956
X00555Y00915
X0021Y0216
T03
X0295Y016785
Y017415
T04
X0091Y0055
X0101
X0111
X0121
X0271Y00995
X0281
X0291
X0301
X0311
X0321
X0333Y02005
Y02105
X02745
Y02005
Y02205
Y02305
Y02405
X0333
Y02305
Y02205
T05
X03695Y012887
X037934
Y015013
X03695
X035966
Y012887
X003234Y012637
X00225
X001266
Y014763
X00225
X003234
T06
X00835Y002
X00935
X01035
X01135
X01235
X01335
X01435
X01535
X01635
X01735
X01835
X01935
X02035
X02135
X02235
X02335
X02435
X02535
X02635
X02735
X02835
X02935
X03035
X03135
X0052Y0241
X0042
X0032
X0022
X0062
X0072
X0082
X0092
X0102
X0112
X0122
X0132
X0142
X0152
X0162
X0172
X0182
X0192
X0202
X0212
X0222
X0232
X0242
X0252
T07
X0377Y0196
Y0206
Y0216
Y0226
Y0236
T08
X03585Y00235
X03785Y00235
T09
X037479Y005613
Y007959
X001988Y009128
Y006782
M30
