G04*
G04 #@! TF.GenerationSoftware,Altium Limited,Altium Designer,20.0.13 (296)*
G04*
G04 Layer_Color=255*
%FSLAX24Y24*%
%MOIN*%
G70*
G01*
G75*
%ADD10C,0.0100*%
%ADD17C,0.0060*%
%ADD18C,0.0200*%
%ADD62R,0.0591X0.0591*%
%ADD63C,0.0591*%
%ADD64R,0.0591X0.0591*%
%ADD65C,0.0630*%
%ADD66R,0.0630X0.0630*%
%ADD67R,0.0669X0.0669*%
%ADD68C,0.0669*%
%ADD69O,0.0827X0.0394*%
%ADD70O,0.0630X0.0394*%
%ADD71C,0.0276*%
%ADD72C,0.0472*%
D10*
X-4175Y600D02*
X-3975Y0D01*
X-3775Y600D01*
X-3975Y25600D02*
X-3775Y25000D01*
X-4175D02*
X-3975Y25600D01*
Y0D02*
Y10531D01*
Y14749D02*
Y25600D01*
X-4075Y0D02*
X-25D01*
X-4075Y25600D02*
X-1525D01*
X-25Y-3800D02*
X575Y-3600D01*
X-25Y-3800D02*
X575Y-4000D01*
X38825D02*
X39425Y-3800D01*
X38825Y-3600D02*
X39425Y-3800D01*
X-25D02*
X17181D01*
X21899D02*
X39425D01*
X-25Y-3900D02*
Y0D01*
X39425Y-3900D02*
Y-2000D01*
D17*
X-4215Y11091D02*
X-4115Y10891D01*
X-3915Y10691D01*
X-3715D01*
X-3615Y10791D01*
Y10991D01*
X-3715Y11091D01*
X-3815D01*
X-3915Y10991D01*
Y10691D01*
X-4215Y11690D02*
Y11290D01*
X-3915D01*
X-4015Y11490D01*
Y11590D01*
X-3915Y11690D01*
X-3715D01*
X-3615Y11590D01*
Y11390D01*
X-3715Y11290D01*
X-3615Y11890D02*
X-3715D01*
Y11990D01*
X-3615D01*
Y11890D01*
X-4115Y12390D02*
X-4215Y12490D01*
Y12690D01*
X-4115Y12790D01*
X-3715D01*
X-3615Y12690D01*
Y12490D01*
X-3715Y12390D01*
X-4115D01*
X-3615Y13390D02*
Y12990D01*
X-4015Y13390D01*
X-4115D01*
X-4215Y13290D01*
Y13090D01*
X-4115Y12990D01*
X-3615Y13590D02*
X-4015D01*
Y13690D01*
X-3915Y13790D01*
X-3615D01*
X-3915D01*
X-4015Y13890D01*
X-3915Y13990D01*
X-3615D01*
Y14189D02*
X-4015D01*
Y14289D01*
X-3915Y14389D01*
X-3615D01*
X-3915D01*
X-4015Y14489D01*
X-3915Y14589D01*
X-3615D01*
X17341Y-4160D02*
X17541D01*
X17441D01*
Y-3560D01*
X17341Y-3660D01*
X17841D02*
X17941Y-3560D01*
X18140D01*
X18240Y-3660D01*
Y-4060D01*
X18140Y-4160D01*
X17941D01*
X17841Y-4060D01*
Y-3660D01*
X18440D02*
X18540Y-3560D01*
X18740D01*
X18840Y-3660D01*
Y-4060D01*
X18740Y-4160D01*
X18540D01*
X18440Y-4060D01*
Y-3660D01*
X19040Y-4160D02*
Y-4060D01*
X19140D01*
Y-4160D01*
X19040D01*
X19940D02*
X19540D01*
X19940Y-3760D01*
Y-3660D01*
X19840Y-3560D01*
X19640D01*
X19540Y-3660D01*
X20140D02*
X20240Y-3560D01*
X20440D01*
X20540Y-3660D01*
Y-4060D01*
X20440Y-4160D01*
X20240D01*
X20140Y-4060D01*
Y-3660D01*
X20740Y-4160D02*
Y-3760D01*
X20840D01*
X20940Y-3860D01*
Y-4160D01*
Y-3860D01*
X21040Y-3760D01*
X21139Y-3860D01*
Y-4160D01*
X21339D02*
Y-3760D01*
X21439D01*
X21539Y-3860D01*
Y-4160D01*
Y-3860D01*
X21639Y-3760D01*
X21739Y-3860D01*
Y-4160D01*
D18*
X39425Y0D02*
Y25600D01*
X25D02*
X39425D01*
X25Y0D02*
X39425D01*
X25D02*
Y25550D01*
X-25Y0D02*
X25D01*
D62*
X27450Y20050D02*
D03*
X33300D02*
D03*
D63*
X27450Y21050D02*
D03*
Y22050D02*
D03*
Y23050D02*
D03*
Y24050D02*
D03*
X33300D02*
D03*
Y23050D02*
D03*
Y22050D02*
D03*
Y21050D02*
D03*
X28100Y9950D02*
D03*
X29100D02*
D03*
X30100D02*
D03*
X31100D02*
D03*
X32100D02*
D03*
X12100Y5500D02*
D03*
X11100D02*
D03*
X10100D02*
D03*
D64*
X27100Y9950D02*
D03*
X9100Y5500D02*
D03*
D65*
X37934Y15013D02*
D03*
X36950D02*
D03*
X35966D02*
D03*
X37934Y12887D02*
D03*
X36950D02*
D03*
X3234Y14763D02*
D03*
X2250D02*
D03*
X1266D02*
D03*
X3234Y12637D02*
D03*
X2250D02*
D03*
X3200Y24100D02*
D03*
X4200D02*
D03*
X5200D02*
D03*
X6200D02*
D03*
X7200D02*
D03*
X8200D02*
D03*
X9200D02*
D03*
X10200D02*
D03*
X11200D02*
D03*
X12200D02*
D03*
X13200D02*
D03*
X14200D02*
D03*
X15200D02*
D03*
X16200D02*
D03*
X17200D02*
D03*
X18200D02*
D03*
X19200D02*
D03*
X20200D02*
D03*
X21200D02*
D03*
X22200D02*
D03*
X23200D02*
D03*
X24200D02*
D03*
X25200D02*
D03*
X9350Y2000D02*
D03*
X10350D02*
D03*
X11350D02*
D03*
X12350D02*
D03*
X13350D02*
D03*
X14350D02*
D03*
X15350D02*
D03*
X16350D02*
D03*
X17350D02*
D03*
X18350D02*
D03*
X19350D02*
D03*
X20350D02*
D03*
X21350D02*
D03*
X22350D02*
D03*
X23350D02*
D03*
X24350D02*
D03*
X25350D02*
D03*
X26350D02*
D03*
X27350D02*
D03*
X28350D02*
D03*
X29350D02*
D03*
X30350D02*
D03*
X31350D02*
D03*
D66*
X35966Y12887D02*
D03*
X1266Y12637D02*
D03*
X2200Y24100D02*
D03*
X8350Y2000D02*
D03*
D67*
X37700Y19600D02*
D03*
D68*
Y20600D02*
D03*
Y21600D02*
D03*
Y22600D02*
D03*
Y23600D02*
D03*
D69*
X1779Y6254D02*
D03*
Y9656D02*
D03*
X37688Y8487D02*
D03*
Y5085D02*
D03*
D70*
X3425Y6254D02*
D03*
Y9656D02*
D03*
X36042Y8487D02*
D03*
Y5085D02*
D03*
D71*
X1988Y6782D02*
D03*
Y9128D02*
D03*
X37479Y7959D02*
D03*
Y5613D02*
D03*
D72*
X29500Y16785D02*
D03*
Y17415D02*
D03*
M02*
