G04*
G04 #@! TF.GenerationSoftware,Altium Limited,Altium Designer,20.0.13 (296)*
G04*
G04 Layer_Color=16711935*
%FSLAX24Y24*%
%MOIN*%
G70*
G01*
G75*
%ADD10C,0.0100*%
%ADD17C,0.0060*%
%ADD18C,0.0200*%
%ADD45R,0.0671X0.0671*%
%ADD46C,0.0671*%
%ADD47R,0.0671X0.0671*%
%ADD48C,0.0710*%
%ADD49R,0.0710X0.0710*%
%ADD50R,0.0749X0.0749*%
%ADD51C,0.0749*%
%ADD52C,0.0080*%
%ADD53O,0.0907X0.0474*%
%ADD54O,0.0710X0.0474*%
%ADD55C,0.0356*%
%ADD56C,0.0552*%
%ADD57C,0.0300*%
G36*
X36244Y2193D02*
X36244Y2183D01*
X36243Y2173D01*
X36243Y2163D01*
X36242Y2153D01*
X36241Y2143D01*
X36239Y2133D01*
X36238Y2123D01*
X36236Y2113D01*
X36234Y2104D01*
X36231Y2094D01*
X36229Y2084D01*
X36226Y2075D01*
X36223Y2065D01*
X36219Y2056D01*
X36216Y2046D01*
X36212Y2037D01*
X36208Y2028D01*
X36204Y2019D01*
X36199Y2010D01*
X36194Y2001D01*
X36189Y1993D01*
X36184Y1984D01*
X36179Y1976D01*
X36173Y1968D01*
X36167Y1960D01*
X36161Y1952D01*
X36155Y1944D01*
X36149Y1936D01*
X36142Y1929D01*
X36135Y1921D01*
X36128Y1914D01*
X36121Y1907D01*
X36114Y1900D01*
X36107Y1894D01*
X36099Y1887D01*
X36091Y1881D01*
X36083Y1875D01*
X36075Y1869D01*
X36067Y1864D01*
X36058Y1858D01*
X36050Y1853D01*
X36041Y1848D01*
X36032Y1844D01*
X36023Y1839D01*
X36014Y1835D01*
X36005Y1831D01*
X35996Y1827D01*
X35987Y1823D01*
X35977Y1820D01*
X35968Y1817D01*
X35958Y1814D01*
X35949Y1811D01*
X35939Y1809D01*
X35929Y1807D01*
X35919Y1805D01*
X35910Y1803D01*
X35900Y1802D01*
X35890Y1801D01*
X35880Y1800D01*
X35870Y1799D01*
X35860Y1799D01*
X35850Y1799D01*
X35840Y1799D01*
X35830Y1799D01*
X35820Y1800D01*
X35810Y1801D01*
X35800Y1802D01*
X35790Y1803D01*
X35781Y1805D01*
X35771Y1807D01*
X35761Y1809D01*
X35751Y1811D01*
X35742Y1814D01*
X35732Y1817D01*
X35723Y1820D01*
X35713Y1823D01*
X35704Y1827D01*
X35695Y1831D01*
X35686Y1835D01*
X35677Y1839D01*
X35668Y1844D01*
X35659Y1848D01*
X35650Y1853D01*
X35642Y1858D01*
X35633Y1864D01*
X35625Y1869D01*
X35617Y1875D01*
X35609Y1881D01*
X35601Y1887D01*
X35594Y1894D01*
X35586Y1900D01*
X35579Y1907D01*
X35572Y1914D01*
X35565Y1921D01*
X35558Y1929D01*
X35551Y1936D01*
X35545Y1944D01*
X35539Y1952D01*
X35533Y1960D01*
X35527Y1968D01*
X35521Y1976D01*
X35516Y1984D01*
X35511Y1993D01*
X35506Y2001D01*
X35501Y2010D01*
X35497Y2019D01*
X35492Y2028D01*
X35488Y2037D01*
X35484Y2046D01*
X35481Y2056D01*
X35478Y2065D01*
X35474Y2075D01*
X35472Y2084D01*
X35469Y2094D01*
X35467Y2104D01*
X35464Y2113D01*
X35463Y2123D01*
X35461Y2133D01*
X35459Y2143D01*
X35458Y2153D01*
X35457Y2163D01*
X35457Y2173D01*
X35456Y2183D01*
X35456Y2193D01*
X35456Y2508D01*
X35456Y2517D01*
X35457Y2527D01*
X35457Y2537D01*
X35458Y2547D01*
X35459Y2557D01*
X35461Y2567D01*
X35463Y2577D01*
X35464Y2587D01*
X35467Y2597D01*
X35469Y2606D01*
X35472Y2616D01*
X35474Y2625D01*
X35478Y2635D01*
X35481Y2644D01*
X35484Y2654D01*
X35488Y2663D01*
X35492Y2672D01*
X35497Y2681D01*
X35501Y2690D01*
X35506Y2699D01*
X35511Y2707D01*
X35516Y2716D01*
X35521Y2724D01*
X35527Y2732D01*
X35533Y2741D01*
X35539Y2748D01*
X35545Y2756D01*
X35551Y2764D01*
X35558Y2771D01*
X35565Y2779D01*
X35572Y2786D01*
X35579Y2793D01*
X35586Y2800D01*
X35594Y2806D01*
X35601Y2813D01*
X35609Y2819D01*
X35617Y2825D01*
X35625Y2831D01*
X35633Y2836D01*
X35642Y2842D01*
X35650Y2847D01*
X35659Y2852D01*
X35668Y2856D01*
X35677Y2861D01*
X35686Y2865D01*
X35695Y2869D01*
X35704Y2873D01*
X35713Y2877D01*
X35723Y2880D01*
X35732Y2883D01*
X35742Y2886D01*
X35751Y2889D01*
X35761Y2891D01*
X35771Y2893D01*
X35781Y2895D01*
X35790Y2897D01*
X35800Y2898D01*
X35810Y2899D01*
X35820Y2900D01*
X35830Y2901D01*
X35840Y2901D01*
X35850Y2901D01*
X35860Y2901D01*
X35870Y2901D01*
X35880Y2900D01*
X35890Y2899D01*
X35900Y2898D01*
X35910Y2897D01*
X35919Y2895D01*
X35929Y2893D01*
X35939Y2891D01*
X35949Y2889D01*
X35958Y2886D01*
X35968Y2883D01*
X35977Y2880D01*
X35987Y2877D01*
X35996Y2873D01*
X36005Y2869D01*
X36014Y2865D01*
X36023Y2861D01*
X36032Y2856D01*
X36041Y2852D01*
X36050Y2847D01*
X36058Y2842D01*
X36067Y2836D01*
X36075Y2831D01*
X36083Y2825D01*
X36091Y2819D01*
X36099Y2813D01*
X36106Y2806D01*
X36114Y2800D01*
X36121Y2793D01*
X36128Y2786D01*
X36135Y2779D01*
X36142Y2771D01*
X36149Y2764D01*
X36155Y2756D01*
X36161Y2748D01*
X36167Y2741D01*
X36173Y2732D01*
X36179Y2724D01*
X36184Y2716D01*
X36189Y2707D01*
X36194Y2699D01*
X36199Y2690D01*
X36204Y2681D01*
X36208Y2672D01*
X36212Y2663D01*
X36216Y2654D01*
X36219Y2644D01*
X36223Y2635D01*
X36226Y2625D01*
X36229Y2616D01*
X36231Y2606D01*
X36234Y2597D01*
X36236Y2587D01*
X36238Y2577D01*
X36239Y2567D01*
X36241Y2557D01*
X36242Y2547D01*
X36243Y2537D01*
X36243Y2527D01*
X36244Y2517D01*
X36244Y2508D01*
X36244Y2193D01*
D02*
G37*
G36*
X38244Y2193D02*
X38244Y2183D01*
X38243Y2173D01*
X38243Y2163D01*
X38242Y2153D01*
X38241Y2143D01*
X38239Y2133D01*
X38238Y2123D01*
X38236Y2113D01*
X38234Y2104D01*
X38231Y2094D01*
X38229Y2084D01*
X38226Y2075D01*
X38223Y2065D01*
X38219Y2056D01*
X38216Y2046D01*
X38212Y2037D01*
X38208Y2028D01*
X38204Y2019D01*
X38199Y2010D01*
X38194Y2001D01*
X38189Y1993D01*
X38184Y1984D01*
X38179Y1976D01*
X38173Y1968D01*
X38167Y1960D01*
X38161Y1952D01*
X38155Y1944D01*
X38149Y1936D01*
X38142Y1929D01*
X38135Y1921D01*
X38128Y1914D01*
X38121Y1907D01*
X38114Y1900D01*
X38106Y1894D01*
X38099Y1887D01*
X38091Y1881D01*
X38083Y1875D01*
X38075Y1869D01*
X38067Y1864D01*
X38058Y1858D01*
X38050Y1853D01*
X38041Y1848D01*
X38032Y1844D01*
X38023Y1839D01*
X38014Y1835D01*
X38005Y1831D01*
X37996Y1827D01*
X37987Y1823D01*
X37977Y1820D01*
X37968Y1817D01*
X37958Y1814D01*
X37949Y1811D01*
X37939Y1809D01*
X37929Y1807D01*
X37920Y1805D01*
X37910Y1803D01*
X37900Y1802D01*
X37890Y1801D01*
X37880Y1800D01*
X37870Y1799D01*
X37860Y1799D01*
X37850Y1799D01*
X37840Y1799D01*
X37830Y1799D01*
X37820Y1800D01*
X37810Y1801D01*
X37800Y1802D01*
X37790Y1803D01*
X37781Y1805D01*
X37771Y1807D01*
X37761Y1809D01*
X37751Y1811D01*
X37742Y1814D01*
X37732Y1817D01*
X37723Y1820D01*
X37713Y1823D01*
X37704Y1827D01*
X37695Y1831D01*
X37686Y1835D01*
X37677Y1839D01*
X37668Y1844D01*
X37659Y1848D01*
X37650Y1853D01*
X37642Y1858D01*
X37633Y1864D01*
X37625Y1869D01*
X37617Y1875D01*
X37609Y1881D01*
X37601Y1887D01*
X37594Y1894D01*
X37586Y1900D01*
X37579Y1907D01*
X37572Y1914D01*
X37565Y1921D01*
X37558Y1929D01*
X37551Y1936D01*
X37545Y1944D01*
X37539Y1952D01*
X37533Y1960D01*
X37527Y1968D01*
X37521Y1976D01*
X37516Y1984D01*
X37511Y1993D01*
X37506Y2001D01*
X37501Y2010D01*
X37497Y2019D01*
X37492Y2028D01*
X37488Y2037D01*
X37484Y2046D01*
X37481Y2056D01*
X37478Y2065D01*
X37474Y2075D01*
X37472Y2084D01*
X37469Y2094D01*
X37467Y2104D01*
X37464Y2113D01*
X37463Y2123D01*
X37461Y2133D01*
X37459Y2143D01*
X37458Y2153D01*
X37457Y2163D01*
X37457Y2173D01*
X37456Y2183D01*
X37456Y2193D01*
X37456Y2508D01*
X37456Y2517D01*
X37457Y2527D01*
X37457Y2537D01*
X37458Y2547D01*
X37459Y2557D01*
X37461Y2567D01*
X37463Y2577D01*
X37464Y2587D01*
X37467Y2597D01*
X37469Y2606D01*
X37472Y2616D01*
X37474Y2625D01*
X37478Y2635D01*
X37481Y2644D01*
X37484Y2654D01*
X37488Y2663D01*
X37492Y2672D01*
X37497Y2681D01*
X37501Y2690D01*
X37506Y2699D01*
X37511Y2707D01*
X37516Y2716D01*
X37521Y2724D01*
X37527Y2732D01*
X37533Y2741D01*
X37539Y2748D01*
X37545Y2756D01*
X37551Y2764D01*
X37558Y2771D01*
X37565Y2779D01*
X37572Y2786D01*
X37579Y2793D01*
X37586Y2800D01*
X37594Y2806D01*
X37601Y2813D01*
X37609Y2819D01*
X37617Y2825D01*
X37625Y2831D01*
X37633Y2836D01*
X37642Y2842D01*
X37650Y2847D01*
X37659Y2852D01*
X37668Y2856D01*
X37677Y2861D01*
X37686Y2865D01*
X37695Y2869D01*
X37704Y2873D01*
X37713Y2877D01*
X37723Y2880D01*
X37732Y2883D01*
X37742Y2886D01*
X37751Y2889D01*
X37761Y2891D01*
X37771Y2893D01*
X37781Y2895D01*
X37790Y2897D01*
X37800Y2898D01*
X37810Y2899D01*
X37820Y2900D01*
X37830Y2901D01*
X37840Y2901D01*
X37850Y2901D01*
X37860Y2901D01*
X37870Y2901D01*
X37880Y2900D01*
X37890Y2899D01*
X37900Y2898D01*
X37910Y2897D01*
X37919Y2895D01*
X37929Y2893D01*
X37939Y2891D01*
X37949Y2889D01*
X37958Y2886D01*
X37968Y2883D01*
X37977Y2880D01*
X37987Y2877D01*
X37996Y2873D01*
X38005Y2869D01*
X38014Y2865D01*
X38023Y2861D01*
X38032Y2856D01*
X38041Y2852D01*
X38050Y2847D01*
X38058Y2842D01*
X38067Y2836D01*
X38075Y2831D01*
X38083Y2825D01*
X38091Y2819D01*
X38099Y2813D01*
X38106Y2806D01*
X38114Y2800D01*
X38121Y2793D01*
X38128Y2786D01*
X38135Y2779D01*
X38142Y2771D01*
X38149Y2764D01*
X38155Y2756D01*
X38161Y2748D01*
X38167Y2741D01*
X38173Y2732D01*
X38179Y2724D01*
X38184Y2716D01*
X38189Y2707D01*
X38194Y2699D01*
X38199Y2690D01*
X38204Y2681D01*
X38208Y2672D01*
X38212Y2663D01*
X38216Y2654D01*
X38219Y2644D01*
X38223Y2635D01*
X38226Y2625D01*
X38229Y2616D01*
X38231Y2606D01*
X38234Y2597D01*
X38236Y2587D01*
X38238Y2577D01*
X38239Y2567D01*
X38241Y2557D01*
X38242Y2547D01*
X38243Y2537D01*
X38243Y2527D01*
X38244Y2517D01*
X38244Y2508D01*
Y2193D01*
D02*
G37*
D10*
X-4175Y600D02*
X-3975Y0D01*
X-3775Y600D01*
X-3975Y25600D02*
X-3775Y25000D01*
X-4175D02*
X-3975Y25600D01*
Y0D02*
Y10531D01*
Y14749D02*
Y25600D01*
X-4075Y0D02*
X-25D01*
X-4075Y25600D02*
X-1525D01*
X-25Y-3800D02*
X575Y-3600D01*
X-25Y-3800D02*
X575Y-4000D01*
X38825D02*
X39425Y-3800D01*
X38825Y-3600D02*
X39425Y-3800D01*
X-25D02*
X17181D01*
X21899D02*
X39425D01*
X-25Y-3900D02*
Y0D01*
X39425Y-3900D02*
Y-2000D01*
D17*
X-4215Y11091D02*
X-4115Y10891D01*
X-3915Y10691D01*
X-3715D01*
X-3615Y10791D01*
Y10991D01*
X-3715Y11091D01*
X-3815D01*
X-3915Y10991D01*
Y10691D01*
X-4215Y11690D02*
Y11290D01*
X-3915D01*
X-4015Y11490D01*
Y11590D01*
X-3915Y11690D01*
X-3715D01*
X-3615Y11590D01*
Y11390D01*
X-3715Y11290D01*
X-3615Y11890D02*
X-3715D01*
Y11990D01*
X-3615D01*
Y11890D01*
X-4115Y12390D02*
X-4215Y12490D01*
Y12690D01*
X-4115Y12790D01*
X-3715D01*
X-3615Y12690D01*
Y12490D01*
X-3715Y12390D01*
X-4115D01*
X-3615Y13390D02*
Y12990D01*
X-4015Y13390D01*
X-4115D01*
X-4215Y13290D01*
Y13090D01*
X-4115Y12990D01*
X-3615Y13590D02*
X-4015D01*
Y13690D01*
X-3915Y13790D01*
X-3615D01*
X-3915D01*
X-4015Y13890D01*
X-3915Y13990D01*
X-3615D01*
Y14189D02*
X-4015D01*
Y14289D01*
X-3915Y14389D01*
X-3615D01*
X-3915D01*
X-4015Y14489D01*
X-3915Y14589D01*
X-3615D01*
X17341Y-4160D02*
X17541D01*
X17441D01*
Y-3560D01*
X17341Y-3660D01*
X17841D02*
X17941Y-3560D01*
X18140D01*
X18240Y-3660D01*
Y-4060D01*
X18140Y-4160D01*
X17941D01*
X17841Y-4060D01*
Y-3660D01*
X18440D02*
X18540Y-3560D01*
X18740D01*
X18840Y-3660D01*
Y-4060D01*
X18740Y-4160D01*
X18540D01*
X18440Y-4060D01*
Y-3660D01*
X19040Y-4160D02*
Y-4060D01*
X19140D01*
Y-4160D01*
X19040D01*
X19940D02*
X19540D01*
X19940Y-3760D01*
Y-3660D01*
X19840Y-3560D01*
X19640D01*
X19540Y-3660D01*
X20140D02*
X20240Y-3560D01*
X20440D01*
X20540Y-3660D01*
Y-4060D01*
X20440Y-4160D01*
X20240D01*
X20140Y-4060D01*
Y-3660D01*
X20740Y-4160D02*
Y-3760D01*
X20840D01*
X20940Y-3860D01*
Y-4160D01*
Y-3860D01*
X21040Y-3760D01*
X21139Y-3860D01*
Y-4160D01*
X21339D02*
Y-3760D01*
X21439D01*
X21539Y-3860D01*
Y-4160D01*
Y-3860D01*
X21639Y-3760D01*
X21739Y-3860D01*
Y-4160D01*
D18*
X39425Y0D02*
Y25600D01*
X25D02*
X39425D01*
X25Y0D02*
X39425D01*
X25D02*
Y25550D01*
X-25Y0D02*
X25D01*
D45*
X27450Y20050D02*
D03*
X33300D02*
D03*
D46*
X27450Y21050D02*
D03*
Y22050D02*
D03*
Y23050D02*
D03*
Y24050D02*
D03*
X33300D02*
D03*
Y23050D02*
D03*
Y22050D02*
D03*
Y21050D02*
D03*
X28100Y9950D02*
D03*
X29100D02*
D03*
X30100D02*
D03*
X31100D02*
D03*
X32100D02*
D03*
X12100Y5500D02*
D03*
X11100D02*
D03*
X10100D02*
D03*
D47*
X27100Y9950D02*
D03*
X9100Y5500D02*
D03*
D48*
X37934Y15013D02*
D03*
X36950D02*
D03*
X35966D02*
D03*
X37934Y12887D02*
D03*
X36950D02*
D03*
X3234Y14763D02*
D03*
X2250D02*
D03*
X1266D02*
D03*
X3234Y12637D02*
D03*
X2250D02*
D03*
X3200Y24100D02*
D03*
X4200D02*
D03*
X5200D02*
D03*
X6200D02*
D03*
X7200D02*
D03*
X8200D02*
D03*
X9200D02*
D03*
X10200D02*
D03*
X11200D02*
D03*
X12200D02*
D03*
X13200D02*
D03*
X14200D02*
D03*
X15200D02*
D03*
X16200D02*
D03*
X17200D02*
D03*
X18200D02*
D03*
X19200D02*
D03*
X20200D02*
D03*
X21200D02*
D03*
X22200D02*
D03*
X23200D02*
D03*
X24200D02*
D03*
X25200D02*
D03*
X9350Y2000D02*
D03*
X10350D02*
D03*
X11350D02*
D03*
X12350D02*
D03*
X13350D02*
D03*
X14350D02*
D03*
X15350D02*
D03*
X16350D02*
D03*
X17350D02*
D03*
X18350D02*
D03*
X19350D02*
D03*
X20350D02*
D03*
X21350D02*
D03*
X22350D02*
D03*
X23350D02*
D03*
X24350D02*
D03*
X25350D02*
D03*
X26350D02*
D03*
X27350D02*
D03*
X28350D02*
D03*
X29350D02*
D03*
X30350D02*
D03*
X31350D02*
D03*
D49*
X35966Y12887D02*
D03*
X1266Y12637D02*
D03*
X2200Y24100D02*
D03*
X8350Y2000D02*
D03*
D50*
X37700Y19600D02*
D03*
D51*
Y20600D02*
D03*
Y21600D02*
D03*
Y22600D02*
D03*
Y23600D02*
D03*
D52*
X35850Y2350D02*
D03*
X37850Y2350D02*
D03*
D53*
X1779Y6254D02*
D03*
Y9656D02*
D03*
X37688Y8487D02*
D03*
Y5085D02*
D03*
D54*
X3425Y6254D02*
D03*
Y9656D02*
D03*
X36042Y8487D02*
D03*
Y5085D02*
D03*
D55*
X1988Y6782D02*
D03*
Y9128D02*
D03*
X37479Y7959D02*
D03*
Y5613D02*
D03*
D56*
X29500Y16785D02*
D03*
Y17415D02*
D03*
D57*
X13425Y17670D02*
D03*
X21770Y9390D02*
D03*
X18095Y11510D02*
D03*
X21545Y8860D02*
D03*
X14425Y7890D02*
D03*
X6700Y7249D02*
D03*
M02*
