G04*
G04 #@! TF.GenerationSoftware,Altium Limited,Altium Designer,20.0.13 (296)*
G04*
G04 Layer_Color=2752767*
%FSLAX24Y24*%
%MOIN*%
G70*
G01*
G75*
%ADD10C,0.0100*%
%ADD17C,0.0060*%
%ADD18C,0.0200*%
%ADD87C,0.0020*%
%ADD88C,0.0027*%
%ADD89C,0.0013*%
D10*
X-4175Y600D02*
X-3975Y0D01*
X-3775Y600D01*
X-3975Y25600D02*
X-3775Y25000D01*
X-4175D02*
X-3975Y25600D01*
Y0D02*
Y10531D01*
Y14749D02*
Y25600D01*
X-4075Y0D02*
X-25D01*
X-4075Y25600D02*
X-1525D01*
X-25Y-3800D02*
X575Y-3600D01*
X-25Y-3800D02*
X575Y-4000D01*
X38825D02*
X39425Y-3800D01*
X38825Y-3600D02*
X39425Y-3800D01*
X-25D02*
X17181D01*
X21899D02*
X39425D01*
X-25Y-3900D02*
Y0D01*
X39425Y-3900D02*
Y-2000D01*
D17*
X-4215Y11091D02*
X-4115Y10891D01*
X-3915Y10691D01*
X-3715D01*
X-3615Y10791D01*
Y10991D01*
X-3715Y11091D01*
X-3815D01*
X-3915Y10991D01*
Y10691D01*
X-4215Y11690D02*
Y11290D01*
X-3915D01*
X-4015Y11490D01*
Y11590D01*
X-3915Y11690D01*
X-3715D01*
X-3615Y11590D01*
Y11390D01*
X-3715Y11290D01*
X-3615Y11890D02*
X-3715D01*
Y11990D01*
X-3615D01*
Y11890D01*
X-4115Y12390D02*
X-4215Y12490D01*
Y12690D01*
X-4115Y12790D01*
X-3715D01*
X-3615Y12690D01*
Y12490D01*
X-3715Y12390D01*
X-4115D01*
X-3615Y13390D02*
Y12990D01*
X-4015Y13390D01*
X-4115D01*
X-4215Y13290D01*
Y13090D01*
X-4115Y12990D01*
X-3615Y13590D02*
X-4015D01*
Y13690D01*
X-3915Y13790D01*
X-3615D01*
X-3915D01*
X-4015Y13890D01*
X-3915Y13990D01*
X-3615D01*
Y14189D02*
X-4015D01*
Y14289D01*
X-3915Y14389D01*
X-3615D01*
X-3915D01*
X-4015Y14489D01*
X-3915Y14589D01*
X-3615D01*
X17341Y-4160D02*
X17541D01*
X17441D01*
Y-3560D01*
X17341Y-3660D01*
X17841D02*
X17941Y-3560D01*
X18140D01*
X18240Y-3660D01*
Y-4060D01*
X18140Y-4160D01*
X17941D01*
X17841Y-4060D01*
Y-3660D01*
X18440D02*
X18540Y-3560D01*
X18740D01*
X18840Y-3660D01*
Y-4060D01*
X18740Y-4160D01*
X18540D01*
X18440Y-4060D01*
Y-3660D01*
X19040Y-4160D02*
Y-4060D01*
X19140D01*
Y-4160D01*
X19040D01*
X19940D02*
X19540D01*
X19940Y-3760D01*
Y-3660D01*
X19840Y-3560D01*
X19640D01*
X19540Y-3660D01*
X20140D02*
X20240Y-3560D01*
X20440D01*
X20540Y-3660D01*
Y-4060D01*
X20440Y-4160D01*
X20240D01*
X20140Y-4060D01*
Y-3660D01*
X20740Y-4160D02*
Y-3760D01*
X20840D01*
X20940Y-3860D01*
Y-4160D01*
Y-3860D01*
X21040Y-3760D01*
X21139Y-3860D01*
Y-4160D01*
X21339D02*
Y-3760D01*
X21439D01*
X21539Y-3860D01*
Y-4160D01*
Y-3860D01*
X21639Y-3760D01*
X21739Y-3860D01*
Y-4160D01*
D18*
X39425Y0D02*
Y25600D01*
X25D02*
X39425D01*
X25Y0D02*
X39425D01*
X25D02*
Y25550D01*
X-25Y0D02*
X25D01*
D87*
X27370Y19970D02*
Y20130D01*
X27530D01*
Y19970D01*
X27370D01*
Y20970D02*
Y21130D01*
X27530D01*
Y20970D01*
X27370D01*
Y21970D02*
Y22130D01*
X27530D01*
Y21970D01*
X27370D01*
Y22970D02*
Y23130D01*
X27530D01*
Y22970D01*
X27370D01*
Y23970D02*
Y24130D01*
X27530D01*
Y23970D01*
X27370D01*
X33220D02*
Y24130D01*
X33380D01*
Y23970D01*
X33220D01*
Y22970D02*
Y23130D01*
X33380D01*
Y22970D01*
X33220D01*
Y21970D02*
Y22130D01*
X33380D01*
Y21970D01*
X33220D01*
Y20970D02*
Y21130D01*
X33380D01*
Y20970D01*
X33220D01*
Y19970D02*
Y20130D01*
X33380D01*
Y19970D01*
X33220D01*
X27020Y9870D02*
Y10030D01*
X27180D01*
Y9870D01*
X27020D01*
X28020D02*
Y10030D01*
X28180D01*
Y9870D01*
X28020D01*
X29020D02*
Y10030D01*
X29180D01*
Y9870D01*
X29020D01*
X30020D02*
Y10030D01*
X30180D01*
Y9870D01*
X30020D01*
X31020D02*
Y10030D01*
X31180D01*
Y9870D01*
X31020D01*
X32020D02*
Y10030D01*
X32180D01*
Y9870D01*
X32020D01*
X12020Y5420D02*
Y5580D01*
X12180D01*
Y5420D01*
X12020D01*
X11020D02*
Y5580D01*
X11180D01*
Y5420D01*
X11020D01*
X10020D02*
Y5580D01*
X10180D01*
Y5420D01*
X10020D01*
X9020D02*
Y5580D01*
X9180D01*
Y5420D01*
X9020D01*
X2200Y24020D02*
X2120Y24180D01*
X2280D01*
X2200Y24020D01*
X3200D02*
X3120Y24180D01*
X3280D01*
X3200Y24020D01*
X4200D02*
X4120Y24180D01*
X4280D01*
X4200Y24020D01*
X5200D02*
X5120Y24180D01*
X5280D01*
X5200Y24020D01*
X6200D02*
X6120Y24180D01*
X6280D01*
X6200Y24020D01*
X7200D02*
X7120Y24180D01*
X7280D01*
X7200Y24020D01*
X8200D02*
X8120Y24180D01*
X8280D01*
X8200Y24020D01*
X9200D02*
X9120Y24180D01*
X9280D01*
X9200Y24020D01*
X10200D02*
X10120Y24180D01*
X10280D01*
X10200Y24020D01*
X11200D02*
X11120Y24180D01*
X11280D01*
X11200Y24020D01*
X12200D02*
X12120Y24180D01*
X12280D01*
X12200Y24020D01*
X13200D02*
X13120Y24180D01*
X13280D01*
X13200Y24020D01*
X14200D02*
X14120Y24180D01*
X14280D01*
X14200Y24020D01*
X15200D02*
X15120Y24180D01*
X15280D01*
X15200Y24020D01*
X16200D02*
X16120Y24180D01*
X16280D01*
X16200Y24020D01*
X17200D02*
X17120Y24180D01*
X17280D01*
X17200Y24020D01*
X18200D02*
X18120Y24180D01*
X18280D01*
X18200Y24020D01*
X19200D02*
X19120Y24180D01*
X19280D01*
X19200Y24020D01*
X20200D02*
X20120Y24180D01*
X20280D01*
X20200Y24020D01*
X21200D02*
X21120Y24180D01*
X21280D01*
X21200Y24020D01*
X22200D02*
X22120Y24180D01*
X22280D01*
X22200Y24020D01*
X23200D02*
X23120Y24180D01*
X23280D01*
X23200Y24020D01*
X24200D02*
X24120Y24180D01*
X24280D01*
X24200Y24020D01*
X25200D02*
X25120Y24180D01*
X25280D01*
X25200Y24020D01*
X8350Y1920D02*
X8270Y2080D01*
X8430D01*
X8350Y1920D01*
X9350D02*
X9270Y2080D01*
X9430D01*
X9350Y1920D01*
X10350D02*
X10270Y2080D01*
X10430D01*
X10350Y1920D01*
X11350D02*
X11270Y2080D01*
X11430D01*
X11350Y1920D01*
X12350D02*
X12270Y2080D01*
X12430D01*
X12350Y1920D01*
X13350D02*
X13270Y2080D01*
X13430D01*
X13350Y1920D01*
X14350D02*
X14270Y2080D01*
X14430D01*
X14350Y1920D01*
X15350D02*
X15270Y2080D01*
X15430D01*
X15350Y1920D01*
X16350D02*
X16270Y2080D01*
X16430D01*
X16350Y1920D01*
X17350D02*
X17270Y2080D01*
X17430D01*
X17350Y1920D01*
X18350D02*
X18270Y2080D01*
X18430D01*
X18350Y1920D01*
X19350D02*
X19270Y2080D01*
X19430D01*
X19350Y1920D01*
X20350D02*
X20270Y2080D01*
X20430D01*
X20350Y1920D01*
X21350D02*
X21270Y2080D01*
X21430D01*
X21350Y1920D01*
X22350D02*
X22270Y2080D01*
X22430D01*
X22350Y1920D01*
X23350D02*
X23270Y2080D01*
X23430D01*
X23350Y1920D01*
X24350D02*
X24270Y2080D01*
X24430D01*
X24350Y1920D01*
X25350D02*
X25270Y2080D01*
X25430D01*
X25350Y1920D01*
X26350D02*
X26270Y2080D01*
X26430D01*
X26350Y1920D01*
X27350D02*
X27270Y2080D01*
X27430D01*
X27350Y1920D01*
X28350D02*
X28270Y2080D01*
X28430D01*
X28350Y1920D01*
X29350D02*
X29270Y2080D01*
X29430D01*
X29350Y1920D01*
X30350D02*
X30270Y2080D01*
X30430D01*
X30350Y1920D01*
X31350D02*
X31270Y2080D01*
X31430D01*
X31350Y1920D01*
X37700Y19520D02*
X37740Y19560D01*
X37780D01*
X37740Y19600D01*
X37780Y19640D01*
X37740D01*
X37700Y19680D01*
X37660Y19640D01*
X37620D01*
X37660Y19600D01*
X37620Y19560D01*
X37660D01*
X37700Y19520D01*
Y20520D02*
X37740Y20560D01*
X37780D01*
X37740Y20600D01*
X37780Y20640D01*
X37740D01*
X37700Y20680D01*
X37660Y20640D01*
X37620D01*
X37660Y20600D01*
X37620Y20560D01*
X37660D01*
X37700Y20520D01*
Y21520D02*
X37740Y21560D01*
X37780D01*
X37740Y21600D01*
X37780Y21640D01*
X37740D01*
X37700Y21680D01*
X37660Y21640D01*
X37620D01*
X37660Y21600D01*
X37620Y21560D01*
X37660D01*
X37700Y21520D01*
Y22520D02*
X37740Y22560D01*
X37780D01*
X37740Y22600D01*
X37780Y22640D01*
X37740D01*
X37700Y22680D01*
X37660Y22640D01*
X37620D01*
X37660Y22600D01*
X37620Y22560D01*
X37660D01*
X37700Y22520D01*
Y23520D02*
X37740Y23560D01*
X37780D01*
X37740Y23600D01*
X37780Y23640D01*
X37740D01*
X37700Y23680D01*
X37660Y23640D01*
X37620D01*
X37660Y23600D01*
X37620Y23560D01*
X37660D01*
X37700Y23520D01*
X35770Y2270D02*
X35810Y2350D01*
X35770Y2430D01*
X35850Y2390D01*
X35930Y2430D01*
X35890Y2350D01*
X35930Y2270D01*
X35850Y2310D01*
X35770Y2270D01*
X37770Y2270D02*
X37810Y2350D01*
X37770Y2430D01*
X37850Y2390D01*
X37930Y2430D01*
X37890Y2350D01*
X37930Y2270D01*
X37850Y2310D01*
X37770Y2270D01*
X1739Y6214D02*
Y6174D01*
X1819D01*
Y6214D01*
X1859D01*
Y6294D01*
X1819D01*
Y6334D01*
X1739D01*
Y6294D01*
X1699D01*
Y6214D01*
X1739D01*
Y9616D02*
Y9576D01*
X1819D01*
Y9616D01*
X1859D01*
Y9696D01*
X1819D01*
Y9736D01*
X1739D01*
Y9696D01*
X1699D01*
Y9616D01*
X1739D01*
X3345Y6174D02*
X3385D01*
X3425Y6214D01*
X3465Y6174D01*
X3505D01*
Y6214D01*
X3465Y6254D01*
X3505Y6294D01*
Y6334D01*
X3465D01*
X3425Y6294D01*
X3385Y6334D01*
X3345D01*
Y6294D01*
X3385Y6254D01*
X3345Y6214D01*
Y6174D01*
Y9576D02*
X3385D01*
X3425Y9616D01*
X3465Y9576D01*
X3505D01*
Y9616D01*
X3465Y9656D01*
X3505Y9696D01*
Y9736D01*
X3465D01*
X3425Y9696D01*
X3385Y9736D01*
X3345D01*
Y9696D01*
X3385Y9656D01*
X3345Y9616D01*
Y9576D01*
X1908Y6782D02*
X1988Y6862D01*
X2068Y6782D01*
X1988Y6702D01*
X1908Y6782D01*
Y9128D02*
X1988Y9208D01*
X2068Y9128D01*
X1988Y9048D01*
X1908Y9128D01*
X37648Y8447D02*
Y8407D01*
X37728D01*
Y8447D01*
X37768D01*
Y8527D01*
X37728D01*
Y8567D01*
X37648D01*
Y8527D01*
X37608D01*
Y8447D01*
X37648D01*
Y5045D02*
Y5005D01*
X37728D01*
Y5045D01*
X37768D01*
Y5125D01*
X37728D01*
Y5165D01*
X37648D01*
Y5125D01*
X37608D01*
Y5045D01*
X37648D01*
X35962Y8407D02*
X36002D01*
X36042Y8447D01*
X36082Y8407D01*
X36122D01*
Y8447D01*
X36082Y8487D01*
X36122Y8527D01*
Y8567D01*
X36082D01*
X36042Y8527D01*
X36002Y8567D01*
X35962D01*
Y8527D01*
X36002Y8487D01*
X35962Y8447D01*
Y8407D01*
Y5005D02*
X36002D01*
X36042Y5045D01*
X36082Y5005D01*
X36122D01*
Y5045D01*
X36082Y5085D01*
X36122Y5125D01*
Y5165D01*
X36082D01*
X36042Y5125D01*
X36002Y5165D01*
X35962D01*
Y5125D01*
X36002Y5085D01*
X35962Y5045D01*
Y5005D01*
X37399Y7959D02*
X37479Y8039D01*
X37559Y7959D01*
X37479Y7879D01*
X37399Y7959D01*
Y5613D02*
X37479Y5693D01*
X37559Y5613D01*
X37479Y5533D01*
X37399Y5613D01*
X29420Y16705D02*
Y16865D01*
X29580D01*
Y16705D01*
X29420D01*
X29460Y16745D02*
Y16825D01*
X29540D01*
Y16745D01*
X29460D01*
X29420Y17335D02*
Y17495D01*
X29580D01*
Y17335D01*
X29420D01*
X29460Y17375D02*
Y17455D01*
X29540D01*
Y17375D01*
X29460D01*
D88*
X38014Y15013D02*
G03*
X38014Y15013I-80J0D01*
G01*
X37030D02*
G03*
X37030Y15013I-80J0D01*
G01*
X36046D02*
G03*
X36046Y15013I-80J0D01*
G01*
X38014Y12887D02*
G03*
X38014Y12887I-80J0D01*
G01*
X37030D02*
G03*
X37030Y12887I-80J0D01*
G01*
X36046D02*
G03*
X36046Y12887I-80J0D01*
G01*
X3314Y14763D02*
G03*
X3314Y14763I-80J0D01*
G01*
X2330D02*
G03*
X2330Y14763I-80J0D01*
G01*
X1346D02*
G03*
X1346Y14763I-80J0D01*
G01*
X3314Y12637D02*
G03*
X3314Y12637I-80J0D01*
G01*
X2330D02*
G03*
X2330Y12637I-80J0D01*
G01*
X1346D02*
G03*
X1346Y12637I-80J0D01*
G01*
X12230Y19550D02*
G03*
X12230Y19550I-80J0D01*
G01*
X13380Y11750D02*
G03*
X13380Y11750I-80J0D01*
G01*
X20430Y12500D02*
G03*
X20430Y12500I-80J0D01*
G01*
X20780Y12800D02*
G03*
X20780Y12800I-80J0D01*
G01*
X19480Y11050D02*
G03*
X19480Y11050I-80J0D01*
G01*
X15430Y16400D02*
G03*
X15430Y16400I-80J0D01*
G01*
X14380Y16750D02*
G03*
X14380Y16750I-80J0D01*
G01*
X32724Y7435D02*
G03*
X32724Y7435I-80J0D01*
G01*
X13130Y20500D02*
G03*
X13130Y20500I-80J0D01*
G01*
X23180Y15400D02*
G03*
X23180Y15400I-80J0D01*
G01*
X13980Y15727D02*
G03*
X13980Y15727I-80J0D01*
G01*
X14830Y18650D02*
G03*
X14830Y18650I-80J0D01*
G01*
X19730Y14710D02*
G03*
X19730Y14710I-80J0D01*
G01*
X25530Y15500D02*
G03*
X25530Y15500I-80J0D01*
G01*
X24380Y11950D02*
G03*
X24380Y11950I-80J0D01*
G01*
X31680Y6900D02*
G03*
X31680Y6900I-80J0D01*
G01*
X23980D02*
G03*
X23980Y6900I-80J0D01*
G01*
X28780Y12050D02*
G03*
X28780Y12050I-80J0D01*
G01*
X25530Y10450D02*
G03*
X25530Y10450I-80J0D01*
G01*
X28630Y3800D02*
G03*
X28630Y3800I-80J0D01*
G01*
X28230Y4250D02*
G03*
X28230Y4250I-80J0D01*
G01*
X29830Y5650D02*
G03*
X29830Y5650I-80J0D01*
G01*
X30180Y5200D02*
G03*
X30180Y5200I-80J0D01*
G01*
X34030Y9500D02*
G03*
X34030Y9500I-80J0D01*
G01*
X25180Y12000D02*
G03*
X25180Y12000I-80J0D01*
G01*
X23130Y7400D02*
G03*
X23130Y7400I-80J0D01*
G01*
X35580Y7650D02*
G03*
X35580Y7650I-80J0D01*
G01*
X35530Y7100D02*
G03*
X35530Y7100I-80J0D01*
G01*
X35560Y6520D02*
G03*
X35560Y6520I-80J0D01*
G01*
X36630Y8100D02*
G03*
X36630Y8100I-80J0D01*
G01*
X36980Y8700D02*
G03*
X36980Y8700I-80J0D01*
G01*
X686Y7856D02*
G03*
X686Y7856I-80J0D01*
G01*
X680Y8250D02*
G03*
X680Y8250I-80J0D01*
G01*
X23480Y10100D02*
G03*
X23480Y10100I-80J0D01*
G01*
X28380Y13150D02*
G03*
X28380Y13150I-80J0D01*
G01*
X22580Y9900D02*
G03*
X22580Y9900I-80J0D01*
G01*
X21580Y12550D02*
G03*
X21580Y12550I-80J0D01*
G01*
X21530Y5550D02*
G03*
X21530Y5550I-80J0D01*
G01*
X18980Y10100D02*
G03*
X18980Y10100I-80J0D01*
G01*
X5430Y20100D02*
G03*
X5430Y20100I-80J0D01*
G01*
X6680Y19250D02*
G03*
X6680Y19250I-80J0D01*
G01*
X38530Y9450D02*
G03*
X38530Y9450I-80J0D01*
G01*
X24330Y13550D02*
G03*
X24330Y13550I-80J0D01*
G01*
X24580Y14000D02*
G03*
X24580Y14000I-80J0D01*
G01*
X24780Y14450D02*
G03*
X24780Y14450I-80J0D01*
G01*
X25080Y14900D02*
G03*
X25080Y14900I-80J0D01*
G01*
X21326Y13546D02*
G03*
X21326Y13546I-80J0D01*
G01*
X20330Y13100D02*
G03*
X20330Y13100I-80J0D01*
G01*
X21088Y13142D02*
G03*
X21088Y13142I-80J0D01*
G01*
X21483Y14100D02*
G03*
X21483Y14100I-80J0D01*
G01*
X19180Y12700D02*
G03*
X19180Y12700I-80J0D01*
G01*
X21536Y11300D02*
G03*
X21536Y11300I-80J0D01*
G01*
X22480Y12700D02*
G03*
X22480Y12700I-80J0D01*
G01*
X22030Y12900D02*
G03*
X22030Y12900I-80J0D01*
G01*
X9630Y16150D02*
G03*
X9630Y16150I-80J0D01*
G01*
X12980Y15850D02*
G03*
X12980Y15850I-80J0D01*
G01*
X9880Y18850D02*
G03*
X9880Y18850I-80J0D01*
G01*
X9887Y20300D02*
G03*
X9887Y20300I-80J0D01*
G01*
X8030Y16850D02*
G03*
X8030Y16850I-80J0D01*
G01*
X8330Y20750D02*
G03*
X8330Y20750I-80J0D01*
G01*
X7580Y19300D02*
G03*
X7580Y19300I-80J0D01*
G01*
X13505Y17670D02*
G03*
X13505Y17670I-80J0D01*
G01*
X33615Y4926D02*
G03*
X33615Y4926I-80J0D01*
G01*
X27080Y13700D02*
G03*
X27080Y13700I-80J0D01*
G01*
X29280Y14650D02*
G03*
X29280Y14650I-80J0D01*
G01*
X23080Y9650D02*
G03*
X23080Y9650I-80J0D01*
G01*
X3730Y20750D02*
G03*
X3730Y20750I-80J0D01*
G01*
X4230Y17050D02*
G03*
X4230Y17050I-80J0D01*
G01*
X1305Y10256D02*
G03*
X1305Y10256I-80J0D01*
G01*
X955Y6956D02*
G03*
X955Y6956I-80J0D01*
G01*
X38723Y5984D02*
G03*
X38723Y5984I-80J0D01*
G01*
X15230Y13150D02*
G03*
X15230Y13150I-80J0D01*
G01*
X21850Y9390D02*
G03*
X21850Y9390I-80J0D01*
G01*
X18175Y11510D02*
G03*
X18175Y11510I-80J0D01*
G01*
X21625Y8860D02*
G03*
X21625Y8860I-80J0D01*
G01*
X14505Y7890D02*
G03*
X14505Y7890I-80J0D01*
G01*
X6780Y7249D02*
G03*
X6780Y7249I-80J0D01*
G01*
X12230Y9200D02*
G03*
X12230Y9200I-80J0D01*
G01*
X22330Y4000D02*
G03*
X22330Y4000I-80J0D01*
G01*
X18530Y13450D02*
G03*
X18530Y13450I-80J0D01*
G01*
X21980D02*
G03*
X21980Y13450I-80J0D01*
G01*
X18780Y12700D02*
G03*
X18780Y12700I-80J0D01*
G01*
X2180Y21600D02*
G03*
X2180Y21600I-80J0D01*
G01*
X29480Y12050D02*
G03*
X29480Y12050I-80J0D01*
G01*
X13330Y12250D02*
G03*
X13330Y12250I-80J0D01*
G01*
X24930Y5450D02*
G03*
X24930Y5450I-80J0D01*
G01*
X32725Y6436D02*
G03*
X32725Y6436I-80J0D01*
G01*
X13880Y17100D02*
G03*
X13880Y17100I-80J0D01*
G01*
X11730Y11800D02*
G03*
X11730Y11800I-80J0D01*
G01*
X11630Y14400D02*
G03*
X11630Y14400I-80J0D01*
G01*
X7430Y13700D02*
G03*
X7430Y13700I-80J0D01*
G01*
X6730Y12650D02*
G03*
X6730Y12650I-80J0D01*
G01*
X5630Y9150D02*
G03*
X5630Y9150I-80J0D01*
G01*
X6079Y1151D02*
G03*
X6079Y1151I-80J0D01*
G01*
X4480Y1800D02*
G03*
X4480Y1800I-80J0D01*
G01*
X1580D02*
G03*
X1580Y1800I-80J0D01*
G01*
X20880Y4750D02*
G03*
X20880Y4750I-80J0D01*
G01*
X26280Y4700D02*
G03*
X26280Y4700I-80J0D01*
G01*
X7430Y4400D02*
G03*
X7430Y4400I-80J0D01*
G01*
X2130Y17050D02*
G03*
X2130Y17050I-80J0D01*
G01*
X8080Y11850D02*
G03*
X8080Y11850I-80J0D01*
G01*
X9430Y14400D02*
G03*
X9430Y14400I-80J0D01*
G01*
X9480Y9100D02*
G03*
X9480Y9100I-80J0D01*
G01*
X9530Y11800D02*
G03*
X9530Y11800I-80J0D01*
G01*
X13280Y10750D02*
G03*
X13280Y10750I-80J0D01*
G01*
X16330Y12750D02*
G03*
X16330Y12750I-80J0D01*
G01*
X16280Y17800D02*
G03*
X16280Y17800I-80J0D01*
G01*
X5433Y18403D02*
G03*
X5433Y18403I-80J0D01*
G01*
D89*
X12190Y19550D02*
G03*
X12190Y19550I-40J0D01*
G01*
X13340Y11750D02*
G03*
X13340Y11750I-40J0D01*
G01*
X20390Y12500D02*
G03*
X20390Y12500I-40J0D01*
G01*
X20740Y12800D02*
G03*
X20740Y12800I-40J0D01*
G01*
X19440Y11050D02*
G03*
X19440Y11050I-40J0D01*
G01*
X15390Y16400D02*
G03*
X15390Y16400I-40J0D01*
G01*
X14340Y16750D02*
G03*
X14340Y16750I-40J0D01*
G01*
X32684Y7435D02*
G03*
X32684Y7435I-40J0D01*
G01*
X13090Y20500D02*
G03*
X13090Y20500I-40J0D01*
G01*
X23140Y15400D02*
G03*
X23140Y15400I-40J0D01*
G01*
X13940Y15727D02*
G03*
X13940Y15727I-40J0D01*
G01*
X14790Y18650D02*
G03*
X14790Y18650I-40J0D01*
G01*
X19690Y14710D02*
G03*
X19690Y14710I-40J0D01*
G01*
X25490Y15500D02*
G03*
X25490Y15500I-40J0D01*
G01*
X24340Y11950D02*
G03*
X24340Y11950I-40J0D01*
G01*
X31640Y6900D02*
G03*
X31640Y6900I-40J0D01*
G01*
X23940D02*
G03*
X23940Y6900I-40J0D01*
G01*
X28740Y12050D02*
G03*
X28740Y12050I-40J0D01*
G01*
X25490Y10450D02*
G03*
X25490Y10450I-40J0D01*
G01*
X28590Y3800D02*
G03*
X28590Y3800I-40J0D01*
G01*
X28190Y4250D02*
G03*
X28190Y4250I-40J0D01*
G01*
X29790Y5650D02*
G03*
X29790Y5650I-40J0D01*
G01*
X30140Y5200D02*
G03*
X30140Y5200I-40J0D01*
G01*
X33990Y9500D02*
G03*
X33990Y9500I-40J0D01*
G01*
X25140Y12000D02*
G03*
X25140Y12000I-40J0D01*
G01*
X23090Y7400D02*
G03*
X23090Y7400I-40J0D01*
G01*
X35540Y7650D02*
G03*
X35540Y7650I-40J0D01*
G01*
X35490Y7100D02*
G03*
X35490Y7100I-40J0D01*
G01*
X35520Y6520D02*
G03*
X35520Y6520I-40J0D01*
G01*
X36590Y8100D02*
G03*
X36590Y8100I-40J0D01*
G01*
X36940Y8700D02*
G03*
X36940Y8700I-40J0D01*
G01*
X646Y7856D02*
G03*
X646Y7856I-40J0D01*
G01*
X640Y8250D02*
G03*
X640Y8250I-40J0D01*
G01*
X23440Y10100D02*
G03*
X23440Y10100I-40J0D01*
G01*
X28340Y13150D02*
G03*
X28340Y13150I-40J0D01*
G01*
X22540Y9900D02*
G03*
X22540Y9900I-40J0D01*
G01*
X21540Y12550D02*
G03*
X21540Y12550I-40J0D01*
G01*
X21490Y5550D02*
G03*
X21490Y5550I-40J0D01*
G01*
X18940Y10100D02*
G03*
X18940Y10100I-40J0D01*
G01*
X5390Y20100D02*
G03*
X5390Y20100I-40J0D01*
G01*
X6640Y19250D02*
G03*
X6640Y19250I-40J0D01*
G01*
X38490Y9450D02*
G03*
X38490Y9450I-40J0D01*
G01*
X24290Y13550D02*
G03*
X24290Y13550I-40J0D01*
G01*
X24540Y14000D02*
G03*
X24540Y14000I-40J0D01*
G01*
X24740Y14450D02*
G03*
X24740Y14450I-40J0D01*
G01*
X25040Y14900D02*
G03*
X25040Y14900I-40J0D01*
G01*
X21286Y13546D02*
G03*
X21286Y13546I-40J0D01*
G01*
X20290Y13100D02*
G03*
X20290Y13100I-40J0D01*
G01*
X21047Y13142D02*
G03*
X21047Y13142I-40J0D01*
G01*
X21443Y14100D02*
G03*
X21443Y14100I-40J0D01*
G01*
X19140Y12700D02*
G03*
X19140Y12700I-40J0D01*
G01*
X21496Y11300D02*
G03*
X21496Y11300I-40J0D01*
G01*
X22440Y12700D02*
G03*
X22440Y12700I-40J0D01*
G01*
X21990Y12900D02*
G03*
X21990Y12900I-40J0D01*
G01*
X9590Y16150D02*
G03*
X9590Y16150I-40J0D01*
G01*
X12940Y15850D02*
G03*
X12940Y15850I-40J0D01*
G01*
X9840Y18850D02*
G03*
X9840Y18850I-40J0D01*
G01*
X9847Y20300D02*
G03*
X9847Y20300I-40J0D01*
G01*
X7990Y16850D02*
G03*
X7990Y16850I-40J0D01*
G01*
X8290Y20750D02*
G03*
X8290Y20750I-40J0D01*
G01*
X7540Y19300D02*
G03*
X7540Y19300I-40J0D01*
G01*
X13465Y17670D02*
G03*
X13465Y17670I-40J0D01*
G01*
X33575Y4926D02*
G03*
X33575Y4926I-40J0D01*
G01*
X27040Y13700D02*
G03*
X27040Y13700I-40J0D01*
G01*
X29240Y14650D02*
G03*
X29240Y14650I-40J0D01*
G01*
X23040Y9650D02*
G03*
X23040Y9650I-40J0D01*
G01*
X3690Y20750D02*
G03*
X3690Y20750I-40J0D01*
G01*
X4190Y17050D02*
G03*
X4190Y17050I-40J0D01*
G01*
X1265Y10256D02*
G03*
X1265Y10256I-40J0D01*
G01*
X915Y6956D02*
G03*
X915Y6956I-40J0D01*
G01*
X38683Y5984D02*
G03*
X38683Y5984I-40J0D01*
G01*
X15190Y13150D02*
G03*
X15190Y13150I-40J0D01*
G01*
X21810Y9390D02*
G03*
X21810Y9390I-40J0D01*
G01*
X18135Y11510D02*
G03*
X18135Y11510I-40J0D01*
G01*
X21585Y8860D02*
G03*
X21585Y8860I-40J0D01*
G01*
X14465Y7890D02*
G03*
X14465Y7890I-40J0D01*
G01*
X6740Y7249D02*
G03*
X6740Y7249I-40J0D01*
G01*
X12190Y9200D02*
G03*
X12190Y9200I-40J0D01*
G01*
X22290Y4000D02*
G03*
X22290Y4000I-40J0D01*
G01*
X18490Y13450D02*
G03*
X18490Y13450I-40J0D01*
G01*
X21940D02*
G03*
X21940Y13450I-40J0D01*
G01*
X18740Y12700D02*
G03*
X18740Y12700I-40J0D01*
G01*
X2140Y21600D02*
G03*
X2140Y21600I-40J0D01*
G01*
X29440Y12050D02*
G03*
X29440Y12050I-40J0D01*
G01*
X13290Y12250D02*
G03*
X13290Y12250I-40J0D01*
G01*
X24890Y5450D02*
G03*
X24890Y5450I-40J0D01*
G01*
X32685Y6436D02*
G03*
X32685Y6436I-40J0D01*
G01*
X13840Y17100D02*
G03*
X13840Y17100I-40J0D01*
G01*
X11690Y11800D02*
G03*
X11690Y11800I-40J0D01*
G01*
X11590Y14400D02*
G03*
X11590Y14400I-40J0D01*
G01*
X7390Y13700D02*
G03*
X7390Y13700I-40J0D01*
G01*
X6690Y12650D02*
G03*
X6690Y12650I-40J0D01*
G01*
X5590Y9150D02*
G03*
X5590Y9150I-40J0D01*
G01*
X6039Y1151D02*
G03*
X6039Y1151I-40J0D01*
G01*
X4440Y1800D02*
G03*
X4440Y1800I-40J0D01*
G01*
X1540D02*
G03*
X1540Y1800I-40J0D01*
G01*
X20840Y4750D02*
G03*
X20840Y4750I-40J0D01*
G01*
X26240Y4700D02*
G03*
X26240Y4700I-40J0D01*
G01*
X7390Y4400D02*
G03*
X7390Y4400I-40J0D01*
G01*
X2090Y17050D02*
G03*
X2090Y17050I-40J0D01*
G01*
X8040Y11850D02*
G03*
X8040Y11850I-40J0D01*
G01*
X9390Y14400D02*
G03*
X9390Y14400I-40J0D01*
G01*
X9440Y9100D02*
G03*
X9440Y9100I-40J0D01*
G01*
X9490Y11800D02*
G03*
X9490Y11800I-40J0D01*
G01*
X13240Y10750D02*
G03*
X13240Y10750I-40J0D01*
G01*
X16290Y12750D02*
G03*
X16290Y12750I-40J0D01*
G01*
X16240Y17800D02*
G03*
X16240Y17800I-40J0D01*
G01*
X5393Y18403D02*
G03*
X5393Y18403I-40J0D01*
G01*
M02*
